<svg width="39" height="39" viewBox="0 0 39 39" fill="none" xmlns="http://www.w3.org/2000/svg">
<path fill-rule="evenodd" clip-rule="evenodd" d="M36.4979 8.24949L18.2504 0L0.00125122 8.24949L1.1966 9.44484H35.3038L36.4979 8.24949ZM23.7161 15.1542C23.7161 14.4669 24.2806 13.9025 24.9762 13.9025H36.9794C37.665 13.9025 38.2295 14.4669 38.2295 15.1542V36.9778C38.2295 37.6651 37.665 38.2296 36.9794 38.2296L24.9762 38.2279C24.2806 38.2279 23.7161 37.6635 23.7161 36.9761V15.1542ZM30.9779 20.5634C33.7056 20.5634 35.9152 22.7731 35.9152 25.5007C35.9152 28.2301 33.7055 30.4381 30.9779 30.4381C28.2501 30.4381 26.0405 28.2284 26.0405 25.5007C26.0388 22.773 28.2502 20.5634 30.9779 20.5634ZM27.855 27.9747C28.2966 27.739 28.9657 27.4949 29.8489 27.2592C29.9701 27.1463 30.0465 26.9122 30.0929 26.5636C29.6414 26.2631 29.3309 25.7551 29.3309 25.1806V23.8641C29.3309 22.9709 30.073 22.2271 30.9762 22.2271C31.8793 22.2271 32.6131 22.9709 32.6131 23.8641V25.1806C32.6131 25.7551 32.3126 26.2631 31.8511 26.5636C31.8976 26.9122 31.9839 27.1463 32.1051 27.2592C32.9883 27.4949 33.6474 27.739 34.099 27.9747C34.6353 27.2891 34.954 26.4324 34.954 25.501C34.954 23.2996 33.1759 21.5132 30.9762 21.5132C28.7747 21.5132 26.9883 23.2996 26.9883 25.501C26.99 26.4324 27.3088 27.2891 27.855 27.9747ZM24.674 15.8037V35.2H37.2782L37.2799 15.8037H24.674ZM30.3105 37.1937C30.0466 37.1937 29.8307 36.9762 29.8307 36.7139C29.8307 36.4499 30.0466 36.2341 30.3105 36.2341H31.647C31.9093 36.2341 32.1168 36.4499 32.1168 36.7139C32.1168 36.9762 31.911 37.1937 31.647 37.1937H30.3105ZM0.838483 32.0952V33.4118H10.7434V32.0952H0.838483ZM10.7451 29.8274H2.11862V31.144H10.7451V29.8274ZM11.7047 29.8274H22.7665V33.4118H11.7047V29.8274ZM27.3936 11.4473H31.3449V12.9432H27.3936V11.4473ZM5.15695 11.4473H9.10825V27.8235H5.15695V11.4473ZM16.2753 11.4473H20.2266V27.8235H16.2753V11.4473Z" fill="#1DBBD8"/>
</svg>
