<!DOCTYPE svg PUBLIC "-//W3C//DTD SVG 1.1//EN" "http://www.w3.org/Graphics/SVG/1.1/DTD/svg11.dtd">

<svg version="1.1" id="Icons" xmlns="http://www.w3.org/2000/svg" xmlns:xlink="http://www.w3.org/1999/xlink" viewBox="0 0 32 32" xml:space="preserve" width="25px" height="50px" fill="#1EBBD7">

<g id="SVGRepo_bgCarrier" stroke-width="0"/>

<g id="SVGRepo_tracerCarrier" stroke-linecap="round" stroke-linejoin="round"/>

<g id="SVGRepo_iconCarrier"> <style type="text/css"> .st0{fill:none;stroke:#1EBBD7;stroke-width:2;stroke-linecap:round;stroke-linejoin:round;stroke-miterlimit:10;} </style> <path d="M24,16c-4.4,0-8,3.6-8,8s3.6,8,8,8s8-3.6,8-8S28.4,16,24,16z M27,25h-2v2c0,0.6-0.4,1-1,1s-1-0.4-1-1v-2h-2 c-0.6,0-1-0.4-1-1s0.4-1,1-1h2v-2c0-0.6,0.4-1,1-1s1,0.4,1,1v2h2c0.6,0,1,0.4,1,1S27.6,25,27,25z"/> <g> <path d="M27.5,9.1l-13-7c-0.3-0.2-0.7-0.2-0.9,0l-13,7C0.2,9.3,0,9.6,0,10v3c0,0.6,0.4,1,1,1h26c0.6,0,1-0.4,1-1v-3 C28,9.6,27.8,9.3,27.5,9.1z"/> <path d="M7,24c0.6,0,1-0.4,1-1v-7c0-0.6-0.4-1-1-1H5c-0.6,0-1,0.4-1,1v7c0,0.6,0.4,1,1,1H7z"/> <path d="M1,25c-0.6,0-1,0.4-1,1v3c0,0.6,0.4,1,1,1h15c-1.1-1.4-1.8-3.1-2-5H1z"/> <path d="M14,24c0-2.2,0.8-4.3,2-6v-2c0-0.6-0.4-1-1-1h-2c-0.6,0-1,0.4-1,1v7c0,0.6,0.4,1,1,1H14z"/> </g> </g>

</svg>