<svg xmlns="http://www.w3.org/2000/svg" width="40" height="34" fill="none" viewBox="0 0 21 26">
  <path fill="#0F98B0" d="M10.5 8.45V2.6H5.775c-.418 0-.818.206-1.114.571-.295.366-.46.862-.46 1.38v14.3c0 .516.165 1.012.46 1.378.296.366.696.571 1.114.571h3.892a8.798 8.798 0 0 1-.033-3.752c.259-1.232.778-2.356 1.505-3.256.727-.9 1.636-1.544 2.63-1.864a4.708 4.708 0 0 1 3.031.041V10.4h-4.725c-.418 0-.818-.205-1.114-.571-.295-.366-.46-.862-.46-1.379Zm-4.2-1.3c0-.172.055-.338.154-.46a.48.48 0 0 1 .371-.19h2.1a.48.48 0 0 1 .371.19.736.736 0 0 1 .154.46.736.736 0 0 1-.154.46.48.48 0 0 1-.37.19h-2.1a.48.48 0 0 1-.372-.19.736.736 0 0 1-.154-.46Zm.525 1.95h2.1a.48.48 0 0 1 .371.19.736.736 0 0 1 .154.46.736.736 0 0 1-.154.46.48.48 0 0 1-.37.19h-2.1a.48.48 0 0 1-.372-.19.736.736 0 0 1-.154-.46c0-.172.055-.338.154-.46a.48.48 0 0 1 .371-.19ZM6.3 12.35c0-.172.055-.338.154-.46a.48.48 0 0 1 .371-.19h2.1a.48.48 0 0 1 .371.19.736.736 0 0 1 .154.46.736.736 0 0 1-.154.46.48.48 0 0 1-.37.19h-2.1a.48.48 0 0 1-.372-.19.736.736 0 0 1-.154-.46Zm-.525 9.75h4.305c.192.465.424.901.69 1.3H5.775c-.975 0-1.91-.48-2.599-1.333-.689-.853-1.076-2.01-1.076-3.217v-1.3c0-.172.055-.338.154-.46a.48.48 0 0 1 .371-.19.48.48 0 0 1 .371.19.736.736 0 0 1 .154.46v1.3c0 .862.277 1.689.769 2.298.492.61 1.16.952 1.856.952ZM11.55 8.45V2.925L16.538 9.1h-4.463a.48.48 0 0 1-.371-.19.736.736 0 0 1-.154-.46Zm8.4 10.4c0 1.552-.498 3.04-1.384 4.137-.886 1.097-2.088 1.713-3.34 1.713-1.254 0-2.456-.616-3.342-1.713-.886-1.097-1.384-2.585-1.384-4.137 0-1.551.498-3.04 1.384-4.137C12.77 13.617 13.972 13 15.225 13c1.253 0 2.455.616 3.341 1.713.886 1.098 1.384 2.586 1.384 4.137Zm-4.2-2.6a.736.736 0 0 0-.154-.46.48.48 0 0 0-.37-.19.48.48 0 0 0-.372.19.736.736 0 0 0-.154.46v1.95h-1.575a.48.48 0 0 0-.371.19.736.736 0 0 0-.154.46c0 .172.055.338.154.46a.48.48 0 0 0 .371.19H14.7v1.95c0 .172.055.338.154.46a.48.48 0 0 0 .371.19.48.48 0 0 0 .371-.19.736.736 0 0 0 .154-.46V19.5h1.575a.48.48 0 0 0 .371-.19.736.736 0 0 0 .154-.46.736.736 0 0 0-.154-.46.48.48 0 0 0-.37-.19H15.75v-1.95Z"/>
</svg>
