<svg xmlns="http://www.w3.org/2000/svg" width="50" height="50" fill="none" viewBox="0 0 50 50">
  <circle cx="25" cy="25" r="25" fill="#F4F5F9"/>
  <path fill="#000" d="M17.08 25.12h15.84v1.76H17.08v-1.76Z"/>
  <path fill="#000" d="M24.12 18.08h1.76v15.84h-1.76V18.08Z"/>
  <path fill="#000" fill-rule="evenodd" d="M25 40.407a15.39 15.39 0 0 0 4.868-.784l-.375-1.125a14.216 14.216 0 0 1-4.494.724v1.185m7.182-1.771a15.465 15.465 0 0 0 3.936-2.968l-.854-.82a14.287 14.287 0 0 1-3.635 2.74l.553 1.048Zm5.523-4.915a15.348 15.348 0 0 0 2.106-4.46l-1.139-.326a14.152 14.152 0 0 1-1.944 4.114l.977.672Zm2.588-6.828a15.624 15.624 0 0 0-.187-4.944l-1.161.234a14.367 14.367 0 0 1 .173 4.566l1.177.145m-.875-7.335a15.371 15.371 0 0 0-2.46-4.273l-.919.748a14.252 14.252 0 0 1 2.27 3.943l1.109-.418Zm-4.194-6.084a15.394 15.394 0 0 0-4.163-2.641l-.467 1.089c1.404.6 2.701 1.425 3.843 2.439l.787-.887Zm-6.475-3.42a15.474 15.474 0 0 0-4.952-.414l.092 1.182a14.216 14.216 0 0 1 4.574.382l.287-1.15m-7.393-.026a15.313 15.313 0 0 0-4.542 1.919l.63 1.003a14.17 14.17 0 0 1 4.192-1.77l-.28-1.152Zm-6.539 3.41a15.51 15.51 0 0 0-3.132 3.808l1.024.597a14.282 14.282 0 0 1 2.893-3.515l-.785-.89Zm-4.194 6.017a15.352 15.352 0 0 0-1.012 4.826l1.184.054c.07-1.54.388-3.038.934-4.454l-1.106-.426Zm-.925 7.35a15.29 15.29 0 0 0 1.352 4.741l1.072-.504a14.124 14.124 0 0 1-1.247-4.375l-1.177.137m2.58 6.89a15.366 15.366 0 0 0 3.397 3.568l.719-.943a14.289 14.289 0 0 1-3.136-3.299l-.978.67m5.529 4.935a15.327 15.327 0 0 0 4.673 1.574l.192-1.17a14.112 14.112 0 0 1-4.312-1.452l-.553 1.048Zm7.133 1.779h.057V39.22h-.052l-.005 1.185Z" clip-rule="evenodd"/>
</svg>
