<svg xmlns="http://www.w3.org/2000/svg" width="80" height="80" fill="none" viewBox="0 0 80 80">
  <path fill="#0F98B0" d="M79.375 29.567v-3.695L39.985.625.626 25.871v3.695l2.11-1.354 1.153 1.724L.625 32.03v2.462h1.723v2.417H.625v2.464h3.701v2.56h.893v29.848h-.893v2.671H2.594v2.461H.625v2.461h78.75v-2.46h-1.969v-2.462h-1.732v-2.67h-.893v-29.85h.893v-2.56h3.701V36.91h-1.723v-2.417h1.723V32.03l-3.264-2.094 1.153-1.723 2.111 1.353ZM39.985 4.318l35.62 22.833-1.152 1.723L39.986 6.782l-34.44 22.09-1.153-1.723L39.986 4.32Zm32.72 27.713H7.295l32.69-21.586 32.72 21.586Zm-56.986 39.75v-2.25h4.594V67.07h11.91v-.728h.729V53.469c0-9.323 14.096-9.468 14.096 0v12.873h.73v.728h11.91v2.461h4.593v2.461H15.72v-.21Zm3.281-9.6v-15.75h9.188v15.75H19Zm32.813 0v-15.75H61v15.75h-9.188ZM6.53 41.932h7.875v29.85H6.531v-29.85Zm66.938 29.85h-7.875v-29.85h7.875v29.85Zm2.215-34.873H4.317v-2.417h71.367v2.417Z"/>
  <path fill="#0F98B0" d="M38.827 13.62v1.177c-2.018.464-3.52 2.061-3.52 3.979 0 2.273 2.106 4.123 4.692 4.123 1.292 0 2.345.926 2.345 2.062 0 1.138-1.053 2.064-2.345 2.064-1.293 0-2.346-.926-2.346-2.064h-2.345c0 1.918 1.501 3.517 3.519 3.979v1.177h2.345V28.94c2.017-.464 3.519-2.061 3.519-3.979 0-2.273-2.105-4.123-4.691-4.123-1.293 0-2.346-.925-2.346-2.062 0-1.138 1.053-2.064 2.346-2.064 1.293 0 2.345.926 2.345 2.064h2.346c0-1.918-1.502-3.517-3.519-3.979V13.62h-2.345ZM7.317 43.13h.93v27.536h-.93V43.13Zm5.372 0h.93v27.536h-.93V43.13Zm-1.79 0h.928v27.536H10.9V43.13Zm-1.79 0h.928v27.536h-.928V43.13Zm57.27 0h.93v27.536h-.93V43.13Zm5.373 0h.93v27.536h-.93V43.13Zm-1.79 0h.928v27.536h-.928V43.13Zm-1.79 0h.927v27.536h-.928V43.13Zm-34.19 10.885v12.328h12.033V54.015c0-8.808-12.033-8.674-12.033 0Zm5.433-4.978v4.793H35.37c.16-2.886 2.017-4.494 4.045-4.793Zm.001 15.834H35.36v-4h4.057v4Zm0-5.722H35.36V55.15h4.057v4Zm5.41 5.722H40.77v-4h4.058v4Zm.63-8.038v3.4h-1.7v-3.4h1.7Zm-.63-.328H43.43v2.644h-2.66V55.15h4.059l-.002 1.355ZM40.77 53.83v-4.803c2.03.279 3.888 1.872 4.045 4.803H40.77Z"/>
</svg>
