<svg xmlns="http://www.w3.org/2000/svg" width="31" height="31" fill="none" viewBox="0 0 31 31">
  <circle cx="15.5" cy="15.5" r="15.5" fill="#F0F0F0"/>
  <path fill="#000" d="M20.333 18.963v-5.187c-.416.1-.833.2-1.25.2h-.416v5.985h-8.334v-6.983c0-2.793 1.834-4.988 4.167-4.988.083-1.297.583-2.394 1.25-3.292A1.541 1.541 0 0 0 14.5 4c-.917 0-1.667.898-1.667 1.995v.3c-2.5.897-4.166 3.59-4.166 6.683v5.986L7 20.959v.997h15v-.997l-1.667-1.995Zm-7.5 3.99c0 1.098.75 1.996 1.667 1.996s1.667-.898 1.667-1.995h-3.334ZM22 8.49c0 1.895-1.333 3.491-2.917 3.491-1.583 0-2.916-1.596-2.916-3.49 0-1.896 1.333-3.492 2.916-3.492C20.667 4.998 22 6.594 22 8.489Z"/>
</svg>
