<svg width="20" height="25" viewBox="0 0 20 25" fill="none" xmlns="http://www.w3.org/2000/svg">
<path d="M9.83309 21.6377C7.22755 21.6377 4.62204 21.2239 2.15072 20.3964C1.2114 20.0721 0.495724 19.4124 0.182616 18.5513C-0.141674 17.6903 -0.0298497 16.7398 0.484542 15.8899L1.77052 13.7541C2.0389 13.3068 2.28491 12.4122 2.28491 11.8866V8.6549C2.28491 4.49504 5.67319 1.10677 9.83309 1.10677C13.9929 1.10677 17.3812 4.49504 17.3812 8.6549V11.8866C17.3812 12.401 17.6272 13.3068 17.8956 13.7653L19.1704 15.8899C19.6513 16.695 19.7407 17.6679 19.4164 18.5513C19.0921 19.4347 18.3876 20.1057 17.5042 20.3964C15.0441 21.2239 12.4386 21.6377 9.83309 21.6377ZM9.83309 2.78413C6.60133 2.78413 3.96228 5.412 3.96228 8.6549V11.8866C3.96228 12.7029 3.6268 13.9106 3.21305 14.6151L1.92708 16.751C1.68106 17.1647 1.61397 17.6008 1.75934 17.9698C1.89353 18.35 2.229 18.6408 2.68748 18.7973C7.36173 20.3629 12.3156 20.3629 16.9898 18.7973C17.3924 18.6632 17.7055 18.3612 17.8509 17.9587C17.9963 17.5561 17.9627 17.12 17.7391 16.751L16.4531 14.6151C16.0281 13.8883 15.7039 12.6917 15.7039 11.8754V8.6549C15.7039 5.412 13.076 2.78413 9.83309 2.78413Z" fill="black"/>
<path d="M11.9127 3.08635C11.8344 3.08635 11.7561 3.07517 11.6779 3.0528C11.3536 2.96334 11.0405 2.89625 10.7385 2.85152C9.78803 2.72851 8.87107 2.79561 8.01002 3.0528C7.69691 3.15344 7.36147 3.0528 7.14901 2.81797C6.93654 2.58314 6.86945 2.24767 6.99246 1.94574C7.45093 0.771588 8.56914 0 9.84394 0C11.1187 0 12.237 0.760405 12.6955 1.94574C12.8073 2.24767 12.7514 2.58314 12.5389 2.81797C12.3712 2.99689 12.1363 3.08635 11.9127 3.08635Z" fill="black"/>
<path d="M9.83266 24.1875C8.7256 24.1875 7.65209 23.7402 6.86935 22.9574C6.08658 22.1747 5.63928 21.1011 5.63928 19.9941H7.31665C7.31665 20.6538 7.58499 21.3024 8.05465 21.7721C8.52431 22.2417 9.1729 22.5101 9.83266 22.5101C11.2193 22.5101 12.3487 21.3807 12.3487 19.9941H14.0261C14.0261 22.3088 12.1474 24.1875 9.83266 24.1875Z" fill="black"/>
</svg>
