<svg width="31" height="42" viewBox="0 0 31 42" fill="none" xmlns="http://www.w3.org/2000/svg">
<path d="M17.0632 17.8522C21.9929 17.8522 25.9893 13.8559 25.9893 8.9261C25.9893 3.99635 21.9929 0 17.0632 0C12.1334 0 8.13708 3.99635 8.13708 8.9261C8.13708 13.8559 12.1334 17.8522 17.0632 17.8522Z" fill="#1DBBD8"/>
<path d="M16.8659 19.1837C11.1947 19.2824 6.41107 22.981 4.63571 28.0605C5.07955 27.9619 5.52339 27.9619 5.96723 27.9619C10.4056 27.9619 14.0057 31.5619 14.055 36.0003L27.5674 35.951V36.0003H30.2304V32.4989C30.2798 25.1016 24.214 19.0358 16.8659 19.1837Z" fill="#1DBBD8"/>
<path d="M5.9672 30.0331C5.27679 30.0331 4.63568 30.1318 4.0439 30.3783C1.67676 31.1674 3.05176e-05 33.3866 3.05176e-05 36.0003C3.05176e-05 39.3045 2.66307 41.9675 5.9672 41.9675C9.27134 41.9675 11.9344 39.3045 11.9344 36.0003C11.9344 32.6962 9.27134 30.0331 5.9672 30.0331ZM8.77818 36.6907H6.65762V38.8113C6.65762 39.2058 6.36173 39.5017 5.9672 39.5017C5.57268 39.5017 5.27679 39.2058 5.27679 38.8113V36.6907H3.15622C2.7617 36.6907 2.4658 36.3948 2.4658 36.0003C2.4658 35.6058 2.81101 35.3099 3.15622 35.3099H3.89595H5.27679V33.1893C5.27679 32.7948 5.57268 32.4989 5.9672 32.4989C6.36173 32.4989 6.65762 32.7948 6.65762 33.1893V35.3099H8.77818C9.17271 35.3099 9.4686 35.6058 9.4686 36.0003C9.51792 36.3948 9.17271 36.6907 8.77818 36.6907Z" fill="#1DBBD8"/>
</svg>
