<svg xmlns="http://www.w3.org/2000/svg" width="405" height="202" fill="none" viewBox="0 0 405 202">
  <g filter="url(#a)">
    <rect width="365" height="191" x="4" y="2" fill="url(#b)" rx="20"/>
    <path fill="#FFD54F" d="M108.933 69.568v-2.983h-16.4c-1.503 0-2.733-1.343-2.733-2.983 0-1.641 1.23-2.984 2.733-2.984H93.9v-2.983h-1.367c-3.006 0-5.466 2.685-5.466 5.967 0 3.281 2.46 5.966 5.466 5.966h4.1v8.95h-4.1c-3.826 0-6.833 3.281-6.833 7.458 0 4.176 3.007 7.458 6.833 7.458h2.734v-2.983h-2.734c-2.323 0-4.1-1.94-4.1-4.475 0-2.536 1.777-4.475 4.1-4.475h16.4v-2.983h-9.566v-8.95h9.566ZM73.4 78.518h-4.1v-8.95h4.1c3.007 0 5.467-2.685 5.467-5.966 0-3.282-2.46-5.967-5.467-5.967h-4.1v2.983h4.1c1.503 0 2.733 1.343 2.733 2.984 0 1.64-1.23 2.983-2.733 2.983H57v2.983h9.567v8.95H57V81.5h16.4c2.323 0 4.1 1.94 4.1 4.475 0 2.536-1.777 4.475-4.1 4.475h-2.733v2.983H73.4c3.827 0 6.833-3.282 6.833-7.458 0-4.177-3.006-7.458-6.833-7.458Z"/>
    <path stroke="#fff" stroke-opacity=".5" d="M341 1C185.399 20.98 192.46 56.454 146 193"/>
    <path fill="#fff" d="m33.905 138.273 2.59 7.346h.103l2.591-7.346h1.108L37.093 147h-1.091l-3.205-8.727h1.108Zm7.86 8.727h-1.109l3.205-8.727h1.09L48.157 147h-1.108l-2.608-7.347h-.068L41.764 147Zm.408-3.409h4.466v.937h-4.466v-.937ZM50.016 147v-8.727h1.057v7.789h4.056V147h-5.113Zm8.307-8.727V147h-1.057v-8.727h1.057ZM63.635 147h-2.693v-8.727h2.812c.847 0 1.571.174 2.173.524a3.426 3.426 0 0 1 1.385 1.496c.321.647.482 1.423.482 2.326 0 .909-.162 1.692-.486 2.348a3.458 3.458 0 0 1-1.415 1.509c-.619.349-1.372.524-2.258.524Zm-1.637-.938h1.569c.721 0 1.32-.139 1.794-.417a2.578 2.578 0 0 0 1.06-1.189c.234-.514.35-1.126.35-1.837 0-.704-.115-1.311-.345-1.819a2.54 2.54 0 0 0-1.031-1.176c-.458-.276-1.027-.414-1.71-.414h-1.687v6.852ZM35.477 167v-8.727h5.233v.937h-4.176v2.949h3.784v.938h-3.784V167h-1.057Zm7.543 0v-8.727h2.949c.681 0 1.241.116 1.678.349.438.23.762.547.972.95.21.404.316.863.316 1.377s-.106.97-.316 1.368a2.22 2.22 0 0 1-.967.937c-.435.225-.99.337-1.666.337h-2.387v-.955h2.353c.465 0 .84-.068 1.125-.204.287-.137.494-.33.622-.58.13-.253.196-.554.196-.903 0-.35-.066-.655-.196-.916a1.333 1.333 0 0 0-.627-.605c-.287-.145-.666-.218-1.138-.218h-1.857V167H43.02Zm4.108-3.92 2.147 3.92h-1.227l-2.114-3.92h1.194Zm11.431-.444c0 .921-.166 1.716-.498 2.387-.333.67-.789 1.187-1.368 1.551-.58.364-1.242.545-1.986.545-.745 0-1.406-.181-1.986-.545-.58-.364-1.035-.881-1.368-1.551-.332-.671-.498-1.466-.498-2.387 0-.92.166-1.716.498-2.386.332-.67.788-1.188 1.368-1.551.58-.364 1.242-.546 1.986-.546s1.406.182 1.986.546c.58.363 1.035.881 1.367 1.551.333.67.5 1.466.5 2.386Zm-1.023 0c0-.755-.126-1.393-.379-1.913-.25-.52-.59-.913-1.018-1.18a2.642 2.642 0 0 0-1.432-.401c-.529 0-1.007.134-1.436.401-.426.267-.766.66-1.019 1.18-.25.52-.375 1.158-.375 1.913 0 .756.125 1.394.375 1.914.253.52.593.913 1.019 1.18.429.267.907.401 1.436.401.528 0 1.005-.134 1.432-.401.429-.267.768-.66 1.018-1.18.253-.52.38-1.158.38-1.914Zm3.3-4.363h1.261l2.966 7.244h.103l2.966-7.244h1.26V167h-.988v-6.631h-.085L65.592 167h-.955l-2.727-6.631h-.085V167h-.989v-8.727Zm26.236-1.065c-.877 0-1.63-.222-2.258-.666-.625-.448-1.107-1.092-1.444-1.934-.334-.845-.5-1.862-.5-3.052.003-1.19.172-2.202.505-3.036.338-.838.819-1.477 1.444-1.918.629-.44 1.38-.66 2.253-.66.874 0 1.625.22 2.253.66.629.441 1.11 1.08 1.444 1.918.337.838.506 1.85.506 3.036 0 1.193-.169 2.212-.506 3.058-.334.841-.815 1.484-1.444 1.928-.625.444-1.376.666-2.253.666Zm0-1.668c.682 0 1.22-.335 1.614-1.006.398-.675.597-1.668.597-2.978 0-.866-.09-1.594-.272-2.184-.181-.589-.437-1.033-.767-1.332a1.682 1.682 0 0 0-1.172-.452c-.678 0-1.214.337-1.609 1.012-.394.671-.593 1.656-.596 2.956-.004.87.083 1.602.26 2.195.182.593.438 1.04.768 1.342.33.298.723.447 1.177.447Zm10.35 1.609c-.791 0-1.495-.133-2.109-.399-.61-.267-1.09-.631-1.438-1.092a2.566 2.566 0 0 1-.511-1.582 2.623 2.623 0 0 1 .298-1.263c.202-.383.476-.703.82-.959a2.647 2.647 0 0 1 1.161-.495v-.075a2.308 2.308 0 0 1-1.363-.857 2.475 2.475 0 0 1-.512-1.561 2.483 2.483 0 0 1 .47-1.502c.315-.44.749-.787 1.299-1.039.55-.255 1.179-.383 1.886-.383.7 0 1.322.128 1.87.383.55.252.983.599 1.299 1.039.32.44.479.941.479 1.502 0 .59-.175 1.11-.527 1.561a2.302 2.302 0 0 1-1.348.857v.075c.427.071.81.236 1.151.495.344.256.618.576.82.959.206.384.309.805.309 1.263 0 .589-.174 1.116-.522 1.582-.348.461-.827.825-1.438 1.092-.607.266-1.305.399-2.093.399Zm0-1.523c.409 0 .764-.07 1.066-.208a1.66 1.66 0 0 0 .703-.597 1.61 1.61 0 0 0 .256-.884 1.65 1.65 0 0 0-.272-.921 1.779 1.779 0 0 0-.72-.634 2.254 2.254 0 0 0-1.032-.229 2.3 2.3 0 0 0-1.044.229 1.817 1.817 0 0 0-.725.634 1.61 1.61 0 0 0-.256.921c-.003.334.079.629.245.884.167.253.402.45.704.592.305.142.664.213 1.076.213Zm0-4.97c.334 0 .63-.068.885-.203a1.535 1.535 0 0 0 .842-1.4 1.56 1.56 0 0 0-.224-.821 1.436 1.436 0 0 0-.608-.548 1.945 1.945 0 0 0-.894-.197c-.345 0-.648.065-.911.197-.26.127-.462.31-.608.548a1.52 1.52 0 0 0-.207.821c-.004.316.067.594.213.836.149.238.353.426.612.564.263.135.563.203.9.203Zm10.78-5.076-3.516 13.061h-1.688l3.515-13.061h1.689Zm1.709 11.42v-1.428l3.787-3.712c.362-.366.664-.691.906-.975.241-.284.422-.559.543-.826.121-.266.181-.55.181-.852 0-.344-.078-.639-.234-.884a1.545 1.545 0 0 0-.645-.575 2.076 2.076 0 0 0-.932-.203 1.92 1.92 0 0 0-.943.224c-.27.145-.479.353-.628.623-.146.27-.219.591-.219.964h-1.88c0-.692.158-1.294.474-1.806a3.196 3.196 0 0 1 1.305-1.187c.558-.281 1.197-.421 1.918-.421.731 0 1.374.136 1.928.41.554.273.984.648 1.289 1.124.309.476.463 1.019.463 1.63 0 .408-.078.809-.234 1.204-.156.394-.431.831-.826 1.31-.39.479-.939 1.06-1.645 1.742l-1.881 1.912v.075h4.752V157h-7.479Zm13.731.149c-.767 0-1.448-.131-2.045-.394-.593-.263-1.062-.629-1.406-1.097a2.84 2.84 0 0 1-.549-1.625h2.003c.018.295.115.552.293.772.177.217.414.386.708.506.295.121.625.182.991.182.391 0 .737-.068 1.039-.203.302-.138.538-.33.708-.575a1.42 1.42 0 0 0 .251-.847 1.477 1.477 0 0 0-.256-.874 1.71 1.71 0 0 0-.756-.591c-.327-.142-.721-.213-1.183-.213h-.964v-1.523h.964c.38 0 .712-.066.996-.198a1.61 1.61 0 0 0 .677-.554c.163-.241.243-.52.239-.836a1.448 1.448 0 0 0-.207-.804 1.406 1.406 0 0 0-.592-.538 1.938 1.938 0 0 0-.889-.192c-.334 0-.643.06-.927.181a1.687 1.687 0 0 0-.687.517c-.174.22-.267.483-.277.788h-1.902c.014-.611.19-1.147.527-1.608a3.398 3.398 0 0 1 1.364-1.087c.568-.263 1.206-.394 1.912-.394.728 0 1.361.136 1.897.41.539.27.957.634 1.252 1.092.294.458.442.964.442 1.518.003.614-.178 1.129-.544 1.545-.362.415-.838.687-1.427.815v.085c.767.106 1.354.391 1.763.852.412.458.616 1.028.612 1.71 0 .611-.174 1.158-.522 1.641-.344.479-.82.856-1.427 1.129-.604.273-1.296.41-2.078.41Zm102.263-18.876 2.591 7.346h.102l2.591-7.346h1.108L229.093 147h-1.091l-3.205-8.727h1.108Zm7.859 8.727h-1.108l3.205-8.727h1.091l3.204 8.727h-1.108l-2.607-7.347h-.069L233.764 147Zm.409-3.409h4.466v.937h-4.466v-.937Zm7.843 3.409v-8.727h1.057v7.789h4.056V147h-5.113Zm8.307-8.727V147h-1.057v-8.727h1.057Zm5.312 8.727h-2.693v-8.727h2.812c.847 0 1.571.174 2.173.524a3.422 3.422 0 0 1 1.385 1.496c.321.647.482 1.423.482 2.326 0 .909-.162 1.692-.486 2.348a3.455 3.455 0 0 1-1.415 1.509c-.619.349-1.372.524-2.258.524Zm-1.637-.938h1.569c.721 0 1.319-.139 1.794-.417a2.58 2.58 0 0 0 1.061-1.189c.233-.514.349-1.126.349-1.837 0-.704-.115-1.311-.345-1.819a2.54 2.54 0 0 0-1.031-1.176c-.458-.276-1.027-.414-1.709-.414h-1.688v6.852Zm-26.307 13.148v-.937h6.545v.937h-2.744V167h-1.057v-7.79h-2.744Zm8.676 7.79v-8.727h1.057v3.886h4.654v-3.886h1.056V167h-1.056v-3.903h-4.654V167h-1.057Zm9.383 0v-8.727h2.949c.682 0 1.242.116 1.679.349.438.23.761.547.972.95.21.404.315.863.315 1.377s-.105.97-.315 1.368c-.211.397-.533.71-.968.937-.434.225-.99.337-1.666.337h-2.386v-.955h2.352c.466 0 .841-.068 1.125-.204.287-.137.494-.33.622-.58a1.94 1.94 0 0 0 .196-.903c0-.35-.065-.655-.196-.916a1.333 1.333 0 0 0-.626-.605c-.287-.145-.666-.218-1.138-.218h-1.858V167h-1.057Zm4.108-3.92 2.148 3.92h-1.227l-2.114-3.92h1.193Zm9.795-4.807h1.057v5.778c0 .597-.141 1.129-.422 1.598a2.954 2.954 0 0 1-1.18 1.104c-.509.267-1.105.4-1.79.4s-1.281-.133-1.79-.4a2.985 2.985 0 0 1-1.184-1.104 3.063 3.063 0 0 1-.418-1.598v-5.778h1.057v5.693c0 .426.094.805.281 1.138.188.329.455.589.801.78.35.187.767.281 1.253.281.486 0 .903-.094 1.253-.281.349-.191.616-.451.801-.78.187-.333.281-.712.281-1.138v-5.693Zm25.463-1.065c-.877 0-1.63-.222-2.258-.666-.625-.448-1.107-1.092-1.444-1.934-.334-.845-.501-1.862-.501-3.052.004-1.19.173-2.202.506-3.036.338-.838.819-1.477 1.444-1.918.628-.44 1.38-.66 2.253-.66.874 0 1.625.22 2.253.66.629.441 1.11 1.08 1.444 1.918.337.838.506 1.85.506 3.036 0 1.193-.169 2.212-.506 3.058-.334.841-.815 1.484-1.444 1.928-.625.444-1.376.666-2.253.666Zm0-1.668c.682 0 1.22-.335 1.614-1.006.398-.675.597-1.668.597-2.978 0-.866-.091-1.594-.272-2.184-.181-.589-.437-1.033-.767-1.332a1.682 1.682 0 0 0-1.172-.452c-.678 0-1.214.337-1.609 1.012-.394.671-.593 1.656-.596 2.956-.004.87.083 1.602.261 2.195.181.593.437 1.04.767 1.342.33.298.723.447 1.177.447Zm10.35 1.609c-.791 0-1.495-.133-2.109-.399-.611-.267-1.09-.631-1.438-1.092a2.56 2.56 0 0 1-.511-1.582 2.61 2.61 0 0 1 .298-1.263c.202-.383.476-.703.82-.959a2.647 2.647 0 0 1 1.161-.495v-.075a2.306 2.306 0 0 1-1.363-.857 2.475 2.475 0 0 1-.512-1.561 2.487 2.487 0 0 1 .469-1.502c.316-.44.749-.787 1.3-1.039.55-.255 1.179-.383 1.885-.383.7 0 1.323.128 1.87.383.551.252.984.599 1.3 1.039.319.44.479.941.479 1.502 0 .59-.175 1.11-.527 1.561a2.301 2.301 0 0 1-1.348.857v.075c.426.071.81.236 1.151.495.344.256.618.576.82.959.206.384.309.805.309 1.263 0 .589-.174 1.116-.522 1.582-.348.461-.827.825-1.438 1.092-.607.266-1.305.399-2.094.399Zm0-1.523c.409 0 .764-.07 1.066-.208.302-.142.536-.341.703-.597.167-.255.252-.55.256-.884a1.652 1.652 0 0 0-.272-.921 1.781 1.781 0 0 0-.719-.634 2.254 2.254 0 0 0-1.034-.229c-.39 0-.738.076-1.044.229a1.822 1.822 0 0 0-.724.634 1.618 1.618 0 0 0-.256.921 1.55 1.55 0 0 0 .245.884c.167.253.402.45.704.592.305.142.664.213 1.075.213Zm0-4.97c.334 0 .629-.068.885-.203a1.535 1.535 0 0 0 .841-1.4 1.56 1.56 0 0 0-.223-.821 1.436 1.436 0 0 0-.608-.548 1.943 1.943 0 0 0-.895-.197c-.344 0-.648.065-.91.197-.26.127-.462.31-.608.548a1.516 1.516 0 0 0-.207.821c-.004.316.067.594.213.836.149.238.353.426.612.564.263.135.563.203.9.203Zm10.78-5.076-3.516 13.061h-1.688l3.515-13.061h1.689Zm1.709 11.42v-1.428l3.787-3.712c.362-.366.664-.691.906-.975.241-.284.422-.559.543-.826.121-.266.181-.55.181-.852 0-.344-.078-.639-.234-.884a1.545 1.545 0 0 0-.645-.575 2.076 2.076 0 0 0-.932-.203 1.92 1.92 0 0 0-.943.224c-.27.145-.479.353-.628.623-.146.27-.219.591-.219.964h-1.88c0-.692.158-1.294.474-1.806a3.196 3.196 0 0 1 1.305-1.187c.558-.281 1.197-.421 1.918-.421.731 0 1.374.136 1.928.41.554.273.984.648 1.289 1.124.309.476.463 1.019.463 1.63 0 .408-.078.809-.234 1.204-.156.394-.431.831-.826 1.31-.39.479-.939 1.06-1.646 1.742l-1.88 1.912v.075h4.752V157h-7.479Zm13.694.149c-.792 0-1.495-.133-2.109-.399-.611-.267-1.09-.631-1.438-1.092a2.567 2.567 0 0 1-.512-1.582 2.633 2.633 0 0 1 .298-1.263c.203-.383.476-.703.821-.959a2.647 2.647 0 0 1 1.161-.495v-.075a2.309 2.309 0 0 1-1.364-.857 2.475 2.475 0 0 1-.511-1.561 2.48 2.48 0 0 1 .469-1.502c.316-.44.749-.787 1.299-1.039.551-.255 1.179-.383 1.886-.383.7 0 1.323.128 1.87.383.55.252.983.599 1.3 1.039.319.44.479.941.479 1.502 0 .59-.176 1.11-.527 1.561a2.304 2.304 0 0 1-1.348.857v.075c.426.071.81.236 1.15.495.345.256.618.576.821.959.206.384.309.805.309 1.263 0 .589-.174 1.116-.522 1.582-.348.461-.828.825-1.438 1.092-.608.266-1.306.399-2.094.399Zm0-1.523c.408 0 .764-.07 1.065-.208.302-.142.537-.341.704-.597.166-.255.252-.55.255-.884a1.651 1.651 0 0 0-.271-.921 1.778 1.778 0 0 0-.72-.634 2.25 2.25 0 0 0-1.033-.229c-.391 0-.739.076-1.044.229a1.816 1.816 0 0 0-.724.634 1.61 1.61 0 0 0-.256.921c-.004.334.078.629.245.884.167.253.401.45.703.592.306.142.664.213 1.076.213Zm0-4.97c.334 0 .629-.068.884-.203a1.532 1.532 0 0 0 .842-1.4 1.56 1.56 0 0 0-.224-.821 1.434 1.434 0 0 0-.607-.548 1.946 1.946 0 0 0-.895-.197c-.344 0-.648.065-.911.197a1.44 1.44 0 0 0-.607.548 1.525 1.525 0 0 0-.208.821c-.003.316.068.594.213.836.149.238.354.426.613.564.263.135.563.203.9.203Z"/>
    <path fill="#FF5F00" d="M328.4 9.888h12.155v21.229H328.4V9.888Z"/>
    <path fill="#F79E1B" d="M356.955 20.503c0 7.463-6.212 13.502-13.891 13.502a14.059 14.059 0 0 1-8.567-2.888c3.241-2.476 5.287-6.301 5.287-10.614 0-4.314-2.084-8.14-5.287-10.615A14.06 14.06 0 0 1 343.064 7c7.679 0 13.891 6.076 13.891 13.503Z"/>
    <path fill="#EB001B" d="M329.172 20.503c0-4.314 2.084-8.14 5.286-10.615A14.057 14.057 0 0 0 325.892 7C318.213 7 312 13.04 312 20.503s6.213 13.502 13.892 13.502c3.241 0 6.212-1.088 8.566-2.888-3.202-2.438-5.286-6.301-5.286-10.614Z"/>
    <path fill="#fff" d="M295.943 45v-6.545h1.474v1.112h.077c.137-.375.362-.668.678-.878.315-.213.691-.32 1.129-.32.443 0 .817.108 1.121.324.307.213.522.504.647.874h.069c.144-.364.389-.654.733-.87.346-.218.757-.328 1.231-.328.602 0 1.094.19 1.475.571.38.381.571.936.571 1.666V45h-1.547v-4.155c0-.406-.108-.703-.324-.89a1.157 1.157 0 0 0-.793-.286c-.372 0-.663.117-.873.35-.208.23-.311.53-.311.899V45h-1.513v-4.219c0-.338-.103-.608-.307-.81-.202-.201-.466-.302-.793-.302a1.12 1.12 0 0 0-.605.17 1.188 1.188 0 0 0-.434.474 1.477 1.477 0 0 0-.162.707V45h-1.543Zm13.153.132c-.415 0-.788-.074-1.121-.221a1.83 1.83 0 0 1-.784-.665c-.19-.293-.285-.654-.285-1.083 0-.369.068-.674.204-.916.137-.241.323-.434.559-.58.235-.144.501-.254.796-.328.299-.076.607-.132.925-.166.384-.04.695-.075.933-.106.239-.034.412-.086.52-.154.111-.07.166-.18.166-.328v-.025c0-.321-.095-.57-.285-.746-.19-.176-.465-.264-.823-.264-.377 0-.677.082-.899.247-.218.165-.366.36-.443.584l-1.44-.205c.113-.398.301-.73.562-.997a2.45 2.45 0 0 1 .959-.605 3.67 3.67 0 0 1 1.253-.205c.315 0 .629.037.942.111.312.074.598.196.856.367.259.167.466.396.622.686.159.29.239.652.239 1.086V45h-1.483v-.9h-.051a1.896 1.896 0 0 1-.396.512c-.168.157-.38.283-.635.38a2.58 2.58 0 0 1-.891.14Zm.401-1.133c.309 0 .578-.062.805-.184.227-.125.402-.29.524-.494a1.26 1.26 0 0 0 .188-.669v-.771a.735.735 0 0 1-.247.11 3.536 3.536 0 0 1-.384.09c-.142.025-.283.048-.422.068l-.362.051c-.23.031-.436.083-.618.154-.182.07-.325.17-.43.298a.725.725 0 0 0-.158.486c0 .284.104.498.311.643.207.145.472.218.793.218Zm10.279-3.814-1.406.153a1.125 1.125 0 0 0-.209-.4 1.03 1.03 0 0 0-.392-.303 1.424 1.424 0 0 0-.605-.115c-.321 0-.591.07-.809.209-.216.139-.323.32-.32.54a.566.566 0 0 0 .209.465c.145.12.383.218.716.294l1.116.239c.619.134 1.08.345 1.381.635.304.29.457.669.46 1.138a1.779 1.779 0 0 1-.362 1.09c-.236.313-.564.557-.985.734-.42.176-.903.264-1.448.264-.802 0-1.446-.168-1.935-.503a2.021 2.021 0 0 1-.874-1.41l1.505-.145c.068.295.213.518.434.669.222.15.51.226.865.226.367 0 .661-.076.882-.226.225-.15.337-.337.337-.559a.58.58 0 0 0-.217-.464c-.142-.122-.364-.216-.665-.281l-1.116-.235c-.628-.13-1.093-.35-1.394-.66-.301-.313-.45-.708-.447-1.185a1.674 1.674 0 0 1 .328-1.048c.224-.299.535-.529.933-.69.401-.165.862-.248 1.385-.248.767 0 1.371.164 1.811.49.443.327.717.769.822 1.326Zm5.182-1.73v1.193h-3.763v-1.194h3.763Zm-2.834-1.569h1.542v6.145c0 .208.032.367.094.477a.506.506 0 0 0 .256.222c.105.04.221.06.349.06.097 0 .185-.007.264-.021.083-.015.145-.027.188-.039l.26 1.206a2.919 2.919 0 0 1-.908.154 2.517 2.517 0 0 1-1.044-.175 1.628 1.628 0 0 1-.737-.605c-.179-.273-.267-.614-.264-1.023v-6.4Zm7.451 8.242c-.656 0-1.223-.136-1.7-.41a2.763 2.763 0 0 1-1.095-1.167c-.256-.506-.384-1.1-.384-1.785 0-.674.128-1.265.384-1.773.258-.512.619-.91 1.082-1.193.463-.287 1.007-.43 1.632-.43.404 0 .784.065 1.142.195.361.128.679.327.955.597.278.27.497.614.656 1.031.159.415.239.91.239 1.483v.473h-5.365v-1.04h3.886a1.661 1.661 0 0 0-.192-.788 1.397 1.397 0 0 0-.524-.55 1.48 1.48 0 0 0-.776-.2c-.315 0-.592.077-.831.23-.238.15-.424.35-.558.597-.13.244-.197.512-.2.805v.908c0 .38.07.707.209.98.139.27.334.477.584.622.25.142.542.213.877.213.225 0 .428-.031.61-.094.182-.065.339-.16.473-.285.133-.125.234-.28.302-.465l1.441.162a2.26 2.26 0 0 1-.52.998c-.253.28-.577.5-.972.656a3.72 3.72 0 0 1-1.355.23Zm4.716-.128v-6.545h1.495v1.09h.069c.119-.377.323-.669.613-.873a1.691 1.691 0 0 1 1.002-.311c.085 0 .18.004.285.013.108.005.198.015.269.03v1.418a1.632 1.632 0 0 0-.311-.06 2.86 2.86 0 0 0-.405-.029c-.282 0-.534.061-.759.183-.221.12-.396.286-.524.499a1.403 1.403 0 0 0-.192.737V45h-1.542Zm7.843.128c-.653 0-1.214-.144-1.683-.43a2.874 2.874 0 0 1-1.078-1.19c-.25-.508-.375-1.093-.375-1.755 0-.665.128-1.252.383-1.76.256-.512.617-.91 1.083-1.193.468-.287 1.022-.43 1.662-.43.531 0 1.001.097 1.41.293.412.194.74.468.984.823.245.352.384.764.418 1.236h-1.474a1.41 1.41 0 0 0-.427-.789c-.221-.213-.518-.32-.89-.32-.316 0-.592.086-.831.256a1.63 1.63 0 0 0-.558.725c-.131.315-.196.693-.196 1.133 0 .446.065.83.196 1.15.13.319.314.565.549.738.239.17.519.256.84.256a1.4 1.4 0 0 0 .609-.128c.182-.088.334-.215.456-.38.122-.164.206-.364.252-.6h1.474a2.569 2.569 0 0 1-.409 1.231 2.425 2.425 0 0 1-.963.836c-.406.198-.884.298-1.432.298Zm6.454.004c-.415 0-.788-.074-1.12-.221a1.833 1.833 0 0 1-.785-.665c-.19-.293-.285-.654-.285-1.083 0-.369.068-.674.204-.916.137-.241.323-.434.559-.58a2.83 2.83 0 0 1 .797-.328 6.47 6.47 0 0 1 .924-.166c.384-.04.695-.075.934-.106.238-.034.411-.086.519-.154.111-.07.167-.18.167-.328v-.025c0-.321-.096-.57-.286-.746-.19-.176-.464-.264-.822-.264-.378 0-.678.082-.9.247-.218.165-.366.36-.443.584l-1.44-.205c.114-.398.301-.73.562-.997a2.45 2.45 0 0 1 .959-.605 3.67 3.67 0 0 1 1.253-.205c.315 0 .629.037.942.111.312.074.598.196.856.367.259.167.466.396.623.686.159.29.238.652.238 1.086V45h-1.483v-.9h-.051a1.896 1.896 0 0 1-.396.512 1.906 1.906 0 0 1-.635.38 2.58 2.58 0 0 1-.891.14Zm.401-1.133c.309 0 .578-.062.805-.184.227-.125.402-.29.524-.494a1.26 1.26 0 0 0 .188-.669v-.771a.726.726 0 0 1-.247.11 3.536 3.536 0 0 1-.384.09c-.142.025-.282.048-.422.068l-.362.051c-.23.031-.436.083-.618.154-.182.07-.325.17-.43.298a.73.73 0 0 0-.158.486c0 .284.104.498.311.643.208.145.472.218.793.218ZM354.095 45v-6.545h1.496v1.09h.068c.12-.377.324-.669.614-.873a1.688 1.688 0 0 1 1.001-.311c.086 0 .181.004.286.013.108.005.197.015.268.03v1.418a1.616 1.616 0 0 0-.311-.06 2.857 2.857 0 0 0-.405-.029 1.56 1.56 0 0 0-.758.183c-.222.12-.396.286-.524.499a1.403 1.403 0 0 0-.192.737V45h-1.543Zm7.418.115c-.515 0-.975-.132-1.381-.396s-.727-.648-.963-1.15c-.236-.504-.354-1.114-.354-1.833 0-.727.119-1.341.358-1.841.242-.503.567-.882.976-1.138a2.508 2.508 0 0 1 1.368-.388c.383 0 .699.066.946.196.247.128.443.283.588.465.145.179.257.348.337.507h.064v-3.264h1.546V45h-1.517v-1.031h-.093c-.08.159-.195.328-.346.507-.15.176-.349.327-.596.452s-.558.187-.933.187Zm.43-1.266c.327 0 .605-.088.835-.264a1.65 1.65 0 0 0 .524-.745c.12-.319.179-.69.179-1.113 0-.423-.059-.79-.179-1.103a1.562 1.562 0 0 0-.52-.73 1.35 1.35 0 0 0-.839-.26c-.344 0-.631.09-.861.27a1.63 1.63 0 0 0-.52.74 3.123 3.123 0 0 0-.174 1.083c0 .41.058.774.174 1.095.12.319.294.57.524.755.233.181.519.272.857.272ZM117.011 186v-11.636h2.461v9.608h4.988V186h-7.449Zm15.107 0h-2.636l4.017-11.636h3.17L140.681 186h-2.637l-2.914-8.977h-.091L132.118 186Zm-.164-4.574h6.227v1.921h-6.227v-1.921Zm16.611-7.062V186h-2.461v-11.636h2.461ZM154.612 186v-11.636h4.659c.856 0 1.57.127 2.142.38.572.254 1.002.606 1.29 1.057.288.447.432.962.432 1.546 0 .454-.091.854-.273 1.198a2.35 2.35 0 0 1-.75.841 3.07 3.07 0 0 1-1.08.461v.113a2.66 2.66 0 0 1 2.194 1.347c.242.413.363.905.363 1.477 0 .618-.153 1.169-.46 1.654-.303.481-.752.861-1.347 1.142-.594.28-1.327.42-2.198.42h-4.972Zm2.46-2.011h2.006c.686 0 1.186-.131 1.5-.392.314-.266.471-.618.471-1.057 0-.322-.077-.606-.232-.852a1.58 1.58 0 0 0-.665-.58c-.284-.14-.623-.21-1.017-.21h-2.063v3.091Zm0-4.756h1.824c.337 0 .636-.059.898-.176.265-.121.473-.292.625-.512a1.33 1.33 0 0 0 .233-.789c0-.421-.15-.76-.449-1.017-.296-.258-.716-.387-1.261-.387h-1.87v2.881ZM171.219 186h-2.636l4.017-11.636h3.17L179.781 186h-2.636l-2.915-8.977h-.091l-2.92 8.977Zm-.165-4.574h6.227v1.921h-6.227v-1.921Zm20.464-3.716c-.046-.458-.241-.814-.586-1.068-.344-.254-.812-.381-1.403-.381-.402 0-.741.057-1.017.171-.277.11-.489.263-.636.46a1.11 1.11 0 0 0-.216.671.958.958 0 0 0 .13.545c.099.155.233.29.404.403.17.11.367.207.591.29.223.08.462.148.716.205l1.045.25c.508.113.974.265 1.398.454.424.19.791.423 1.102.699.311.277.551.602.722.977.174.375.263.805.267 1.29-.004.712-.186 1.33-.546 1.852-.356.519-.871.923-1.545 1.211-.671.284-1.479.426-2.426.426-.94 0-1.758-.144-2.455-.432-.693-.288-1.235-.714-1.625-1.278-.386-.569-.589-1.271-.608-2.108h2.381c.026.39.138.716.335.977.201.257.468.453.801.585.337.129.718.193 1.142.193.417 0 .779-.06 1.085-.182.311-.121.552-.289.722-.505.17-.216.256-.464.256-.745a.969.969 0 0 0-.233-.659c-.152-.178-.375-.329-.671-.454a6.743 6.743 0 0 0-1.074-.341l-1.267-.318c-.981-.239-1.755-.612-2.323-1.12-.569-.507-.851-1.191-.847-2.051-.004-.704.184-1.32.562-1.846.383-.527.908-.938 1.574-1.233.667-.296 1.425-.443 2.273-.443.864 0 1.617.147 2.261.443.648.295 1.152.706 1.512 1.233.36.526.545 1.136.557 1.829h-2.358Zm15.382-3.346h2.46v7.556c0 .849-.202 1.591-.608 2.228-.401.636-.964 1.132-1.687 1.488-.724.353-1.566.529-2.529.529-.965 0-1.81-.176-2.534-.529-.723-.356-1.286-.852-1.687-1.488-.402-.637-.602-1.379-.602-2.228v-7.556h2.46v7.346c0 .443.096.837.29 1.182.197.345.473.616.829.813.356.197.771.295 1.244.295.478 0 .893-.098 1.245-.295a2.08 2.08 0 0 0 .824-.813 2.34 2.34 0 0 0 .295-1.182v-7.346ZM215.408 186v-11.636h2.46v9.608h4.988V186h-7.448Zm12.658-9.608v-2.028h9.556v2.028h-3.562V186h-2.432v-9.608h-3.562ZM245.225 186h-2.636l4.017-11.636h3.17L253.788 186h-2.637l-2.914-8.977h-.091L245.225 186Zm-.165-4.574h6.228v1.921h-6.228v-1.921Zm23.884-7.062V186h-2.125l-5.062-7.324h-.085V186h-2.461v-11.636h2.159l5.023 7.318h.102v-7.318h2.449Z"/>
    <mask id="d" width="32" height="37" x="25" y="13.737" fill="#000" maskUnits="userSpaceOnUse">
      <path fill="#fff" d="M25 13.737h32v37H25z"/>
      <path d="M26.722 49.737v-5.25l16.5-22.023H26.791v-7.636h28.5v5.25l-16.5 22.023h16.431v7.636h-28.5Z"/>
    </mask>
    <path fill="url(#c)" fill-opacity=".6" d="M26.722 49.737v-5.25l16.5-22.023H26.791v-7.636h28.5v5.25l-16.5 22.023h16.431v7.636h-28.5Z"/>
    <path fill="#79D4E5" fill-opacity=".3" d="M26.722 49.737h-1v1h1v-1Zm0-5.25-.8-.6-.2.267v.333h1Zm16.5-22.023.8.6 1.2-1.6h-2v1Zm-16.431 0h-1v1h1v-1Zm0-7.636v-1h-1v1h1Zm28.5 0h1v-1h-1v1Zm0 5.25.8.6.2-.267v-.333h-1Zm-16.5 22.023-.8-.6-1.2 1.6h2v-1Zm16.431 0h1v-1h-1v1Zm0 7.636v1h1v-1h-1Zm-27.5 0v-5.25h-2v5.25h2Zm-.2-4.65 16.5-22.023-1.6-1.2-16.5 22.024 1.6 1.199Zm15.7-23.623H26.791v2h16.431v-2Zm-15.431 1v-7.636h-2v7.636h2Zm-1-6.636h28.5v-2h-28.5v2Zm27.5-1v5.25h2v-5.25h-2Zm.2 4.65-16.5 22.023 1.6 1.2 16.5-22.023-1.6-1.2Zm-15.7 23.623h16.431v-2H38.791v2Zm15.431-1v7.636h2v-7.636h-2Zm1 6.636h-28.5v2h28.5v-2Z" mask="url(#d)"/>
    <path fill="#fff" d="M62.831 29.097v-1.369l5.444-7.638H62.82v-1.902h8.353v1.369l-5.45 7.639h5.46v1.901h-8.352Zm12.563.155a3.41 3.41 0 0 1-1.396-.272 2.246 2.246 0 0 1-.97-.815c-.234-.362-.351-.813-.351-1.353 0-.454.083-.836.25-1.145.167-.31.394-.558.682-.746.288-.188.614-.33.98-.426.37-.096.757-.164 1.161-.203.476-.05.86-.095 1.151-.138.291-.046.502-.114.634-.202a.445.445 0 0 0 .197-.395v-.032c0-.337-.107-.598-.32-.783-.21-.184-.508-.277-.895-.277-.408 0-.733.091-.974.272a1.25 1.25 0 0 0-.48.671l-2.099-.17c.107-.497.317-.927.63-1.29a3.016 3.016 0 0 1 1.208-.84c.497-.2 1.073-.3 1.726-.3.455 0 .89.054 1.305.16.42.107.79.272 1.113.496.327.224.585.511.773.863.188.348.282.765.282 1.252v5.518H77.85v-1.134h-.064a2.31 2.31 0 0 1-.527.676c-.22.192-.485.343-.794.453a3.28 3.28 0 0 1-1.07.16Zm.65-1.566c.333 0 .628-.066.884-.198.255-.134.456-.316.602-.543.145-.227.218-.485.218-.772v-.868a1.22 1.22 0 0 1-.293.127c-.12.036-.257.07-.41.102a25.89 25.89 0 0 1-.458.08c-.153.02-.291.04-.416.058a2.81 2.81 0 0 0-.698.186 1.124 1.124 0 0 0-.463.347.843.843 0 0 0-.165.532c0 .31.112.546.335.709.228.16.515.24.863.24Zm8.137-3.319v4.73h-2.27v-8.182h2.163v1.444h.096c.181-.476.485-.852.911-1.13.426-.28.943-.42 1.55-.42.568 0 1.064.124 1.486.373.423.248.751.603.986 1.065.234.458.351 1.005.351 1.64v5.21h-2.269v-4.805c.004-.5-.124-.89-.383-1.171-.26-.284-.617-.426-1.071-.426-.306 0-.575.065-.81.197-.23.13-.412.323-.543.575-.128.248-.194.549-.197.9Zm7.254 4.73V18.188h2.27v4.102h.069c.1-.22.243-.444.431-.671.192-.231.44-.423.746-.576.309-.156.692-.234 1.15-.234.597 0 1.148.156 1.652.469.504.309.907.776 1.209 1.4.302.622.453 1.401.453 2.339 0 .913-.148 1.683-.442 2.312-.292.625-.69 1.099-1.194 1.422-.5.32-1.061.48-1.683.48-.44 0-.815-.074-1.124-.22a2.324 2.324 0 0 1-.75-.548 2.786 2.786 0 0 1-.448-.676h-.102v1.31h-2.237Zm2.221-4.09c0 .486.068.91.203 1.272.135.363.33.645.586.847.256.2.566.299.932.299.37 0 .682-.102.938-.304.255-.206.449-.49.58-.852.135-.366.203-.787.203-1.263a3.6 3.6 0 0 0-.198-1.246 1.848 1.848 0 0 0-.58-.842c-.256-.202-.57-.303-.943-.303-.37 0-.682.097-.938.293-.252.195-.445.472-.58.83-.135.36-.203.782-.203 1.268Zm11.151 4.25c-.841 0-1.566-.17-2.173-.511a3.495 3.495 0 0 1-1.395-1.46c-.327-.632-.49-1.38-.49-2.242 0-.842.163-1.58.49-2.216a3.617 3.617 0 0 1 1.379-1.486c.597-.356 1.296-.533 2.099-.533.54 0 1.042.087 1.507.26a3.36 3.36 0 0 1 1.226.773c.351.345.625.778.82 1.3.195.518.293 1.126.293 1.822v.623h-6.909V24.18h4.773a1.74 1.74 0 0 0-.213-.869 1.521 1.521 0 0 0-.592-.59 1.685 1.685 0 0 0-.868-.22c-.344 0-.65.08-.916.24a1.679 1.679 0 0 0-.618.634 1.796 1.796 0 0 0-.229.88v1.336c0 .405.075.755.224 1.05.152.294.367.522.644.681.277.16.606.24.986.24.252 0 .483-.035.692-.107a1.39 1.39 0 0 0 .879-.842l2.099.14a2.872 2.872 0 0 1-.655 1.32c-.327.373-.75.664-1.268.874-.515.206-1.11.309-1.785.309Zm9.115 0c-.841 0-1.566-.17-2.173-.511a3.504 3.504 0 0 1-1.396-1.46c-.326-.632-.49-1.38-.49-2.242 0-.842.164-1.58.49-2.216a3.626 3.626 0 0 1 1.38-1.486c.597-.356 1.296-.533 2.099-.533.54 0 1.042.087 1.507.26.469.171.877.429 1.225.773.352.345.625.778.821 1.3.195.518.293 1.126.293 1.822v.623h-6.909V24.18h4.773a1.74 1.74 0 0 0-.213-.869 1.528 1.528 0 0 0-.592-.59 1.685 1.685 0 0 0-.868-.22c-.344 0-.65.08-.916.24a1.679 1.679 0 0 0-.618.634 1.786 1.786 0 0 0-.229.88v1.336c0 .405.074.755.224 1.05.152.294.367.522.644.681.277.16.606.24.986.24.252 0 .483-.035.692-.107a1.39 1.39 0 0 0 .879-.842l2.099.14a2.872 2.872 0 0 1-.655 1.32c-.327.373-.75.664-1.268.874-.515.206-1.11.309-1.785.309Zm7.656-11.069v10.91h-2.27v-10.91h2.27Zm-43.72 19.917a1.115 1.115 0 0 0-.519-.838c-.302-.199-.674-.298-1.115-.298a2.12 2.12 0 0 0-.845.156 1.35 1.35 0 0 0-.56.43 1.03 1.03 0 0 0-.2.621c0 .195.046.361.139.501.095.138.215.252.362.345.147.09.3.164.462.223.16.057.309.103.444.139l.738.199c.19.05.4.118.632.206.235.087.458.207.671.358.216.15.394.341.533.576.14.234.21.522.21.863 0 .393-.103.748-.31 1.065-.203.317-.501.57-.894.756-.39.187-.865.28-1.424.28-.521 0-.972-.083-1.353-.251a2.157 2.157 0 0 1-.895-.703 2.017 2.017 0 0 1-.366-1.048h.91c.023.275.115.502.276.682.164.177.37.31.618.398.251.085.521.127.81.127.336 0 .638-.054.905-.163.268-.111.48-.265.636-.462.156-.199.234-.43.234-.696 0-.241-.067-.438-.202-.59a1.486 1.486 0 0 0-.533-.368 5.594 5.594 0 0 0-.713-.249l-.895-.256c-.569-.163-1.018-.396-1.35-.7-.331-.302-.497-.699-.497-1.189 0-.407.11-.762.33-1.065.223-.306.521-.542.895-.71.377-.17.797-.256 1.26-.256.47 0 .886.084 1.25.252.365.166.654.393.867.682.216.289.33.617.341.983h-.852Zm4.673 5.569c-.526 0-.979-.116-1.36-.348a2.337 2.337 0 0 1-.877-.98c-.204-.422-.306-.912-.306-1.47 0-.56.102-1.052.306-1.478a2.41 2.41 0 0 1 .86-1.001c.368-.242.8-.363 1.292-.363.284 0 .564.048.841.142.277.095.53.25.757.462.227.21.408.49.543.838.135.348.203.777.203 1.286v.355h-4.205v-.725h3.352c0-.307-.061-.582-.184-.824a1.391 1.391 0 0 0-.519-.571 1.452 1.452 0 0 0-.788-.21c-.334 0-.623.083-.867.249a1.635 1.635 0 0 0-.557.64c-.13.262-.196.544-.196.844v.483c0 .412.071.761.214 1.048.144.284.344.5.6.65.255.146.552.22.89.22.221 0 .42-.031.597-.093a1.28 1.28 0 0 0 .466-.284c.13-.127.23-.286.302-.475l.81.227a1.794 1.794 0 0 1-.43.724c-.202.206-.45.367-.746.483a2.76 2.76 0 0 1-.998.17Zm5.85 0c-.512 0-.953-.121-1.322-.363a2.361 2.361 0 0 1-.852-.998c-.199-.423-.298-.907-.298-1.452 0-.554.101-1.043.305-1.466.206-.427.493-.76.86-.998.369-.242.8-.363 1.292-.363.383 0 .73.072 1.037.214.308.142.56.34.756.596.197.256.319.554.366.895h-.838a1.299 1.299 0 0 0-.426-.66c-.218-.195-.511-.292-.88-.292-.328 0-.614.086-.86.256a1.665 1.665 0 0 0-.572.714 2.645 2.645 0 0 0-.202 1.076c0 .421.066.788.199 1.1.135.313.324.556.568.729.246.172.535.259.866.259.218 0 .416-.038.593-.114a1.212 1.212 0 0 0 .714-.837h.838a1.94 1.94 0 0 1-1.087 1.48c-.303.15-.655.224-1.058.224Zm6.907-2.344v-3.224h.838v5.454h-.838v-.923h-.057a1.79 1.79 0 0 1-.597.706c-.27.192-.61.288-1.022.288a1.83 1.83 0 0 1-.91-.224 1.566 1.566 0 0 1-.624-.681c-.152-.306-.228-.69-.228-1.155v-3.465h.838v3.408c0 .398.112.715.334.952.225.237.511.355.86.355.208 0 .42-.053.635-.16.218-.106.4-.27.547-.49.15-.22.224-.5.224-.841Zm2.473 2.23v-5.455h.81v.824h.056c.1-.27.28-.489.54-.657a1.59 1.59 0 0 1 .881-.252 9.258 9.258 0 0 1 .44.014v.853a2.41 2.41 0 0 0-.195-.032 1.938 1.938 0 0 0-.316-.025c-.265 0-.502.056-.71.167a1.225 1.225 0 0 0-.668 1.111v3.452h-.838Zm5.941.114c-.525 0-.979-.116-1.36-.348a2.341 2.341 0 0 1-.877-.98c-.203-.422-.305-.912-.305-1.47 0-.56.102-1.052.305-1.478.206-.428.493-.762.86-1.001.369-.242.8-.363 1.292-.363.284 0 .565.048.842.142.277.095.529.25.756.462.227.21.409.49.544.838.134.348.202.777.202 1.286v.355h-4.205v-.725h3.353a1.79 1.79 0 0 0-.185-.824 1.398 1.398 0 0 0-.518-.571 1.455 1.455 0 0 0-.789-.21 1.5 1.5 0 0 0-.866.249 1.631 1.631 0 0 0-.558.64 1.88 1.88 0 0 0-.195.844v.483c0 .412.071.761.213 1.048.144.284.344.5.6.65.256.146.553.22.891.22.221 0 .419-.031.597-.093.18-.064.335-.158.465-.284.13-.127.231-.286.302-.475l.81.227a1.807 1.807 0 0 1-.43.724c-.201.206-.45.367-.746.483-.296.114-.628.17-.998.17Zm7.039-.114v-8h2.797c.557 0 1.017.096 1.379.29.362.19.632.446.809.769.177.32.265.675.265 1.066 0 .344-.061.628-.183.852a1.43 1.43 0 0 1-.477.53 2.152 2.152 0 0 1-.637.29v.078c.245.016.491.102.739.258.247.156.454.38.621.672.166.291.25.648.25 1.07 0 .401-.091.762-.274 1.082-.182.32-.47.574-.863.762-.393.187-.905.281-1.535.281h-2.891Zm.969-.86h1.922c.633 0 1.082-.122 1.348-.367.268-.247.402-.546.402-.898 0-.27-.069-.52-.207-.75a1.5 1.5 0 0 0-.59-.555 1.848 1.848 0 0 0-.906-.21h-1.969v2.78Zm0-3.624h1.797c.292 0 .555-.058.789-.172.237-.115.424-.276.562-.485.141-.208.211-.453.211-.734 0-.352-.122-.65-.367-.895-.245-.247-.633-.37-1.164-.37h-1.828v2.656Zm7.936 4.625c-.38 0-.725-.072-1.035-.215a1.774 1.774 0 0 1-.738-.63c-.183-.275-.274-.608-.274-1 0-.343.068-.622.203-.835a1.44 1.44 0 0 1 .543-.508c.227-.122.477-.213.75-.273a9.18 9.18 0 0 1 .832-.149c.365-.047.661-.082.887-.105.229-.026.396-.07.5-.13.107-.059.16-.163.16-.312v-.03c0-.386-.105-.686-.316-.9-.208-.213-.525-.32-.949-.32-.44 0-.785.097-1.035.29-.25.192-.426.398-.528.617l-.875-.313c.156-.364.365-.648.625-.851.263-.206.55-.35.86-.43a3.53 3.53 0 0 1 .921-.125c.193 0 .414.023.664.07.253.044.497.137.731.278.237.14.434.352.59.636.156.284.234.664.234 1.14v3.954h-.922v-.813h-.047a1.62 1.62 0 0 1-.312.419 1.81 1.81 0 0 1-.582.378c-.242.105-.538.157-.887.157Zm.141-.828c.364 0 .672-.072.922-.215a1.47 1.47 0 0 0 .57-.555c.13-.227.195-.465.195-.715v-.844c-.039.047-.125.09-.258.13-.13.036-.281.068-.453.097a19.61 19.61 0 0 1-.882.117 3.44 3.44 0 0 0-.672.153c-.206.067-.373.17-.5.308-.125.136-.188.32-.188.555 0 .32.119.562.356.726.239.162.543.242.91.242Zm5.324-2.922v3.609h-.922v-6h.89v.938h.079c.14-.305.354-.55.64-.735.287-.187.656-.281 1.11-.281.406 0 .761.083 1.066.25.305.164.542.414.711.75.169.333.254.755.254 1.266v3.812h-.922v-3.75c0-.471-.122-.839-.367-1.102-.245-.265-.581-.398-1.008-.398a1.61 1.61 0 0 0-.789.191c-.229.128-.41.314-.543.559-.133.245-.199.542-.199.89Zm6.482 1.422-.016-1.141h.188l2.625-2.672h1.14l-2.797 2.828h-.078l-1.062.985Zm-.86 2.187v-8h.922v8h-.922Zm3.813 0-2.344-2.969.656-.64 2.86 3.609h-1.172Zm2.281 0v-6h.922v6h-.922Zm.469-7a.655.655 0 0 1-.465-.184.589.589 0 0 1-.192-.441c0-.172.064-.319.192-.441a.655.655 0 0 1 .465-.184.64.64 0 0 1 .46.184c.131.122.196.27.196.441a.582.582 0 0 1-.196.441.64.64 0 0 1-.46.184Zm3.173 3.39v3.61h-.922v-6h.891v.938h.078c.14-.305.354-.55.64-.735.287-.187.657-.281 1.11-.281.406 0 .762.083 1.066.25.305.164.542.414.711.75.169.333.254.755.254 1.266v3.812h-.922v-3.75c0-.471-.122-.839-.367-1.102-.245-.265-.581-.398-1.008-.398a1.61 1.61 0 0 0-.789.191c-.229.128-.41.314-.543.559-.133.245-.199.542-.199.89Zm8.045 5.985c-.446 0-.829-.057-1.149-.172a2.446 2.446 0 0 1-.801-.445 2.436 2.436 0 0 1-.504-.586l.735-.516c.083.11.189.235.316.375.128.143.302.267.524.371.224.107.517.16.879.16.484 0 .884-.117 1.199-.351.315-.234.472-.602.472-1.102v-1.218h-.078a4.949 4.949 0 0 1-.289.406c-.122.159-.299.3-.531.426-.229.122-.539.183-.93.183a2.5 2.5 0 0 1-1.304-.343 2.413 2.413 0 0 1-.911-1c-.221-.438-.332-.97-.332-1.594 0-.615.109-1.15.325-1.606.216-.458.517-.812.902-1.062a2.381 2.381 0 0 1 1.336-.38c.391 0 .7.066.93.196.231.128.408.274.531.438.125.161.221.294.289.398h.094v-.953h.89v6.172c0 .516-.117.935-.351 1.258a2.005 2.005 0 0 1-.938.715 3.53 3.53 0 0 1-1.304.23Zm-.032-3.297c.37 0 .683-.084.938-.254a1.58 1.58 0 0 0 .582-.73c.133-.318.199-.698.199-1.14 0-.433-.065-.815-.195-1.145a1.72 1.72 0 0 0-.578-.778c-.256-.187-.571-.281-.946-.281-.39 0-.716.099-.976.297a1.804 1.804 0 0 0-.582.797 3.073 3.073 0 0 0-.192 1.11c0 .416.065.784.196 1.105.132.317.328.567.586.75.26.18.583.27.968.27Z"/>
    <path fill="#1EBBD7" d="M380.661 39c0-11.046 8.954-20 20-20H628c11.046 0 20 8.954 20 20v98c0 11.046-8.954 20-20 20H400.661c-11.046 0-20-8.954-20-20V39Z"/>
    <path stroke="#fff" stroke-opacity=".5" d="M369 95c-85.851 10.225-89.366 28.119-115 98"/>
    <path stroke="#fff" stroke-opacity=".5" d="M369 44C253.248 58.748 238.561 92.208 204 193"/>
    <path fill="#fff" d="M351.988 95.75A1.616 1.616 0 0 1 351 94.5c-.062-.325 0-.55.5-1.45A22.173 22.173 0 0 0 354.288 82a21.61 21.61 0 0 0-2.663-10.7c-.262-.55-.5-1.075-.7-1.638.075-.475.313-.912.7-1.175.563-.3 1.25-.237 1.763.113.35.45.65.9.9 1.425A26.764 26.764 0 0 1 357 78.25c.288 2.263.325 4.563.113 6.838a26.365 26.365 0 0 1-2.575 8.387c-.8 1.6-1.25 2.275-1.725 2.275h-.825Zm-5.45-2.763a1.426 1.426 0 0 1-1.013-1.65c0-.15.388-.837.738-1.537a16.746 16.746 0 0 0 1.825-9.225 16.374 16.374 0 0 0-1.925-6.525c-.788-1.575-.838-1.825-.375-2.5.55-.612 1.462-.7 2.137-.175a18.174 18.174 0 0 1 2.138 4.3c1.6 4.737 1.35 9.9-.7 14.45-1.05 2.362-1.788 3.125-2.825 2.8v.063Zm-5.625-2.787a1.635 1.635 0 0 1-.913-1.075c0-.25 0-.575.563-1.575a11.235 11.235 0 0 0 0-10.85c-.813-1.575-.813-1.9-.15-2.5.237-.275.587-.413.962-.362.8 0 1.25.387 1.925 1.8A13.14 13.14 0 0 1 344.9 82c.05 2.263-.5 4.513-1.587 6.5-.675 1.313-1.013 1.625-1.688 1.737-.237.026-.487 0-.712-.112v.075Zm-5.263-2.663a1.77 1.77 0 0 1-.9-.975c-.125-.437 0-.812.5-1.612.625-.85.925-1.9.863-2.95a4.545 4.545 0 0 0-.813-2.987 7.73 7.73 0 0 1-.55-.988c-.137-.788.388-1.538 1.25-1.688.675-.124 1.15.163 1.775 1.113a8.272 8.272 0 0 1 0 9.087c-.637.963-1.362 1.25-2.112 1h-.013Z"/>
    <path fill="#FF9800" d="M57 90.45V57.636c0-3.281 2.46-5.966 5.467-5.966h41c3.006 0 5.466 2.685 5.466 5.966v32.816c0 3.281-2.46 5.966-5.466 5.966h-41c-3.007 0-5.467-2.685-5.467-5.966Z"/>
    <path fill="#FFD54F" d="M108.933 69.568v-2.983h-16.4c-1.503 0-2.733-1.343-2.733-2.983 0-1.641 1.23-2.984 2.733-2.984H93.9v-2.983h-1.367c-3.006 0-5.466 2.685-5.466 5.967 0 3.281 2.46 5.966 5.466 5.966h4.1v8.95h-4.1c-3.826 0-6.833 3.281-6.833 7.458 0 4.176 3.007 7.458 6.833 7.458h2.734v-2.983h-2.734c-2.323 0-4.1-1.94-4.1-4.475 0-2.536 1.777-4.475 4.1-4.475h16.4v-2.983h-9.566v-8.95h9.566ZM73.4 78.518h-4.1v-8.95h4.1c3.007 0 5.467-2.685 5.467-5.966 0-3.282-2.46-5.967-5.467-5.967h-4.1v2.983h4.1c1.503 0 2.733 1.343 2.733 2.984 0 1.64-1.23 2.983-2.733 2.983H57v2.983h9.567v8.95H57V81.5h16.4c2.323 0 4.1 1.94 4.1 4.475 0 2.536-1.777 4.475-4.1 4.475h-2.733v2.983H73.4c3.827 0 6.833-3.282 6.833-7.458 0-4.177-3.006-7.458-6.833-7.458Z"/>
    <path fill="#fff" d="M69.225 121.239c-1.137 0-2.154-.213-3.051-.64-.898-.431-1.611-1.022-2.14-1.772-.522-.75-.8-1.608-.835-2.574h3.068c.057.716.367 1.301.93 1.756.562.448 1.238.673 2.028.673.62 0 1.17-.142 1.653-.426a3.052 3.052 0 0 0 1.142-1.185c.279-.506.415-1.082.41-1.73.005-.659-.134-1.244-.418-1.756a3.119 3.119 0 0 0-1.168-1.201c-.494-.296-1.062-.444-1.704-.444a4.07 4.07 0 0 0-1.543.29c-.506.199-.906.46-1.202.784l-2.855-.469.912-9h10.125v2.643H67.07l-.503 4.627h.102c.324-.38.781-.696 1.372-.946a4.853 4.853 0 0 1 1.943-.383c1.057 0 2 .25 2.83.75a5.302 5.302 0 0 1 1.96 2.045c.477.87.716 1.864.716 2.983 0 1.154-.267 2.182-.801 3.085a5.668 5.668 0 0 1-2.207 2.123c-.938.511-2.023.767-3.256.767Zm16.011 0a7.383 7.383 0 0 1-2.446-.435 5.764 5.764 0 0 1-2.148-1.406c-.636-.654-1.142-1.52-1.517-2.6-.375-1.085-.56-2.429-.554-4.031 0-1.494.16-2.827.478-3.997.318-1.171.775-2.159 1.372-2.966.596-.813 1.315-1.432 2.156-1.858.847-.426 1.793-.639 2.838-.639 1.097 0 2.068.216 2.915.648a5.48 5.48 0 0 1 2.062 1.772 5.61 5.61 0 0 1 .972 2.523h-3.11c-.16-.67-.487-1.205-.98-1.602-.49-.404-1.109-.605-1.859-.605-1.21 0-2.142.525-2.795 1.576-.648 1.051-.975 2.495-.98 4.33h.119c.278-.5.64-.929 1.082-1.287a4.94 4.94 0 0 1 1.5-.827 5.3 5.3 0 0 1 1.782-.298c1.022 0 1.94.244 2.752.733a5.315 5.315 0 0 1 1.944 2.02c.477.852.713 1.829.707 2.932.006 1.147-.256 2.179-.784 3.093a5.694 5.694 0 0 1-2.208 2.148c-.943.523-2.042.781-3.298.776Zm-.017-2.557c.62 0 1.173-.151 1.662-.452a3.267 3.267 0 0 0 1.16-1.219 3.417 3.417 0 0 0 .417-1.721 3.39 3.39 0 0 0-.41-1.696 3.112 3.112 0 0 0-1.133-1.202c-.483-.295-1.034-.443-1.653-.443-.46 0-.89.088-1.287.264a3.205 3.205 0 0 0-1.04.733 3.442 3.442 0 0 0-.699 1.074c-.165.403-.25.835-.255 1.295a3.51 3.51 0 0 0 .426 1.679 3.27 3.27 0 0 0 1.15 1.228c.489.306 1.043.46 1.662.46Zm16.08 2.557a7.382 7.382 0 0 1-2.446-.435 5.764 5.764 0 0 1-2.148-1.406c-.636-.654-1.142-1.52-1.517-2.6-.375-1.085-.56-2.429-.554-4.031 0-1.494.159-2.827.477-3.997.318-1.171.776-2.159 1.372-2.966.597-.813 1.316-1.432 2.157-1.858.846-.426 1.792-.639 2.838-.639 1.096 0 2.068.216 2.914.648a5.48 5.48 0 0 1 2.063 1.772 5.61 5.61 0 0 1 .971 2.523h-3.11c-.159-.67-.486-1.205-.98-1.602-.489-.404-1.108-.605-1.858-.605-1.211 0-2.142.525-2.796 1.576-.648 1.051-.974 2.495-.98 4.33h.12a4.37 4.37 0 0 1 1.082-1.287 4.94 4.94 0 0 1 1.5-.827 5.297 5.297 0 0 1 1.781-.298c1.023 0 1.94.244 2.753.733a5.314 5.314 0 0 1 1.943 2.02c.477.852.713 1.829.707 2.932.006 1.147-.255 2.179-.784 3.093a5.691 5.691 0 0 1-2.207 2.148c-.943.523-2.043.781-3.298.776Zm-.017-2.557c.619 0 1.173-.151 1.662-.452a3.271 3.271 0 0 0 1.159-1.219 3.415 3.415 0 0 0 .417-1.721 3.38 3.38 0 0 0-.409-1.696 3.112 3.112 0 0 0-1.133-1.202c-.483-.295-1.034-.443-1.654-.443-.46 0-.889.088-1.287.264a3.207 3.207 0 0 0-1.04.733 3.442 3.442 0 0 0-.698 1.074c-.165.403-.25.835-.256 1.295.006.608.148 1.168.426 1.679a3.27 3.27 0 0 0 1.15 1.228 3.07 3.07 0 0 0 1.663.46ZM111.608 121l7.424-14.693v-.119h-8.617v-2.643h11.889v2.702L114.89 121h-3.282Zm26.605.239c-1.267 0-2.392-.213-3.375-.64-.978-.426-1.745-1.008-2.301-1.747a4.1 4.1 0 0 1-.819-2.531 4.197 4.197 0 0 1 .478-2.02 4.509 4.509 0 0 1 1.312-1.534 4.235 4.235 0 0 1 1.858-.793v-.119a3.693 3.693 0 0 1-2.182-1.372c-.551-.722-.824-1.554-.818-2.497a3.972 3.972 0 0 1 .75-2.404c.506-.704 1.199-1.258 2.08-1.662.88-.409 1.886-.613 3.017-.613 1.119 0 2.116.204 2.991.613.881.404 1.574.958 2.08 1.662.511.705.767 1.506.767 2.404 0 .943-.281 1.775-.844 2.497a3.685 3.685 0 0 1-2.156 1.372v.119a4.118 4.118 0 0 1 1.841.793c.551.409.988.921 1.312 1.534.33.614.495 1.287.495 2.02 0 .943-.279 1.787-.836 2.531-.557.739-1.324 1.321-2.301 1.747-.971.427-2.088.64-3.349.64Zm0-2.438c.653 0 1.221-.111 1.704-.332a2.664 2.664 0 0 0 1.125-.955c.267-.409.404-.88.409-1.415a2.642 2.642 0 0 0-.434-1.474 2.854 2.854 0 0 0-1.151-1.014c-.483-.245-1.034-.367-1.653-.367-.625 0-1.182.122-1.671.367a2.917 2.917 0 0 0-1.159 1.014 2.585 2.585 0 0 0-.409 1.474 2.476 2.476 0 0 0 .392 1.415c.267.404.642.719 1.125.946.489.227 1.063.341 1.722.341Zm0-7.952c.534 0 1.005-.108 1.414-.323.415-.216.742-.517.981-.904.238-.386.36-.832.366-1.338-.006-.5-.125-.937-.358-1.312a2.308 2.308 0 0 0-.971-.878c-.415-.21-.893-.316-1.432-.316-.551 0-1.037.106-1.458.316a2.308 2.308 0 0 0-.971.878c-.228.375-.338.812-.333 1.312-.005.506.108.952.341 1.338.239.381.566.682.98.904.421.215.901.323 1.441.323Zm15.992 10.39c-1.267 0-2.392-.213-3.375-.64-.977-.426-1.744-1.008-2.301-1.747a4.1 4.1 0 0 1-.818-2.531 4.185 4.185 0 0 1 .477-2.02 4.509 4.509 0 0 1 1.312-1.534 4.235 4.235 0 0 1 1.858-.793v-.119a3.696 3.696 0 0 1-2.182-1.372c-.551-.722-.823-1.554-.818-2.497a3.985 3.985 0 0 1 .75-2.404c.506-.704 1.199-1.258 2.08-1.662.881-.409 1.886-.613 3.017-.613 1.119 0 2.116.204 2.991.613.881.404 1.574.958 2.08 1.662.511.705.767 1.506.767 2.404 0 .943-.281 1.775-.844 2.497a3.682 3.682 0 0 1-2.156 1.372v.119a4.118 4.118 0 0 1 1.841.793c.551.409.989.921 1.312 1.534.33.614.495 1.287.495 2.02 0 .943-.279 1.787-.836 2.531-.556.739-1.323 1.321-2.301 1.747-.971.427-2.088.64-3.349.64Zm0-2.438c.653 0 1.221-.111 1.704-.332a2.664 2.664 0 0 0 1.125-.955c.267-.409.404-.88.41-1.415a2.65 2.65 0 0 0-.435-1.474 2.854 2.854 0 0 0-1.151-1.014c-.483-.245-1.034-.367-1.653-.367-.625 0-1.182.122-1.671.367a2.917 2.917 0 0 0-1.159 1.014c-.278.426-.414.918-.409 1.474-.005.535.125 1.006.392 1.415.267.404.642.719 1.125.946.489.227 1.063.341 1.722.341Zm0-7.952c.534 0 1.006-.108 1.415-.323a2.47 2.47 0 0 0 .98-.904c.238-.386.361-.832.366-1.338-.005-.5-.125-.937-.358-1.312a2.308 2.308 0 0 0-.971-.878c-.415-.21-.892-.316-1.432-.316-.551 0-1.037.106-1.457.316a2.305 2.305 0 0 0-.972.878c-.227.375-.338.812-.332 1.312-.006.506.107.952.34 1.338.239.381.566.682.981.904.42.215.9.323 1.44.323Zm15.847-7.542a7.15 7.15 0 0 1 2.438.443c.795.284 1.511.75 2.147 1.398.637.642 1.142 1.503 1.517 2.582.375 1.08.563 2.415.563 4.006.006 1.5-.153 2.841-.477 4.023-.318 1.176-.776 2.17-1.372 2.982-.597.813-1.316 1.432-2.157 1.858-.841.427-1.787.64-2.838.64-1.102 0-2.079-.216-2.932-.648a5.516 5.516 0 0 1-2.054-1.773c-.522-.75-.843-1.608-.963-2.574h3.111c.159.693.483 1.245.972 1.654.494.403 1.116.605 1.866.605 1.21 0 2.142-.526 2.796-1.577.653-1.051.98-2.511.98-4.381h-.12c-.278.5-.639.932-1.082 1.296a4.942 4.942 0 0 1-1.508.827 5.377 5.377 0 0 1-1.773.289c-1.023 0-1.943-.244-2.762-.733a5.347 5.347 0 0 1-1.934-2.011c-.472-.852-.71-1.827-.716-2.923 0-1.137.261-2.156.784-3.06a5.691 5.691 0 0 1 2.207-2.148c.944-.528 2.046-.787 3.307-.775Zm.009 2.557a3.13 3.13 0 0 0-1.662.451 3.204 3.204 0 0 0-1.159 1.211 3.45 3.45 0 0 0-.418 1.696c.006.619.145 1.181.418 1.687.278.506.656.906 1.133 1.202.483.295 1.034.443 1.654.443a3.146 3.146 0 0 0 2.326-.997c.301-.318.534-.679.699-1.083.171-.403.253-.829.247-1.278 0-.597-.142-1.148-.426-1.653a3.29 3.29 0 0 0-1.15-1.219c-.483-.307-1.037-.46-1.662-.46Zm16.054-2.557a7.144 7.144 0 0 1 2.437.443c.796.284 1.512.75 2.148 1.398.636.642 1.142 1.503 1.517 2.582.375 1.08.562 2.415.562 4.006.006 1.5-.153 2.841-.477 4.023-.318 1.176-.775 2.17-1.372 2.982-.597.813-1.315 1.432-2.156 1.858-.841.427-1.787.64-2.838.64-1.103 0-2.08-.216-2.932-.648a5.509 5.509 0 0 1-2.054-1.773c-.523-.75-.844-1.608-.963-2.574h3.111c.159.693.483 1.245.971 1.654.495.403 1.117.605 1.867.605 1.21 0 2.142-.526 2.795-1.577.654-1.051.98-2.511.98-4.381h-.119c-.278.5-.639.932-1.082 1.296a4.947 4.947 0 0 1-1.509.827 5.377 5.377 0 0 1-1.773.289c-1.022 0-1.943-.244-2.761-.733a5.35 5.35 0 0 1-1.935-2.011c-.471-.852-.71-1.827-.716-2.923 0-1.137.262-2.156.784-3.06a5.7 5.7 0 0 1 2.208-2.148c.943-.528 2.045-.787 3.307-.775Zm.008 2.557c-.613 0-1.167.15-1.662.451a3.212 3.212 0 0 0-1.159 1.211 3.46 3.46 0 0 0-.417 1.696c.005.619.144 1.181.417 1.687.279.506.656.906 1.134 1.202.483.295 1.034.443 1.653.443.46 0 .889-.088 1.287-.264a3.208 3.208 0 0 0 1.04-.733c.301-.318.534-.679.699-1.083.17-.403.253-.829.247-1.278 0-.597-.142-1.148-.426-1.653a3.293 3.293 0 0 0-1.151-1.219c-.483-.307-1.037-.46-1.662-.46Zm16.132 11.897v-2.514l7.407-11.702h2.096v3.58h-1.278l-4.986 7.901v.136h10.338v2.599h-13.577Zm8.327 3.239v-4.006l.034-1.125v-12.324h2.983V121h-3.017Zm14.541.239c-1.136 0-2.153-.213-3.051-.64-.898-.431-1.611-1.022-2.139-1.772-.523-.75-.801-1.608-.835-2.574h3.068c.057.716.366 1.301.929 1.756.562.448 1.238.673 2.028.673.62 0 1.171-.142 1.654-.426a3.056 3.056 0 0 0 1.142-1.185c.278-.506.414-1.082.409-1.73.005-.659-.134-1.244-.418-1.756a3.119 3.119 0 0 0-1.167-1.201c-.495-.296-1.063-.444-1.705-.444a4.073 4.073 0 0 0-1.543.29c-.505.199-.906.46-1.201.784l-2.855-.469.911-9h10.125v2.643h-7.508l-.503 4.627h.102c.324-.38.782-.696 1.373-.946a4.847 4.847 0 0 1 1.943-.383c1.057 0 2 .25 2.829.75a5.306 5.306 0 0 1 1.961 2.045c.477.87.715 1.864.715 2.983 0 1.154-.267 2.182-.801 3.085a5.664 5.664 0 0 1-2.207 2.123c-.938.511-2.023.767-3.256.767Zm10.259-.239 7.423-14.693v-.119h-8.616v-2.643h11.889v2.702L238.663 121h-3.281Zm19.964.239a7.377 7.377 0 0 1-2.446-.435 5.757 5.757 0 0 1-2.148-1.406c-.637-.654-1.142-1.52-1.517-2.6-.375-1.085-.56-2.429-.554-4.031 0-1.494.159-2.827.477-3.997.318-1.171.776-2.159 1.372-2.966.597-.813 1.316-1.432 2.156-1.858.847-.426 1.793-.639 2.839-.639 1.096 0 2.068.216 2.914.648a5.48 5.48 0 0 1 2.063 1.772 5.61 5.61 0 0 1 .971 2.523h-3.11c-.16-.67-.486-1.205-.981-1.602-.488-.404-1.107-.605-1.857-.605-1.211 0-2.143.525-2.796 1.576-.648 1.051-.974 2.495-.98 4.33h.119c.279-.5.639-.929 1.083-1.287a4.938 4.938 0 0 1 1.5-.827 5.297 5.297 0 0 1 1.781-.298c1.023 0 1.94.244 2.753.733a5.314 5.314 0 0 1 1.943 2.02c.477.852.713 1.829.707 2.932.006 1.147-.255 2.179-.784 3.093a5.691 5.691 0 0 1-2.207 2.148c-.943.523-2.043.781-3.298.776Zm-.018-2.557c.62 0 1.174-.151 1.662-.452a3.274 3.274 0 0 0 1.16-1.219 3.415 3.415 0 0 0 .417-1.721 3.39 3.39 0 0 0-.409-1.696 3.12 3.12 0 0 0-1.133-1.202c-.483-.295-1.035-.443-1.654-.443-.46 0-.889.088-1.287.264a3.208 3.208 0 0 0-1.04.733 3.44 3.44 0 0 0-.698 1.074c-.165.403-.25.835-.256 1.295.006.608.148 1.168.426 1.679.278.512.662.921 1.151 1.228.488.306 1.042.46 1.661.46Zm16.78 2.318 7.424-14.693v-.119h-8.617v-2.643h11.889v2.702L275.39 121h-3.282Zm19.8.239c-1.267 0-2.392-.213-3.375-.64-.977-.426-1.744-1.008-2.301-1.747a4.1 4.1 0 0 1-.818-2.531 4.185 4.185 0 0 1 .477-2.02 4.509 4.509 0 0 1 1.312-1.534 4.24 4.24 0 0 1 1.858-.793v-.119a3.69 3.69 0 0 1-2.181-1.372c-.552-.722-.824-1.554-.819-2.497a3.985 3.985 0 0 1 .75-2.404c.506-.704 1.199-1.258 2.08-1.662.881-.409 1.886-.613 3.017-.613 1.119 0 2.117.204 2.992.613.88.404 1.573.958 2.079 1.662.511.705.767 1.506.767 2.404 0 .943-.281 1.775-.844 2.497a3.68 3.68 0 0 1-2.156 1.372v.119a4.113 4.113 0 0 1 1.841.793c.551.409.989.921 1.313 1.534.329.614.494 1.287.494 2.02 0 .943-.279 1.787-.835 2.531-.557.739-1.324 1.321-2.302 1.747-.971.427-2.088.64-3.349.64Zm0-2.438c.653 0 1.222-.111 1.705-.332a2.664 2.664 0 0 0 1.125-.955c.267-.409.403-.88.409-1.415a2.65 2.65 0 0 0-.435-1.474 2.848 2.848 0 0 0-1.151-1.014c-.483-.245-1.034-.367-1.653-.367-.625 0-1.182.122-1.67.367a2.92 2.92 0 0 0-1.16 1.014c-.278.426-.414.918-.409 1.474-.005.535.125 1.006.392 1.415.267.404.642.719 1.125.946.489.227 1.063.341 1.722.341Zm0-7.952c.534 0 1.006-.108 1.415-.323.415-.216.741-.517.98-.904.239-.386.361-.832.366-1.338-.005-.5-.125-.937-.358-1.312a2.302 2.302 0 0 0-.971-.878c-.415-.21-.892-.316-1.432-.316-.551 0-1.037.106-1.457.316a2.305 2.305 0 0 0-.972.878c-.227.375-.338.812-.332 1.312-.006.506.108.952.341 1.338.238.381.565.682.98.904.42.215.9.323 1.44.323Zm16.18 10.39a7.377 7.377 0 0 1-2.446-.435 5.757 5.757 0 0 1-2.148-1.406c-.636-.654-1.142-1.52-1.517-2.6-.375-1.085-.56-2.429-.554-4.031 0-1.494.159-2.827.477-3.997.318-1.171.776-2.159 1.372-2.966.597-.813 1.316-1.432 2.157-1.858.846-.426 1.792-.639 2.838-.639 1.096 0 2.068.216 2.914.648a5.48 5.48 0 0 1 2.063 1.772 5.61 5.61 0 0 1 .972 2.523h-3.111c-.159-.67-.486-1.205-.98-1.602-.489-.404-1.108-.605-1.858-.605-1.211 0-2.142.525-2.796 1.576-.647 1.051-.974 2.495-.98 4.33h.119c.279-.5.64-.929 1.083-1.287a4.938 4.938 0 0 1 1.5-.827 5.297 5.297 0 0 1 1.781-.298c1.023 0 1.94.244 2.753.733a5.314 5.314 0 0 1 1.943 2.02c.477.852.713 1.829.707 2.932.006 1.147-.255 2.179-.784 3.093a5.691 5.691 0 0 1-2.207 2.148c-.943.523-2.043.781-3.298.776Zm-.017-2.557c.619 0 1.173-.151 1.662-.452a3.271 3.271 0 0 0 1.159-1.219 3.415 3.415 0 0 0 .417-1.721 3.38 3.38 0 0 0-.409-1.696 3.112 3.112 0 0 0-1.133-1.202c-.483-.295-1.034-.443-1.654-.443a3.146 3.146 0 0 0-2.326.997 3.425 3.425 0 0 0-.955 2.369c.006.608.148 1.168.426 1.679.279.512.662.921 1.151 1.228.488.306 1.042.46 1.662.46Zm15.755 2.557c-1.136 0-2.153-.213-3.051-.64-.898-.431-1.611-1.022-2.139-1.772-.523-.75-.801-1.608-.835-2.574h3.068c.057.716.366 1.301.929 1.756.562.448 1.239.673 2.028.673.62 0 1.171-.142 1.654-.426a3.056 3.056 0 0 0 1.142-1.185c.278-.506.415-1.082.409-1.73.006-.659-.134-1.244-.418-1.756a3.119 3.119 0 0 0-1.167-1.201c-.495-.296-1.063-.444-1.705-.444a4.064 4.064 0 0 0-1.542.29c-.506.199-.907.46-1.202.784l-2.855-.469.912-9h10.125v2.643h-7.509l-.503 4.627h.103c.323-.38.781-.696 1.372-.946a4.85 4.85 0 0 1 1.943-.383c1.057 0 2 .25 2.829.75a5.306 5.306 0 0 1 1.961 2.045c.477.87.716 1.864.716 2.983 0 1.154-.267 2.182-.802 3.085a5.664 5.664 0 0 1-2.207 2.123c-.937.511-2.023.767-3.256.767Z"/>
    <path fill="#1EBBD7" d="M381 39c0-11.046 8.954-20 20-20h227c11.046 0 20 8.954 20 20v109c0 11.046-8.954 20-20 20H401c-11.046 0-20-8.954-20-20V39Z"/>
  </g>
  <defs>
    <linearGradient id="b" x1="11" x2="379.991" y1="17.327" y2="143.573" gradientUnits="userSpaceOnUse">
      <stop stop-color="#1EBBD7"/>
      <stop offset="1" stop-color="#62CBDD" stop-opacity=".69"/>
    </linearGradient>
    <linearGradient id="c" x1="36.978" x2="76.348" y1="-15.976" y2="-3.001" gradientUnits="userSpaceOnUse">
      <stop stop-color="#19C4E2"/>
      <stop offset="1" stop-color="#70E6FB"/>
    </linearGradient>
    <filter id="a" width="652" height="200.668" x="0" y=".504" color-interpolation-filters="sRGB" filterUnits="userSpaceOnUse">
      <feFlood flood-opacity="0" result="BackgroundImageFix"/>
      <feColorMatrix in="SourceAlpha" result="hardAlpha" values="0 0 0 0 0 0 0 0 0 0 0 0 0 0 0 0 0 0 127 0"/>
      <feOffset dy="4"/>
      <feGaussianBlur stdDeviation="2"/>
      <feComposite in2="hardAlpha" operator="out"/>
      <feColorMatrix values="0 0 0 0 0 0 0 0 0 0 0 0 0 0 0 0 0 0 0.25 0"/>
      <feBlend in2="BackgroundImageFix" result="effect1_dropShadow_2606_191"/>
      <feBlend in="SourceGraphic" in2="effect1_dropShadow_2606_191" result="shape"/>
    </filter>
  </defs>
</svg>
