<svg xmlns="http://www.w3.org/2000/svg" width="52" height="46" fill="none" viewBox="0 0 52 46">
  <path fill="#FF9800" d="M0 39.45V6.636C0 3.354 2.46.67 5.467.67h41c3.006 0 5.466 2.685 5.466 5.966v32.816c0 3.281-2.46 5.966-5.466 5.966h-41C2.46 45.417 0 42.732 0 39.451Z"/>
  <path fill="#FFD54F" d="M51.933 18.568v-2.983h-16.4c-1.503 0-2.733-1.343-2.733-2.983 0-1.641 1.23-2.984 2.733-2.984H36.9V6.635h-1.367c-3.006 0-5.466 2.685-5.466 5.967 0 3.281 2.46 5.966 5.466 5.966h4.1v8.95h-4.1c-3.826 0-6.833 3.281-6.833 7.458 0 4.176 3.007 7.458 6.833 7.458h2.734v-2.983h-2.734c-2.323 0-4.1-1.94-4.1-4.475 0-2.536 1.777-4.475 4.1-4.475h16.4v-2.983h-9.566v-8.95h9.566ZM16.4 27.518h-4.1v-8.95h4.1c3.007 0 5.467-2.685 5.467-5.966 0-3.282-2.46-5.967-5.467-5.967h-4.1v2.983h4.1c1.503 0 2.733 1.343 2.733 2.984 0 1.64-1.23 2.983-2.733 2.983H0v2.983h9.567v8.95H0V30.5h16.4c2.323 0 4.1 1.94 4.1 4.475 0 2.536-1.777 4.475-4.1 4.475h-2.733v2.983H16.4c3.827 0 6.833-3.282 6.833-7.458 0-4.177-3.006-7.458-6.833-7.458Z"/>
</svg>
