<svg xmlns="http://www.w3.org/2000/svg" width="360" height="260" fill="none" viewBox="0 0 337 248">
  <path fill="#F1F1F1" d="M286.777 246.194v-27.389s10.722 19.418 0 27.389Z"/>
  <path fill="#F1F1F1" d="m287.439 246.189-20.266-18.522s21.618 5.268 20.266 18.522Z"/>
  <path fill="#F0F0F0" d="M72.711 0H24.237L0 41.792l24.237 41.792H72.71l24.237-41.792L72.711 0Z"/>
  <path fill="#fff" d="M26.957 78.893H69.99l21.517-37.1L69.99 4.69H26.957L5.441 41.792l21.516 37.101Z"/>
  <path fill="#E2E2E2" d="M26.438 32.7a1.98 1.98 0 0 0 1.985-1.976 1.98 1.98 0 0 0-1.985-1.976 1.98 1.98 0 0 0-1.985 1.976 1.98 1.98 0 0 0 1.985 1.977Zm0 11.069a1.98 1.98 0 0 0 1.985-1.977 1.98 1.98 0 0 0-1.985-1.976 1.98 1.98 0 0 0-1.985 1.976 1.98 1.98 0 0 0 1.985 1.977Zm0 11.067a1.98 1.98 0 0 0 1.985-1.976 1.98 1.98 0 0 0-1.985-1.977 1.98 1.98 0 0 0-1.985 1.977 1.98 1.98 0 0 0 1.985 1.976Zm46.058-25.693h-37.72v3.163h37.72v-3.163Zm0 11.068h-37.72v3.162h37.72v-3.162Zm0 11.068h-37.72v3.162h37.72v-3.162Z"/>
  <path fill="#F0F0F0" d="M312.763 0h-48.474l-24.237 41.792 24.237 41.792h48.474L337 41.792 312.763 0Z"/>
  <path fill="#fff" d="M267.009 78.893h43.033l21.517-37.1L310.042 4.69h-43.033l-21.516 37.101 21.516 37.101Z"/>
  <path fill="#E2E2E2" d="M266.49 32.7a1.98 1.98 0 0 0 1.985-1.976 1.98 1.98 0 0 0-1.985-1.976 1.981 1.981 0 0 0-1.986 1.976c0 1.092.889 1.977 1.986 1.977Zm0 11.069a1.98 1.98 0 0 0 1.985-1.977 1.98 1.98 0 0 0-1.985-1.976 1.981 1.981 0 0 0-1.986 1.976c0 1.092.889 1.977 1.986 1.977Zm0 11.067a1.98 1.98 0 0 0 1.985-1.976 1.98 1.98 0 0 0-1.985-1.977 1.981 1.981 0 0 0-1.986 1.977c0 1.091.889 1.976 1.986 1.976Zm46.057-25.693h-37.719v3.163h37.719v-3.163Zm0 11.068h-37.719v3.162h37.719v-3.162Zm0 11.068h-37.719v3.162h37.719v-3.162Z"/>
  <path fill="#F0F0F0" d="M192.501.406h-48.003l-24.002 41.386 24.002 41.386h48.003l24.003-41.386L192.501.406Z"/>
  <path fill="#fff" d="M147.192 78.533h42.615l21.308-36.74L189.807 5.05h-42.615l-21.307 36.741 21.307 36.741Z"/>
  <path fill="#16A9C3" d="M146.678 32.789a1.962 1.962 0 0 0 1.966-1.957 1.962 1.962 0 0 0-1.966-1.957 1.961 1.961 0 0 0-1.966 1.957c0 1.08.88 1.957 1.966 1.957Zm0 10.961a1.962 1.962 0 0 0 1.966-1.958c0-1.08-.881-1.957-1.966-1.957a1.962 1.962 0 0 0-1.966 1.957c0 1.081.88 1.957 1.966 1.957Zm0 10.96a1.962 1.962 0 0 0 1.966-1.958c0-1.08-.881-1.957-1.966-1.957a1.962 1.962 0 0 0-1.966 1.957c0 1.081.88 1.957 1.966 1.957Zm45.61-25.444h-37.353v3.132h37.353v-3.132Zm0 10.96h-37.353v3.132h37.353v-3.132Zm0 10.961h-37.353v3.131h37.353v-3.131Z"/>
  <path fill="#9F616A" d="M209.424 242.212h-4.662l-2.218-17.904h6.881l-.001 17.904Z"/>
  <path fill="#2F2E41" d="m210.613 246.712-15.034-.001v-.189c0-1.545.617-3.027 1.714-4.119a5.865 5.865 0 0 1 4.138-1.707l9.183.001-.001 6.015Z"/>
  <path fill="#9F616A" d="M252.78 242.212h-4.663l-2.218-17.904h6.882l-.001 17.904Z"/>
  <path fill="#2F2E41" d="m253.969 246.712-15.034-.001v-.189c0-1.545.617-3.027 1.714-4.119a5.863 5.863 0 0 1 4.138-1.707l9.182.001v6.015Zm-46.403-95.357s-3.914 10.575-3.355 15.028c.56 4.452-3.913 35.621-3.354 38.404.559 2.783-.559 16.698 0 18.924.559 2.227-1.569 4.886-.451 7.112 1.118 2.227 2.687 6.803 2.687 6.803l7.268-.556 1.119-6.123s3.354-.556 2.795-3.896c-.559-3.34 2.795-25.603 2.795-25.603l9.505-31.169 13.418 28.386s.559 20.037 2.236 22.264c1.678 2.226-1.677 8.348 0 10.575 1.678 2.226 3.355 6.122 3.355 6.122h8.386v-4.452s5.032-2.783 0-11.132l-3.4-50.139-3.354-22.82-39.65 2.272Z"/>
  <path fill="#A0616A" d="M228.408 81.369c5.767 0 10.442-4.654 10.442-10.396 0-5.741-4.675-10.396-10.442-10.396s-10.443 4.655-10.443 10.396c0 5.742 4.676 10.396 10.443 10.396Z"/>
  <path fill="#2F2E41" d="m219.522 70.256 2.21 5.623c.906 2.304 1.943 4.769 4.067 6.054 2.621 1.588 6.122.814 8.659-.906a13.472 13.472 0 0 0 5.017-6.317 13.398 13.398 0 0 0 .496-8.04 13.45 13.45 0 0 0-4.202-6.881 13.552 13.552 0 0 0-7.397-3.261l-.105 1.881-2.32-1.935a2.261 2.261 0 0 1-3.505.493c.609 1.258-.094 2.791-1.11 3.755-1.248 1.183-4.816 2.605-4.668 4.72.099 1.412 2.282 3.351 2.858 4.814Z"/>
  <path fill="#9F616A" d="M257.152 166.733a4.396 4.396 0 0 0 .573-3.681 4.395 4.395 0 0 0-.922-1.673 4.434 4.434 0 0 0-1.545-1.127l.208-10.057-6.108-1.617-.094 14.207a4.4 4.4 0 0 0 .049 3.143 4.432 4.432 0 0 0 2.134 2.319c.972.486 2.09.601 3.141.322a4.447 4.447 0 0 0 2.564-1.836Z"/>
  <path fill="#F4F5F9" d="M236.165 87.794s-8.092-4.028-15.735-1.343c-7.642 2.686-11.688 5.818-11.688 5.818l4.945 25.958-6.743 34.909s34.616-2.685 37.763 0c3.146 2.685 3.146-3.133 3.146-3.133l-2.697-33.118 4.945-21.035-13.936-8.056Z"/>
  <path fill="#9F616A" d="M202.011 167.328a4.385 4.385 0 0 0 1.588-3.373 4.407 4.407 0 0 0-1.578-3.377l3.036-9.593-5.406-3.259-4.097 13.608a4.412 4.412 0 0 0 .554 5.852 4.457 4.457 0 0 0 5.903.142Z"/>
  <path fill="#F4F5F9" d="M211.889 92.27h-3.147s-4.945 3.132-4.945 7.608c0 4.475-7.193 56.838-7.193 56.838l7.642 1.343 6.744-36.699 4.945-9.846-4.046-19.245Zm29.671 3.58h8.541s2.698 2.685 4.046 8.951c1.349 6.265 2.698 30.881 2.698 30.881l-.9 22.377h-6.743l-.899-29.091-4.496-18.797-2.247-14.321Z"/>
  <path fill="#E6E6E6" d="M305.35 248H57.65c-.172 0-.338-.105-.46-.293A1.318 1.318 0 0 1 57 247c0-.265.069-.52.19-.707.122-.188.288-.293.46-.293h247.7c.172 0 .338.105.46.293.122.187.19.442.19.707 0 .265-.068.52-.19.707-.122.188-.288.293-.46.293Z"/>
  <path fill="#F0F0F0" d="M136.799 147.034h-.718v-19.657A11.378 11.378 0 0 0 124.701 116H83.044a11.378 11.378 0 0 0-11.38 11.377v107.842a11.377 11.377 0 0 0 11.38 11.377H124.7a11.378 11.378 0 0 0 11.38-11.377v-74.193h.718v-13.992Z"/>
  <path fill="#fff" d="M125.357 119h-5.437a4.032 4.032 0 0 1-.388 3.776 4.039 4.039 0 0 1-3.351 1.785H92.316a4.041 4.041 0 0 1-3.351-1.785 4.033 4.033 0 0 1-.388-3.776H83.5a8.497 8.497 0 0 0-8.5 8.496v107.685a8.497 8.497 0 0 0 8.499 8.497h41.858a8.497 8.497 0 0 0 8.498-8.497V127.496a8.497 8.497 0 0 0-8.498-8.496Z"/>
  <path fill="#111" d="M96.2 138.636h-8a.398.398 0 0 1-.283-.119.415.415 0 0 1 0-.579.394.394 0 0 1 .283-.12H95a.394.394 0 0 0 .283-.12.414.414 0 0 0 0-.578A.394.394 0 0 0 95 137h-6.8c-.318 0-.624.129-.849.359a1.244 1.244 0 0 0-.351.868v6.546c0 .325.126.637.352.868.224.23.53.359.848.359h8a.79.79 0 0 0 .566-.24.826.826 0 0 0 .234-.578v-5.727a.828.828 0 0 0-.234-.579.793.793 0 0 0-.566-.24Zm0 6.546h-8a.394.394 0 0 1-.283-.12.414.414 0 0 1-.117-.289v-5.389c.128.047.264.071.4.071h8v5.727Zm-2.4-3.068c0-.122.035-.24.101-.341a.6.6 0 0 1 .616-.261.59.59 0 0 1 .307.168.619.619 0 0 1 .13.668.593.593 0 0 1-.979.2.624.624 0 0 1-.175-.434Z"/>
  <path fill="#CCC" d="m154.457 226.534-39.279.015a.188.188 0 0 1-.188-.188.188.188 0 0 1 .188-.187l39.279-.016a.188.188 0 0 1 0 .376Z"/>
  <path fill="#2FC2DC" d="M153.934 228.975a2.629 2.629 0 1 0 0-5.258 2.629 2.629 0 0 0 0 5.258Z"/>
  <path fill="#CCC" d="m153.518 176.213-39.655.015a.188.188 0 1 1 0-.375l39.655-.016a.188.188 0 0 1 0 .376Z"/>
  <path fill="#2FC2DC" d="M153.934 178.841a2.628 2.628 0 1 0 0-5.257 2.629 2.629 0 1 0 0 5.257Z"/>
  <path fill="#CCC" d="m51.993 150.489 39.655.016a.189.189 0 0 0 .188-.188.188.188 0 0 0-.188-.188l-39.655-.015a.185.185 0 0 0-.133.055.188.188 0 0 0 .133.32Z"/>
  <path fill="#2FC2DC" d="M51.577 153.118a2.63 2.63 0 1 0 0-5.258 2.63 2.63 0 0 0 0 5.258Z"/>
  <path fill="#CCC" d="m51.993 201.373 39.655.016a.189.189 0 0 0 .188-.188.188.188 0 0 0-.188-.188l-39.655-.015a.187.187 0 1 0 0 .375Z"/>
  <path fill="#2FC2DC" d="M51.577 204.002a2.63 2.63 0 1 0 0-5.258 2.63 2.63 0 0 0 0 5.258Z"/>
  <path fill="#CCC" d="M116.157 226.549a8.449 8.449 0 1 1 3.234-16.255 8.444 8.444 0 0 1 5.218 7.806 8.459 8.459 0 0 1-8.452 8.449Zm0-16.523a8.075 8.075 0 1 0-.001 16.15 8.075 8.075 0 0 0 .001-16.15Zm-24.415-8.637a8.456 8.456 0 0 1-7.808-5.216 8.448 8.448 0 0 1 6.159-11.521 8.458 8.458 0 0 1 8.676 3.593 8.448 8.448 0 0 1 1.424 4.694 8.465 8.465 0 0 1-8.451 8.45Zm0-16.523a8.078 8.078 0 0 0-7.461 4.984 8.072 8.072 0 0 0 5.885 11.008 8.074 8.074 0 0 0 9.652-7.919 8.083 8.083 0 0 0-8.076-8.073Zm22.725-8.638a8.45 8.45 0 1 1 7.027-13.143 8.443 8.443 0 0 1-1.054 10.666 8.457 8.457 0 0 1-5.973 2.477Zm0-16.523a8.08 8.08 0 0 0-7.461 4.984 8.08 8.08 0 0 0 5.885 11.009 8.082 8.082 0 0 0 8.291-3.433 8.077 8.077 0 0 0 1.361-4.486 8.082 8.082 0 0 0-8.076-8.074Zm-22.537-9.216a8.449 8.449 0 1 1 3.234-16.256 8.451 8.451 0 0 1 5.217 7.807 8.46 8.46 0 0 1-8.451 8.449Zm0-16.523a8.078 8.078 0 0 0-7.462 4.984 8.073 8.073 0 0 0 10.552 10.549 8.074 8.074 0 0 0 4.986-7.459 8.086 8.086 0 0 0-8.076-8.074Z"/>
  <path fill="#F2F2F2" d="M159.271 244.673a3.622 3.622 0 0 0 1.197-1.802c.153-.717-.152-1.559-.835-1.836-.767-.296-1.587.237-2.208.773-.62.536-1.334 1.15-2.148 1.035a3.264 3.264 0 0 0 1.001-3.058 1.252 1.252 0 0 0-.281-.624c-.424-.455-1.197-.258-1.709.1-1.621 1.141-2.073 3.342-2.08 5.325-.165-.717-.028-1.462-.031-2.183-.003-.72-.206-1.558-.823-1.939a2.509 2.509 0 0 0-1.247-.296c-.73-.025-1.541.047-2.04.58-.623.661-.458 1.774.082 2.494.539.72 1.356 1.185 2.107 1.69a4.64 4.64 0 0 1 1.51 1.437c.046.081.083.167.112.255h4.568a12.682 12.682 0 0 0 2.825-1.951Z"/>
  <path fill="#111" d="m114.271 162.458-4.354 2.292v.917h8.708v-.917m-2.292 1.833v3.209h1.375v-3.209m-7.791 5.5h8.708v-1.375h-8.708m3.666-4.125v3.209h1.375v-3.209m-4.125 0v3.209h1.375v-3.209h-1.375Zm-17.487 21.523-5.183 4.639a.5.5 0 0 0 .29.865l4.047.39-2.426 3.379a.394.394 0 0 0 .04.505c.15.15.385.155.54.01l5.183-4.639a.5.5 0 0 0-.29-.865L91.5 192l2.426-3.379a.394.394 0 0 0-.308-.621.383.383 0 0 0-.272.106Zm21.696 25.387-.148-.094c-.289-.178-.65-.282-.961-.185-.333.105-.599.364-.738.752l-.199-.103c-.342-.177-.521-.18-.669-.113-.118.054-.242.182-.382.369l1.739 1.354c.273.089.672.087 1.07-.017.401-.104.8-.308 1.092-.582l.656-1.634c-.578-.46-1.106-.194-1.46.253Zm1.12 1.625c-.359.365-.893.612-1.308.722a2.857 2.857 0 0 1-.433.081c-.078.13-.144.261-.194.393.101.519.291.943.576 1.292l-.304.255a3.299 3.299 0 0 1-.45-.697c-.019.493.091 1.003.271 1.534l-.374.127c-.329-.968-.441-1.961.021-2.895a1.736 1.736 0 0 1-.441-.092l-.006-.002a3.954 3.954 0 0 0-.26.274c-.666.778-1.033 1.812-.841 2.618.103.431.287.839.552 1.187.388-.008.756 0 1.089.128.158-.017.321-.028.49-.028.601 0 1.146.113 1.557.308.161.077.306.168.423.272a.96.96 0 0 1 .05-.323c-.188-.178-.306-.395-.306-.641 0-.343.226-.625.553-.829 0-.098.019-.191.053-.28-.213-.185-.35-.415-.35-.682a.81.81 0 0 1 .147-.459.8.8 0 0 1-.112-.691c-.204-.183-.333-.408-.333-.667 0-.257.127-.48.329-.661a1.95 1.95 0 0 0-.399-.244Zm2.352.049c-.549 0-1.045.117-1.385.289-.342.172-.502.384-.502.567 0 .185.16.397.502.569.34.173.836.289 1.385.289.238 0 .464-.023.673-.061v-.361c.293-.045.536-.126.692-.23v.374c.264-.076.517-.359.524-.58 0-.183-.161-.395-.503-.567-.342-.172-.836-.289-1.386-.289Zm2.036 1.438a1.428 1.428 0 0 1-.244.208l.004.616c.266-.159.39-.344.39-.505a.47.47 0 0 0-.15-.319Zm-3.626.327c.007.183.167.389.503.559.342.174.835.289 1.386.289.344 0 .667-.047.944-.123l.015-.578a3.848 3.848 0 0 1-1.258.198c-.602 0-1.149-.122-1.562-.33-.011-.004-.019-.01-.028-.015Zm.042.74a.37.37 0 0 0-.042.168c0 .184.161.397.503.569.342.172.835.287 1.386.287.279 0 .543-.028.781-.081v-.51c-.245.047-.506.07-.781.07-.603 0-1.15-.119-1.564-.329a1.875 1.875 0 0 1-.283-.174Zm3.692 0a2.06 2.06 0 0 1-.371.216v.474c.28-.163.413-.355.413-.522a.357.357 0 0 0-.042-.168Zm.158.782a1.71 1.71 0 0 1-.139.123v.688c.217-.149.323-.312.323-.461 0-.113-.061-.234-.184-.35Zm-3.59.297c-.002.019-.004.036-.004.053 0 .185.16.395.502.567.342.175.838.289 1.387.289.314 0 .614-.038.874-.102v-.635c-.344.111-.743.17-1.172.17-.603 0-1.15-.121-1.564-.329l-.023-.013Zm-.287.455c-.184.138-.27.289-.27.425 0 .184.16.395.502.569.342.172.836.287 1.387.287.2 0 .395-.015.576-.043v-.386h-.023c-.604 0-1.15-.122-1.564-.332-.264-.132-.483-.308-.608-.52Zm3.43.65a3.167 3.167 0 0 1-.543.14v.257c.041-.017.081-.034.119-.053.207-.106.346-.225.424-.344Zm.194.386c-.08.081-.173.153-.276.219v.608c.28-.162.413-.353.413-.521a.464.464 0 0 0-.137-.306Zm-7.36.06a3.13 3.13 0 0 0-.688.087c-.481.113-.895.319-1.166.546-.27.225-.375.455-.344.618.032.164.199.315.524.402.324.085.777.089 1.258-.024a3.49 3.49 0 0 0 .543-.176v-.44c.308-.138.538-.304.641-.465v.518c.256-.221.355-.442.325-.603-.029-.164-.198-.314-.523-.399a2.182 2.182 0 0 0-.57-.064Zm1.364.11a.757.757 0 0 1 .118.281.769.769 0 0 1-.026.372c.209.055.399.129.564.223.093.051.179.112.255.176.19-.045.351-.108.465-.185v.438c.34-.162.496-.359.496-.516 0-.16-.156-.357-.498-.519-.34-.159-.83-.268-1.374-.27Zm2.359.107c-.002.008-.002.019-.002.029 0 .185.161.395.503.57.342.172.835.286 1.386.286.279 0 .543-.029.781-.08v-.572a3.974 3.974 0 0 1-1.036.132c-.604 0-1.15-.121-1.564-.329a1.15 1.15 0 0 0-.068-.036Zm.059.792a.393.393 0 0 0-.061.204c0 .185.161.395.503.569.342.172.835.287 1.386.287.279 0 .543-.03.781-.081v-.56a4.23 4.23 0 0 1-.781.072c-.603 0-1.15-.121-1.564-.332a1.728 1.728 0 0 1-.264-.159Zm3.654 0c-.122.083-.23.149-.352.202v.522c.28-.161.413-.352.413-.52a.393.393 0 0 0-.061-.204Zm-6.176.115c-.074.093-.16.182-.257.263-.33.278-.794.504-1.33.629a3.823 3.823 0 0 1-.564.087.957.957 0 0 0 .361.321c.287.164.71.274 1.178.274.213 0 .416-.023.602-.064v-.442c.291-.044.536-.125.692-.229v.391c.211-.149.312-.317.312-.476 0-.185-.137-.382-.426-.546a2.144 2.144 0 0 0-.568-.208Z"/>
</svg>
