<svg width="34" height="35" viewBox="0 0 34 35" fill="none" xmlns="http://www.w3.org/2000/svg">
<path fill-rule="evenodd" clip-rule="evenodd" d="M22.6588 20.3978C22.0406 20.3978 21.4798 20.6495 21.0737 21.0543C20.6688 21.4591 20.4172 22.0213 20.4172 22.6394C20.4172 23.2576 20.6688 23.8184 21.0737 24.2246C21.4785 24.6294 22.0393 24.8811 22.6588 24.8811C23.277 24.8811 23.8378 24.6294 24.244 24.2246C24.6488 23.8198 24.9005 23.2576 24.9005 22.6394C24.9005 22.0213 24.6488 21.4605 24.244 21.0543C23.8391 20.6495 23.277 20.3978 22.6588 20.3978ZM32.6757 18.2806C32.5745 18.0029 32.5225 17.7321 32.5225 17.4627C32.5225 17.1933 32.5745 16.9211 32.6757 16.6448L33.3719 14.7602C33.6919 13.893 33.6974 12.9849 33.4307 12.1629C33.164 11.3422 32.6251 10.6105 31.8551 10.0963L30.1838 8.98024C29.939 8.81612 29.7379 8.62738 29.5793 8.40855C29.422 8.19109 29.303 7.94081 29.2237 7.65769L28.6779 5.72377C28.4263 4.83202 27.897 4.09209 27.1981 3.58468C26.5005 3.07863 25.6334 2.80371 24.7089 2.83928L22.7011 2.91861C22.407 2.92955 22.1335 2.89399 21.8763 2.81193C21.6178 2.7285 21.3757 2.59583 21.146 2.4153L19.5677 1.17068C18.8387 0.594891 17.9756 0.307678 17.1154 0.307678C16.2537 0.307678 15.3921 0.594895 14.6631 1.17068L13.0848 2.4153C12.855 2.59583 12.6129 2.7285 12.3544 2.81193C12.0987 2.89536 11.8238 2.93091 11.5297 2.91861L9.52189 2.83928C8.59596 2.80235 7.73019 3.07726 7.03266 3.58468C6.33376 4.09345 5.8031 4.83202 5.55279 5.72377L5.00708 7.65769C4.92775 7.9408 4.80876 8.19108 4.65148 8.40855C4.49283 8.62601 4.29179 8.81614 4.04695 8.98024L2.37563 10.0963C1.60562 10.6106 1.06673 11.3423 0.800034 12.1629C0.533331 12.9849 0.538804 13.8944 0.858845 14.7602L1.55501 16.6448C1.65622 16.9225 1.7082 17.1933 1.7082 17.4627C1.7082 17.7321 1.65622 18.0043 1.55501 18.2806L0.858845 20.1653C0.538804 21.0324 0.533331 21.9405 0.800034 22.7626C1.06674 23.5832 1.60562 24.3149 2.37563 24.8291L4.04695 25.9452C4.29177 26.1093 4.4928 26.298 4.65148 26.5169C4.80877 26.7343 4.92776 26.9846 5.00708 27.2677L5.55279 29.2017C5.80445 30.0934 6.33376 30.8333 7.03266 31.3407C7.73019 31.8468 8.59733 32.1217 9.52189 32.0861L11.5297 32.0068C11.8237 31.9959 12.0973 32.0314 12.3544 32.1135C12.6129 32.1969 12.855 32.3296 13.0848 32.5101L14.6631 33.7547C15.3921 34.3305 16.2551 34.6177 17.1154 34.6177C17.977 34.6177 18.8387 34.3305 19.5677 33.7547L21.146 32.5101C21.3758 32.3296 21.6179 32.1969 21.8763 32.1135C22.1321 32.0301 22.407 31.9945 22.7011 32.0068L24.7089 32.0861C25.6348 32.1231 26.5005 31.8482 27.1981 31.3407C27.897 30.832 28.4276 30.0934 28.6779 29.2017L29.2237 27.2677C29.303 26.9846 29.422 26.7343 29.5793 26.5169C29.7379 26.2994 29.939 26.1093 30.1838 25.9452L31.8551 24.8291C32.6251 24.3149 33.164 23.5832 33.4307 22.7626C33.6974 21.9405 33.6919 21.031 33.3719 20.1653L32.6757 18.2806ZM23.0061 12.7086L12.36 23.3547C12.0455 23.6693 11.5367 23.6693 11.2221 23.3547C10.9075 23.0401 10.9075 22.5313 11.2221 22.2168L21.8682 11.5707C22.1828 11.2561 22.6916 11.2561 23.0061 11.5707C23.3207 11.8852 23.3207 12.394 23.0061 12.7086ZM14.2924 9.56423C14.9886 10.2604 15.4208 11.2233 15.4208 12.2873C15.4208 13.35 14.9899 14.3129 14.2924 15.009C13.5962 15.7052 12.6334 16.1374 11.5707 16.1374C10.508 16.1374 9.54511 15.7066 8.84762 15.009C8.15145 14.3129 7.71924 13.35 7.71924 12.2873C7.71924 11.2246 8.15145 10.2617 8.84762 9.56423C9.54378 8.86806 10.5066 8.43586 11.5707 8.43586C12.6334 8.43586 13.5963 8.86806 14.2924 9.56423ZM25.3818 19.9162C26.078 20.6124 26.5102 21.5753 26.5102 22.6379C26.5102 23.7006 26.078 24.6635 25.3818 25.361C24.6856 26.0572 23.7228 26.4894 22.6587 26.4894C21.596 26.4894 20.6331 26.0572 19.937 25.361C19.2408 24.6649 18.8086 23.702 18.8086 22.6379C18.8086 21.5752 19.2395 20.6124 19.937 19.9162C20.6332 19.2201 21.596 18.7879 22.6587 18.7879C23.7214 18.7879 24.6843 19.2187 25.3818 19.9162ZM13.1545 13.8695C13.5593 13.4646 13.811 12.9025 13.811 12.2843C13.811 11.6661 13.5593 11.1053 13.1545 10.6991C12.7497 10.2943 12.1889 10.0426 11.5693 10.0426C10.9511 10.0426 10.3904 10.2943 9.98418 10.6991C9.57936 11.104 9.32768 11.6661 9.32768 12.2843C9.32768 12.9025 9.57934 13.4633 9.98418 13.8695C10.389 14.2743 10.9511 14.5259 11.5693 14.5259C12.1875 14.5259 12.7483 14.2743 13.1545 13.8695Z" fill="#1DBBD8"/>
</svg>
