<svg xmlns="http://www.w3.org/2000/svg" width="33" height="33" fill="none" viewBox="0 0 33 33">
  <circle cx="16.5" cy="16.5" r="16.5" fill="#F0F0F0"/>
  <path fill="#000" d="M21.728 8.285a9.467 9.467 0 0 0-2.998-1.263.948.948 0 0 0-.807.194.969.969 0 0 0-.355.758c0 .437.288.845.71.943a7.387 7.387 0 0 1 2.431 1.02c.375.243.855.165 1.172-.156.433-.437.365-1.166-.153-1.496Zm3.304 7.238c.615 0 1.086-.573.942-1.175a9.883 9.883 0 0 0-1.25-3.032.954.954 0 0 0-1.488-.155.98.98 0 0 0-.154 1.185c.47.748.817 1.574 1.009 2.458a.972.972 0 0 0 .349.523c.17.13.379.2.592.196Zm-1.796 6.305c.432.437 1.162.37 1.489-.145.576-.914 1-1.934 1.249-3.022a.971.971 0 0 0-.942-1.176c-.432 0-.835.292-.931.72a7.89 7.89 0 0 1-1.01 2.457c-.24.36-.163.855.145 1.166Zm-5.668 3.187c0 .622.566 1.098 1.162.952a9.505 9.505 0 0 0 2.988-1.263c.519-.33.586-1.069.154-1.506-.308-.31-.798-.389-1.163-.146a7.312 7.312 0 0 1-2.43 1.02c-.423.098-.711.496-.711.943Zm0-8.52v-3.887a.969.969 0 0 0-.961-.971.969.969 0 0 0-.96.971v3.886h-1.528c-.855 0-1.287 1.05-.682 1.662l2.488 2.516a.95.95 0 0 0 1.354 0l2.489-2.516c.605-.612.173-1.662-.682-1.662h-1.518Zm-1.922 8.52c0 .622-.567 1.098-1.162.962C10.199 24.995 7 21.129 7 16.494c0-4.634 3.2-8.5 7.484-9.472a.948.948 0 0 1 .807.194.968.968 0 0 1 .355.758.956.956 0 0 1-.73.943c-3.43.777-5.995 3.876-5.995 7.577 0 3.702 2.566 6.801 5.995 7.578.432.098.73.496.73.943Z"/>
</svg>
