<svg width="50" height="48" viewBox="0 0 50 48" fill="none" xmlns="http://www.w3.org/2000/svg" >
  <style>
    :root {
      --Color-PrimaryWebOrient: #1EBBD7;
    }
  </style>
  <path d="M20.3891 2.35457L19.6782 1.90871C18.2867 1.05559 16.55 0.559961 15.0571 1.02512C13.4524 1.52481 12.1727 2.76082 11.5024 4.61738L10.5477 4.12582C8.90237 3.27879 8.04112 3.26559 7.32713 3.58652C6.75737 3.84145 6.16323 4.45488 5.48987 5.35066L13.8586 11.8212C15.1688 12.2478 17.0883 12.2376 19.0078 11.74C20.9375 11.2423 22.8571 10.2673 24.2586 8.95715L27.4172 1.14699C24.6344 -1.05184 22.0953 0.221758 20.3891 2.35457ZM25.7821 10.1251C24.0555 11.872 21.486 13.0501 19.4852 13.5782C18.7844 13.7611 18.0836 13.8931 17.4032 13.9642C17.0274 14.5837 16.7125 15.2134 16.4688 15.8431C16.9563 18.3212 17.8703 20.3525 19.2414 22.0181L17.7789 23.2368C16.936 22.2212 16.1844 21.1243 15.6157 19.9056C15.5242 22.2618 16.0524 24.6993 16.9156 27.2384L15.118 27.8478C13.5336 23.2165 12.9953 18.4736 15.2196 14.0048C14.468 13.9439 13.7571 13.8017 13.0969 13.5681L13.0664 13.5579C12.6297 13.9743 12.2133 14.4111 11.8172 14.8681C8.61088 18.5853 6.84471 23.5314 7.76893 27.3806C8.26354 29.4423 9.15018 31.3923 10.4258 33.0579C12.2946 33.0173 14.0617 33.0579 15.6664 33.6673C16.4282 33.5861 17.2102 33.5353 18.0227 33.5353C20.9172 33.5353 23.5375 34.0736 25.518 35.0079C26.2899 35.3736 26.9907 35.8103 27.5492 36.3079C27.5492 35.7696 27.6305 35.1907 27.793 34.7642C26.8891 33.9111 26.3203 32.8751 26.3203 31.697C26.3203 30.0618 27.4071 28.7111 28.9813 27.7361C28.9813 27.2689 29.0727 26.822 29.2352 26.3954C28.2094 25.5118 27.5492 24.415 27.5492 23.1353C27.5492 22.3329 27.8133 21.6017 28.2602 20.9415C27.8133 20.2915 27.5492 19.5603 27.5492 18.7579C27.5492 18.3618 27.6102 17.9962 27.7219 17.6407C26.7367 16.7673 26.1172 15.6907 26.1172 14.4517C26.1172 13.2228 26.7266 12.1564 27.7016 11.2931C27.1024 10.8259 26.4625 10.4298 25.7821 10.1251ZM37.0961 10.3587C34.4555 10.3587 32.0688 10.9173 30.4336 11.74C28.7883 12.5626 28.0164 13.5782 28.0164 14.4517C28.0164 15.3353 28.7883 16.3509 30.4336 17.1736C32.0688 17.9962 34.4555 18.5548 37.0961 18.5548C38.2438 18.5548 39.3305 18.4431 40.336 18.2603V16.5337C41.7477 16.3204 42.9156 15.9345 43.6672 15.4368V17.2243C44.9367 16.8587 46.1555 15.5079 46.186 14.4517C46.186 13.5782 45.4141 12.5626 43.7688 11.74C42.1235 10.9173 39.7469 10.3587 37.0961 10.3587ZM46.8969 17.2345C46.5617 17.59 46.1656 17.9251 45.7188 18.2298L45.7391 21.1751C47.0188 20.4134 47.618 19.5298 47.618 18.7579C47.618 18.2704 47.3844 17.7423 46.8969 17.2345ZM29.4485 18.7986C29.4789 19.672 30.2508 20.6572 31.8657 21.4697C33.511 22.3025 35.8875 22.8509 38.5383 22.8509C40.1938 22.8509 41.7477 22.6275 43.0782 22.2618L43.1492 19.4993C41.4024 20.1087 39.3305 20.4439 37.0961 20.4439C34.2016 20.4439 31.5711 19.865 29.5805 18.8696C29.5297 18.8493 29.4891 18.8189 29.4485 18.7986ZM29.6516 22.3329C29.5094 22.6072 29.4485 22.8814 29.4485 23.1353C29.4485 24.0189 30.2203 25.0345 31.8657 25.8571C33.511 26.6798 35.8875 27.2282 38.5383 27.2282C39.8789 27.2282 41.1485 27.0962 42.2961 26.8423V24.4048C41.118 24.6282 39.8586 24.74 38.5383 24.74C35.6336 24.74 33.0032 24.1712 31.0125 23.1657C30.5149 22.922 30.0578 22.6376 29.6516 22.3329ZM47.4149 22.3329C46.7953 22.7696 46.2571 23.0947 45.6274 23.3689V25.6337C46.9781 24.8517 47.618 23.9376 47.618 23.1353C47.618 22.8814 47.5571 22.6072 47.4149 22.3329ZM48.1766 26.0704C47.9735 26.2736 47.75 26.4665 47.5063 26.6595V29.9501C48.5524 29.2392 49.0602 28.4571 49.0602 27.7462C49.0602 27.2079 48.7657 26.629 48.1766 26.0704ZM30.9008 27.4923C30.8907 27.5837 30.8805 27.665 30.8805 27.7462C30.8805 28.6298 31.6524 29.6353 33.2977 30.4579C34.943 31.2907 37.3297 31.8392 39.9703 31.8392C41.4836 31.8392 42.9258 31.6564 44.175 31.3517V28.315C42.5196 28.8431 40.6 29.1275 38.5383 29.1275C35.6336 29.1275 33.0032 28.5486 31.0125 27.5532C30.9719 27.5329 30.9414 27.5126 30.9008 27.4923ZM29.5196 29.6657C28.636 30.3259 28.2196 31.047 28.2196 31.697C28.2196 32.5806 28.9914 33.5861 30.6367 34.4189C32.2821 35.2415 34.6586 35.79 37.3094 35.79C38.2742 35.79 39.2086 35.7189 40.0821 35.5868V33.7384H39.9703C37.0657 33.7384 34.4352 33.1595 32.4446 32.154C31.175 31.5243 30.1188 30.6814 29.5196 29.6657ZM46.0235 32.7736C45.2211 33.0579 44.3477 33.2915 43.4133 33.4439V34.6728C43.6063 34.5915 43.7992 34.5103 43.9821 34.4189C44.9774 33.9111 45.6477 33.3423 46.0235 32.7736ZM46.9578 34.622C46.5719 35.0079 46.125 35.3532 45.6274 35.6681V38.5728C46.9781 37.8009 47.618 36.8868 47.618 36.0845C47.618 35.6173 47.4047 35.1095 46.9578 34.622ZM11.543 34.9064C10.5071 34.9165 9.38987 35.0486 8.23206 35.3228C5.91542 35.8611 3.92378 36.8462 2.62378 37.9329C1.32378 39.0095 0.815963 40.1064 0.968306 40.8884C1.12065 41.6704 1.92299 42.3915 3.48706 42.8079C5.04604 43.2142 7.22659 43.2345 9.54221 42.6962C10.4766 42.4728 11.35 42.1884 12.1524 41.8532V39.7509C13.6352 39.0907 14.7422 38.2986 15.2399 37.5267V40.0048C16.4688 38.9486 16.9461 37.8923 16.8039 37.1204C16.6617 36.3384 15.8492 35.6173 14.2852 35.2111C13.5032 35.0079 12.5688 34.8962 11.543 34.9064ZM18.1039 35.4345C18.3782 35.8306 18.5711 36.2775 18.6727 36.7751C18.7844 37.3845 18.7336 37.9736 18.5508 38.5525C19.5563 38.8165 20.4703 39.172 21.2625 39.6189C21.7094 39.8626 22.1258 40.1572 22.4914 40.4618C23.4055 40.2486 24.1774 39.9439 24.7258 39.5782V41.6704C26.361 40.8986 27.1125 39.954 27.1125 39.2025C27.1125 38.4407 26.361 37.4962 24.7157 36.7243C23.0805 35.9626 20.7242 35.4446 18.1039 35.4345ZM29.4586 35.9423C29.4485 35.9829 29.4485 36.0337 29.4485 36.0845C29.4485 36.9681 30.2203 37.9736 31.8657 38.8064C33.511 39.629 35.8875 40.1775 38.5383 40.1775C39.8789 40.1775 41.1485 40.0353 42.2961 39.7915V37.0595C40.793 37.4657 39.0969 37.6892 37.3094 37.6892C34.4047 37.6892 31.7742 37.1103 29.7836 36.115C29.6719 36.054 29.5602 35.9931 29.4586 35.9423ZM29.743 39.7306C29.5399 40.0657 29.4485 40.3907 29.4485 40.7056C29.4485 41.5892 30.2203 42.5946 31.8657 43.4275C33.511 44.2501 35.8875 44.7986 38.5383 44.7986C39.8789 44.7986 41.1485 44.6564 42.2961 44.4126V41.7314C41.118 41.9548 39.8586 42.0767 38.5383 42.0767C35.6336 42.0767 33.0032 41.4978 31.0125 40.4923C30.5555 40.2689 30.1289 40.015 29.743 39.7306ZM47.3235 39.7306C46.7344 40.1267 46.2164 40.4415 45.6274 40.6954V43.1939C46.9781 42.422 47.618 41.5079 47.618 40.7056C47.618 40.3907 47.5266 40.0657 47.3235 39.7306ZM17.6063 40.279C17.2508 40.7259 16.8344 41.1525 16.3672 41.5384C14.7828 42.8689 12.5485 43.9454 9.96878 44.5446C9.04862 44.7579 8.13456 44.89 7.25706 44.9611C7.58206 45.4993 8.15385 46.0275 8.99073 46.4946C10.375 47.2767 12.4063 47.8048 14.661 47.8048C15.6867 47.8048 16.6617 47.6931 17.5555 47.5001V45.3876C18.9571 45.1743 20.1352 44.7884 20.8867 44.2907V46.1595C21.9024 45.4486 22.3899 44.6462 22.3899 43.8845C22.3899 43.0009 21.7297 42.0564 20.3383 41.2743C19.5867 40.8579 18.6524 40.5126 17.6063 40.279Z" fill="#1EBBD7"/>
</svg>
