<svg xmlns="http://www.w3.org/2000/svg" width="64" height="19" fill="none" viewBox="0 0 64 19">
  <g clip-path="url(#a)">
    <path fill="#006AA7" fill-rule="evenodd" d="M40.392 8.65h6.997c1.93 0 3.508 1.06 3.508 2.352 0 1.14-1.226 2.097-2.84 2.308l3.298 3.095h-3.652l-3.25-3.051h-3.299v3.05h-2.936V8.652h2.173Zm.762 3.547h4.501c.933 0 1.695-.465 1.695-1.09s-.762-1.135-1.695-1.135h-4.5v2.225ZM24.486 8.65h8.945c1.95 0 3.544.943 3.544 2.097 0 .748-.67 1.408-1.67 1.779 1 .372 1.67 1.032 1.67 1.78 0 1.152-1.595 2.096-3.544 2.096h-8.945V8.651Zm2.964 4.341v2.028h4.229c.94 0 1.711-.457 1.711-1.014 0-.557-.77-1.014-1.711-1.014H27.45Zm0-2.958v2.028h4.229c.94 0 1.711-.456 1.711-1.014 0-.557-.77-1.014-1.711-1.014H27.45ZM22.805 8.64h-5.673c-2.39 0-4.346 1.25-4.346 2.782v4.981h2.663V13.21h7.356v-1.378h-7.356v-.02c0-.988 1.262-1.795 2.803-1.795h4.553V8.641Z" clip-rule="evenodd"/>
    <mask id="b" width="64" height="8" x="0" y="4" maskUnits="userSpaceOnUse" style="mask-type:luminance">
      <path fill="#fff" d="M0 4.727h64v6.364H0V4.727Z"/>
    </mask>
    <g mask="url(#b)">
      <path fill="#DFDB00" fill-rule="evenodd" d="M32.014 6.648C15.84 6.866 8.81 8.065.022 10.99c5.284-3.338 15.817-5.895 31.992-6.113 16.175.218 26.709 2.775 31.992 6.113C55.22 8.065 48.19 6.866 32.014 6.65Z" clip-rule="evenodd"/>
    </g>
    <path fill="#FEC200" fill-rule="evenodd" d="m32.015-.016.794 4.865 2.72-1.397-2.169 1.732 7.367.52-7.373.518 2.261 1.788-2.804-1.457-.796 4.87-.795-4.865-2.72 1.396 2.169-1.732-7.367-.519 7.373-.52-2.261-1.787 2.805 1.457.796-4.87Z" clip-rule="evenodd"/>
    <mask id="c" width="22" height="2" x="21" y="17" maskUnits="userSpaceOnUse" style="mask-type:luminance">
      <path fill="#fff" d="M21.854 17.273h20.434V19H21.854v-1.727Z"/>
    </mask>
    <g mask="url(#c)">
      <path fill="#006AA7" fill-rule="evenodd" d="M31.972 17.297h1.83v.331h-1.765c-.126 0-.23.067-.23.148 0 .081.104.148.23.148h.88v.002h.05c.456 0 .835.24.835.536 0 .294-.379.534-.836.534h-.64v.002h-1.102v-.332h1.683c.175 0 .319-.092.319-.204 0-.113-.144-.205-.318-.205h-.37v-.001h-.566c-.414 0-.748-.217-.748-.48s.334-.48.748-.48Zm3.125.012h1.555v.35h-1.01v1.339h-.545v-1.34h-1.01v-.35h1.01Zm4.386 0h.803l1.318 1.224v-1.224h.546v1.689h-.803l-1.319-1.224v1.224h-.545v-1.69Zm-1.102.97-.39-.72-.392.72h.782Zm-.526-.97h.546l.915 1.689h-.546l-.2-.369h-1.16l-.2.369h-.545l.916-1.69h.274Zm-10.291 0h.545v.677l.922-.677h.755l-1.15.844 1.15.845h-.755l-.922-.677v.677h-.545v-1.69Zm-1.23.97-.39-.72-.391.72h.781Zm-.526-.97h.545l.916 1.689h-.545l-.2-.369h-1.16l-.201.369h-.546l.916-1.69h.275Zm4.404 0h.546v1.689h-.546v-1.69Zm-6.487-.011h-1.501v.01h-.336v1.69h.545v-.56h1.292c.49 0 .89-.256.89-.57 0-.314-.4-.57-.89-.57Zm-1.292.327h1.292c.208 0 .38.11.38.243 0 .134-.172.244-.38.244h-1.292v-.487Z" clip-rule="evenodd"/>
    </g>
  </g>
  <defs>
    <clipPath id="a">
      <path fill="#fff" d="M0 0h64v19H0z"/>
    </clipPath>
  </defs>
</svg>
