<svg xmlns="http://www.w3.org/2000/svg" width="31" height="31" fill="none" viewBox="0 0 31 31">
  <circle cx="15.5" cy="15.5" r="15.5" fill="#F0F0F0"/>
  <path fill="#090909" fill-rule="evenodd" d="M18.833 18.97c1.089 0 2.015.834 2.359 1.996h.975a.77.77 0 0 1 .589.292c.156.187.244.44.244.706 0 .264-.088.518-.244.705a.77.77 0 0 1-.59.292h-.974a3 3 0 0 1-.914 1.448 2.23 2.23 0 0 1-1.445.55 2.231 2.231 0 0 1-1.444-.55 3 3 0 0 1-.914-1.448H8.833a.77.77 0 0 1-.589-.292A1.105 1.105 0 0 1 8 21.963c0-.264.088-.518.244-.705a.77.77 0 0 1 .59-.292h7.641a2.998 2.998 0 0 1 .914-1.446 2.23 2.23 0 0 1 1.444-.55Zm0 1.996a.77.77 0 0 0-.589.292c-.156.187-.244.44-.244.706 0 .264.088.518.244.705a.77.77 0 0 0 .59.292.77.77 0 0 0 .589-.292c.156-.187.244-.44.244-.706 0-.264-.088-.518-.244-.705a.77.77 0 0 0-.59-.292Zm-6.666-7.98c.49 0 .97.172 1.38.496.41.325.73.786.921 1.327l.056.171h7.643c.212 0 .416.098.57.273.155.174.248.413.26.667a1.13 1.13 0 0 1-.192.698.805.805 0 0 1-.54.35l-.098.008h-7.642a3.01 3.01 0 0 1-.883 1.42 2.25 2.25 0 0 1-1.398.574 2.2 2.2 0 0 1-1.425-.47 2.922 2.922 0 0 1-.954-1.353l-.057-.171h-.975a.766.766 0 0 1-.57-.273 1.09 1.09 0 0 1-.26-.666 1.13 1.13 0 0 1 .192-.7.806.806 0 0 1 .54-.35l.098-.007h.975a2.999 2.999 0 0 1 .915-1.446 2.231 2.231 0 0 1 1.444-.549Zm0 1.994a.77.77 0 0 0-.59.293c-.156.187-.244.44-.244.705 0 .265.088.518.244.705a.77.77 0 0 0 .59.293.77.77 0 0 0 .589-.293c.156-.187.244-.44.244-.705 0-.264-.088-.518-.244-.705a.77.77 0 0 0-.59-.293ZM18.833 7c1.089 0 2.015.833 2.359 1.995h.975a.77.77 0 0 1 .589.292c.156.187.244.441.244.706 0 .264-.088.518-.244.705a.77.77 0 0 1-.59.292h-.974a3 3 0 0 1-.914 1.448 2.23 2.23 0 0 1-1.445.55 2.231 2.231 0 0 1-1.444-.55 3 3 0 0 1-.914-1.448H8.833a.77.77 0 0 1-.589-.292A1.105 1.105 0 0 1 8 9.993c0-.265.088-.519.244-.706a.77.77 0 0 1 .59-.292h7.641a2.998 2.998 0 0 1 .914-1.446A2.23 2.23 0 0 1 18.833 7Zm0 1.995a.77.77 0 0 0-.589.292 1.107 1.107 0 0 0-.244.706c0 .264.088.518.244.705a.77.77 0 0 0 .59.292.77.77 0 0 0 .589-.292c.156-.187.244-.44.244-.705 0-.265-.088-.519-.244-.706a.77.77 0 0 0-.59-.292Z" clip-rule="evenodd"/>
</svg>
