<svg xmlns="http://www.w3.org/2000/svg" width="381" height="251" fill="none" viewBox="0 0 381 251">
  <rect width="326.26" height="251" x="28.126" fill="#1EBBD7" opacity=".55" rx="20"/>
  <path fill="#E7E8E5" d="M381 220.001H0v-.166h381v.166Zm-159.862 4.541h19.4v-.166h-19.4v.166Zm79.936 3.608h45.974v-.166h-45.974v.166Zm-131.56-3.524h47.498v-.167h-47.498v.167Zm-40.735 4.987h9.937v-.166h-9.937v.166Zm19.588 0h45.245v-.166h-45.245v.166Zm-108.394-2.815h29.302v-.167H39.973v.167ZM33.464 1.661c-2.294 0-4.16 1.633-4.16 3.64V186.29c0 2.007 1.866 3.639 4.16 3.639h147.141c2.292 0 4.158-1.632 4.158-3.639V5.3c0-2.006-1.866-3.639-4.158-3.639H33.464Zm147.141 188.435H33.464c-2.399 0-4.35-1.707-4.35-3.806V5.3c0-2.098 1.951-3.805 4.35-3.805h147.141c2.397 0 4.349 1.707 4.349 3.805v180.99c0 2.099-1.952 3.806-4.349 3.806ZM198.281 1.661c-2.293 0-4.158 1.633-4.158 3.64V186.29c0 2.007 1.865 3.639 4.158 3.639h147.141c2.293 0 4.159-1.632 4.159-3.639V5.3c0-2.006-1.866-3.639-4.159-3.639H198.281Zm147.141 188.435H198.281c-2.398 0-4.349-1.707-4.349-3.806V5.3c0-2.098 1.951-3.805 4.349-3.805h147.141c2.398 0 4.35 1.707 4.35 3.805v180.99c0 2.099-1.952 3.806-4.35 3.806Z"/>
  <path fill="#E2E2E0" d="M149.323 162.002H98.725l-3.071-31.006h50.597l3.072 31.006Z"/>
  <path fill="#EDEDEB" d="M151.943 162.002h-50.596l-3.072-31.006h50.597l3.071 31.006Z"/>
  <path fill="#fff" d="m108.263 155.344-1.687-17.69h35.379l1.687 17.69h-35.379Z"/>
  <path fill="#E2E2E0" d="M154.762 219.834h5.936v-57.832h-5.936v57.832Z"/>
  <path fill="#EDEDEB" d="M158.449 219.834h4.122v-57.832h-4.122v57.832Z"/>
  <path fill="#EDEDEB" d="M105.109 168.385h57.462v-6.383h-57.462v6.383Z"/>
  <path fill="#E2E2E0" d="M101.206 219.834h5.936v-51.448h-5.936v51.448Z"/>
  <path fill="#EDEDEB" d="M104.892 219.834h4.123v-51.448h-4.123v51.448Z"/>
  <path fill="#E2E2E0" d="M64.882 219.834h-5.936v-51.449h5.936v51.449Z"/>
  <path fill="#EDEDEB" d="M66.756 219.834h-4.123v-51.449h4.123v51.449Z"/>
  <path fill="#E2E2E0" d="M117.192 219.834h5.937v-51.448h-5.937v51.448Z"/>
  <path fill="#EDEDEB" d="M120.879 219.834h4.123v-51.448h-4.123v51.448Z"/>
  <path fill="#E2E2E0" d="M58.946 168.385h46.163v-6.383H58.946v6.383Z"/>
  <path fill="#DADBD8" d="M98.685 104.792h178.56V17.805H98.685v86.987Z"/>
  <path fill="#F3F2F1" d="M99.587 104.792H287.05V17.805H99.587v86.987Z"/>
  <path fill="#fff" d="M102.65 102.113h181.338V20.485H102.65v81.628Z"/>
  <path fill="#F3F2F1" d="m176.071 102.113 34.238-81.628h-56.503l-34.236 81.628h56.501Zm54.389 0 34.238-81.628h-42.624l-34.237 81.628h42.623Z"/>
  <path fill="#E2E2E0" d="M333.841 219.835h-15.178v-83.08h15.178v83.08Z"/>
  <path fill="#FAFAF9" d="M329.85 219.835h3.991v-6.398h-8.176l4.185 6.398Z"/>
  <path fill="#E2E2E0" d="M178.715 219.835h15.178v-83.08h-15.178v83.08Z"/>
  <path fill="#FAFAF9" d="M190.411 218.108H333.84v-81.353H190.411v81.353Z"/>
  <path fill="#E2E2E0" d="M193.888 162.337h136.476v-21.643H193.888v21.643Zm137.238.667h-138v-22.977h138v22.977Z"/>
  <path fill="#E2E2E0" d="M210.419 143.571c2.578 4.422 6.084 6.945 9.681 6.945h86.732c3.597 0 7.103-2.523 9.681-6.945H210.419Zm96.413 7.612H220.1c-4.028 0-7.906-2.843-10.638-7.8l-.263-.479h108.535l-.263.479c-2.732 4.957-6.61 7.8-10.639 7.8Z"/>
  <path fill="#FAFAF9" d="M194.402 219.835h-3.991v-6.398h8.175l-4.184 6.398Z"/>
  <path fill="#E2E2E0" d="M193.888 188.253h136.476V166.61H193.888v21.643Zm137.238.667h-138v-22.977h138v22.977Z"/>
  <path fill="#E2E2E0" d="M210.419 169.487c2.578 4.421 6.084 6.945 9.681 6.945h86.732c3.598 0 7.103-2.524 9.681-6.945H210.419Zm96.413 7.612H220.1c-4.028 0-7.906-2.843-10.638-7.8l-.263-.479h108.535l-.263.479c-2.732 4.957-6.61 7.8-10.639 7.8ZM193.888 214.17h136.476v-21.644H193.888v21.644Zm137.238.667h-138V191.86h138v22.977Z"/>
  <path fill="#E2E2E0" d="M210.419 195.403c2.578 4.422 6.084 6.945 9.681 6.945h86.732c3.598 0 7.103-2.523 9.681-6.945H210.419Zm96.413 7.612H220.1c-4.028 0-7.906-2.843-10.638-7.8l-.263-.479h108.535l-.263.479c-2.732 4.957-6.61 7.8-10.639 7.8ZM92.19 147.744v1.612h-1.18l-.974 12.646H75.684l-.973-12.646h-1.18v-1.612H92.19Zm-4.724-31.388c-1.18-7.533-12.798-9.685-27.54-9.961-14.03-.262-18.523-4.605-18.523-4.605s.044 17.589 20.26 23.958c19.195 6.047 26.985-1.846 25.803-9.392Z"/>
  <path fill="#E2E2E0" d="M80.297 133.435c.247-3.098 5.9-8.792 19.498-6.204 9.833 1.872 13.489-2.588 13.489-2.588s-.911 12.588-15.7 16.373c-14.04 3.594-17.719-2.132-17.287-7.581Z"/>
  <path fill="#E2E2E0" d="M83.401 152.492a.558.558 0 0 0 .4-.162c.987-1.02.18-3.462-.936-6.841-1.432-4.336-3.215-9.733-1.705-13.653.852-2.212 1.907-4.163 2.925-6.049 2.135-3.95 3.978-7.361 2.441-10.924-.103-.237-.405-.357-.676-.267-.27.09-.408.354-.305.591 1.38 3.198-.292 6.291-2.408 10.208-.984 1.821-2.099 3.885-2.97 6.148-1.615 4.191.217 9.742 1.69 14.201.869 2.629 1.767 5.349 1.144 5.992a.422.422 0 0 0 .062.648.574.574 0 0 0 .338.108Z"/>
  <path fill="#F3F2F1" d="M338.244 242.399c0 4.17-66.146 7.55-147.744 7.55-81.596 0-147.743-3.38-147.743-7.55s66.147-7.551 147.743-7.551c81.598 0 147.744 3.381 147.744 7.551Z"/>
  <path fill="#64C5D6" d="M190.469 205.598H82.265L76.343 53.323h108.203l5.923 152.275Z"/>
  <path fill="#406FBF" d="M195.87 200.873H87.666L81.743 48.599h108.204l5.923 152.274Z"/>
  <path fill="#88D6E3" d="M195.87 200.873H87.666l-5.74-147.55-.183-4.724h108.204l5.923 152.274ZM136.508 65.639c-16.81 0-29.972 11.925-29.401 26.634.572 14.71 14.663 26.634 31.473 26.634s29.973-11.924 29.401-26.634c-.572-14.71-14.663-26.634-31.473-26.634Z"/>
  <path fill="#406FBF" d="M167.98 92.273c.572 14.71-12.591 26.634-29.401 26.634-16.81 0-30.9-11.924-31.473-26.634-.571-14.71 12.592-26.634 29.401-26.634 16.81 0 30.901 11.925 31.473 26.634Z"/>
  <path fill="#fff" d="M162.663 92.27c.148 3.796-.814 7.36-2.629 10.47-3.97 6.852-12.087 11.511-21.636 11.511s-18.028-4.659-22.532-11.511c-2.056-3.11-3.295-6.674-3.443-10.47-.472-12.142 10.389-21.982 24.265-21.982 13.875 0 25.503 9.84 25.975 21.982Z"/>
  <path fill="#7DA6DD" d="M138.399 114.251c-9.55 0-18.029-4.659-22.533-11.511 6.181-3.696 13.686-5.855 21.857-5.855s15.844 2.159 22.312 5.855c-3.97 6.852-12.087 11.511-21.636 11.511Zm-.767-19.71c-6.18 0-11.36-4.384-11.57-9.791-.211-5.408 4.629-9.792 10.809-9.792 6.179 0 11.36 4.384 11.57 9.792.21 5.407-4.629 9.791-10.809 9.791Z"/>
  <path fill="#fff" d="M174.136 145.728h-69.025l-.467-12.002h69.025l.467 12.002Zm.834 21.453h-69.025l-.467-12.002h69.025l.467 12.002Z"/>
  <path fill="#406FBF" d="m143.55 166.71-3.011.358-.303-3.148c-.641-.247-1.105-.744-1.236-1.331-.214-.953.522-1.837 1.64-1.97 1.114-.133 2.198.535 2.411 1.488.131.586-.092 1.165-.591 1.549l1.09 3.054Zm4.78-9.881-16.633 1.979c-.684.081-1.133.626-1.004 1.204l2.184 9.754c.13.583.794.992 1.477.91l16.633-1.979c.684-.081 1.134-.623 1.004-1.205l-2.184-9.754c-.129-.578-.794-.99-1.477-.909Zm-1.643-.523c-.607.072-1.194-.289-1.31-.808l-.214-.954c-.589-2.628-3.46-4.612-6.568-4.375-3.323.254-5.549 2.821-4.928 5.597l.245 1.096c.117.519-.282.997-.89 1.07-.608.072-1.195-.289-1.311-.807l-.208-.931c-.82-3.662 1.815-7.182 6.077-7.832 4.48-.682 8.898 1.963 9.752 5.778l.246 1.097c.116.518-.283.997-.891 1.069Zm16.889 27.682h-44.931l-.303-7.813h44.93l.304 7.813Z"/>
  <path fill="#17282F" d="M141.898 139.727c.047 1.212-1.038 2.196-2.423 2.196-1.386 0-2.548-.984-2.595-2.196-.047-1.212 1.039-2.195 2.423-2.195 1.386 0 2.547.983 2.595 2.195Zm-10.8 0c.048 1.212-1.037 2.196-2.423 2.196-1.386 0-2.547-.984-2.594-2.196-.048-1.212 1.037-2.195 2.424-2.195 1.385 0 2.546.983 2.593 2.195Zm-10.8 0c.047 1.212-1.038 2.196-2.424 2.196-1.385 0-2.546-.984-2.594-2.196-.047-1.212 1.038-2.195 2.423-2.195 1.387 0 2.548.983 2.595 2.195Zm32.4 0c.047 1.212-1.038 2.196-2.423 2.196s-2.547-.984-2.594-2.196c-.047-1.212 1.037-2.195 2.423-2.195 1.386 0 2.548.983 2.594 2.195Zm10.8 0c.047 1.212-1.037 2.196-2.423 2.196-1.385 0-2.547-.984-2.594-2.196-.047-1.212 1.038-2.195 2.423-2.195 1.386 0 2.547.983 2.594 2.195Z"/>
  <path fill="#F46B74" d="M254.439 81.062c1.017 1.424 1.856 2.79 2.727 4.208.868 1.405 1.654 2.85 2.423 4.306 1.516 2.922 2.872 5.937 3.887 9.156.135.394.239.813.352 1.223l.167.617.083.308.098.509c.219 1.354.027 2.46-.238 3.435-.546 1.942-1.427 3.492-2.37 4.971-1.928 2.928-4.178 5.422-6.771 7.784l-3.209-2.126c1.582-2.627 3.145-5.379 4.295-8.026.557-1.316 1.026-2.656 1.163-3.756.067-.54.022-1.005-.063-1.178l-.301-.815c-.125-.334-.237-.666-.387-1.004-1.098-2.69-2.495-5.393-4.015-8.058-1.5-2.654-3.16-5.356-4.796-7.879l6.955-3.675Z"/>
  <path fill="#F46B74" d="m252.402 114.499-3.498 1.625 4.022 4.121s2.51-1.487 2.623-3.756l-3.147-1.99Zm-8.207 4.165 4.31 2.993 4.42-1.412-4.022-4.121-4.708 2.54Z"/>
  <path fill="#17282F" d="M229.477 59.247c-.086.371-.38.632-.658.583-.276-.05-.431-.39-.345-.761.086-.37.38-.632.658-.583.276.05.431.39.345.761Z"/>
  <path fill="#F14358" d="M229.135 59.886s-1.46 1.967-2.76 2.81c.607.746 1.947.692 1.947.692l.813-3.502Z"/>
  <path fill="#F46B74" d="m227.763 72.966.032-4.37 6.615.699s-.114 3.758-3.807 4.863l-2.84-1.192Z"/>
  <path fill="#F46B74" d="m229.664 65.448 4.658 1.17.088 2.677-6.614-.7 1.868-3.147Z"/>
  <path fill="#BABCBA" d="M233.058 72.62h-.003c.156-.18.295-.363.417-.549v.003a5.107 5.107 0 0 1-.414.547Zm1.295-5.052-.032-.95-4.655-1.17.001-.003 4.656 1.175.03.948Zm-5.593-.598v-.004l.547-.917-.547.921Z"/>
  <path fill="#EA5B5B" d="M233.055 72.62c-1.812-.726-3.284-2.124-3.937-3.885l5.288.56c0 .005 0 .026-.003.06l-1.323.65c.19.664.334 1.369.392 2.066a4.96 4.96 0 0 1-.417.548Zm1.352-3.325-5.289-.56a5.848 5.848 0 0 1-.358-1.765l.547-.92.359-.601 4.655 1.17.032.949.054 1.725v.002Z"/>
  <path fill="#17282F" d="m231.506 57.464.173-.058a.204.204 0 0 0 .014-.314c-.954-.903-2.11-.742-2.161-.736-.138.02-.231.136-.207.257.024.12.156.201.291.182a2.194 2.194 0 0 1 1.703.599l.187.07Z"/>
  <path fill="#F46B74" d="M241.242 65.994c-.768 3.432-1.232 8.186 1.511 10.475 0 0-1.072 3.48-8.358 3.48-8.011 0-3.854-3.054-3.854-3.054 3.33-.904 3.301-4.224 2.539-6.89l8.162-4.01Z"/>
  <path fill="#406FBF" d="M244.253 78.764c.713-.885.684-3.678-.077-4.171-1.229-.796-6.49-.978-13.576.447.763 2.706-.871 4.124-.871 4.124l14.524-.4Zm22.943 157.55-.15.043a.314.314 0 0 0-.192.19c-.068.2.016.263.045.284.288.214 1.358.016 2.112-.248-.511-.158-1.339-.359-1.815-.269Zm.872.75c-.538.102-1.076.129-1.335-.064-.108-.081-.218-.237-.122-.516a.544.544 0 0 1 .327-.327c.723-.302 2.386.29 2.457.316l.078.1-.071.103a7.475 7.475 0 0 1-1.334.388Z"/>
  <path fill="#406FBF" d="m267.857 235.026-.055.014c-.157.048-.155.115-.154.144.008.315.864.947 1.492 1.203-.157-.375-.515-1.114-.974-1.319a.502.502 0 0 0-.309-.042Zm1.518 1.658-.063-.002c-.606-.154-1.903-.96-1.918-1.492-.003-.097.035-.272.324-.359a.78.78 0 0 1 .563.039c.716.32 1.169 1.619 1.188 1.674l-.032.11-.062.03Zm-41.729.258c-.089 0-.172.007-.245.025-.117.027-.198.078-.248.155-.09.138-.058.206-.026.246.25.303 1.604.31 2.601.186-.497-.222-1.455-.612-2.082-.612Zm.851.908c-.688 0-1.353-.082-1.575-.352-.079-.095-.14-.257.01-.486a.632.632 0 0 1 .402-.26c.892-.212 2.765.722 2.845.762l.062.114-.101.091c-.342.059-1.002.131-1.643.131Z"/>
  <path fill="#406FBF" d="m228.808 235.82-.076.003c-.228.02-.243.099-.248.125-.059.318.812 1.116 1.472 1.463-.069-.37-.26-1.125-.707-1.447a.734.734 0 0 0-.441-.144Zm1.307 1.902-.051-.011c-.647-.253-1.928-1.268-1.831-1.798.023-.125.124-.28.473-.311.26-.023.496.041.704.191.682.49.826 1.753.832 1.807l-.053.1-.074.022Z"/>
  <path fill="#F46B74" d="M236.01 237.61h-5.36l-.534-10.861h5.36l.534 10.861Zm39.338-2.172-5.238.993-5.259-10.116 5.238-.993 5.259 10.116Z"/>
  <path fill="#17282F" d="m269.607 235.971 5.885-1.115c.214-.04.432.055.523.229l2.043 3.878c.212.402-.069.875-.565.961-2.062.357-3.087.442-5.675.932-1.592.302-5.186 1.068-7.385 1.484-2.151.408-2.957-1.431-2.099-1.774 3.844-1.537 5.451-2.891 6.492-4.152.188-.227.467-.384.781-.443Zm-38.921 1.096h5.852c.22 0 .41.133.458.321l1.058 4.168c.11.432-.265.842-.771.835-2.112-.032-5.163-.14-7.816-.14-3.103 0-5.783.148-9.422.148-2.201 0-2.811-1.947-1.89-2.123 4.193-.803 7.616-.889 11.24-2.844.394-.212.828-.365 1.291-.365Z"/>
  <path fill="#406FBF" d="M252.349 77.53c5.023 1.007 9.165 12.229 9.165 12.229l-10.087 6.728s-3.703-3.055-5.35-8.668c-1.727-5.881 1.136-11.32 6.272-10.29Z"/>
  <path fill="#2251AA" d="M251.427 96.487s-.563-.465-1.347-1.363v-.002c.758.87 1.309 1.333 1.348 1.365h-.001Zm.404-.27.043-.03c-.129-2.276-.508-4.761-1.402-6.89.363-3.847.954-7.822 1.878-11.767 0 0-.152-.027-.428-.073.141.02.283.043.428.073 5.023 1.007 9.164 12.229 9.164 12.229l-1.366.911-6.535 4.358-1.782 1.19Z"/>
  <path fill="#F46B74" d="M225.934 90.922c-1.254 1.184-2.504 2.237-3.798 3.32a62.148 62.148 0 0 1-1.971 1.584l-1.012.776-.255.193a9.88 9.88 0 0 1-.434.31c-.336.217-.703.47-1.472.761-.408.138-.932.319-1.854.335a5.091 5.091 0 0 1-1.6-.248 4.585 4.585 0 0 1-1.525-.848c-.797-.701-1.038-1.316-1.195-1.727a4.324 4.324 0 0 1-.217-.992 5.605 5.605 0 0 1 .015-1.191 8.87 8.87 0 0 1 .142-.86c.224-1.027.541-1.856.885-2.687.348-.823.734-1.612 1.184-2.41.483-.85.951-1.466 1.417-2.176 1.882-2.754 4.092-5.269 6.439-7.64 2.399-2.354 4.917-4.507 7.812-6.48l2.805 2.526a126.814 126.814 0 0 0-5.698 7.216c-1.788 2.456-3.446 4.956-4.875 7.498-.329.628-.735 1.317-.964 1.843a16.74 16.74 0 0 0-.714 1.797 11.37 11.37 0 0 0-.433 1.685 1.948 1.948 0 0 0-.025.264c-.002.051.014.079.006-.062-.008-.078-.016-.193-.098-.437-.093-.232-.237-.672-.88-1.24a3.738 3.738 0 0 0-1.255-.695 4.094 4.094 0 0 0-1.283-.206c-.705.014-1.019.14-1.228.206-.374.141-.382.18-.378.165l.292-.234.915-.733 1.822-1.494c1.206-.993 2.418-2.054 3.564-3.038l5.866 4.92Z"/>
  <path fill="#C3C5C2" d="m251.43 96.488-.003-.001.403-.27-.4.27Z"/>
  <path fill="#24427C" d="M251.428 96.487c-.039-.032-.59-.496-1.348-1.365.079-1.891.205-3.843.392-5.826.894 2.13 1.273 4.615 1.402 6.892l-.043.03-.403.269Z"/>
  <path fill="#406FBF" d="M220.605 82.232c-1.095 5.067-1.781 15.472 1.4 36.077h28.667c.197-3.85-2.567-22.635 1.677-40.78 0 0-4.914-.863-9.597-1.06-3.663-.154-8.966-.257-12.186 0a52.906 52.906 0 0 0-3.839.459c-3.1.48-5.537 2.597-6.122 5.304Z"/>
  <path fill="#2251AA" d="M250.671 118.309h-28.667c-1.389-8.996-2.04-16.049-2.242-21.56l.004-.002c.026.72.061 1.469.104 2.243 1.175-1.17 2.509-2.66 3.524-4.255 3.752-2.277 8.736-5.97 8.74-9.52 0-.485-.093-.968-.295-1.444-1.424-3.358-2.227-6.808-5.107-6.808a3.3 3.3 0 0 0-.261.009 8.17 8.17 0 0 1 .255-.044 52.936 52.936 0 0 1 3.84-.459c1.419-.113 3.242-.156 5.153-.156 2.423 0 4.985.07 7.033.156 4.683.197 9.597 1.06 9.597 1.06-.924 3.946-1.515 7.921-1.878 11.767a111.827 111.827 0 0 0-.392 5.826 130.796 130.796 0 0 0-.112 5.469c0 8.205.716 14.702.715 17.257l-.001.099c0 .132-.003.253-.01.362Z"/>
  <path fill="#24427C" d="M219.871 98.99a116.1 116.1 0 0 1-.104-2.243 52.757 52.757 0 0 0 3.628-2.011c-1.015 1.593-2.349 3.085-3.524 4.254Z"/>
  <path fill="#C3C5C2" d="M235.754 232.35h-.003l-.276-5.598h.004l.275 5.598Z"/>
  <path fill="#EA5B5B" d="M235.751 232.35h-5.359l-.001-.006-.274-5.592h5.359l.275 5.598Z"/>
  <path fill="#C3C5C2" d="m272.801 230.539-.525-1.009.003-.001.526 1.01h-.004Z"/>
  <path fill="#EA5B5B" d="m267.564 231.532-.525-1.01 5.237-.992.525 1.01-5.237.992Z"/>
  <path fill="#F46B74" d="M243.79 60.975c-1.377 4.496-1.922 7.188-5.092 9.058-4.77 2.812-10.708-.415-10.893-5.18-.168-4.29 2.112-10.922 7.626-11.828 5.432-.893 9.736 3.453 8.359 7.95Z"/>
  <path fill="#17282F" d="M231.76 61.147c-.254-.603-1.441-5.249-.327-6.455 1.115-1.206 13.801-.339 15.677 1.277 3.112 2.68.953 5.071-2.454 8.157-2.562 2.32-2.661 4.937-3.954 5.32-2.264.673-5.776.04-6.481-2.074-.704-2.116-2.461-6.225-2.461-6.225Z"/>
  <path fill="#17282F" d="M245.573 50.684c-4.484-1.67-12.891.178-17.43-.78-.163 2.056 1.255 5.355 5.795 6.242 0 0 6.445 1.1 11.43.922 4.985-.177 4.013-4.965.205-6.384Z"/>
  <path fill="#17282F" d="M246.274 56.111s2.773.273 4.742-.796c.841 1.773-3.768 2.26-4.742.797Z"/>
  <path fill="#F46B74" d="M234.204 61.332c-.083 1.217-.729 2.362-1.506 3.111-1.169 1.126-2.387.425-2.594-.947-.187-1.235.196-3.31 1.625-3.93 1.407-.613 2.57.374 2.475 1.766Z"/>
  <path fill="#406FBF" d="M232.173 118.309s6.083 35.843 9.422 49.271c3.657 14.704 23.265 63.355 23.265 63.355l9.594-1.818s-13.71-39.647-16.78-60.204c-2.357-15.791-7.002-50.604-7.002-50.604h-18.499Z"/>
  <path fill="#17282F" d="m262.563 228.132 1.788 3.036 10.795-2.045-.91-2.84-11.673 1.849Z"/>
  <path fill="#A4A6A5" d="m241.461 167.042-.104-.432h.003l.102.423-.001.009Zm-.26-1.099h-.002c-.213-.91-.436-1.894-.665-2.939h.001a228.1 228.1 0 0 0 .666 2.939Zm-.811-3.605h-.001a469.091 469.091 0 0 1 .001 0Z"/>
  <path fill="#949696" d="M240.534 163.004h-.001l-.144-.667.145.667Zm.825 3.606h-.003l-.157-.667h.002l.158.667Z"/>
  <path fill="#2D5BB2" d="M241.462 167.033a53.842 53.842 0 0 1-.102-.423c-.053-.218-.105-.44-.159-.667a228.1 228.1 0 0 1-.666-2.939l-.145-.666c-.54-2.49-1.115-5.294-1.701-8.252-1.486-7.513-3.039-16.012-4.253-22.84.319-.14.666-.214 1.043-.214.173 0 .353.015.539.048 7.032 1.206 6.29 24.146 5.444 35.953Z"/>
  <path fill="#406FBF" d="M222.005 118.31s-.738 35.066-.155 49.369c.606 14.876 6.544 63.587 6.544 63.587h9.08s.333-47.842.737-62.452c.44-15.928 2.638-50.504 2.638-50.504h-18.844Z"/>
  <path fill="#17282F" d="m226.647 228.101.512 3.299h11.045l.299-2.944-11.856-.355Z"/>
  <path fill="#406FBF" d="M231.84 83.77c2.57 6.061-12.528 13.2-12.528 13.2l-6.538-7.354s4.361-7.595 9.714-11.019c6.61-4.229 7.396.56 9.352 5.174Z"/>
  <path fill="#2251AA" d="m219.312 96.97-.259-.291-6.279-7.063s4.361-7.595 9.714-11.019c1.799-1.151 3.167-1.634 4.245-1.634 2.88 0 3.683 3.45 5.107 6.808.202.476.295.96.295 1.445-.004 3.55-4.988 7.242-8.74 9.52a53.03 53.03 0 0 1-3.628 2.01l-.004.003c-.289.144-.451.221-.451.221Z"/>
  <path fill="#406FBF" d="M318.486 22.42c0 8.47-12.311 15.336-27.497 15.336-15.188 0-27.499-6.867-27.499-15.337 0-8.47 12.311-15.336 27.499-15.336 15.186 0 27.497 6.866 27.497 15.336Z"/>
  <path fill="#fff" d="M281.094 19.797c-.281 0-.565.025-.847.076-1.077.195-2.004.744-2.608 1.547-.604.803-.815 1.766-.592 2.71.222.943.85 1.753 1.77 2.282a4.57 4.57 0 0 0 3.096.519c1.079-.195 2.005-.745 2.61-1.549.603-.804.813-1.766.59-2.709-.223-.944-.85-1.756-1.768-2.284a4.513 4.513 0 0 0-2.251-.592Zm-.023 7.877c-.943 0-1.866-.24-2.672-.704-1.09-.628-1.835-1.588-2.097-2.705-.265-1.119-.016-2.26.701-3.212.717-.951 1.814-1.603 3.091-1.834a5.432 5.432 0 0 1 3.671.613c1.086.626 1.831 1.587 2.094 2.707.264 1.117.016 2.257-.699 3.21-.717.953-1.815 1.605-3.094 1.835-.331.06-.664.09-.995.09Zm-1.533-10.193c-3.534.703-5.908 3.82-5.291 6.948.322 1.637 1.363 3.051 2.929 3.986 1.565.933 3.449 1.264 5.306.928 2.945-.532 5.153-2.645 5.491-5.26l.031-.24 6.161-1.112c.356-.064.724.011 1.01.207.285.196.458.49.472.806l.035.759a.415.415 0 0 0 .363.382c.678.088 1.264.436 1.608.953.084.127.243.249.448.212l.356-.064c.201-.037.295-.204.315-.35.114-.838.828-1.516 1.778-1.688.946-.17 1.906.206 2.389.935.084.127.242.251.447.213l.364-.066c.201-.036.294-.204.313-.349.08-.595.458-1.116 1.039-1.432a.368.368 0 0 0 .16-.476l-.311-.709a.959.959 0 0 1 .07-.905c.174-.278.477-.474.833-.539l.463-.084c.516-.092.951-.359 1.23-.75.277-.39.355-.852.222-1.299-.251-.84-1.304-1.37-2.345-1.18l-18.189 3.285-.136-.21c-1.525-2.33-4.56-3.498-7.561-2.9Zm1.523 12.657c-1.528 0-3.019-.4-4.314-1.173-1.739-1.035-2.892-2.606-3.251-4.423-.684-3.472 1.951-6.93 5.874-7.712 3.231-.64 6.512.565 8.247 3.012l17.653-3.188c1.431-.258 2.884.488 3.236 1.665a2.066 2.066 0 0 1-.312 1.819c-.39.548-1 .921-1.723 1.051l-.463.084a.459.459 0 0 0-.318.206.365.365 0 0 0-.027.346l.311.709c.211.479.014 1.018-.47 1.282-.376.204-.632.557-.684.943-.062.472-.422.835-.917.924l-.363.066a1.244 1.244 0 0 1-1.261-.531c-.319-.481-.951-.73-1.576-.616-.627.113-1.099.56-1.175 1.113-.065.473-.425.835-.918.924l-.356.064a1.246 1.246 0 0 1-1.26-.53c-.224-.336-.62-.57-1.061-.629-.563-.073-.989-.5-1.013-1.015l-.035-.758a.39.39 0 0 0-.18-.308.51.51 0 0 0-.386-.079l-5.625 1.017c-.477 2.789-2.88 5.022-6.059 5.596a8.861 8.861 0 0 1-1.574.141Z"/>
  <path fill="#7DA6DD" d="M268.601 46.747c-4.991 0-9.038-2.257-9.038-5.041 0-2.784 4.047-5.04 9.038-5.04 4.992 0 9.038 2.256 9.038 5.04 0 2.784-4.046 5.04-9.038 5.04Z"/>
  <path fill="#B8D2EF" d="M254.226 48.816c-.477 0-.934-.05-1.353-.142l1.673-3.989c1.899.09 3.39.979 3.39 2.062 0 1.143-1.661 2.069-3.71 2.069Z"/>
  <path fill="#B0CAEC" d="M252.873 48.674c-1.38-.3-2.358-1.05-2.358-1.927 0-1.143 1.661-2.07 3.71-2.07.109 0 .215.004.321.008l-1.673 3.989Z"/>
</svg>
