<svg xmlns="http://www.w3.org/2000/svg" width="330" height="190" fill="none" viewBox="0 0 384 206">
  <g clip-path="url(#a)">
    <rect width="384" height="206" fill="url(#b)" rx="20"/>
    <path fill="#fff" d="M292.102 191v-8.727h5.676v1.325h-4.095v2.369h3.801v1.326h-3.801v2.382h4.129V191h-5.71Zm8.982-6.545 1.321 2.416 1.342-2.416h1.632l-1.973 3.272 2.007 3.273h-1.623l-1.385-2.357-1.372 2.357h-1.637l1.995-3.273-1.944-3.272h1.637Zm5.988 9v-9h1.518v1.082h.089c.08-.159.192-.328.337-.507a1.79 1.79 0 0 1 .588-.465c.247-.13.562-.196.946-.196.505 0 .961.13 1.368.388.409.256.733.635.971 1.138.242.5.362 1.114.362 1.841 0 .719-.117 1.329-.353 1.832-.236.503-.557.887-.963 1.151a2.481 2.481 0 0 1-1.381.396c-.375 0-.686-.062-.933-.187a1.91 1.91 0 0 1-.597-.452 2.89 2.89 0 0 1-.345-.507h-.064v3.486h-1.543Zm1.513-5.728c0 .424.06.794.179 1.112.122.319.297.567.524.746.23.176.509.264.836.264.341 0 .626-.09.856-.272.23-.185.404-.436.52-.755.119-.321.179-.686.179-1.095 0-.406-.058-.767-.175-1.082a1.62 1.62 0 0 0-.52-.742c-.23-.179-.517-.268-.86-.268-.33 0-.61.087-.84.26-.23.173-.405.416-.524.729a3.14 3.14 0 0 0-.175 1.103Zm13.173 3.439c-.702 0-1.304-.177-1.807-.532-.5-.358-.885-.874-1.155-1.547-.267-.676-.4-1.49-.4-2.442.002-.952.137-1.761.404-2.429.27-.671.655-1.182 1.155-1.534.503-.352 1.104-.529 1.803-.529.699 0 1.3.177 1.802.529.503.352.888.863 1.155 1.534.27.67.405 1.48.405 2.429 0 .954-.135 1.77-.405 2.446-.267.673-.652 1.187-1.155 1.543-.5.355-1.1.532-1.802.532Zm0-1.334c.545 0 .976-.268 1.291-.805.318-.54.477-1.334.477-2.382 0-.693-.072-1.276-.217-1.747-.145-.472-.349-.827-.614-1.066a1.343 1.343 0 0 0-.937-.362c-.543 0-.972.27-1.287.81-.315.537-.475 1.325-.477 2.365-.003.696.066 1.281.208 1.756.145.474.35.832.614 1.073.264.239.578.358.942.358Zm8.308-7.679a3.58 3.58 0 0 1 1.218.222c.398.142.756.375 1.074.699.319.321.571.751.759 1.291.187.54.281 1.207.281 2.003.003.75-.077 1.42-.239 2.011-.159.588-.387 1.085-.686 1.492a3.022 3.022 0 0 1-1.078.929c-.42.213-.893.319-1.419.319-.551 0-1.04-.108-1.466-.324a2.752 2.752 0 0 1-1.027-.886 2.814 2.814 0 0 1-.481-1.287h1.555c.08.347.242.622.486.827.247.202.558.302.933.302.605 0 1.071-.262 1.398-.788.327-.526.49-1.256.49-2.19h-.06c-.139.25-.319.466-.541.647a2.466 2.466 0 0 1-.754.414 2.703 2.703 0 0 1-.886.145c-.512 0-.972-.122-1.381-.367a2.669 2.669 0 0 1-.967-1.005 2.995 2.995 0 0 1-.358-1.462c0-.568.13-1.078.392-1.53a2.855 2.855 0 0 1 1.103-1.074c.472-.264 1.023-.393 1.654-.388Zm.004 1.279c-.307 0-.584.075-.831.226a1.606 1.606 0 0 0-.58.605 1.73 1.73 0 0 0-.208.848c.002.309.072.591.208.844.14.252.329.453.567.6.242.148.517.222.827.222a1.567 1.567 0 0 0 1.163-.499c.151-.159.267-.339.35-.541.085-.201.126-.415.123-.639 0-.298-.071-.574-.213-.827a1.64 1.64 0 0 0-.575-.609 1.522 1.522 0 0 0-.831-.23Zm8.827-1.568-2.813 10.448h-1.351l2.813-10.448h1.351Zm1.467 9.136v-1.142l3.03-2.97c.29-.293.531-.553.724-.78a2.86 2.86 0 0 0 .435-.661c.097-.213.145-.44.145-.681a1.29 1.29 0 0 0-.188-.708 1.249 1.249 0 0 0-.515-.46 1.666 1.666 0 0 0-.746-.162c-.287 0-.538.06-.754.179a1.233 1.233 0 0 0-.503.499 1.596 1.596 0 0 0-.175.771h-1.504c0-.554.126-1.036.379-1.445a2.558 2.558 0 0 1 1.044-.95c.446-.224.958-.337 1.534-.337.585 0 1.1.11 1.543.329.443.218.787.518 1.031.899.247.38.371.815.371 1.304 0 .326-.063.647-.188.963-.125.315-.345.664-.66 1.048a16.69 16.69 0 0 1-1.317 1.393l-1.504 1.53v.06h3.801V191h-5.983Zm11.085.119c-.613 0-1.159-.105-1.636-.315a2.727 2.727 0 0 1-1.125-.878 2.272 2.272 0 0 1-.439-1.3h1.602c.014.236.093.442.235.618.142.174.331.309.566.405.236.097.5.145.793.145.312 0 .589-.054.831-.162.241-.111.43-.264.567-.46.136-.196.203-.422.2-.678a1.172 1.172 0 0 0-.205-.699 1.37 1.37 0 0 0-.605-.473c-.261-.113-.576-.17-.946-.17h-.771v-1.219h.771c.304 0 .57-.052.797-.157.23-.106.411-.253.541-.444.131-.193.195-.416.192-.669a1.158 1.158 0 0 0-.166-.643 1.13 1.13 0 0 0-.473-.431 1.56 1.56 0 0 0-.712-.153c-.267 0-.514.048-.741.145a1.353 1.353 0 0 0-.55.413 1.054 1.054 0 0 0-.222.631h-1.521c.012-.489.152-.918.422-1.287a2.719 2.719 0 0 1 1.091-.869c.455-.21.964-.316 1.53-.316.582 0 1.088.11 1.517.329.432.215.765.507 1.001.873.236.367.354.771.354 1.215.003.491-.142.903-.435 1.235-.289.333-.67.55-1.142.652v.069c.614.085 1.084.312 1.411.681.329.367.493.823.49 1.368 0 .489-.139.926-.418 1.313-.275.383-.656.684-1.142.903-.483.219-1.037.328-1.662.328Zm-109.337-21c-.568 0-1.076-.106-1.525-.319a2.721 2.721 0 0 1-1.07-.887 2.348 2.348 0 0 1-.417-1.287h1.534c.028.358.183.651.464.878.281.225.62.337 1.014.337a1.6 1.6 0 0 0 .827-.213c.242-.142.432-.34.571-.592.139-.253.208-.542.205-.866a1.74 1.74 0 0 0-.209-.877 1.562 1.562 0 0 0-.584-.601 1.625 1.625 0 0 0-.852-.222 2.037 2.037 0 0 0-.772.145 1.57 1.57 0 0 0-.6.392l-1.428-.234.456-4.5h5.063v1.321h-3.755l-.251 2.314h.051c.162-.191.391-.348.686-.473a2.42 2.42 0 0 1 .972-.192c.528 0 1 .125 1.414.375.415.247.742.588.981 1.023.238.434.357.931.357 1.491 0 .577-.133 1.091-.4 1.543a2.832 2.832 0 0 1-1.104 1.061c-.469.255-1.011.383-1.628.383Zm8.256 0a3.69 3.69 0 0 1-1.223-.217 2.873 2.873 0 0 1-1.074-.703c-.318-.327-.571-.76-.758-1.3-.188-.542-.28-1.214-.277-2.015 0-.748.079-1.414.238-1.999.159-.585.388-1.08.686-1.483a3.033 3.033 0 0 1 1.079-.929 3.11 3.11 0 0 1 1.419-.32c.548 0 1.034.108 1.457.324.426.216.77.512 1.031.887.262.372.423.792.486 1.261h-1.555a1.416 1.416 0 0 0-.49-.801c-.245-.202-.554-.303-.929-.303-.606 0-1.071.263-1.398.789-.324.525-.487 1.247-.49 2.164h.059c.14-.25.32-.464.542-.643a2.636 2.636 0 0 1 1.64-.563 2.624 2.624 0 0 1 2.348 1.377c.239.426.357.915.354 1.466a3.007 3.007 0 0 1-.392 1.547 2.85 2.85 0 0 1-1.104 1.074c-.471.261-1.021.39-1.649.387Zm-.008-1.278c.309 0 .586-.075.831-.226.244-.151.437-.354.579-.609a1.71 1.71 0 0 0 .209-.861 1.685 1.685 0 0 0-.205-.848 1.558 1.558 0 0 0-.566-.601 1.551 1.551 0 0 0-.827-.222 1.598 1.598 0 0 0-1.163.499 1.702 1.702 0 0 0-.478 1.185c.003.304.074.583.213.839.14.256.331.46.576.614.244.153.521.23.831.23Zm8.289 1.278a3.695 3.695 0 0 1-1.223-.217 2.888 2.888 0 0 1-1.074-.703c-.318-.327-.571-.76-.758-1.3-.188-.542-.28-1.214-.277-2.015 0-.748.079-1.414.239-1.999.159-.585.387-1.08.686-1.483a3.022 3.022 0 0 1 1.078-.929 3.11 3.11 0 0 1 1.419-.32c.548 0 1.034.108 1.457.324a2.79 2.79 0 0 1 1.517 2.148h-1.555a1.416 1.416 0 0 0-.49-.801c-.245-.202-.554-.303-.929-.303-.605 0-1.071.263-1.398.789-.324.525-.487 1.247-.49 2.164h.06c.139-.25.319-.464.541-.643a2.638 2.638 0 0 1 1.641-.563c.511 0 .97.123 1.376.367.409.244.733.581.972 1.01.238.426.356.915.353 1.466a3.007 3.007 0 0 1-.392 1.547 2.85 2.85 0 0 1-1.104 1.074c-.471.261-1.021.39-1.649.387Zm-.008-1.278c.309 0 .586-.075.831-.226.244-.151.437-.354.579-.609a1.71 1.71 0 0 0 .209-.861 1.695 1.695 0 0 0-.204-.848 1.568 1.568 0 0 0-.567-.601 1.551 1.551 0 0 0-.827-.222 1.592 1.592 0 0 0-1.163.499 1.72 1.72 0 0 0-.264 2.024c.139.256.331.46.575.614.244.153.521.23.831.23Zm5.413 1.159 3.712-7.347v-.059h-4.308v-1.321h5.944v1.351L265.695 170h-1.641Zm13.802.119c-.633 0-1.196-.106-1.687-.319-.489-.213-.872-.505-1.151-.874a2.053 2.053 0 0 1-.409-1.265 2.089 2.089 0 0 1 .239-1.01 2.25 2.25 0 0 1 .656-.767 2.11 2.11 0 0 1 .929-.397v-.059a1.852 1.852 0 0 1-1.091-.687 1.98 1.98 0 0 1-.409-1.248c-.003-.449.122-.85.375-1.202a2.56 2.56 0 0 1 1.04-.831c.44-.204.943-.307 1.508-.307.56 0 1.059.103 1.496.307.44.202.787.479 1.04.831.256.352.383.753.383 1.202 0 .471-.14.888-.421 1.248a1.847 1.847 0 0 1-1.079.687v.059c.341.057.648.189.921.397.275.204.494.46.656.767.165.306.247.643.247 1.01 0 .471-.139.893-.417 1.265-.279.369-.662.661-1.151.874-.486.213-1.044.319-1.675.319Zm0-1.218c.327 0 .611-.056.853-.167a1.32 1.32 0 0 0 .562-.477c.134-.204.202-.44.205-.707a1.329 1.329 0 0 0-.218-.738 1.44 1.44 0 0 0-.575-.507 1.807 1.807 0 0 0-.827-.183c-.312 0-.591.061-.835.183a1.473 1.473 0 0 0-.579.507c-.14.214-.208.459-.205.738a1.24 1.24 0 0 0 .196.707c.134.202.321.359.563.473.244.114.531.171.86.171Zm0-3.976c.267 0 .503-.054.708-.162.207-.108.37-.259.49-.452.119-.193.18-.416.183-.669a1.24 1.24 0 0 0-.179-.656 1.143 1.143 0 0 0-.486-.439 1.563 1.563 0 0 0-.716-.158c-.275 0-.518.053-.728.158a1.143 1.143 0 0 0-.652 1.095c-.003.253.054.476.17.669.119.19.283.341.49.452.21.108.45.162.72.162Zm8.246 5.194c-.633 0-1.196-.106-1.687-.319-.489-.213-.872-.505-1.151-.874a2.053 2.053 0 0 1-.409-1.265 2.089 2.089 0 0 1 .239-1.01 2.25 2.25 0 0 1 .656-.767c.279-.208.588-.34.929-.397v-.059a1.852 1.852 0 0 1-1.091-.687 1.98 1.98 0 0 1-.409-1.248c-.003-.449.122-.85.375-1.202s.6-.629 1.04-.831c.44-.204.943-.307 1.508-.307.56 0 1.059.103 1.496.307a2.56 2.56 0 0 1 1.04.831c.256.352.383.753.383 1.202 0 .471-.14.888-.421 1.248a1.847 1.847 0 0 1-1.079.687v.059c.341.057.648.189.921.397.276.204.494.46.656.767.165.306.247.643.247 1.01 0 .471-.139.893-.417 1.265-.279.369-.662.661-1.151.874-.486.213-1.044.319-1.675.319Zm0-1.218c.327 0 .611-.056.853-.167a1.32 1.32 0 0 0 .562-.477c.134-.204.202-.44.205-.707a1.329 1.329 0 0 0-.218-.738 1.44 1.44 0 0 0-.575-.507 1.807 1.807 0 0 0-.827-.183c-.312 0-.59.061-.835.183a1.473 1.473 0 0 0-.579.507c-.14.214-.208.459-.205.738a1.24 1.24 0 0 0 .196.707c.134.202.321.359.563.473.244.114.531.171.86.171Zm0-3.976c.267 0 .503-.054.708-.162.207-.108.371-.259.49-.452s.18-.416.183-.669a1.24 1.24 0 0 0-.179-.656 1.143 1.143 0 0 0-.486-.439 1.563 1.563 0 0 0-.716-.158c-.275 0-.518.053-.728.158a1.143 1.143 0 0 0-.652 1.095c-.003.253.054.476.17.669.12.19.283.341.49.452.211.108.451.162.72.162Zm8.174-3.772c.418.003.824.077 1.219.222.398.142.756.375 1.074.699.318.321.571.751.758 1.291.188.54.281 1.207.281 2.003.003.75-.076 1.42-.238 2.011-.159.588-.388 1.085-.686 1.492a3.039 3.039 0 0 1-1.078.929 3.098 3.098 0 0 1-1.419.319c-.552 0-1.04-.108-1.466-.324a2.737 2.737 0 0 1-1.027-.886 2.815 2.815 0 0 1-.482-1.287h1.556c.079.347.241.622.485.827.248.202.559.302.934.302.605 0 1.071-.262 1.397-.788.327-.526.49-1.256.49-2.19h-.059c-.139.25-.32.466-.541.647a2.472 2.472 0 0 1-.755.414 2.699 2.699 0 0 1-.886.145c-.511 0-.972-.122-1.381-.367a2.676 2.676 0 0 1-.967-1.005c-.236-.427-.355-.914-.358-1.462 0-.568.131-1.078.392-1.53a2.85 2.85 0 0 1 1.104-1.074c.471-.264 1.022-.393 1.653-.388Zm.004 1.279c-.306 0-.583.075-.831.226a1.596 1.596 0 0 0-.579.605 1.73 1.73 0 0 0-.209.848c.003.309.072.591.209.844.139.252.328.453.567.6.241.148.517.222.826.222a1.575 1.575 0 0 0 1.164-.499c.15-.159.267-.339.349-.541.085-.201.127-.415.124-.639 0-.298-.071-.574-.213-.827a1.643 1.643 0 0 0-.576-.609 1.517 1.517 0 0 0-.831-.23Zm8.277-1.279c.418.003.824.077 1.219.222.398.142.756.375 1.074.699.318.321.571.751.758 1.291.188.54.282 1.207.282 2.003.003.75-.077 1.42-.239 2.011-.159.588-.388 1.085-.686 1.492a3.03 3.03 0 0 1-1.078.929 3.098 3.098 0 0 1-1.419.319c-.551 0-1.04-.108-1.466-.324a2.744 2.744 0 0 1-1.027-.886 2.826 2.826 0 0 1-.482-1.287h1.556c.079.347.241.622.486.827.247.202.558.302.933.302.605 0 1.071-.262 1.398-.788.326-.526.49-1.256.49-2.19h-.06c-.139.25-.32.466-.541.647a2.478 2.478 0 0 1-.754.414 2.705 2.705 0 0 1-.887.145 2.64 2.64 0 0 1-1.381-.367 2.676 2.676 0 0 1-.967-1.005c-.236-.427-.355-.914-.358-1.462 0-.568.131-1.078.392-1.53a2.85 2.85 0 0 1 1.104-1.074c.472-.264 1.023-.393 1.653-.388Zm.005 1.279a1.591 1.591 0 0 0-1.411.831 1.73 1.73 0 0 0-.209.848c.003.309.073.591.209.844.139.252.328.453.567.6.241.148.517.222.827.222a1.57 1.57 0 0 0 1.163-.499c.15-.159.267-.339.349-.541.086-.201.127-.415.124-.639 0-.298-.071-.574-.213-.827a1.64 1.64 0 0 0-.575-.609 1.522 1.522 0 0 0-.831-.23Zm8.566 5.949v-1.257l3.703-5.851h1.048v1.789h-.639l-2.493 3.951v.068h5.169v1.3h-6.788Zm4.163 1.619v-2.003l.017-.562v-6.162h1.492V170h-1.509Zm7.521.119c-.569 0-1.077-.106-1.526-.319a2.728 2.728 0 0 1-1.07-.887 2.348 2.348 0 0 1-.417-1.287h1.534c.028.358.183.651.464.878.282.225.62.337 1.015.337.309 0 .585-.071.826-.213.242-.142.432-.34.571-.592.14-.253.208-.542.205-.866a1.74 1.74 0 0 0-.209-.877 1.562 1.562 0 0 0-.584-.601 1.625 1.625 0 0 0-.852-.222 2.036 2.036 0 0 0-.771.145c-.253.099-.453.23-.601.392l-1.428-.234.456-4.5h5.063v1.321h-3.755l-.251 2.314h.051c.162-.191.391-.348.686-.473.296-.128.62-.192.972-.192a2.657 2.657 0 0 1 2.395 1.398c.238.434.358.931.358 1.491 0 .577-.134 1.091-.401 1.543a2.832 2.832 0 0 1-1.104 1.061c-.468.255-1.011.383-1.627.383Zm5.379-.119 3.712-7.347v-.059h-4.309v-1.321h5.945v1.351L329.831 170h-1.64Zm10.232.119a3.686 3.686 0 0 1-1.223-.217 2.873 2.873 0 0 1-1.074-.703c-.318-.327-.571-.76-.759-1.3-.187-.542-.279-1.214-.277-2.015 0-.748.08-1.414.239-1.999.159-.585.388-1.08.686-1.483a3.03 3.03 0 0 1 1.078-.929c.424-.213.897-.32 1.419-.32.549 0 1.034.108 1.458.324.426.216.77.512 1.031.887.261.372.423.792.486 1.261h-1.556a1.411 1.411 0 0 0-.49-.801c-.244-.202-.554-.303-.929-.303-.605 0-1.071.263-1.397.789-.324.525-.488 1.247-.491 2.164h.06c.139-.25.32-.464.541-.643a2.642 2.642 0 0 1 1.641-.563c.511 0 .97.123 1.376.367.409.244.733.581.972 1.01.239.426.356.915.354 1.466a3.017 3.017 0 0 1-.392 1.547 2.857 2.857 0 0 1-1.104 1.074c-.472.261-1.021.39-1.649.387Zm-.009-1.278c.31 0 .587-.075.831-.226.245-.151.438-.354.58-.609.142-.256.211-.543.209-.861a1.706 1.706 0 0 0-.205-.848 1.548 1.548 0 0 0-1.393-.823 1.602 1.602 0 0 0-1.164.499 1.7 1.7 0 0 0-.477 1.185c.003.304.074.583.213.839s.331.46.575.614c.245.153.522.23.831.23Zm8.89 1.159 3.712-7.347v-.059h-4.308v-1.321h5.944v1.351L348.945 170h-1.641Zm10.15.119c-.634 0-1.196-.106-1.687-.319-.489-.213-.873-.505-1.151-.874a2.046 2.046 0 0 1-.409-1.265 2.1 2.1 0 0 1 .238-1.01c.162-.307.381-.563.657-.767a2.11 2.11 0 0 1 .929-.397v-.059a1.849 1.849 0 0 1-1.091-.687 1.974 1.974 0 0 1-.409-1.248c-.003-.449.122-.85.375-1.202a2.564 2.564 0 0 1 1.039-.831c.441-.204.944-.307 1.509-.307.56 0 1.058.103 1.496.307.44.202.787.479 1.04.831.255.352.383.753.383 1.202 0 .471-.141.888-.422 1.248a1.845 1.845 0 0 1-1.078.687v.059c.341.057.648.189.921.397.275.204.494.46.656.767.165.306.247.643.247 1.01 0 .471-.139.893-.418 1.265-.278.369-.662.661-1.15.874-.486.213-1.044.319-1.675.319Zm0-1.218c.327 0 .611-.056.852-.167.242-.113.429-.272.563-.477.133-.204.201-.44.204-.707a1.328 1.328 0 0 0-.217-.738 1.44 1.44 0 0 0-.575-.507 1.81 1.81 0 0 0-.827-.183c-.312 0-.591.061-.835.183a1.469 1.469 0 0 0-.58.507 1.296 1.296 0 0 0-.204.738c-.003.267.062.503.196.707.133.202.321.359.562.473.245.114.531.171.861.171Zm0-3.976c.267 0 .503-.054.707-.162a1.229 1.229 0 0 0 .674-1.121 1.25 1.25 0 0 0-.179-.656 1.155 1.155 0 0 0-.486-.439 1.563 1.563 0 0 0-.716-.158c-.276 0-.518.053-.729.158a1.147 1.147 0 0 0-.652 1.095c-.003.253.054.476.171.669.119.19.282.341.49.452.21.108.45.162.72.162Zm8.34 5.194a3.69 3.69 0 0 1-1.223-.217 2.873 2.873 0 0 1-1.074-.703c-.318-.327-.571-.76-.759-1.3-.187-.542-.279-1.214-.277-2.015 0-.748.08-1.414.239-1.999.159-.585.388-1.08.686-1.483a3.03 3.03 0 0 1 1.078-.929c.424-.213.897-.32 1.419-.32.549 0 1.034.108 1.458.324.426.216.77.512 1.031.887.261.372.423.792.486 1.261h-1.556a1.411 1.411 0 0 0-.49-.801c-.244-.202-.554-.303-.929-.303-.605 0-1.071.263-1.397.789-.324.525-.488 1.247-.49 2.164h.059c.139-.25.32-.464.541-.643a2.646 2.646 0 0 1 1.641-.563c.511 0 .97.123 1.376.367.41.244.733.581.972 1.01.239.426.357.915.354 1.466a3.007 3.007 0 0 1-.392 1.547 2.857 2.857 0 0 1-1.104 1.074c-.472.261-1.021.39-1.649.387Zm-.009-1.278c.31 0 .587-.075.831-.226.245-.151.438-.354.58-.609.142-.256.211-.543.209-.861a1.706 1.706 0 0 0-.205-.848 1.548 1.548 0 0 0-1.393-.823 1.602 1.602 0 0 0-1.164.499 1.717 1.717 0 0 0-.477 1.185c.003.304.074.583.213.839s.331.46.575.614c.245.153.522.23.831.23Zm8.128 1.278c-.568 0-1.077-.106-1.525-.319a2.721 2.721 0 0 1-1.07-.887 2.349 2.349 0 0 1-.418-1.287h1.534c.029.358.184.651.465.878.281.225.619.337 1.014.337a1.534 1.534 0 0 0 1.398-.805c.139-.253.207-.542.204-.866a1.74 1.74 0 0 0-.208-.877 1.562 1.562 0 0 0-.584-.601 1.625 1.625 0 0 0-.852-.222 2.037 2.037 0 0 0-.772.145c-.253.099-.453.23-.601.392l-1.427-.234.456-4.5h5.062v1.321h-3.754l-.251 2.314h.051c.162-.191.39-.348.686-.473.295-.128.619-.192.971-.192.529 0 1 .125 1.415.375.415.247.742.588.98 1.023.239.434.358.931.358 1.491 0 .577-.133 1.091-.4 1.543a2.832 2.832 0 0 1-1.104 1.061c-.469.255-1.011.383-1.628.383Z"/>
    <g filter="url(#c)">
      <path stroke="#fff" d="M392.137 88.412C305.802 98.647 275.13 121.866 249.351 191.81"/>
      <path stroke="#fff" d="M391.153 37.206C274.451 52.411 232.99 86.91 198.145 190.824"/>
      <path stroke="#fff" d="M401-14C245 6.274 189.579 52.27 143 190.824"/>
    </g>
    <path fill="#FF9800" d="M14 37V15c0-2.2 1.8-4 4-4h30c2.2 0 4 1.8 4 4v22c0 2.2-1.8 4-4 4H18c-2.2 0-4-1.8-4-4Z"/>
    <path fill="#FFD54F" d="M52 23v-2H40c-1.1 0-2-.9-2-2s.9-2 2-2h1v-2h-1c-2.2 0-4 1.8-4 4s1.8 4 4 4h3v6h-3c-2.8 0-5 2.2-5 5s2.2 5 5 5h2v-2h-2c-1.7 0-3-1.3-3-3s1.3-3 3-3h12v-2h-7v-6h7Zm-26 6h-3v-6h3c2.2 0 4-1.8 4-4s-1.8-4-4-4h-3v2h3c1.1 0 2 .9 2 2s-.9 2-2 2H14v2h7v6h-7v2h12c1.7 0 3 1.3 3 3s-1.3 3-3 3h-2v2h2c2.8 0 5-2.2 5-5s-2.2-5-5-5Z"/>
    <path fill="#FF5F00" d="M327.4 14.888h12.155v21.229H327.4V14.888Z"/>
    <path fill="#EB001B" d="M328.172 25.503c0-4.314 2.084-8.14 5.286-10.615A14.057 14.057 0 0 0 324.892 12C317.213 12 311 18.04 311 25.503s6.213 13.502 13.892 13.502c3.241 0 6.212-1.088 8.566-2.888-3.202-2.438-5.286-6.301-5.286-10.614Z"/>
    <path fill="#F79E1B" d="M355.955 25.503c0 7.463-6.212 13.502-13.891 13.502a14.059 14.059 0 0 1-8.567-2.888c3.241-2.475 5.287-6.301 5.287-10.614 0-4.314-2.084-8.14-5.287-10.615A14.06 14.06 0 0 1 342.064 12c7.679 0 13.891 6.076 13.891 13.503Z"/>
    <path fill="#fff" d="M346.79 98c-.42-.17-.72-.55-.79-1-.05-.26 0-.44.4-1.16 1.5-2.7 2.27-5.75 2.23-8.84.04-3-.69-5.93-2.13-8.56-.21-.44-.4-.86-.56-1.31.06-.38.25-.73.56-.94.45-.24 1-.19 1.41.09.28.36.52.72.72 1.14A21.395 21.395 0 0 1 350.8 84c.23 1.81.26 3.65.09 5.47-.31 2.34-1 4.6-2.06 6.71-.64 1.28-1 1.82-1.38 1.82h-.66Zm-4.36-2.21c-.57-.16-.93-.74-.81-1.32 0-.12.31-.67.59-1.23 1.18-2.27 1.69-4.83 1.46-7.38-.14-1.83-.67-3.61-1.54-5.22-.63-1.26-.67-1.46-.3-2 .44-.49 1.17-.56 1.71-.14.72 1.06 1.29 2.22 1.71 3.44 1.28 3.79 1.08 7.92-.56 11.56-.84 1.89-1.43 2.5-2.26 2.24v.05Zm-4.5-2.23a1.306 1.306 0 0 1-.73-.86c0-.2 0-.46.45-1.26a8.986 8.986 0 0 0 0-8.68c-.65-1.26-.65-1.52-.12-2 .19-.22.47-.33.77-.29.64 0 1 .31 1.54 1.44a10.509 10.509 0 0 1 1.28 5.09c.04 1.81-.4 3.61-1.27 5.2-.54 1.05-.81 1.3-1.35 1.39-.19.02-.39 0-.57-.09v.06Zm-4.21-2.13c-.33-.16-.59-.43-.72-.78-.1-.35 0-.65.4-1.29.5-.68.74-1.52.69-2.36.07-.85-.16-1.69-.65-2.39a6.116 6.116 0 0 1-.44-.79c-.11-.63.31-1.23 1-1.35.54-.1.92.13 1.42.89a6.622 6.622 0 0 1 0 7.27c-.51.77-1.09 1-1.69.8h-.01ZM25.64 74h-1.398l3.14-8.727h1.522L32.044 74h-1.397l-2.468-7.142h-.068L25.639 74Zm.234-3.418h4.534v1.108h-4.534v-1.108Zm6.78-5.31 2.428 7.109h.098l2.43-7.108h1.422L35.892 74H34.37l-3.141-8.727h1.423ZM39.638 74h-1.397l3.14-8.727h1.522L46.044 74h-1.397l-2.468-7.142h-.068L39.639 74Zm.235-3.418h4.534v1.108h-4.534v-1.108Zm8.247-5.31V74h-1.317v-8.727h1.317ZM49.54 74v-8.727h1.317v7.594h3.954V74H49.54Zm7.456 0h-1.398l3.14-8.727h1.522L63.4 74h-1.397l-2.467-7.142h-.069L56.995 74Zm.234-3.418h4.534v1.108H57.23v-1.108ZM64.16 74v-8.727h3.196c.62 0 1.132.102 1.538.306.407.202.71.476.912.823.202.344.303.731.303 1.163 0 .364-.067.67-.2.92a1.65 1.65 0 0 1-.537.597 2.364 2.364 0 0 1-.733.324v.085c.29.015.572.108.848.282.278.17.508.413.69.728.182.316.273.7.273 1.151 0 .446-.105.847-.316 1.202-.207.352-.528.632-.963.84-.434.204-.99.306-1.666.306H64.16Zm1.317-1.13h1.9c.631 0 1.083-.121 1.355-.366.273-.244.41-.55.41-.916 0-.275-.07-.528-.21-.758a1.492 1.492 0 0 0-.596-.55 1.913 1.913 0 0 0-.912-.205h-1.947v2.796Zm0-3.822h1.764c.295 0 .561-.056.797-.17.239-.114.427-.273.567-.477.142-.208.213-.452.213-.733 0-.361-.127-.664-.38-.908-.252-.244-.64-.367-1.163-.367h-1.798v2.655ZM71.51 74v-8.727h1.317v7.594h3.955V74H71.51Zm6.274 0v-8.727h5.472v1.133h-4.155v2.66h3.87v1.129h-3.87v2.672h4.206V74h-5.523Zm-53.112 40v-2.386l7.382-7.65a40.516 40.516 0 0 0 1.95-2.183c.518-.633.905-1.233 1.161-1.8a4.363 4.363 0 0 0 .384-1.812c0-.724-.17-1.35-.512-1.875a3.343 3.343 0 0 0-1.395-1.225c-.59-.291-1.254-.437-1.993-.437-.78 0-1.463.16-2.045.48-.582.32-1.03.77-1.342 1.353-.313.582-.47 1.264-.47 2.045H24.65c0-1.328.306-2.49.916-3.484a6.223 6.223 0 0 1 2.515-2.311c1.065-.555 2.276-.832 3.632-.832 1.371 0 2.578.274 3.623.82 1.05.54 1.871 1.28 2.46 2.217.59.93.885 1.981.885 3.153 0 .81-.153 1.602-.458 2.376-.299.774-.82 1.637-1.566 2.589-.746.944-1.783 2.091-3.111 3.441l-4.336 4.538v.16h9.822V114h-14.36Zm16.971-4.261v-2.664l9.428-14.893h2.1v3.92h-1.333l-6.743 10.675v.17h12.922v2.792H41.643ZM51.987 114v-5.071l.022-1.215V92.182h3.121V114h-3.143Zm16.445.298c-1.335 0-2.536-.255-3.601-.767-1.058-.518-1.904-1.228-2.536-2.13-.632-.902-.97-1.932-1.012-3.09h3.196c.079.938.494 1.708 1.247 2.312.753.604 1.655.905 2.706.905.838 0 1.58-.191 2.226-.575a4.13 4.13 0 0 0 1.534-1.609c.377-.681.565-1.459.565-2.333 0-.887-.192-1.679-.575-2.375a4.25 4.25 0 0 0-1.588-1.641c-.667-.398-1.434-.6-2.3-.607-.661 0-1.325.113-1.993.341-.668.227-1.207.525-1.62.895l-3.014-.448 1.225-10.994h11.996v2.823H65.63l-.692 6.104h.127c.426-.412.991-.756 1.694-1.033a6.218 6.218 0 0 1 2.28-.415c1.328 0 2.51.316 3.548.948a6.742 6.742 0 0 1 2.46 2.588c.604 1.087.903 2.337.895 3.75.008 1.414-.312 2.674-.958 3.782a6.943 6.943 0 0 1-2.664 2.621c-1.129.632-2.425.948-3.888.948Zm14.297-3.281-.16 1.161c-.106.853-.287 1.74-.543 2.664a40.98 40.98 0 0 1-.777 2.588c-.263.796-.48 1.428-.65 1.897H78.34c.093-.441.22-1.037.384-1.79.163-.746.323-1.58.48-2.504.155-.923.273-1.864.35-2.823l.107-1.193h3.068Zm10.761 3.345c-1.683-.007-3.121-.451-4.315-1.331-1.193-.881-2.105-2.163-2.737-3.846-.633-1.684-.949-3.711-.949-6.083 0-2.365.316-4.386.948-6.062.64-1.676 1.556-2.955 2.749-3.836 1.2-.88 2.635-1.32 4.304-1.32 1.669 0 3.1.443 4.293 1.331 1.194.88 2.106 2.16 2.738 3.835.639 1.67.959 3.687.959 6.052 0 2.379-.316 4.41-.948 6.093-.632 1.676-1.545 2.958-2.738 3.846-1.193.881-2.628 1.321-4.304 1.321Zm0-2.844c1.477 0 2.631-.721 3.462-2.163.838-1.442 1.258-3.526 1.258-6.253 0-1.812-.192-3.342-.576-4.592-.376-1.257-.92-2.209-1.63-2.855-.703-.654-1.541-.98-2.514-.98-1.47 0-2.624.724-3.462 2.173-.838 1.449-1.261 3.533-1.268 6.254 0 1.818.188 3.355.564 4.612.384 1.25.927 2.199 1.63 2.845.704.639 1.549.959 2.536.959Zm18.865 2.844c-1.683-.007-3.121-.451-4.314-1.331-1.194-.881-2.106-2.163-2.738-3.846-.632-1.684-.948-3.711-.948-6.083 0-2.365.316-4.386.948-6.062.639-1.676 1.555-2.955 2.748-3.836 1.201-.88 2.635-1.32 4.304-1.32 1.669 0 3.1.443 4.294 1.331 1.193.88 2.105 2.16 2.737 3.835.64 1.67.959 3.687.959 6.052 0 2.379-.316 4.41-.948 6.093-.632 1.676-1.545 2.958-2.738 3.846-1.193.881-2.628 1.321-4.304 1.321Zm0-2.844c1.478 0 2.632-.721 3.463-2.163.838-1.442 1.257-3.526 1.257-6.253 0-1.812-.192-3.342-.576-4.592-.376-1.257-.919-2.209-1.63-2.855-.703-.654-1.541-.98-2.514-.98-1.47 0-2.624.724-3.462 2.173-.838 1.449-1.261 3.533-1.268 6.254 0 1.818.188 3.355.565 4.612.383 1.25.927 2.199 1.63 2.845.703.639 1.548.959 2.535.959Zm18.865 2.844c-1.683-.007-3.121-.451-4.314-1.331-1.193-.881-2.106-2.163-2.738-3.846-.632-1.684-.948-3.711-.948-6.083 0-2.365.316-4.386.948-6.062.639-1.676 1.555-2.955 2.749-3.836 1.2-.88 2.634-1.32 4.303-1.32 1.67 0 3.101.443 4.294 1.331 1.193.88 2.106 2.16 2.738 3.835.639 1.67.959 3.687.959 6.052 0 2.379-.317 4.41-.949 6.093-.632 1.676-1.544 2.958-2.738 3.846-1.193.881-2.627 1.321-4.304 1.321Zm0-2.844c1.478 0 2.632-.721 3.463-2.163.838-1.442 1.257-3.526 1.257-6.253 0-1.812-.192-3.342-.575-4.592-.377-1.257-.92-2.209-1.63-2.855-.703-.654-1.542-.98-2.515-.98-1.47 0-2.624.724-3.462 2.173-.838 1.449-1.261 3.533-1.268 6.254 0 1.818.189 3.355.565 4.612.384 1.25.927 2.199 1.63 2.845.703.639 1.548.959 2.535.959Zm12.139 2.624c-.408 0-.758-.144-1.051-.433a1.44 1.44 0 0 1-.44-1.059c0-.407.146-.755.44-1.044.293-.293.643-.44 1.051-.44.408 0 .758.147 1.052.44.293.289.44.637.44 1.044 0 .274-.07.525-.209.753a1.534 1.534 0 0 1-.537.537 1.415 1.415 0 0 1-.746.202Zm7.327.039c-.842-.003-1.561-.225-2.158-.666-.596-.44-1.053-1.081-1.369-1.923-.316-.841-.474-1.855-.474-3.041 0-1.183.158-2.193.474-3.031.32-.838.778-1.477 1.375-1.918.6-.44 1.317-.66 2.152-.66.834 0 1.55.222 2.146.666.597.44 1.053 1.079 1.369 1.917.32.835.48 1.843.48 3.026 0 1.189-.158 2.205-.474 3.047-.316.838-.773 1.479-1.369 1.923-.597.44-1.314.66-2.152.66Zm0-1.422c.738 0 1.315-.361 1.731-1.081.419-.721.628-1.764.628-3.127 0-.906-.095-1.671-.287-2.296-.188-.629-.46-1.104-.815-1.428a1.788 1.788 0 0 0-1.257-.49c-.735 0-1.312.363-1.731 1.087-.42.724-.631 1.767-.634 3.127 0 .909.094 1.678.282 2.306.192.625.463 1.099.815 1.422.351.32.774.48 1.268.48Zm9.182 1.422c-.841-.003-1.56-.225-2.157-.666-.597-.44-1.053-1.081-1.369-1.923-.316-.841-.474-1.855-.474-3.041 0-1.183.158-2.193.474-3.031.32-.838.778-1.477 1.374-1.918.6-.44 1.318-.66 2.152-.66.835 0 1.55.222 2.147.666.597.44 1.053 1.079 1.369 1.917.32.835.479 1.843.479 3.026 0 1.189-.158 2.205-.474 3.047-.316.838-.772 1.479-1.369 1.923-.596.44-1.314.66-2.152.66Zm0-1.422c.739 0 1.316-.361 1.731-1.081.42-.721.629-1.764.629-3.127 0-.906-.096-1.671-.288-2.296-.188-.629-.459-1.104-.815-1.428a1.784 1.784 0 0 0-1.257-.49c-.735 0-1.312.363-1.731 1.087-.419.724-.63 1.767-.634 3.127 0 .909.094 1.678.283 2.306.191.625.463 1.099.815 1.422.351.32.774.48 1.267.48Zm5.534 1.241v-10.909h3.889c.848 0 1.551.154 2.109.463.558.309.975.732 1.252 1.268.277.533.415 1.133.415 1.801 0 .671-.14 1.274-.421 1.811a3.044 3.044 0 0 1-1.257 1.267c-.557.309-1.259.464-2.104.464h-2.674v-1.396h2.525c.536 0 .971-.092 1.305-.277.334-.188.579-.444.735-.767.157-.323.235-.691.235-1.102 0-.412-.078-.778-.235-1.098a1.683 1.683 0 0 0-.74-.751c-.334-.181-.774-.272-1.321-.272h-2.067V114h-1.646Zm9.095 0v-10.909h1.646v5.209h.133l4.576-5.209h2.072l-4.4 4.911L182.94 114h-1.982l-3.526-4.874-1.289 1.481V114h-1.646Zm9.461 0v-10.909h3.888c.845 0 1.547.146 2.104.437.561.291.98.694 1.257 1.209.277.511.416 1.102.416 1.774 0 .667-.14 1.255-.421 1.763-.277.504-.696.896-1.257 1.177-.558.281-1.259.421-2.104.421h-2.946v-1.417h2.797c.532 0 .966-.076 1.3-.229.337-.153.584-.375.74-.666.156-.291.234-.641.234-1.049 0-.412-.08-.769-.239-1.071a1.544 1.544 0 0 0-.741-.692c-.334-.164-.772-.246-1.316-.246h-2.066V114h-1.646Zm5.385-4.922 2.695 4.922h-1.875l-2.642-4.922h1.822Zm-165.6 25.43v-1.417h8.443v1.417h-3.404V144h-1.64v-9.492h-3.399Zm11.94 9.657c-.767 0-1.436-.176-2.008-.527a3.56 3.56 0 0 1-1.331-1.476c-.316-.632-.474-1.37-.474-2.216 0-.848.158-1.591.474-2.226a3.55 3.55 0 0 1 1.331-1.481c.572-.352 1.242-.527 2.009-.527.767 0 1.436.175 2.008.527a3.55 3.55 0 0 1 1.331 1.481c.316.635.474 1.378.474 2.226 0 .846-.158 1.584-.474 2.216a3.561 3.561 0 0 1-1.331 1.476c-.572.351-1.241.527-2.008.527Zm.006-1.337c.497 0 .909-.131 1.236-.394.326-.263.568-.613.724-1.049.16-.437.24-.918.24-1.444 0-.522-.08-1.001-.24-1.438a2.337 2.337 0 0 0-.724-1.06c-.327-.267-.739-.4-1.236-.4-.5 0-.916.133-1.247.4-.326.266-.57.619-.73 1.06a4.241 4.241 0 0 0-.234 1.438c0 .526.078 1.007.235 1.444.16.436.403.786.73 1.049.33.263.745.394 1.246.394Zm8.905-7.01v1.279h-4.469v-1.279h4.47Zm-3.27-1.96h1.593v7.74c0 .309.046.541.138.697a.724.724 0 0 0 .357.315c.15.053.31.08.485.08.128 0 .24-.009.335-.027l.224-.043.288 1.316a3.155 3.155 0 0 1-1.033.171 2.81 2.81 0 0 1-1.173-.224 2.008 2.008 0 0 1-.878-.725c-.224-.326-.336-.736-.336-1.23v-8.07Zm6.913 10.323c-.518 0-.987-.096-1.406-.288a2.367 2.367 0 0 1-.996-.846c-.242-.37-.362-.823-.362-1.359 0-.461.089-.841.266-1.14.178-.298.417-.534.72-.708a3.73 3.73 0 0 1 1.011-.394 9.978 9.978 0 0 1 1.14-.203l1.193-.138c.306-.039.528-.101.666-.187.139-.085.208-.223.208-.415v-.037c0-.466-.131-.826-.394-1.082-.26-.255-.647-.383-1.161-.383-.537 0-.96.119-1.268.357-.306.234-.517.495-.634.783l-1.497-.341c.178-.497.437-.899.778-1.204a3.14 3.14 0 0 1 1.188-.671 4.639 4.639 0 0 1 1.411-.213c.327 0 .673.039 1.039.117.37.074.714.213 1.033.415a2.3 2.3 0 0 1 .794.869c.206.372.309.857.309 1.454V144H50.72v-1.119h-.064a2.27 2.27 0 0 1-.464.608c-.206.198-.47.364-.793.495-.324.131-.71.197-1.162.197Zm.347-1.278c.44 0 .816-.087 1.129-.261a1.83 1.83 0 0 0 .719-.682 1.77 1.77 0 0 0 .25-.911v-1.055c-.056.057-.167.11-.33.16-.16.046-.343.087-.549.123-.206.032-.406.062-.601.09-.196.025-.36.046-.49.064a3.965 3.965 0 0 0-.848.197 1.461 1.461 0 0 0-.607.4c-.149.17-.224.397-.224.682 0 .394.146.692.437.894.291.199.663.299 1.114.299Zm6.905-9.812V144h-1.593v-10.909h1.593ZM60.729 144v-10.909h1.646v9.492h4.943V144H60.73Zm7.84 0v-8.182h1.592V144h-1.593Zm.804-9.444c-.277 0-.515-.093-.714-.277a.9.9 0 0 1-.293-.671.89.89 0 0 1 .293-.672c.199-.188.437-.282.714-.282.276 0 .513.094.708.282a.884.884 0 0 1 .298.672c0 .259-.1.483-.298.671a.997.997 0 0 1-.708.277Zm2.43 9.444v-8.182h1.53v1.332h.1c.171-.451.45-.803.837-1.055.387-.256.85-.383 1.39-.383.547 0 1.005.127 1.374.383.373.256.648.607.826 1.055h.085a2.3 2.3 0 0 1 .932-1.044c.427-.263.934-.394 1.524-.394.742 0 1.348.232 1.816.697.473.466.709 1.167.709 2.104V144h-1.593v-5.337c0-.554-.15-.956-.453-1.204a1.645 1.645 0 0 0-1.081-.373c-.519 0-.922.16-1.21.479-.287.316-.43.723-.43 1.22V144H76.57v-5.439c0-.443-.138-.8-.415-1.07-.278-.27-.638-.405-1.082-.405-.302 0-.58.08-.836.24a1.754 1.754 0 0 0-.613.655c-.152.28-.229.605-.229.975V144h-1.592Zm12.757 0v-8.182h1.593V144H84.56Zm.805-9.444c-.277 0-.515-.093-.714-.277a.9.9 0 0 1-.293-.671c0-.263.098-.487.293-.672.199-.188.437-.282.714-.282.277 0 .513.094.708.282a.884.884 0 0 1 .299.672c0 .259-.1.483-.299.671a.997.997 0 0 1-.708.277Zm6.25 1.262v1.279h-4.47v-1.279h4.47Zm-3.27-1.96h1.592v7.74c0 .309.046.541.139.697a.724.724 0 0 0 .357.315c.149.053.31.08.484.08.128 0 .24-.009.336-.027l.224-.043.287 1.316a3.155 3.155 0 0 1-1.033.171 2.81 2.81 0 0 1-1.172-.224 2.008 2.008 0 0 1-.879-.725c-.224-.326-.336-.736-.336-1.23v-8.07ZM96.474 144v-10.909h3.888c.849 0 1.552.154 2.109.463.558.309.975.732 1.252 1.268.277.533.416 1.133.416 1.801 0 .671-.141 1.274-.421 1.811a3.044 3.044 0 0 1-1.257 1.267c-.558.309-1.259.464-2.104.464h-2.675v-1.396h2.525c.537 0 .972-.092 1.305-.277.334-.188.579-.444.736-.767.156-.323.234-.691.234-1.102 0-.412-.078-.778-.234-1.098a1.69 1.69 0 0 0-.741-.751c-.334-.181-.774-.272-1.321-.272H98.12V144h-1.646Zm9.094 0v-10.909h1.646v5.209h.133l4.576-5.209h2.072l-4.4 4.911 4.416 5.998h-1.982l-3.526-4.874-1.289 1.481V144h-1.646Zm9.461 0v-10.909h3.889c.845 0 1.546.146 2.104.437.561.291.98.694 1.257 1.209.277.511.415 1.102.415 1.774 0 .667-.14 1.255-.421 1.763-.277.504-.696.896-1.257 1.177-.557.281-1.259.421-2.104.421h-2.945v-1.417h2.796c.533 0 .966-.076 1.3-.229.337-.153.584-.375.74-.666.156-.291.235-.641.235-1.049 0-.412-.08-.769-.24-1.071a1.54 1.54 0 0 0-.741-.692c-.333-.164-.772-.246-1.315-.246h-2.067V144h-1.646Zm5.385-4.922L123.11 144h-1.875l-2.642-4.922h1.821Zm8.174 3.569c-.291 0-.541-.103-.751-.309a1.032 1.032 0 0 1-.314-.756c0-.292.105-.54.314-.746.21-.21.46-.314.751-.314s.542.104.751.314c.21.206.315.454.315.746 0 .195-.05.374-.15.538a1.097 1.097 0 0 1-.383.383c-.16.096-.337.144-.533.144Zm0-5.465c-.291 0-.541-.103-.751-.309a1.035 1.035 0 0 1-.314-.757c0-.291.105-.539.314-.745.21-.21.46-.315.751-.315s.542.105.751.315c.21.206.315.454.315.745a1.092 1.092 0 0 1-.533.922c-.16.096-.337.144-.533.144Zm9.945 6.967c-.731 0-1.385-.126-1.96-.378-.572-.252-1.024-.602-1.358-1.049a2.789 2.789 0 0 1-.533-1.566h1.673c.021.323.129.603.325.841.198.235.458.416.777.543.32.128.675.192 1.066.192.429 0 .809-.074 1.14-.223.333-.15.594-.357.783-.624.188-.27.282-.58.282-.932 0-.366-.094-.687-.282-.964-.185-.281-.457-.501-.815-.661-.355-.159-.785-.239-1.289-.239h-.922v-1.343h.922c.404 0 .759-.072 1.065-.218.309-.146.55-.348.724-.607.174-.263.261-.57.261-.922 0-.337-.076-.63-.229-.879a1.537 1.537 0 0 0-.639-.591 2.076 2.076 0 0 0-.969-.213c-.355 0-.688.066-.996.197a1.843 1.843 0 0 0-.746.554 1.423 1.423 0 0 0-.309.858h-1.593c.018-.59.192-1.108.522-1.556a3.378 3.378 0 0 1 1.321-1.049 4.302 4.302 0 0 1 1.822-.378c.7 0 1.303.136 1.811.41.511.27.906.63 1.183 1.081.28.451.419.945.415 1.481.004.611-.167 1.129-.511 1.555-.341.427-.796.712-1.364.858v.085c.724.11 1.286.398 1.683.863.402.465.6 1.042.597 1.731a2.697 2.697 0 0 1-.501 1.614c-.334.476-.79.851-1.369 1.124-.579.27-1.241.405-1.987.405Zm8.971 0c-.667 0-1.268-.128-1.8-.383a3.281 3.281 0 0 1-1.268-1.066 2.81 2.81 0 0 1-.506-1.544h1.598c.039.468.247.854.623 1.155.377.302.828.453 1.353.453.419 0 .79-.096 1.113-.287.327-.196.583-.464.768-.805.188-.341.282-.73.282-1.166 0-.444-.096-.84-.288-1.188a2.12 2.12 0 0 0-.793-.82 2.238 2.238 0 0 0-1.151-.304c-.33 0-.662.057-.996.17a2.316 2.316 0 0 0-.81.448l-1.507-.224.612-5.497h5.998v1.411h-4.629l-.346 3.053h.064a2.53 2.53 0 0 1 .847-.517 3.12 3.12 0 0 1 1.14-.208c.664 0 1.255.158 1.774.474.522.316.932.748 1.23 1.295.302.543.451 1.168.448 1.875.003.706-.157 1.337-.48 1.891-.319.554-.763.99-1.332 1.31-.564.316-1.212.474-1.944.474Zm8.999.032c-.842-.003-1.561-.225-2.157-.666-.597-.44-1.053-1.081-1.369-1.923-.316-.841-.474-1.855-.474-3.041 0-1.183.158-2.193.474-3.031.319-.838.777-1.477 1.374-1.918.6-.44 1.318-.66 2.152-.66.835 0 1.55.222 2.147.666.596.44 1.053 1.079 1.369 1.917.319.835.479 1.843.479 3.026 0 1.189-.158 2.205-.474 3.047-.316.838-.772 1.479-1.369 1.923-.597.44-1.314.66-2.152.66Zm0-1.422c.739 0 1.316-.361 1.731-1.081.419-.721.629-1.764.629-3.127 0-.906-.096-1.671-.288-2.296-.188-.629-.46-1.104-.815-1.428a1.784 1.784 0 0 0-1.257-.49c-.735 0-1.312.363-1.731 1.087-.419.724-.63 1.767-.634 3.127 0 .909.094 1.678.282 2.306.192.625.464 1.099.815 1.422.352.32.774.48 1.268.48Zm7.083-.25-.08.58a9.44 9.44 0 0 1-.272 1.332c-.124.465-.254.896-.389 1.294-.131.398-.24.714-.325.948h-1.129c.046-.22.11-.518.192-.895.081-.372.161-.79.239-1.251.079-.462.137-.932.176-1.412l.054-.596h1.534Zm5.13 1.672c-.842-.003-1.561-.225-2.157-.666-.597-.44-1.053-1.081-1.369-1.923-.316-.841-.474-1.855-.474-3.041 0-1.183.158-2.193.474-3.031.319-.838.777-1.477 1.374-1.918.6-.44 1.317-.66 2.152-.66.834 0 1.55.222 2.147.666.596.44 1.053 1.079 1.369 1.917.319.835.479 1.843.479 3.026 0 1.189-.158 2.205-.474 3.047-.316.838-.772 1.479-1.369 1.923-.597.44-1.314.66-2.152.66Zm0-1.422c.739 0 1.316-.361 1.731-1.081.419-.721.629-1.764.629-3.127 0-.906-.096-1.671-.288-2.296-.188-.629-.46-1.104-.815-1.428a1.788 1.788 0 0 0-1.257-.49c-.735 0-1.312.363-1.731 1.087-.419.724-.631 1.767-.634 3.127 0 .909.094 1.678.282 2.306.192.625.464 1.099.815 1.422.352.32.774.48 1.268.48Zm9.183 1.422c-.842-.003-1.561-.225-2.158-.666-.596-.44-1.053-1.081-1.369-1.923-.316-.841-.474-1.855-.474-3.041 0-1.183.158-2.193.474-3.031.32-.838.778-1.477 1.375-1.918.6-.44 1.317-.66 2.152-.66.834 0 1.55.222 2.146.666.597.44 1.053 1.079 1.369 1.917.32.835.48 1.843.48 3.026 0 1.189-.158 2.205-.475 3.047-.316.838-.772 1.479-1.368 1.923-.597.44-1.314.66-2.152.66Zm0-1.422c.738 0 1.315-.361 1.731-1.081.419-.721.628-1.764.628-3.127 0-.906-.096-1.671-.287-2.296-.189-.629-.46-1.104-.815-1.428a1.788 1.788 0 0 0-1.257-.49c-.736 0-1.313.363-1.732 1.087-.419.724-.63 1.767-.634 3.127 0 .909.095 1.678.283 2.306.192.625.463 1.099.815 1.422.351.32.774.48 1.268.48Zm9.182 1.422c-.841-.003-1.561-.225-2.157-.666-.597-.44-1.053-1.081-1.369-1.923-.316-.841-.474-1.855-.474-3.041 0-1.183.158-2.193.474-3.031.319-.838.778-1.477 1.374-1.918.6-.44 1.318-.66 2.152-.66.835 0 1.55.222 2.147.666.596.44 1.053 1.079 1.369 1.917.319.835.479 1.843.479 3.026 0 1.189-.158 2.205-.474 3.047-.316.838-.772 1.479-1.369 1.923-.596.44-1.314.66-2.152.66Zm0-1.422c.739 0 1.316-.361 1.731-1.081.419-.721.629-1.764.629-3.127 0-.906-.096-1.671-.288-2.296-.188-.629-.46-1.104-.815-1.428a1.784 1.784 0 0 0-1.257-.49c-.735 0-1.312.363-1.731 1.087-.419.724-.63 1.767-.634 3.127 0 .909.094 1.678.282 2.306.192.625.464 1.099.815 1.422.352.32.775.48 1.268.48Z"/>
  </g>
  <defs>
    <linearGradient id="b" x1="7.364" x2="397.546" y1="16.531" y2="146.749" gradientUnits="userSpaceOnUse">
      <stop stop-color="#0D98B1"/>
      <stop offset="1" stop-color="#62CBDD" stop-opacity=".69"/>
    </linearGradient>
    <clipPath id="a">
      <path fill="#fff" d="M0 0h384v206H0z"/>
    </clipPath>
    <filter id="c" width="274.538" height="222.478" x="134.526" y="-22.496" color-interpolation-filters="sRGB" filterUnits="userSpaceOnUse">
      <feFlood flood-opacity="0" result="BackgroundImageFix"/>
      <feBlend in="SourceGraphic" in2="BackgroundImageFix" result="shape"/>
      <feGaussianBlur result="effect1_foregroundBlur_863_46" stdDeviation="4"/>
    </filter>
  </defs>
</svg>
