<svg xmlns="http://www.w3.org/2000/svg" width="35" height="32" fill="none" viewBox="0 0 35 32">
  <path fill="#ED1C24" fill-rule="evenodd" d="M.01 5.968 28.297.008l6.693 25.728L6.492 31.44.01 5.968Z" clip-rule="evenodd"/>
  <path fill="#231F20" fill-rule="evenodd" d="m25.323 13.443 1.853-6.792L23.59 7.66l.724 1.786-1.096 7.674 3.933-1.539 1.203 2.503-7.499 2.84-1.256-2.818 1.212-7.63-4.28 1.468-.82-2.433 7.517-2.742.144.356-.62-1.816 7.174-2.017.864 2.531-2.058 6.864 3.932-1.105.806 2.36-7.278 2.046-.87-2.545Z" clip-rule="evenodd"/>
  <path fill="#231F20" fill-rule="evenodd" d="m11.851 11.817 4.409-.594 6.917 12.787-3.472.528-1.948-3.473-3.726.59-.416 4.064-3.894.634 2.13-14.536Z" clip-rule="evenodd"/>
  <path fill="#231F20" fill-rule="evenodd" d="M4.235 24.968c.84-.423 2.078-1.273 1.509-2.37L.729 12.932l3.398-1.452 5.398 10.403c.667 1.286.883 2.389.645 3.306-.236.918-1.006 1.44-1.981 2.072-1.067.69-3.28 1.484-4.53.64l-1.493-2.875c.736.271 1.558.199 2.069-.058Z" clip-rule="evenodd"/>
  <path fill="#FFF200" fill-rule="evenodd" d="M25.846 13.68 27.7 6.89l-3.587 1.008.725 1.786-1.097 7.674 3.933-1.54 1.204 2.504-7.5 2.839-1.256-2.817 1.212-7.63-4.28 1.467-.82-2.432 7.517-2.743.145.357-.62-1.817 7.173-2.017.864 2.532-2.057 6.864 3.932-1.105.805 2.36-7.278 2.046-.869-2.546Z" clip-rule="evenodd"/>
  <path fill="#FFF200" fill-rule="evenodd" d="m12.374 12.055 4.409-.594L23.7 24.247l-3.472.529-1.948-3.473-3.726.59-.416 4.063-3.894.635 2.13-14.536Z" clip-rule="evenodd"/>
  <path fill="#FFF200" fill-rule="evenodd" d="M4.758 25.205c.84-.423 2.078-1.273 1.509-2.37L1.252 13.17l3.398-1.452 5.398 10.403c.667 1.286.882 2.388.645 3.306-.236.918-1.006 1.44-1.981 2.072-1.067.69-3.28 1.484-4.53.64l-1.493-2.875c.736.271 1.558.199 2.069-.059Zm2.14-13.147-.07-1.196.946-.35.4.519c.005.014.008.02.024.038l.016.04.011.028.008.02c-.003-.03-.006-.06.002-.086 0-.024.007-.05.018-.07l.347-.793.961-.355.07 1.196-.69.255.01-.905c-.005.034-.018.07-.023.103-.013.036-.02.062-.028.088l-.365.864-.532.196-.449-.57c-.013-.011-.021-.032-.032-.059a.316.316 0 0 1-.041-.079l.108.86-.69.256Zm3.851-2.111-.04.014-.085-.211.056-.02c.302-.112.546-.163.748-.16.194.007.317.063.364.18.06.15.009.294-.149.446-.15.15-.372.278-.679.4l-.09-.225a.368.368 0 0 0 .182-.138.235.235 0 0 0 .018-.226c-.019-.048-.051-.083-.11-.093a.405.405 0 0 0-.215.033Zm-.04.014c-.092.043-.156.09-.187.148a.235.235 0 0 0-.018.226c.021.054.06.08.11.092.058.01.127 0 .223-.035.008-.003.024-.009.037-.021l.09.225-.055.02c-.294.109-.546.163-.751.152-.195-.006-.318-.063-.364-.179-.058-.143-.006-.287.157-.45.152-.142.371-.278.673-.39l.085.212Zm2.185-.783-.04.015-.082-.205.016-.006c.074-.043.156-.089.26-.127.206-.076.386-.104.538-.09.152.015.243.083.287.192.058.144.025.289-.09.433-.121.154-.311.272-.566.366l-.119.044-.096-.24a.419.419 0 0 0 .19-.14.195.195 0 0 0 .03-.199c-.02-.047-.057-.073-.116-.082a.508.508 0 0 0-.212.039Zm-.04.015a.491.491 0 0 0-.181.137.195.195 0 0 0-.03.199c.016.041.057.073.115.083a.534.534 0 0 0 .244-.051l.096.239c-.09.025-.175.04-.244.05a.529.529 0 0 1-.271-.017l.004.124-.612.226-.078-1.193.691-.255.016.401a.876.876 0 0 1 .168-.148l.082.205Zm1.162-.766-.017-.245.692-.255.016.245-.691.255Zm.072.976-.053-.882.684-.252.053.881-.684.253Zm.914-.338-.094-1.187.691-.255.094 1.187-.69.255Zm.833-1.31-.016-.245.69-.255.025.242-.699.258Zm.073.976-.053-.881.69-.256.054.881-.691.256Zm.914-.338-.053-.881.635-.235.01.114a1.35 1.35 0 0 1 .24-.198 1.66 1.66 0 0 1 .314-.148c.183-.067.334-.1.456-.09.128 0 .2.044.233.126l.02.047c-.003.017.005.037.006.06l.037.504-.69.255-.044-.493c.005-.01 0-.024 0-.024l-.008-.02c-.011-.027-.035-.042-.08-.04a.384.384 0 0 0-.17.03.445.445 0 0 0-.19.118c-.04.038-.055.09-.057.01.056 0 .032.466-.692.255m2.154-.173-.07-1.196.69-.256.032.6.423-.446.794-.294-.607.577.692.293-.747.276-.37-.193-.165.155.01.231-.682.253Z" clip-rule="evenodd"/>
  <path fill="#D7D7D7" fill-rule="evenodd" d="M12.689 17.824c-.348-1.416.63-2.82 2.186-3.136 1.555-.316 3.097.575 3.445 1.99.348 1.416-.63 2.82-2.186 3.136-1.555.316-3.097-.575-3.445-1.99Z" clip-rule="evenodd"/>
  <path fill="#ED1C24" fill-rule="evenodd" d="M15.643 19.875c-1.376.062-2.643-.785-2.954-2.05-.348-1.416.631-2.82 2.187-3.137.489-.1.976-.08 1.426.038 0 0-.915.165-1.269.372-.323.19-.423.363-.356.65a.994.994 0 0 0 .226.421s.396.446.437.763c.042.318-.042.651-.358.93 0 0-.445.325-.514.395-.07.071-.318.309-.256.584.07.311.614.716 1.391 1.02l.04.014Z" clip-rule="evenodd"/>
</svg>
