<svg width="330" height="235" viewBox="0 0 330 235" fill="none" xmlns="http://www.w3.org/2000/svg">
<g filter="url(#filter0_d_1642_6014)">
<g clip-path="url(#clip0_1642_6014)">
<rect x="15" y="26" width="300" height="187.5" rx="10.2273" fill="url(#paint0_linear_1642_6014)"/>
<mask id="mask0_1642_6014" style="mask-type:alpha" maskUnits="userSpaceOnUse" x="-24" y="26" width="342" height="191">
<rect x="-23.3523" y="26" width="340.909" height="190.909" fill="#D9D9D9"/>
</mask>
<g mask="url(#mask0_1642_6014)">
<rect opacity="0.2" x="-252.614" y="121.442" width="357.955" height="357.955" rx="10.2273" transform="rotate(-45 -252.614 121.442)" fill="url(#paint1_radial_1642_6014)"/>
<rect opacity="0.4" x="-227.898" y="121.199" width="323.864" height="323.864" rx="10.2273" transform="rotate(-45 -227.898 121.199)" fill="url(#paint2_radial_1642_6014)"/>
<rect opacity="0.6" x="-202.33" y="121.809" width="289.773" height="289.773" rx="10.2273" transform="rotate(-45 -202.33 121.809)" fill="url(#paint3_radial_1642_6014)"/>
<rect opacity="0.8" x="-177.614" y="121.567" width="255.682" height="255.682" rx="10.2273" transform="rotate(-45 -177.614 121.567)" fill="url(#paint4_radial_1642_6014)"/>
<rect x="-149.489" y="121.239" width="221.591" height="221.591" rx="10.2273" transform="rotate(-45 -149.489 121.239)" fill="url(#paint5_radial_1642_6014)"/>
</g>
<path d="M37.4467 124.363C36.9366 124.36 36.4443 124.274 35.9697 124.106C35.4984 123.938 35.0755 123.666 34.701 123.288C34.3265 122.91 34.0295 122.41 33.81 121.787C33.5937 121.164 33.4855 120.398 33.4855 119.491C33.4888 118.658 33.584 117.914 33.7712 117.259C33.9617 116.6 34.2329 116.042 34.5848 115.583C34.9399 115.125 35.3644 114.776 35.8583 114.538C36.3523 114.295 36.9059 114.174 37.5193 114.174C38.1811 114.174 38.7654 114.303 39.2723 114.562C39.7791 114.817 40.1859 115.164 40.4926 115.603C40.8025 116.042 40.9897 116.534 41.0543 117.08H38.9866C38.9059 116.734 38.7364 116.463 38.4781 116.266C38.2198 116.069 37.9002 115.971 37.5193 115.971C36.8736 115.971 36.3829 116.252 36.0472 116.813C35.7147 117.375 35.5452 118.139 35.5387 119.104H35.6065C35.755 118.81 35.9552 118.56 36.207 118.353C36.462 118.144 36.751 117.984 37.0738 117.874C37.3999 117.761 37.7437 117.704 38.1052 117.704C38.6928 117.704 39.2158 117.843 39.6742 118.121C40.1326 118.395 40.4942 118.773 40.7589 119.254C41.0236 119.735 41.156 120.286 41.156 120.905C41.156 121.577 40.9994 122.174 40.6863 122.697C40.3764 123.22 39.9421 123.63 39.3837 123.927C38.8284 124.221 38.1827 124.366 37.4467 124.363ZM37.437 122.716C37.7598 122.716 38.0487 122.639 38.3038 122.484C38.5588 122.329 38.759 122.119 38.9042 121.854C39.0495 121.59 39.1222 121.293 39.1222 120.963C39.1222 120.634 39.0495 120.339 38.9042 120.077C38.7622 119.816 38.5653 119.608 38.3135 119.453C38.0617 119.298 37.7743 119.22 37.4515 119.22C37.2094 119.22 36.985 119.265 36.7784 119.356C36.575 119.446 36.3959 119.572 36.2409 119.733C36.0892 119.895 35.9697 120.082 35.8826 120.295C35.7954 120.505 35.7518 120.729 35.7518 120.968C35.7518 121.288 35.8244 121.58 35.9697 121.845C36.1182 122.109 36.3184 122.321 36.5702 122.479C36.8252 122.637 37.1142 122.716 37.437 122.716ZM42.6426 124.227V122.716L46.1728 119.448C46.473 119.157 46.7248 118.896 46.9282 118.663C47.1348 118.431 47.2914 118.203 47.3979 117.98C47.5045 117.755 47.5577 117.511 47.5577 117.249C47.5577 116.959 47.4915 116.709 47.3592 116.499C47.2268 116.286 47.046 116.123 46.8168 116.01C46.5876 115.893 46.3277 115.835 46.0372 115.835C45.7337 115.835 45.469 115.897 45.243 116.019C45.017 116.142 44.8427 116.318 44.72 116.547C44.5974 116.776 44.536 117.049 44.536 117.366H42.5458C42.5458 116.717 42.6927 116.153 42.9864 115.675C43.2802 115.198 43.6918 114.828 44.2213 114.567C44.7507 114.305 45.3609 114.174 46.0517 114.174C46.7619 114.174 47.3802 114.3 47.9064 114.552C48.4358 114.801 48.8474 115.146 49.1412 115.588C49.435 116.031 49.5819 116.537 49.5819 117.109C49.5819 117.483 49.5076 117.853 49.3591 118.218C49.2138 118.583 48.954 118.988 48.5795 119.433C48.205 119.876 47.6772 120.407 46.996 121.026L45.5481 122.445V122.513H49.7126V124.227H42.6426ZM55.5466 114.31V124.227H53.4498V116.3H53.3917L51.1206 117.724V115.864L53.5757 114.31H55.5466ZM61.4919 114.174C62.002 114.174 62.4927 114.26 62.964 114.431C63.4386 114.602 63.8615 114.875 64.2327 115.249C64.6072 115.624 64.9026 116.121 65.1189 116.741C65.3384 117.357 65.4498 118.114 65.453 119.012C65.453 119.855 65.3578 120.607 65.1673 121.269C64.9801 121.927 64.7105 122.487 64.3586 122.949C64.0067 123.411 63.5822 123.762 63.0851 124.005C62.5879 124.243 62.0326 124.363 61.4193 124.363C60.7575 124.363 60.1731 124.235 59.6663 123.98C59.1594 123.722 58.7511 123.372 58.4411 122.929C58.1345 122.484 57.9488 121.984 57.8843 121.428H59.952C60.0327 121.79 60.2022 122.071 60.4605 122.271C60.7187 122.468 61.0383 122.566 61.4193 122.566C62.0649 122.566 62.5556 122.285 62.8914 121.724C63.2271 121.159 63.3966 120.386 63.3998 119.404H63.332C63.1835 119.695 62.9834 119.945 62.7316 120.155C62.4798 120.361 62.1908 120.521 61.8648 120.634C61.5419 120.747 61.1981 120.804 60.8333 120.804C60.249 120.804 59.7276 120.666 59.2692 120.392C58.8108 120.118 58.4492 119.74 58.1845 119.259C57.9198 118.778 57.7874 118.229 57.7874 117.612C57.7842 116.947 57.9375 116.355 58.2474 115.835C58.5574 115.316 58.99 114.909 59.5452 114.615C60.1037 114.318 60.7526 114.171 61.4919 114.174ZM61.5064 115.821C61.1804 115.821 60.8898 115.898 60.6348 116.053C60.383 116.208 60.1828 116.416 60.0343 116.678C59.889 116.939 59.818 117.232 59.8212 117.554C59.8212 117.88 59.8923 118.174 60.0343 118.436C60.1796 118.694 60.3765 118.901 60.6251 119.056C60.8769 119.207 61.1642 119.283 61.4871 119.283C61.7292 119.283 61.9535 119.238 62.1602 119.148C62.3668 119.057 62.5459 118.933 62.6977 118.775C62.8526 118.613 62.9737 118.428 63.0609 118.218C63.148 118.008 63.1916 117.785 63.1916 117.55C63.1884 117.236 63.1141 116.949 62.9688 116.688C62.8236 116.426 62.6234 116.216 62.3684 116.058C62.1133 115.9 61.826 115.821 61.5064 115.821Z" fill="black"/>
<path d="M113.332 124.363C112.586 124.363 111.922 124.242 111.341 124C110.763 123.754 110.31 123.42 109.981 122.997C109.651 122.574 109.487 122.095 109.487 121.559C109.487 121.146 109.58 120.767 109.768 120.421C109.958 120.072 110.216 119.784 110.542 119.554C110.868 119.322 111.233 119.173 111.637 119.109V119.041C111.107 118.934 110.678 118.678 110.349 118.271C110.019 117.861 109.855 117.385 109.855 116.843C109.855 116.329 110.005 115.872 110.305 115.472C110.605 115.069 111.017 114.752 111.54 114.523C112.066 114.291 112.663 114.174 113.332 114.174C114 114.174 114.595 114.291 115.118 114.523C115.645 114.755 116.058 115.073 116.358 115.477C116.658 115.877 116.81 116.332 116.813 116.843C116.81 117.388 116.642 117.864 116.31 118.271C115.977 118.678 115.551 118.934 115.031 119.041V119.109C115.428 119.173 115.788 119.322 116.111 119.554C116.437 119.784 116.696 120.072 116.886 120.421C117.08 120.767 117.178 121.146 117.181 121.559C117.178 122.095 117.012 122.574 116.683 122.997C116.353 123.42 115.898 123.754 115.317 124C114.739 124.242 114.077 124.363 113.332 124.363ZM113.332 122.823C113.664 122.823 113.955 122.763 114.203 122.644C114.452 122.521 114.646 122.353 114.784 122.14C114.926 121.924 114.997 121.675 114.997 121.394C114.997 121.107 114.925 120.854 114.78 120.634C114.634 120.411 114.437 120.237 114.189 120.111C113.94 119.982 113.654 119.917 113.332 119.917C113.012 119.917 112.726 119.982 112.474 120.111C112.223 120.237 112.024 120.411 111.879 120.634C111.737 120.854 111.666 121.107 111.666 121.394C111.666 121.675 111.735 121.924 111.874 122.14C112.013 122.353 112.208 122.521 112.46 122.644C112.712 122.763 113.002 122.823 113.332 122.823ZM113.332 118.392C113.609 118.392 113.856 118.336 114.073 118.223C114.289 118.11 114.458 117.953 114.581 117.753C114.704 117.553 114.765 117.322 114.765 117.06C114.765 116.802 114.704 116.576 114.581 116.382C114.458 116.186 114.29 116.032 114.077 115.922C113.864 115.809 113.616 115.753 113.332 115.753C113.051 115.753 112.802 115.809 112.586 115.922C112.37 116.032 112.2 116.186 112.077 116.382C111.958 116.576 111.898 116.802 111.898 117.06C111.898 117.322 111.96 117.553 112.082 117.753C112.205 117.953 112.374 118.11 112.591 118.223C112.807 118.336 113.054 118.392 113.332 118.392ZM122.454 124.363C121.944 124.36 121.451 124.274 120.977 124.106C120.505 123.938 120.082 123.666 119.708 123.288C119.333 122.91 119.036 122.41 118.817 121.787C118.601 121.164 118.492 120.398 118.492 119.491C118.496 118.658 118.591 117.914 118.778 117.259C118.969 116.6 119.24 116.042 119.592 115.583C119.947 115.125 120.371 114.776 120.865 114.538C121.359 114.295 121.913 114.174 122.526 114.174C123.188 114.174 123.772 114.303 124.279 114.562C124.786 114.817 125.193 115.164 125.499 115.603C125.809 116.042 125.997 116.534 126.061 117.08H123.993C123.913 116.734 123.743 116.463 123.485 116.266C123.227 116.069 122.907 115.971 122.526 115.971C121.881 115.971 121.39 116.252 121.054 116.813C120.722 117.375 120.552 118.139 120.546 119.104H120.613C120.762 118.81 120.962 118.56 121.214 118.353C121.469 118.144 121.758 117.984 122.081 117.874C122.407 117.761 122.751 117.704 123.112 117.704C123.7 117.704 124.223 117.843 124.681 118.121C125.14 118.395 125.501 118.773 125.766 119.254C126.031 119.735 126.163 120.286 126.163 120.905C126.163 121.577 126.006 122.174 125.693 122.697C125.383 123.22 124.949 123.63 124.391 123.927C123.835 124.221 123.19 124.366 122.454 124.363ZM122.444 122.716C122.767 122.716 123.056 122.639 123.311 122.484C123.566 122.329 123.766 122.119 123.911 121.854C124.056 121.59 124.129 121.293 124.129 120.963C124.129 120.634 124.056 120.339 123.911 120.077C123.769 119.816 123.572 119.608 123.32 119.453C123.069 119.298 122.781 119.22 122.458 119.22C122.216 119.22 121.992 119.265 121.785 119.356C121.582 119.446 121.403 119.572 121.248 119.733C121.096 119.895 120.977 120.082 120.889 120.295C120.802 120.505 120.759 120.729 120.759 120.968C120.759 121.288 120.831 121.58 120.977 121.845C121.125 122.109 121.325 122.321 121.577 122.479C121.832 122.637 122.121 122.716 122.444 122.716ZM131.964 114.31V124.227H129.867V116.3H129.809L127.538 117.724V115.864L129.993 114.31H131.964ZM138.21 124.445C137.377 124.442 136.66 124.237 136.06 123.83C135.462 123.423 135.002 122.834 134.68 122.063C134.36 121.291 134.202 120.363 134.205 119.278C134.205 118.197 134.365 117.275 134.684 116.513C135.007 115.751 135.467 115.172 136.065 114.775C136.665 114.374 137.38 114.174 138.21 114.174C139.039 114.174 139.753 114.374 140.35 114.775C140.951 115.175 141.412 115.756 141.735 116.518C142.058 117.277 142.218 118.197 142.214 119.278C142.214 120.366 142.053 121.296 141.73 122.068C141.411 122.839 140.952 123.428 140.355 123.835C139.758 124.242 139.043 124.445 138.21 124.445ZM138.21 122.707C138.778 122.707 139.231 122.421 139.57 121.85C139.909 121.278 140.077 120.421 140.074 119.278C140.074 118.526 139.997 117.9 139.842 117.399C139.69 116.899 139.474 116.523 139.193 116.271C138.915 116.019 138.587 115.893 138.21 115.893C137.645 115.893 137.193 116.176 136.854 116.741C136.515 117.306 136.344 118.152 136.341 119.278C136.341 120.04 136.416 120.676 136.568 121.186C136.723 121.693 136.941 122.074 137.222 122.329C137.503 122.581 137.832 122.707 138.21 122.707Z" fill="black"/>
<path d="M189.512 124.445C188.679 124.442 187.962 124.237 187.362 123.83C186.765 123.423 186.305 122.834 185.982 122.063C185.662 121.291 185.504 120.363 185.507 119.278C185.507 118.197 185.667 117.275 185.987 116.513C186.309 115.751 186.77 115.172 187.367 114.775C187.967 114.374 188.682 114.174 189.512 114.174C190.342 114.174 191.055 114.374 191.652 114.775C192.253 115.175 192.714 115.756 193.037 116.518C193.36 117.277 193.52 118.197 193.517 119.278C193.517 120.366 193.355 121.296 193.032 122.068C192.713 122.839 192.254 123.428 191.657 123.835C191.06 124.242 190.345 124.445 189.512 124.445ZM189.512 122.707C190.08 122.707 190.534 122.421 190.873 121.85C191.212 121.278 191.38 120.421 191.376 119.278C191.376 118.526 191.299 117.9 191.144 117.399C190.992 116.899 190.776 116.523 190.495 116.271C190.217 116.019 189.89 115.893 189.512 115.893C188.947 115.893 188.495 116.176 188.156 116.741C187.817 117.306 187.646 118.152 187.643 119.278C187.643 120.04 187.719 120.676 187.87 121.186C188.025 121.693 188.243 122.074 188.524 122.329C188.805 122.581 189.134 122.707 189.512 122.707ZM195.012 124.227V122.716L198.542 119.448C198.842 119.157 199.094 118.896 199.297 118.663C199.504 118.431 199.661 118.203 199.767 117.98C199.874 117.755 199.927 117.511 199.927 117.249C199.927 116.959 199.861 116.709 199.728 116.499C199.596 116.286 199.415 116.123 199.186 116.01C198.957 115.893 198.697 115.835 198.406 115.835C198.103 115.835 197.838 115.897 197.612 116.019C197.386 116.142 197.212 116.318 197.089 116.547C196.967 116.776 196.905 117.049 196.905 117.366H194.915C194.915 116.717 195.062 116.153 195.356 115.675C195.649 115.198 196.061 114.828 196.59 114.567C197.12 114.305 197.73 114.174 198.421 114.174C199.131 114.174 199.749 114.3 200.276 114.552C200.805 114.801 201.217 115.146 201.51 115.588C201.804 116.031 201.951 116.537 201.951 117.109C201.951 117.483 201.877 117.853 201.728 118.218C201.583 118.583 201.323 118.988 200.949 119.433C200.574 119.876 200.046 120.407 199.365 121.026L197.917 122.445V122.513H202.082V124.227H195.012ZM207.301 124.363C206.555 124.363 205.892 124.242 205.31 124C204.733 123.754 204.279 123.42 203.95 122.997C203.62 122.574 203.456 122.095 203.456 121.559C203.456 121.146 203.549 120.767 203.737 120.421C203.927 120.072 204.185 119.784 204.511 119.554C204.838 119.322 205.202 119.173 205.606 119.109V119.041C205.076 118.934 204.647 118.678 204.318 118.271C203.988 117.861 203.824 117.385 203.824 116.843C203.824 116.329 203.974 115.872 204.274 115.472C204.574 115.069 204.986 114.752 205.509 114.523C206.035 114.291 206.632 114.174 207.301 114.174C207.969 114.174 208.565 114.291 209.088 114.523C209.614 114.755 210.027 115.073 210.327 115.477C210.627 115.877 210.779 116.332 210.782 116.843C210.779 117.388 210.611 117.864 210.279 118.271C209.946 118.678 209.52 118.934 209 119.041V119.109C209.398 119.173 209.757 119.322 210.08 119.554C210.406 119.784 210.665 120.072 210.855 120.421C211.049 120.767 211.147 121.146 211.15 121.559C211.147 122.095 210.981 122.574 210.652 122.997C210.322 123.42 209.867 123.754 209.286 124C208.708 124.242 208.046 124.363 207.301 124.363ZM207.301 122.823C207.633 122.823 207.924 122.763 208.172 122.644C208.421 122.521 208.615 122.353 208.753 122.14C208.896 121.924 208.967 121.675 208.967 121.394C208.967 121.107 208.894 120.854 208.749 120.634C208.603 120.411 208.406 120.237 208.158 120.111C207.909 119.982 207.624 119.917 207.301 119.917C206.981 119.917 206.695 119.982 206.444 120.111C206.192 120.237 205.993 120.411 205.848 120.634C205.706 120.854 205.635 121.107 205.635 121.394C205.635 121.675 205.704 121.924 205.843 122.14C205.982 122.353 206.177 122.521 206.429 122.644C206.681 122.763 206.971 122.823 207.301 122.823ZM207.301 118.392C207.578 118.392 207.825 118.336 208.042 118.223C208.258 118.11 208.427 117.953 208.55 117.753C208.673 117.553 208.734 117.322 208.734 117.06C208.734 116.802 208.673 116.576 208.55 116.382C208.427 116.186 208.26 116.032 208.046 115.922C207.833 115.809 207.585 115.753 207.301 115.753C207.02 115.753 206.771 115.809 206.555 115.922C206.339 116.032 206.169 116.186 206.047 116.382C205.927 116.576 205.867 116.802 205.867 117.06C205.867 117.322 205.929 117.553 206.051 117.753C206.174 117.953 206.344 118.11 206.56 118.223C206.776 118.336 207.023 118.392 207.301 118.392ZM213.009 124.227L217.12 116.092V116.024H212.331V114.31H219.289V116.048L215.173 124.227H213.009Z" fill="black"/>
<path d="M266.003 124.445C265.171 124.442 264.454 124.237 263.853 123.83C263.256 123.423 262.796 122.834 262.473 122.063C262.154 121.291 261.995 120.363 261.999 119.278C261.999 118.197 262.158 117.275 262.478 116.513C262.801 115.751 263.261 115.172 263.858 114.775C264.459 114.374 265.174 114.174 266.003 114.174C266.833 114.174 267.547 114.374 268.144 114.775C268.744 115.175 269.206 115.756 269.529 116.518C269.852 117.277 270.011 118.197 270.008 119.278C270.008 120.366 269.847 121.296 269.524 122.068C269.204 122.839 268.746 123.428 268.149 123.835C267.551 124.242 266.836 124.445 266.003 124.445ZM266.003 122.707C266.572 122.707 267.025 122.421 267.364 121.85C267.703 121.278 267.871 120.421 267.868 119.278C267.868 118.526 267.79 117.9 267.635 117.399C267.484 116.899 267.267 116.523 266.986 116.271C266.709 116.019 266.381 115.893 266.003 115.893C265.438 115.893 264.986 116.176 264.648 116.741C264.309 117.306 264.137 118.152 264.134 119.278C264.134 120.04 264.21 120.676 264.362 121.186C264.517 121.693 264.735 122.074 265.016 122.329C265.296 122.581 265.626 122.707 266.003 122.707ZM271.503 124.227V122.716L275.033 119.448C275.334 119.157 275.585 118.896 275.789 118.663C275.995 118.431 276.152 118.203 276.259 117.98C276.365 117.755 276.418 117.511 276.418 117.249C276.418 116.959 276.352 116.709 276.22 116.499C276.087 116.286 275.907 116.123 275.677 116.01C275.448 115.893 275.188 115.835 274.898 115.835C274.594 115.835 274.33 115.897 274.104 116.019C273.878 116.142 273.703 116.318 273.581 116.547C273.458 116.776 273.397 117.049 273.397 117.366H271.406C271.406 116.717 271.553 116.153 271.847 115.675C272.141 115.198 272.552 114.828 273.082 114.567C273.611 114.305 274.221 114.174 274.912 114.174C275.623 114.174 276.241 114.3 276.767 114.552C277.296 114.801 277.708 115.146 278.002 115.588C278.296 116.031 278.442 116.537 278.442 117.109C278.442 117.483 278.368 117.853 278.22 118.218C278.074 118.583 277.815 118.988 277.44 119.433C277.066 119.876 276.538 120.407 275.857 121.026L274.409 122.445V122.513H278.573V124.227H271.503ZM283.792 124.363C283.046 124.363 282.383 124.242 281.802 124C281.224 123.754 280.77 123.42 280.441 122.997C280.112 122.574 279.947 122.095 279.947 121.559C279.947 121.146 280.041 120.767 280.228 120.421C280.419 120.072 280.677 119.784 281.003 119.554C281.329 119.322 281.694 119.173 282.097 119.109V119.041C281.568 118.934 281.139 118.678 280.809 118.271C280.48 117.861 280.315 117.385 280.315 116.843C280.315 116.329 280.465 115.872 280.766 115.472C281.066 115.069 281.477 114.752 282 114.523C282.527 114.291 283.124 114.174 283.792 114.174C284.46 114.174 285.056 114.291 285.579 114.523C286.105 114.755 286.518 115.073 286.819 115.477C287.119 115.877 287.271 116.332 287.274 116.843C287.271 117.388 287.103 117.864 286.77 118.271C286.438 118.678 286.012 118.934 285.492 119.041V119.109C285.889 119.173 286.249 119.322 286.572 119.554C286.898 119.784 287.156 120.072 287.347 120.421C287.54 120.767 287.639 121.146 287.642 121.559C287.639 122.095 287.472 122.574 287.143 122.997C286.814 123.42 286.359 123.754 285.778 124C285.2 124.242 284.538 124.363 283.792 124.363ZM283.792 122.823C284.125 122.823 284.415 122.763 284.664 122.644C284.912 122.521 285.106 122.353 285.245 122.14C285.387 121.924 285.458 121.675 285.458 121.394C285.458 121.107 285.385 120.854 285.24 120.634C285.095 120.411 284.898 120.237 284.649 120.111C284.401 119.982 284.115 119.917 283.792 119.917C283.473 119.917 283.187 119.982 282.935 120.111C282.683 120.237 282.485 120.411 282.339 120.634C282.197 120.854 282.126 121.107 282.126 121.394C282.126 121.675 282.196 121.924 282.335 122.14C282.473 122.353 282.669 122.521 282.921 122.644C283.172 122.763 283.463 122.823 283.792 122.823ZM283.792 118.392C284.07 118.392 284.317 118.336 284.533 118.223C284.749 118.11 284.919 117.953 285.042 117.753C285.164 117.553 285.226 117.322 285.226 117.06C285.226 116.802 285.164 116.576 285.042 116.382C284.919 116.186 284.751 116.032 284.538 115.922C284.325 115.809 284.076 115.753 283.792 115.753C283.511 115.753 283.263 115.809 283.046 115.922C282.83 116.032 282.661 116.186 282.538 116.382C282.419 116.576 282.359 116.802 282.359 117.06C282.359 117.322 282.42 117.553 282.543 117.753C282.666 117.953 282.835 118.11 283.051 118.223C283.268 118.336 283.515 118.392 283.792 118.392ZM289.5 124.227L293.611 116.092V116.024H288.822V114.31H295.781V116.048L291.665 124.227H289.5Z" fill="black"/>
<path d="M29.4951 58.2727V49.3872H32.3933C33.3316 49.3872 34.1466 49.5781 34.8383 49.9597C35.538 50.3334 36.0787 50.8542 36.4604 51.5221C36.842 52.1821 37.0329 52.9494 37.0329 53.824C37.0329 54.6907 36.842 55.462 36.4604 56.1378C36.0787 56.8057 35.538 57.3305 34.8383 57.7122C34.1466 58.0859 33.3316 58.2727 32.3933 58.2727H29.4951ZM31.1171 56.8415H32.4291C33.0334 56.8415 33.5542 56.7183 33.9915 56.4718C34.4368 56.2173 34.7827 55.8675 35.0292 55.4222C35.2756 54.969 35.3989 54.4363 35.3989 53.824C35.3989 53.2038 35.2756 52.6711 35.0292 52.2258C34.7827 51.7806 34.4368 51.4347 33.9915 51.1882C33.5542 50.9417 33.0334 50.8185 32.4291 50.8185H31.1171V56.8415ZM38.1926 58.2727V51.7845H39.755V58.2727H38.1926ZM38.1926 51.057V49.3872H39.755V51.057H38.1926ZM44.3463 60.8966C43.8612 60.8966 43.412 60.8171 42.9985 60.6581C42.5851 60.4991 42.2273 60.2764 41.9251 59.9902C41.6309 59.7119 41.4162 59.3819 41.2811 59.0003L42.7361 58.4516C42.8315 58.7538 43.0184 58.9963 43.2967 59.1792C43.5829 59.37 43.9328 59.4654 44.3463 59.4654C44.6643 59.4654 44.9426 59.4058 45.1811 59.2865C45.4276 59.1672 45.6185 58.9923 45.7536 58.7617C45.8888 58.5391 45.9564 58.2688 45.9564 57.9507V56.4718L46.2546 56.8296C46.0319 57.2192 45.7337 57.5134 45.36 57.7122C44.9863 57.911 44.5609 58.0103 44.0839 58.0103C43.4796 58.0103 42.9389 57.8712 42.4618 57.5929C41.9847 57.3146 41.611 56.933 41.3407 56.4479C41.0704 55.9629 40.9352 55.4182 40.9352 54.8139C40.9352 54.2017 41.0704 53.657 41.3407 53.18C41.611 52.7029 41.9808 52.3292 42.4499 52.0588C42.919 51.7806 43.4517 51.6414 44.0481 51.6414C44.5331 51.6414 44.9585 51.7448 45.3243 51.9515C45.698 52.1503 46.0081 52.4405 46.2546 52.8222L46.0399 53.2158V51.7845H47.5188V57.9507C47.5188 58.5152 47.3797 59.0202 47.1014 59.4654C46.831 59.9107 46.4573 60.2605 45.9802 60.515C45.5111 60.7694 44.9665 60.8966 44.3463 60.8966ZM44.2747 56.5672C44.6087 56.5672 44.8989 56.4956 45.1454 56.3525C45.3998 56.2014 45.5986 55.9947 45.7417 55.7323C45.8848 55.4699 45.9564 55.1678 45.9564 54.8259C45.9564 54.4919 45.8808 54.1938 45.7298 53.9314C45.5867 53.661 45.3879 53.4503 45.1334 53.2992C44.8869 53.1482 44.6007 53.0726 44.2747 53.0726C43.9487 53.0726 43.6545 53.1482 43.3921 53.2992C43.1297 53.4503 42.923 53.661 42.7719 53.9314C42.6288 54.1938 42.5572 54.4919 42.5572 54.8259C42.5572 55.1598 42.6288 55.458 42.7719 55.7204C42.923 55.9828 43.1257 56.1895 43.3802 56.3406C43.6426 56.4917 43.9407 56.5672 44.2747 56.5672ZM48.978 58.2727V51.7845H50.5404V58.2727H48.978ZM48.978 51.057V49.3872H50.5404V51.057H48.978ZM52.305 55.7204V54.3488H57.3739V55.7204H52.305ZM59.2656 58.2727V49.3872H63.0107C63.599 49.3872 64.1 49.4906 64.5134 49.6973C64.9349 49.8961 65.2569 50.1824 65.4795 50.5561C65.7101 50.9218 65.8254 51.3671 65.8254 51.8919C65.8254 52.2974 65.7141 52.679 65.4914 53.0368C65.2768 53.3867 64.9309 53.6769 64.4538 53.9075V53.1561C64.8911 53.3231 65.237 53.5298 65.4914 53.7763C65.7459 54.0228 65.9248 54.2971 66.0282 54.5993C66.1315 54.9014 66.1832 55.2195 66.1832 55.5534C66.1832 56.4042 65.9009 57.0721 65.3364 57.5571C64.7798 58.0342 64.0046 58.2727 63.0107 58.2727H59.2656ZM60.8877 56.8415H63.1776C63.599 56.8415 63.933 56.7262 64.1795 56.4956C64.4339 56.2571 64.5611 55.943 64.5611 55.5534C64.5611 55.1638 64.4339 54.8497 64.1795 54.6112C63.933 54.3727 63.599 54.2534 63.1776 54.2534H60.8877V56.8415ZM60.8877 52.8341H63.0941C63.4281 52.8341 63.6945 52.7387 63.8932 52.5478C64.092 52.3491 64.1914 52.0946 64.1914 51.7845C64.1914 51.4744 64.092 51.2279 63.8932 51.0451C63.6945 50.8622 63.4281 50.7707 63.0941 50.7707H60.8877V52.8341ZM69.3487 58.4159C68.8954 58.4159 68.5019 58.3403 68.1679 58.1892C67.834 58.0382 67.5755 57.8235 67.3927 57.5452C67.2098 57.259 67.1183 56.929 67.1183 56.5553C67.1183 56.1975 67.1979 55.8794 67.3569 55.6011C67.5159 55.3149 67.7624 55.0763 68.0963 54.8855C68.4303 54.6947 68.8517 54.5595 69.3606 54.48L71.4836 54.1341V55.3268L69.6588 55.6369C69.3487 55.6926 69.1181 55.792 68.967 55.9351C68.8159 56.0782 68.7404 56.265 68.7404 56.4956C68.7404 56.7183 68.8239 56.8972 68.9909 57.0323C69.1658 57.1596 69.3805 57.2232 69.6349 57.2232C69.9609 57.2232 70.2472 57.1556 70.4936 57.0204C70.7481 56.8773 70.9429 56.6825 71.0781 56.436C71.2212 56.1895 71.2927 55.9192 71.2927 55.625V53.9552C71.2927 53.6769 71.1814 53.4463 70.9588 53.2635C70.7441 53.0726 70.4579 52.9772 70.1001 52.9772C69.7661 52.9772 69.4679 53.0687 69.2055 53.2515C68.9511 53.4265 68.7642 53.661 68.645 53.9552L67.3688 53.335C67.496 52.9931 67.6948 52.6989 67.9651 52.4524C68.2434 52.198 68.5694 51.9992 68.9431 51.8561C69.3169 51.713 69.7224 51.6414 70.1597 51.6414C70.6924 51.6414 71.1615 51.7408 71.5671 51.9396C71.9726 52.1304 72.2866 52.4008 72.5093 52.7506C72.7399 53.0925 72.8552 53.494 72.8552 53.9552V58.2727H71.3762V57.1635L71.7102 57.1397C71.5432 57.418 71.3444 57.6525 71.1138 57.8434C70.8833 58.0262 70.6209 58.1694 70.3267 58.2727C70.0325 58.3682 69.7065 58.4159 69.3487 58.4159ZM74.2992 58.2727V51.7845H75.7662V53.0607L75.647 52.8341C75.798 52.4445 76.0445 52.1503 76.3864 51.9515C76.7363 51.7448 77.1418 51.6414 77.603 51.6414C78.08 51.6414 78.5015 51.7448 78.8672 51.9515C79.2409 52.1582 79.5311 52.4485 79.7379 52.8222C79.9446 53.1879 80.048 53.6133 80.048 54.0983V58.2727H78.4856V54.4681C78.4856 54.1818 78.4299 53.9353 78.3186 53.7286C78.2073 53.5219 78.0522 53.3628 77.8534 53.2515C77.6626 53.1323 77.436 53.0726 77.1736 53.0726C76.9192 53.0726 76.6926 53.1323 76.4938 53.2515C76.295 53.3628 76.1399 53.5219 76.0286 53.7286C75.9173 53.9353 75.8617 54.1818 75.8617 54.4681V58.2727H74.2992ZM81.3692 58.2727V49.2441H82.9316V55.1598L82.3352 54.9809L85.3885 51.7845H87.3326L84.9353 54.3965L87.3803 58.2727H85.5913L83.4683 54.9094L84.3986 54.7185L82.4426 56.8177L82.9316 55.8635V58.2727H81.3692Z" fill="black"/>
<path d="M279.965 43.3449C275.611 43.3449 271.701 45.6108 271.701 49.7688C271.701 54.5575 278.607 54.8845 278.607 57.2672C278.607 58.2717 277.437 59.1827 275.47 59.1827C272.661 59.1827 270.554 57.9213 270.554 57.9213L269.664 62.126C269.664 62.126 272.076 63.2005 275.306 63.2005C280.082 63.2005 283.828 60.8412 283.828 56.5898C283.828 51.5441 276.898 51.2171 276.898 48.9979C276.898 48.2037 277.858 47.3394 279.825 47.3394C282.049 47.3394 283.875 48.2504 283.875 48.2504L284.765 44.1859C284.741 44.1859 282.751 43.3449 279.965 43.3449ZM240.072 43.6486L239.955 44.256C239.955 44.256 241.781 44.583 243.443 45.2604C245.573 46.0313 245.714 46.4751 246.088 47.8533L249.998 62.8735H255.242L263.273 43.6486H258.052L252.878 56.7299L250.771 45.6342C250.584 44.3728 249.6 43.6486 248.383 43.6486H240.072ZM265.38 43.6486L261.283 62.8735H266.269L270.343 43.6486H265.38ZM293.146 43.6486C291.952 43.6486 291.32 44.2793 290.852 45.4006L283.547 62.8735H288.768L289.775 59.9536H296.143L296.752 62.8735H301.364L297.36 43.6486H293.146ZM293.825 48.8578L295.37 56.0759H291.226L293.825 48.8578Z" fill="#1434CB"/>
<path d="M34.5022 150.483V144.939C34.3219 145.004 34.044 145.106 33.6685 145.247C33.293 145.388 33.0138 145.492 32.831 145.558V144.854L35.1952 143.965H35.2915V150.483H34.5022ZM42.1341 148.334V148.967H41.2299V150.483H40.4406V148.967H37.4651V148.504L40.3813 143.998H41.2299V148.334H42.1341ZM40.4406 148.334L40.4036 145.091L38.3433 148.334H40.4406ZM46.983 147.719C46.983 148.689 46.8188 149.406 46.4902 149.868C46.1592 150.337 45.6453 150.572 44.9487 150.572C43.6221 150.572 42.9403 149.659 42.9032 147.834V146.726C42.9032 145.767 43.0675 145.059 43.3961 144.602C43.7271 144.138 44.2422 143.906 44.9413 143.906C45.6206 143.906 46.1283 144.135 46.4643 144.595C46.7928 145.044 46.9657 145.728 46.983 146.644V147.719ZM46.1975 146.585C46.1975 145.876 46.0962 145.358 45.8936 145.032C45.6935 144.706 45.3761 144.543 44.9413 144.543C44.5114 144.543 44.1965 144.705 43.9964 145.028C43.7988 145.347 43.6962 145.845 43.6888 146.522V147.848C43.6888 149.244 44.1088 149.942 44.9487 149.942C45.3687 149.942 45.6787 149.781 45.8788 149.46C46.0814 149.137 46.1876 148.631 46.1975 147.945V146.585ZM48.8009 143.998H52.1062V144.717H49.4642L49.2604 146.563C49.5988 146.362 49.9718 146.262 50.3794 146.262C50.9674 146.262 51.4343 146.456 51.7801 146.844C52.126 147.232 52.2989 147.758 52.2989 148.423C52.2989 149.072 52.1186 149.599 51.7579 150.001C51.3824 150.382 50.8809 150.572 50.2535 150.572C49.6828 150.572 49.2159 150.414 48.8528 150.098C48.502 149.789 48.2994 149.359 48.2451 148.808H48.9825C49.0912 149.564 49.5148 149.942 50.2535 149.942C50.6462 149.942 50.9538 149.807 51.1761 149.538C51.4009 149.269 51.5133 148.901 51.5133 148.434C51.5133 147.994 51.3923 147.64 51.1502 147.37C50.9056 147.099 50.5845 146.963 50.1868 146.963C49.8211 146.963 49.5321 147.043 49.3197 147.204L49.1085 147.378L48.4711 147.215L48.8009 143.998ZM52.8013 151.042L55.5138 143.998H56.1659L53.4609 151.042H52.8013ZM58.9302 150.483V144.939C58.7498 145.004 58.4719 145.106 58.0964 145.247C57.7209 145.388 57.4418 145.492 57.259 145.558V144.854L59.6231 143.965H59.7194V150.483H58.9302ZM64.0904 150.483V144.939C63.9101 145.004 63.6322 145.106 63.2567 145.247C62.8812 145.388 62.602 145.492 62.4192 145.558V144.854L64.7833 143.965H64.8797V150.483H64.0904Z" fill="black"/>
<path d="M262.585 148.43C262.504 149.117 262.25 149.646 261.826 150.016C261.401 150.387 260.836 150.572 260.132 150.572C259.369 150.572 258.756 150.299 258.294 149.753C257.832 149.202 257.601 148.466 257.601 147.544V146.918C257.591 146.014 257.83 145.283 258.316 144.725C258.801 144.166 259.431 143.893 260.206 143.906C260.898 143.906 261.45 144.1 261.863 144.487C262.278 144.87 262.519 145.392 262.585 146.051H261.759C261.682 145.537 261.518 145.161 261.266 144.921C261.017 144.689 260.663 144.573 260.206 144.573C259.65 144.573 259.213 144.779 258.895 145.191C258.581 145.604 258.424 146.187 258.424 146.94V147.57C258.424 148.289 258.573 148.857 258.872 149.275C259.174 149.7 259.594 149.912 260.132 149.912C260.614 149.912 260.984 149.804 261.244 149.586C261.508 149.359 261.681 148.982 261.763 148.456H262.607L262.585 148.43ZM267.832 143.998H268.721C268.452 144.722 268.052 145.803 267.521 147.241L266.92 148.86L266.316 150.483H265.59L263.193 143.998H264.075L265.95 149.434L267.832 143.998ZM273.675 143.998H274.564C274.295 144.722 273.895 145.803 273.364 147.241L272.763 148.86L272.159 150.483H271.433L269.035 143.998H269.917L271.792 149.434L273.675 143.998ZM275.282 150.483V149.916L277.535 147.411C277.871 147.031 278.102 146.721 278.228 146.481C278.359 146.234 278.424 145.984 278.424 145.732C278.424 145.392 278.319 145.107 278.109 144.88C277.899 144.655 277.619 144.543 277.268 144.543C276.853 144.543 276.53 144.66 276.297 144.895C276.063 145.13 275.943 145.457 275.938 145.877H275.156C275.164 145.311 275.352 144.838 275.723 144.458C276.126 144.09 276.641 143.906 277.268 143.906C277.866 143.906 278.342 144.065 278.695 144.384C279.041 144.695 279.214 145.111 279.214 145.632C279.214 146.272 278.806 147.034 277.991 147.919L276.208 149.849H279.514V150.483H275.282ZM280.498 150.072C280.498 149.928 280.539 149.813 280.62 149.727C280.707 149.636 280.829 149.59 280.987 149.59C281.145 149.59 281.27 149.636 281.361 149.727C281.445 149.813 281.487 149.928 281.487 150.072C281.487 150.205 281.445 150.314 281.361 150.398C281.27 150.487 281.145 150.531 280.987 150.531C280.829 150.531 280.707 150.487 280.62 150.398C280.539 150.316 280.498 150.208 280.498 150.072ZM280.502 147.074C280.502 146.931 280.542 146.816 280.624 146.729C280.71 146.638 280.833 146.592 280.991 146.592C281.151 146.592 281.276 146.638 281.365 146.729C281.449 146.816 281.491 146.931 281.491 147.074C281.491 147.21 281.449 147.318 281.365 147.4C281.274 147.489 281.149 147.533 280.991 147.533C280.835 147.533 280.713 147.489 280.624 147.4C280.542 147.318 280.502 147.21 280.502 147.074ZM284.554 150.483V144.939C284.374 145.004 284.096 145.106 283.721 145.247C283.345 145.388 283.066 145.492 282.883 145.558V144.854L285.247 143.965H285.344V150.483H284.554ZM287.825 150.483V149.916L290.078 147.411C290.414 147.031 290.645 146.721 290.771 146.481C290.902 146.234 290.967 145.984 290.967 145.732C290.967 145.392 290.862 145.107 290.652 144.88C290.442 144.655 290.162 144.543 289.811 144.543C289.396 144.543 289.072 144.66 288.84 144.895C288.605 145.13 288.486 145.457 288.481 145.877H287.699C287.706 145.311 287.895 144.838 288.266 144.458C288.668 144.09 289.183 143.906 289.811 143.906C290.409 143.906 290.884 144.065 291.238 144.384C291.583 144.695 291.756 145.111 291.756 145.632C291.756 146.272 291.349 147.034 290.534 147.919L288.751 149.849H292.057V150.483H287.825ZM294.79 146.859C295.182 146.854 295.495 146.749 295.727 146.544C295.959 146.336 296.075 146.06 296.075 145.714C296.075 144.933 295.686 144.543 294.908 144.543C294.552 144.543 294.261 144.648 294.034 144.858C293.819 145.068 293.709 145.337 293.704 145.666H292.922C292.929 145.177 293.115 144.76 293.478 144.417C293.858 144.076 294.335 143.906 294.908 143.906C295.518 143.906 295.996 144.067 296.342 144.391C296.686 144.712 296.857 145.159 296.857 145.732C296.857 146.009 296.767 146.28 296.587 146.544C296.397 146.811 296.129 147.016 295.783 147.159C296.158 147.28 296.447 147.472 296.65 147.733C296.855 147.998 296.957 148.315 296.957 148.686C296.957 149.261 296.77 149.72 296.394 150.061C296.016 150.401 295.522 150.572 294.912 150.572C294.322 150.572 293.826 150.408 293.426 150.079C293.06 149.748 292.873 149.323 292.863 148.804H293.652C293.657 149.145 293.772 149.419 293.997 149.627C294.224 149.837 294.529 149.942 294.912 149.942C295.32 149.942 295.632 149.834 295.849 149.62C296.064 149.407 296.172 149.101 296.172 148.701C296.172 148.315 296.053 148.019 295.816 147.811C295.579 147.604 295.237 147.498 294.79 147.493H294.189V146.859H294.79Z" fill="black"/>
<path d="M33.6073 170.682H32.4538V164.017H33.6073V170.682ZM41.2301 168.114H39.938V170.682H38.7804V164.017H41.1241C41.8932 164.017 42.4869 164.19 42.9054 164.535C43.3239 164.88 43.5331 165.379 43.5331 166.031C43.5331 166.477 43.4258 166.85 43.2111 167.152C42.9964 167.451 42.6961 167.682 42.3103 167.845L43.8062 170.621V170.682H42.5671L41.2301 168.114ZM39.938 167.185H41.1282C41.5195 167.185 41.8252 167.087 42.0453 166.891C42.2654 166.693 42.3755 166.422 42.3755 166.08C42.3755 165.724 42.2736 165.448 42.0698 165.252C41.866 165.057 41.563 164.956 41.1608 164.951H39.938V167.185ZM52.3996 165.774C52.3996 166.1 52.3154 166.391 52.1469 166.646C51.9811 166.902 51.7529 167.103 51.4621 167.25C51.81 167.41 52.0776 167.632 52.2651 167.914C52.4526 168.194 52.5464 168.511 52.5464 168.864C52.5464 169.451 52.348 169.916 51.9513 170.258C51.5545 170.6 51.0273 170.771 50.3697 170.771C49.7067 170.771 49.1754 170.6 48.776 170.258C48.3792 169.913 48.1809 169.448 48.1809 168.864C48.1809 168.508 48.2746 168.189 48.4621 167.906C48.6523 167.621 48.9186 167.402 49.261 167.25C48.973 167.103 48.7461 166.902 48.5803 166.646C48.4146 166.391 48.3317 166.1 48.3317 165.774C48.3317 165.206 48.5138 164.757 48.8779 164.425C49.2447 164.091 49.7393 163.924 50.3616 163.924C50.9893 163.924 51.4852 164.091 51.8494 164.425C52.2162 164.757 52.3996 165.206 52.3996 165.774ZM51.4336 168.811C51.4336 168.479 51.3344 168.213 51.136 168.012C50.9404 167.808 50.6809 167.706 50.3575 167.706C50.0341 167.706 49.776 167.807 49.583 168.008C49.3901 168.209 49.2936 168.477 49.2936 168.811C49.2936 169.137 49.3888 169.398 49.579 169.594C49.7692 169.789 50.0328 169.887 50.3697 169.887C50.704 169.887 50.9648 169.792 51.1523 169.602C51.3398 169.411 51.4336 169.148 51.4336 168.811ZM51.2909 165.815C51.2909 165.527 51.2067 165.289 51.0382 165.102C50.8725 164.911 50.6483 164.816 50.3657 164.816C50.0803 164.816 49.8548 164.906 49.689 165.085C49.526 165.265 49.4445 165.508 49.4445 165.815C49.4445 166.122 49.5273 166.365 49.6931 166.545C49.8589 166.724 50.0844 166.814 50.3697 166.814C50.6523 166.814 50.8765 166.724 51.0423 166.545C51.208 166.365 51.2909 166.122 51.2909 165.815ZM57.5772 167.376L57.94 164.017H61.5188V164.979H58.8652L58.6818 166.573C58.9889 166.394 59.3367 166.304 59.7253 166.304C60.3611 166.304 60.8544 166.508 61.2049 166.916C61.5582 167.32 61.7348 167.867 61.7348 168.554C61.7348 169.231 61.5391 169.77 61.1478 170.172C60.7592 170.572 60.2239 170.771 59.5419 170.771C58.9332 170.771 58.4277 170.599 58.0255 170.254C57.6234 169.909 57.406 169.452 57.3734 168.884H58.4495C58.4929 169.208 58.6084 169.456 58.7959 169.63C58.9861 169.801 59.2334 169.887 59.5378 169.887C59.8802 169.887 60.1465 169.765 60.3367 169.52C60.5269 169.276 60.622 168.943 60.622 168.521C60.622 168.117 60.516 167.796 60.3041 167.56C60.0948 167.32 59.8054 167.201 59.4359 167.201C59.2348 167.201 59.0636 167.228 58.9223 167.282C58.7837 167.337 58.6315 167.441 58.4658 167.596L57.5772 167.376ZM77.2912 167.877C77.2912 168.834 77.1119 169.555 76.7532 170.042C76.3945 170.528 75.8497 170.771 75.1187 170.771C74.3986 170.771 73.8551 170.535 73.4882 170.062C73.1241 169.587 72.938 168.884 72.9298 167.955V166.801C72.9298 165.842 73.1092 165.123 73.4679 164.645C73.8266 164.164 74.3728 163.924 75.1065 163.924C75.8374 163.924 76.3823 164.157 76.741 164.625C77.0997 165.092 77.2831 165.792 77.2912 166.724V167.877ZM76.1785 166.63C76.1785 166.005 76.0929 165.547 75.9217 165.257C75.7532 164.963 75.4815 164.816 75.1065 164.816C74.745 164.816 74.4787 164.955 74.3075 165.232C74.1363 165.509 74.0467 165.94 74.0385 166.524V168.036C74.0385 168.659 74.1255 169.123 74.2994 169.43C74.4733 169.735 74.7464 169.887 75.1187 169.887C75.4747 169.887 75.7382 169.746 75.9094 169.463C76.0806 169.18 76.1703 168.739 76.1785 168.138V166.63ZM85.0367 170.682H83.9321V165.33L82.2976 165.888V164.951L84.8981 163.993H85.0367V170.682ZM95.5866 170.682H91.1029V169.916L93.3243 167.494C93.645 167.138 93.8733 166.841 94.0091 166.602C94.145 166.363 94.2129 166.122 94.2129 165.88C94.2129 165.562 94.1233 165.305 93.9439 165.11C93.7673 164.914 93.5268 164.816 93.2224 164.816C92.8637 164.816 92.5852 164.926 92.3868 165.146C92.1885 165.367 92.0893 165.667 92.0893 166.047H90.9765C90.9765 165.642 91.0689 165.278 91.2537 164.955C91.4385 164.629 91.7021 164.376 92.0444 164.197C92.3896 164.015 92.7863 163.924 93.2347 163.924C93.8814 163.924 94.3909 164.087 94.7632 164.413C95.1382 164.739 95.3257 165.189 95.3257 165.762C95.3257 166.094 95.2319 166.443 95.0444 166.81C94.8569 167.174 94.5499 167.587 94.1233 168.049L92.4928 169.793H95.5866V170.682ZM104.526 167.877C104.526 168.834 104.347 169.555 103.988 170.042C103.63 170.528 103.085 170.771 102.354 170.771C101.634 170.771 101.09 170.535 100.723 170.062C100.359 169.587 100.173 168.884 100.165 167.955V166.801C100.165 165.842 100.344 165.123 100.703 164.645C101.062 164.164 101.608 163.924 102.342 163.924C103.073 163.924 103.617 164.157 103.976 164.625C104.335 165.092 104.518 165.792 104.526 166.724V167.877ZM103.414 166.63C103.414 166.005 103.328 165.547 103.157 165.257C102.988 164.963 102.717 164.816 102.342 164.816C101.98 164.816 101.714 164.955 101.543 165.232C101.371 165.509 101.282 165.94 101.274 166.524V168.036C101.274 168.659 101.361 169.123 101.534 169.43C101.708 169.735 101.982 169.887 102.354 169.887C102.71 169.887 102.973 169.746 103.145 169.463C103.316 169.18 103.405 168.739 103.414 168.138V166.63ZM120.193 167.877C120.193 168.834 120.013 169.555 119.655 170.042C119.296 170.528 118.751 170.771 118.02 170.771C117.3 170.771 116.757 170.535 116.39 170.062C116.026 169.587 115.84 168.884 115.831 167.955V166.801C115.831 165.842 116.011 165.123 116.369 164.645C116.728 164.164 117.274 163.924 118.008 163.924C118.739 163.924 119.284 164.157 119.643 164.625C120.001 165.092 120.185 165.792 120.193 166.724V167.877ZM119.08 166.63C119.08 166.005 118.994 165.547 118.823 165.257C118.655 164.963 118.383 164.816 118.008 164.816C117.647 164.816 117.38 164.955 117.209 165.232C117.038 165.509 116.948 165.94 116.94 166.524V168.036C116.94 168.659 117.027 169.123 117.201 169.43C117.375 169.735 117.648 169.887 118.02 169.887C118.376 169.887 118.64 169.746 118.811 169.463C118.982 169.18 119.072 168.739 119.08 168.138V166.63ZM127.938 170.682H126.834V165.33L125.199 165.888V164.951L127.8 163.993H127.938V170.682ZM138.35 167.877C138.35 168.834 138.17 169.555 137.812 170.042C137.453 170.528 136.908 170.771 136.177 170.771C135.457 170.771 134.913 170.535 134.547 170.062C134.182 169.587 133.996 168.884 133.988 167.955V166.801C133.988 165.842 134.168 165.123 134.526 164.645C134.885 164.164 135.431 163.924 136.165 163.924C136.896 163.924 137.441 164.157 137.799 164.625C138.158 165.092 138.341 165.792 138.35 166.724V167.877ZM137.237 166.63C137.237 166.005 137.151 165.547 136.98 165.257C136.812 164.963 136.54 164.816 136.165 164.816C135.803 164.816 135.537 164.955 135.366 165.232C135.195 165.509 135.105 165.94 135.097 166.524V168.036C135.097 168.659 135.184 169.123 135.358 169.43C135.532 169.735 135.805 169.887 136.177 169.887C136.533 169.887 136.797 169.746 136.968 169.463C137.139 169.18 137.229 168.739 137.237 168.138V166.63ZM147.428 167.877C147.428 168.834 147.249 169.555 146.89 170.042C146.531 170.528 145.986 170.771 145.255 170.771C144.535 170.771 143.992 170.535 143.625 170.062C143.261 169.587 143.075 168.884 143.067 167.955V166.801C143.067 165.842 143.246 165.123 143.605 164.645C143.963 164.164 144.509 163.924 145.243 163.924C145.974 163.924 146.519 164.157 146.878 164.625C147.236 165.092 147.42 165.792 147.428 166.724V167.877ZM146.315 166.63C146.315 166.005 146.23 165.547 146.058 165.257C145.89 164.963 145.618 164.816 145.243 164.816C144.882 164.816 144.615 164.955 144.444 165.232C144.273 165.509 144.183 165.94 144.175 166.524V168.036C144.175 168.659 144.262 169.123 144.436 169.43C144.61 169.735 144.883 169.887 145.255 169.887C145.611 169.887 145.875 169.746 146.046 169.463C146.217 169.18 146.307 168.739 146.315 168.138V166.63ZM163.094 167.877C163.094 168.834 162.915 169.555 162.556 170.042C162.198 170.528 161.653 170.771 160.922 170.771C160.202 170.771 159.658 170.535 159.291 170.062C158.927 169.587 158.741 168.884 158.733 167.955V166.801C158.733 165.842 158.912 165.123 159.271 164.645C159.63 164.164 160.176 163.924 160.91 163.924C161.641 163.924 162.185 164.157 162.544 164.625C162.903 165.092 163.086 165.792 163.094 166.724V167.877ZM161.982 166.63C161.982 166.005 161.896 165.547 161.725 165.257C161.556 164.963 161.285 164.816 160.91 164.816C160.548 164.816 160.282 164.955 160.111 165.232C159.94 165.509 159.85 165.94 159.842 166.524V168.036C159.842 168.659 159.929 169.123 160.103 169.43C160.277 169.735 160.55 169.887 160.922 169.887C161.278 169.887 161.541 169.746 161.713 169.463C161.884 169.18 161.974 168.739 161.982 168.138V166.63ZM172.173 167.877C172.173 168.834 171.993 169.555 171.635 170.042C171.276 170.528 170.731 170.771 170 170.771C169.28 170.771 168.737 170.535 168.37 170.062C168.006 169.587 167.82 168.884 167.811 167.955V166.801C167.811 165.842 167.991 165.123 168.349 164.645C168.708 164.164 169.254 163.924 169.988 163.924C170.719 163.924 171.264 164.157 171.623 164.625C171.981 165.092 172.165 165.792 172.173 166.724V167.877ZM171.06 166.63C171.06 166.005 170.974 165.547 170.803 165.257C170.635 164.963 170.363 164.816 169.988 164.816C169.627 164.816 169.36 164.955 169.189 165.232C169.018 165.509 168.928 165.94 168.92 166.524V168.036C168.92 168.659 169.007 169.123 169.181 169.43C169.355 169.735 169.628 169.887 170 169.887C170.356 169.887 170.62 169.746 170.791 169.463C170.962 169.18 171.052 168.739 171.06 168.138V166.63ZM181.251 167.877C181.251 168.834 181.072 169.555 180.713 170.042C180.354 170.528 179.81 170.771 179.079 170.771C178.359 170.771 177.815 170.535 177.448 170.062C177.084 169.587 176.898 168.884 176.89 167.955V166.801C176.89 165.842 177.069 165.123 177.428 164.645C177.787 164.164 178.333 163.924 179.066 163.924C179.797 163.924 180.342 164.157 180.701 164.625C181.06 165.092 181.243 165.792 181.251 166.724V167.877ZM180.138 166.63C180.138 166.005 180.053 165.547 179.882 165.257C179.713 164.963 179.441 164.816 179.066 164.816C178.705 164.816 178.439 164.955 178.268 165.232C178.096 165.509 178.007 165.94 177.998 166.524V168.036C177.998 168.659 178.085 169.123 178.259 169.43C178.433 169.735 178.706 169.887 179.079 169.887C179.435 169.887 179.698 169.746 179.869 169.463C180.041 169.18 180.13 168.739 180.138 168.138V166.63ZM190.33 167.877C190.33 168.834 190.15 169.555 189.792 170.042C189.433 170.528 188.888 170.771 188.157 170.771C187.437 170.771 186.893 170.535 186.527 170.062C186.162 169.587 185.976 168.884 185.968 167.955V166.801C185.968 165.842 186.147 165.123 186.506 164.645C186.865 164.164 187.411 163.924 188.145 163.924C188.876 163.924 189.421 164.157 189.779 164.625C190.138 165.092 190.321 165.792 190.33 166.724V167.877ZM189.217 166.63C189.217 166.005 189.131 165.547 188.96 165.257C188.792 164.963 188.52 164.816 188.145 164.816C187.783 164.816 187.517 164.955 187.346 165.232C187.175 165.509 187.085 165.94 187.077 166.524V168.036C187.077 168.659 187.164 169.123 187.338 169.43C187.512 169.735 187.785 169.887 188.157 169.887C188.513 169.887 188.777 169.746 188.948 169.463C189.119 169.18 189.209 168.739 189.217 168.138V166.63ZM201.949 167.376L202.311 164.017H205.89V164.979H203.237L203.053 166.573C203.36 166.394 203.708 166.304 204.097 166.304C204.732 166.304 205.226 166.508 205.576 166.916C205.929 167.32 206.106 167.867 206.106 168.554C206.106 169.231 205.91 169.77 205.519 170.172C205.131 170.572 204.595 170.771 203.913 170.771C203.304 170.771 202.799 170.599 202.397 170.254C201.995 169.909 201.777 169.452 201.745 168.884H202.821C202.864 169.208 202.98 169.456 203.167 169.63C203.357 169.801 203.605 169.887 203.909 169.887C204.251 169.887 204.518 169.765 204.708 169.52C204.898 169.276 204.993 168.943 204.993 168.521C204.993 168.117 204.887 167.796 204.675 167.56C204.466 167.32 204.177 167.201 203.807 167.201C203.606 167.201 203.435 167.228 203.294 167.282C203.155 167.337 203.003 167.441 202.837 167.596L201.949 167.376ZM215.074 167.877C215.074 168.834 214.895 169.555 214.536 170.042C214.178 170.528 213.633 170.771 212.902 170.771C212.182 170.771 211.638 170.535 211.271 170.062C210.907 169.587 210.721 168.884 210.713 167.955V166.801C210.713 165.842 210.892 165.123 211.251 164.645C211.61 164.164 212.156 163.924 212.89 163.924C213.621 163.924 214.165 164.157 214.524 164.625C214.883 165.092 215.066 165.792 215.074 166.724V167.877ZM213.962 166.63C213.962 166.005 213.876 165.547 213.705 165.257C213.536 164.963 213.265 164.816 212.89 164.816C212.528 164.816 212.262 164.955 212.091 165.232C211.92 165.509 211.83 165.94 211.822 166.524V168.036C211.822 168.659 211.909 169.123 212.083 169.43C212.257 169.735 212.53 169.887 212.902 169.887C213.258 169.887 213.521 169.746 213.693 169.463C213.864 169.18 213.954 168.739 213.962 168.138V166.63ZM222.82 170.682H221.715V165.33L220.081 165.888V164.951L222.681 163.993H222.82V170.682ZM231.898 170.682H230.794V165.33L229.159 165.888V164.951L231.76 163.993H231.898V170.682ZM247.707 167.894C247.335 168.288 246.9 168.485 246.403 168.485C245.816 168.485 245.349 168.28 245.001 167.869C244.653 167.459 244.479 166.92 244.479 166.251C244.479 165.811 244.568 165.413 244.744 165.057C244.923 164.698 245.176 164.42 245.502 164.221C245.828 164.023 246.206 163.924 246.635 163.924C247.307 163.924 247.839 164.175 248.233 164.678C248.627 165.178 248.824 165.848 248.824 166.687V166.997C248.824 168.198 248.553 169.115 248.009 169.748C247.466 170.379 246.656 170.699 245.58 170.71H245.445V169.789H245.608C246.263 169.781 246.766 169.623 247.116 169.316C247.467 169.009 247.664 168.535 247.707 167.894ZM246.635 167.617C246.858 167.617 247.068 167.553 247.263 167.425C247.459 167.295 247.61 167.117 247.716 166.891V166.455C247.716 165.966 247.615 165.572 247.414 165.273C247.213 164.971 246.952 164.82 246.631 164.82C246.311 164.82 246.055 164.954 245.865 165.22C245.675 165.483 245.58 165.816 245.58 166.219C245.58 166.637 245.675 166.975 245.865 167.233C246.058 167.489 246.315 167.617 246.635 167.617ZM256.643 170.682H255.539V165.33L253.904 165.888V164.951L256.505 163.993H256.643V170.682ZM266.476 168.305H267.303V169.259H266.476V170.682H265.363V169.259H262.481L262.448 168.521L265.326 164.017H266.476V168.305ZM263.618 168.305H265.363V165.521L265.277 165.668L263.618 168.305ZM273.076 166.842H273.752C274.095 166.839 274.365 166.751 274.563 166.577C274.765 166.403 274.865 166.151 274.865 165.819C274.865 165.504 274.782 165.258 274.616 165.081C274.451 164.905 274.197 164.816 273.854 164.816C273.555 164.816 273.309 164.903 273.116 165.077C272.924 165.248 272.827 165.473 272.827 165.75H271.714C271.714 165.41 271.805 165.1 271.987 164.82C272.169 164.538 272.422 164.318 272.746 164.16C273.072 164.002 273.437 163.924 273.842 163.924C274.505 163.924 275.027 164.091 275.407 164.425C275.788 164.759 275.978 165.224 275.978 165.819C275.978 166.118 275.883 166.401 275.693 166.667C275.502 166.93 275.255 167.129 274.951 167.262C275.318 167.387 275.596 167.584 275.786 167.853C275.979 168.122 276.076 168.443 276.076 168.815C276.076 169.413 275.869 169.888 275.456 170.242C275.046 170.595 274.508 170.771 273.842 170.771C273.201 170.771 272.675 170.602 272.265 170.262C271.857 169.92 271.653 169.464 271.653 168.896H272.766C272.766 169.19 272.864 169.429 273.059 169.614C273.255 169.796 273.52 169.887 273.854 169.887C274.199 169.887 274.471 169.796 274.669 169.614C274.868 169.429 274.967 169.163 274.967 168.815C274.967 168.464 274.862 168.194 274.653 168.004C274.447 167.814 274.14 167.719 273.732 167.719H273.076V166.842ZM290.609 167.894C290.237 168.288 289.802 168.485 289.305 168.485C288.718 168.485 288.25 168.28 287.903 167.869C287.555 167.459 287.381 166.92 287.381 166.251C287.381 165.811 287.469 165.413 287.646 165.057C287.825 164.698 288.078 164.42 288.404 164.221C288.73 164.023 289.108 163.924 289.537 163.924C290.208 163.924 290.741 164.175 291.135 164.678C291.529 165.178 291.726 165.848 291.726 166.687V166.997C291.726 168.198 291.454 169.115 290.911 169.748C290.367 170.379 289.557 170.699 288.481 170.71H288.347V169.789H288.51C289.165 169.781 289.667 169.623 290.018 169.316C290.369 169.009 290.566 168.535 290.609 167.894ZM289.537 167.617C289.76 167.617 289.969 167.553 290.165 167.425C290.36 167.295 290.511 167.117 290.617 166.891V166.455C290.617 165.966 290.517 165.572 290.316 165.273C290.114 164.971 289.854 164.82 289.533 164.82C289.212 164.82 288.957 164.954 288.767 165.22C288.576 165.483 288.481 165.816 288.481 166.219C288.481 166.637 288.576 166.975 288.767 167.233C288.96 167.489 289.216 167.617 289.537 167.617ZM299.993 163.985V164.906H299.859C299.236 164.914 298.739 165.085 298.367 165.42C297.994 165.751 297.773 166.223 297.702 166.834C298.058 166.456 298.515 166.267 299.072 166.267C299.659 166.267 300.122 166.475 300.462 166.891C300.804 167.307 300.975 167.842 300.975 168.497C300.975 169.176 300.776 169.725 300.376 170.144C299.98 170.562 299.458 170.771 298.811 170.771C298.145 170.771 297.605 170.527 297.189 170.038C296.776 169.546 296.569 168.902 296.569 168.106V167.727C296.569 166.555 296.853 165.64 297.421 164.979C297.992 164.316 298.811 163.985 299.879 163.985H299.993ZM298.799 167.164C298.554 167.164 298.33 167.233 298.126 167.372C297.925 167.511 297.777 167.694 297.682 167.922V168.261C297.682 168.755 297.785 169.148 297.992 169.439C298.201 169.729 298.471 169.875 298.803 169.875C299.132 169.875 299.391 169.751 299.581 169.504C299.774 169.257 299.871 168.932 299.871 168.53C299.871 168.127 299.773 167.8 299.577 167.547C299.382 167.292 299.122 167.164 298.799 167.164Z" fill="black"/>
<path d="M29.4535 188.789H30.8155L33.1834 194.571H33.2706L35.6386 188.789H37.0005V196.227H35.9327V190.845H35.8637L33.6701 196.216H32.7839L30.5903 190.841H30.5213V196.227H29.4535V188.789ZM39.7543 188.789V196.227H38.6321V188.789H39.7543ZM41.3887 196.227V188.789H44.0399C44.6162 188.789 45.0944 188.889 45.4745 189.087C45.8571 189.286 46.1428 189.56 46.3316 189.912C46.5205 190.26 46.6149 190.663 46.6149 191.121C46.6149 191.576 46.5193 191.977 46.328 192.323C46.1391 192.667 45.8534 192.934 45.4709 193.126C45.0907 193.317 44.6125 193.413 44.0363 193.413H42.0279V192.447H43.9346C44.2978 192.447 44.5932 192.394 44.8208 192.29C45.0508 192.186 45.2191 192.035 45.3256 191.836C45.4321 191.638 45.4854 191.399 45.4854 191.121C45.4854 190.84 45.4309 190.597 45.322 190.391C45.2154 190.185 45.0472 190.028 44.8171 189.919C44.5895 189.807 44.2905 189.752 43.9201 189.752H42.5109V196.227H41.3887ZM45.0605 192.871L46.8982 196.227H45.6198L43.8184 192.871H45.0605ZM47.788 196.227V195.479L51.6995 189.755H47.7553V188.789H53.0723V189.537L49.1608 195.261H53.105V196.227H47.788ZM55.1407 196.227H53.9494L56.6261 188.789H57.9226L60.5993 196.227H59.4081L57.3052 190.14H57.2471L55.1407 196.227ZM55.3404 193.315H59.2047V194.259H55.3404V193.315ZM69.1632 188.789H70.2891V193.681C70.2891 194.202 70.1668 194.663 69.9223 195.065C69.6777 195.465 69.3339 195.779 68.8908 196.009C68.4477 196.237 67.9284 196.351 67.3328 196.351C66.7395 196.351 66.2214 196.237 65.7783 196.009C65.3352 195.779 64.9914 195.465 64.7469 195.065C64.5023 194.663 64.3801 194.202 64.3801 193.681V188.789H65.5023V193.591C65.5023 193.927 65.5761 194.226 65.7238 194.488C65.874 194.749 66.0858 194.955 66.3594 195.105C66.633 195.253 66.9575 195.327 67.3328 195.327C67.7105 195.327 68.0361 195.253 68.3097 195.105C68.5857 194.955 68.7964 194.749 68.9417 194.488C69.0894 194.226 69.1632 193.927 69.1632 193.591V188.789ZM71.9207 196.227V188.789H74.5719C75.1482 188.789 75.6264 188.889 76.0065 189.087C76.3891 189.286 76.6748 189.56 76.8636 189.912C77.0525 190.26 77.1469 190.663 77.1469 191.121C77.1469 191.576 77.0513 191.977 76.86 192.323C76.6711 192.667 76.3854 192.934 76.0029 193.126C75.6227 193.317 75.1445 193.413 74.5683 193.413H72.5599V192.447H74.4666C74.8298 192.447 75.1252 192.394 75.3528 192.29C75.5828 192.186 75.7511 192.035 75.8576 191.836C75.9641 191.638 76.0174 191.399 76.0174 191.121C76.0174 190.84 75.9629 190.597 75.854 190.391C75.7474 190.185 75.5792 190.028 75.3491 189.919C75.1215 189.807 74.8225 189.752 74.4521 189.752H73.0429V196.227H71.9207ZM75.5925 192.871L77.4302 196.227H76.1518L74.3504 192.871H75.5925ZM79.1408 196.227H77.9495L80.6262 188.789H81.9228L84.5994 196.227H83.4082L81.3054 190.14H81.2473L79.1408 196.227ZM79.3405 193.315H83.2048V194.259H79.3405V193.315ZM86.7958 188.789V196.227H85.6736V188.789H86.7958ZM88.4301 196.227V188.789H91.154C91.6818 188.789 92.1189 188.876 92.4651 189.051C92.8113 189.223 93.0704 189.456 93.2423 189.752C93.4142 190.045 93.5002 190.375 93.5002 190.743C93.5002 191.053 93.4433 191.315 93.3295 191.528C93.2157 191.738 93.0632 191.908 92.8719 192.036C92.683 192.162 92.4748 192.254 92.2472 192.312V192.385C92.4942 192.397 92.7351 192.477 92.9699 192.625C93.2072 192.77 93.4033 192.977 93.5583 193.246C93.7133 193.514 93.7907 193.841 93.7907 194.226C93.7907 194.606 93.7011 194.948 93.522 195.25C93.3452 195.551 93.0716 195.789 92.7012 195.966C92.3307 196.14 91.8574 196.227 91.2811 196.227H88.4301ZM89.5524 195.265H91.1722C91.7097 195.265 92.0947 195.161 92.3271 194.953C92.5595 194.744 92.6758 194.484 92.6758 194.172C92.6758 193.937 92.6164 193.721 92.4978 193.525C92.3792 193.329 92.2097 193.173 91.9893 193.057C91.7714 192.94 91.5124 192.882 91.2121 192.882H89.5524V195.265ZM89.5524 192.007H91.056C91.3078 192.007 91.5341 191.959 91.7351 191.862C91.9385 191.765 92.0995 191.629 92.2181 191.455C92.3392 191.278 92.3997 191.07 92.3997 190.83C92.3997 190.523 92.292 190.265 92.0765 190.057C91.861 189.849 91.5305 189.744 91.085 189.744H89.5524V192.007Z" fill="black"/>
</g>
<rect x="15.5" y="26.5" width="299" height="186.5" rx="9.72727" stroke="#1DBBD8"/>
</g>
<defs>
<filter id="filter0_d_1642_6014" x="-15" y="0" width="360" height="247.5" filterUnits="userSpaceOnUse" color-interpolation-filters="sRGB">
<feFlood flood-opacity="0" result="BackgroundImageFix"/>
<feColorMatrix in="SourceAlpha" type="matrix" values="0 0 0 0 0 0 0 0 0 0 0 0 0 0 0 0 0 0 127 0" result="hardAlpha"/>
<feOffset dy="4"/>
<feGaussianBlur stdDeviation="15"/>
<feComposite in2="hardAlpha" operator="out"/>
<feColorMatrix type="matrix" values="0 0 0 0 0.128841 0 0 0 0 0.627575 0 0 0 0 0.719115 0 0 0 0.1 0"/>
<feBlend mode="normal" in2="BackgroundImageFix" result="effect1_dropShadow_1642_6014"/>
<feBlend mode="normal" in="SourceGraphic" in2="effect1_dropShadow_1642_6014" result="shape"/>
</filter>
<linearGradient id="paint0_linear_1642_6014" x1="124.943" y1="26" x2="339.29" y2="26" gradientUnits="userSpaceOnUse">
<stop stop-color="white"/>
<stop offset="1" stop-color="#DDF5FF"/>
</linearGradient>
<radialGradient id="paint1_radial_1642_6014" cx="0" cy="0" r="1" gradientUnits="userSpaceOnUse" gradientTransform="translate(-73.6364 300.886) rotate(44.1319) scale(646.744)">
<stop stop-color="#EDF9FF"/>
<stop offset="1" stop-color="#5DCDFE"/>
</radialGradient>
<radialGradient id="paint2_radial_1642_6014" cx="0" cy="0" r="1" gradientUnits="userSpaceOnUse" gradientTransform="translate(-65.9659 283.554) rotate(44.1319) scale(585.149)">
<stop stop-color="#EDF9FF"/>
<stop offset="1" stop-color="#5DCDFE"/>
</radialGradient>
<radialGradient id="paint3_radial_1642_6014" cx="0" cy="0" r="1" gradientUnits="userSpaceOnUse" gradientTransform="translate(-57.4432 267.074) rotate(44.1319) scale(523.555)">
<stop stop-color="#EDF9FF"/>
<stop offset="1" stop-color="#5DCDFE"/>
</radialGradient>
<radialGradient id="paint4_radial_1642_6014" cx="0" cy="0" r="1" gradientUnits="userSpaceOnUse" gradientTransform="translate(-49.7727 249.741) rotate(44.1319) scale(461.96)">
<stop stop-color="#EDF9FF"/>
<stop offset="1" stop-color="#5DCDFE"/>
</radialGradient>
<radialGradient id="paint5_radial_1642_6014" cx="0" cy="0" r="1" gradientUnits="userSpaceOnUse" gradientTransform="translate(-38.6932 232.323) rotate(44.1319) scale(400.365)">
<stop stop-color="#EDF9FF"/>
<stop offset="1" stop-color="#5DCDFE"/>
</radialGradient>
<clipPath id="clip0_1642_6014">
<rect x="15" y="26" width="300" height="187.5" rx="10.2273" fill="white"/>
</clipPath>
</defs>
</svg>
