<svg width="261" height="123" viewBox="0 0 261 123" fill="none" xmlns="http://www.w3.org/2000/svg">
<line x1="2.37282" y1="5" x2="2.37282" y2="122.212" stroke="white" stroke-width="4.74564"/>
<path d="M38.7138 66.8602H30.4819V40.1849H39.0785C41.6661 40.1849 43.8804 40.7189 45.7213 41.787C47.5621 42.8463 48.9732 44.3703 49.9544 46.3588C50.9356 48.3386 51.4262 50.7091 51.4262 53.4705C51.4262 56.2491 50.9313 58.6414 49.9414 60.6473C48.9515 62.6444 47.51 64.1814 45.6171 65.2581C43.7241 66.3262 41.423 66.8602 38.7138 66.8602ZM33.7121 63.9947H38.5054C40.711 63.9947 42.5388 63.5692 43.9889 62.7183C45.4391 61.8673 46.5201 60.656 47.2322 59.0843C47.9442 57.5126 48.3002 55.6413 48.3002 53.4705C48.3002 51.317 47.9486 49.4631 47.2452 47.9087C46.5418 46.3457 45.4912 45.1474 44.0931 44.3138C42.6951 43.4715 40.9541 43.0504 38.8701 43.0504H33.7121V63.9947ZM60.4417 40.1849V66.8602H57.2115V40.1849H60.4417ZM85.5203 48.5209C85.2337 47.6439 84.856 46.8581 84.3871 46.1634C83.9269 45.46 83.3755 44.8609 82.7329 44.3659C82.099 43.871 81.3783 43.4932 80.5708 43.2327C79.7632 42.9722 78.8775 42.842 77.9136 42.842C76.3333 42.842 74.8962 43.2501 73.6024 44.0663C72.3085 44.8826 71.2795 46.0852 70.5154 47.6743C69.7513 49.2634 69.3692 51.2128 69.3692 53.5226C69.3692 55.8323 69.7556 57.7818 70.5284 59.3708C71.3013 60.9599 72.3476 62.1625 73.6675 62.9788C74.9874 63.795 76.4722 64.2031 78.1221 64.2031C79.6503 64.2031 80.9963 63.8775 82.1598 63.2262C83.3321 62.5663 84.2438 61.6372 84.8951 60.4389C85.555 59.2319 85.885 57.8121 85.885 56.1797L86.8749 56.3881H78.8515V53.5226H89.011V56.3881C89.011 58.585 88.5421 60.4953 87.6043 62.1191C86.6752 63.7429 85.39 65.002 83.7489 65.8964C82.1164 66.7821 80.2408 67.2249 78.1221 67.2249C75.7602 67.2249 73.6848 66.6692 71.8961 65.5577C70.116 64.4462 68.7266 62.8659 67.728 60.8166C66.7381 58.7673 66.2432 56.336 66.2432 53.5226C66.2432 51.4125 66.5254 49.5152 67.0898 47.8306C67.6629 46.1373 68.4705 44.6959 69.5125 43.5063C70.5545 42.3166 71.7875 41.4049 73.2116 40.771C74.6357 40.1371 76.203 39.8202 77.9136 39.8202C79.3204 39.8202 80.6315 40.0329 81.8472 40.4584C83.0716 40.8752 84.1613 41.47 85.1165 42.2428C86.0804 43.007 86.8836 43.9231 87.5262 44.9911C88.1687 46.0505 88.6116 47.2271 88.8547 48.5209H85.5203ZM98.1404 40.1849V66.8602H94.9102V40.1849H98.1404ZM116.029 52.0898V54.9553H104.359V52.0898H116.029ZM122.221 66.8602V40.1849H131.547C133.406 40.1849 134.938 40.5062 136.145 41.1487C137.352 41.7826 138.251 42.6379 138.841 43.7147C139.432 44.7827 139.727 45.968 139.727 47.2705C139.727 48.4167 139.523 49.3632 139.115 50.11C138.716 50.8568 138.186 51.4472 137.526 51.8814C136.875 52.3156 136.167 52.6368 135.403 52.8452V53.1058C136.219 53.1578 137.04 53.4444 137.865 53.9654C138.689 54.4864 139.38 55.2332 139.936 56.2057C140.491 57.1783 140.769 58.3679 140.769 59.7746C140.769 61.1118 140.465 62.3145 139.857 63.3825C139.25 64.4506 138.29 65.2972 136.979 65.9224C135.668 66.5476 133.961 66.8602 131.86 66.8602H122.221ZM125.452 63.9947H131.86C133.97 63.9947 135.468 63.5866 136.354 62.7704C137.248 61.9454 137.695 60.9468 137.695 59.7746C137.695 58.8715 137.465 58.0379 137.005 57.2738C136.545 56.501 135.889 55.8844 135.038 55.4242C134.187 54.9553 133.18 54.7209 132.016 54.7209H125.452V63.9947ZM125.452 51.9074H131.443C132.416 51.9074 133.293 51.7164 134.074 51.3343C134.864 50.9523 135.49 50.4139 135.95 49.7192C136.419 49.0246 136.653 48.2083 136.653 47.2705C136.653 46.0983 136.245 45.104 135.429 44.2878C134.613 43.4629 133.319 43.0504 131.547 43.0504H125.452V51.9074ZM147.538 66.8602H144.151L153.946 40.1849H157.281L167.075 66.8602H163.689L155.718 44.405H155.509L147.538 66.8602ZM148.788 56.4402H162.438V59.3057H148.788V56.4402ZM192.75 40.1849V66.8602H189.624L175.088 45.9159H174.827V66.8602H171.597V40.1849H174.723L189.311 61.1813H189.572V40.1849H192.75ZM199.58 66.8602V40.1849H202.811V53.4184H203.123L215.106 40.1849H219.326L208.125 52.22L219.326 66.8602H215.419L206.145 54.4604L202.811 58.2116V66.8602H199.58Z" fill="white"/>
<path d="M36.6462 77.1566C36.5918 76.6975 36.3713 76.3411 35.9847 76.0874C35.5981 75.8337 35.1239 75.7068 34.5621 75.7068C34.1514 75.7068 33.792 75.7733 33.4839 75.9062C33.1788 76.0391 32.9402 76.2218 32.7681 76.4543C32.5989 76.6869 32.5144 76.9512 32.5144 77.2472C32.5144 77.4948 32.5733 77.7078 32.6911 77.886C32.8119 78.0612 32.9659 78.2076 33.1532 78.3254C33.3404 78.4402 33.5368 78.5353 33.7421 78.6108C33.9475 78.6833 34.1363 78.7422 34.3084 78.7875L35.2508 79.0412C35.4924 79.1047 35.7612 79.1923 36.0572 79.304C36.3562 79.4158 36.6416 79.5683 36.9135 79.7616C37.1883 79.9519 37.4148 80.1965 37.593 80.4955C37.7712 80.7945 37.8603 81.1615 37.8603 81.5964C37.8603 82.0978 37.7289 82.5508 37.4662 82.9556C37.2064 83.3603 36.8259 83.6819 36.3245 83.9205C35.8261 84.1592 35.2206 84.2785 34.5078 84.2785C33.8433 84.2785 33.2679 84.1712 32.7817 83.9568C32.2984 83.7423 31.9179 83.4433 31.64 83.0598C31.3651 82.6762 31.2096 82.2307 31.1734 81.7233H32.3332C32.3634 82.0736 32.4812 82.3636 32.6865 82.5931C32.8949 82.8196 33.1577 82.9888 33.4748 83.1005C33.795 83.2093 34.1393 83.2636 34.5078 83.2636C34.9367 83.2636 35.3218 83.1942 35.663 83.0552C36.0043 82.9133 36.2747 82.717 36.474 82.4663C36.6733 82.2126 36.773 81.9166 36.773 81.5783C36.773 81.2702 36.6869 81.0195 36.5148 80.8262C36.3426 80.6329 36.1161 80.4759 35.8352 80.3551C35.5543 80.2343 35.2508 80.1286 34.9246 80.0379L33.7829 79.7117C33.058 79.5033 32.4842 79.2058 32.0613 78.8192C31.6385 78.4326 31.4271 77.9267 31.4271 77.3015C31.4271 76.7821 31.5675 76.329 31.8484 75.9424C32.1323 75.5528 32.5129 75.2508 32.9901 75.0363C33.4703 74.8189 34.0064 74.7101 34.5984 74.7101C35.1964 74.7101 35.728 74.8173 36.1931 75.0318C36.6582 75.2432 37.0267 75.5332 37.2985 75.9016C37.5734 76.2701 37.7184 76.6884 37.7335 77.1566H36.6462ZM50.6452 84.2603C49.9747 84.2603 49.3963 84.1123 48.9101 83.8163C48.4268 83.5173 48.0538 83.1005 47.791 82.5659C47.5313 82.0283 47.4014 81.4031 47.4014 80.6903C47.4014 79.9775 47.5313 79.3493 47.791 78.8057C48.0538 78.259 48.4193 77.8331 48.8874 77.5281C49.3586 77.22 49.9083 77.066 50.5365 77.066C50.8989 77.066 51.2568 77.1264 51.6102 77.2472C51.9636 77.368 52.2853 77.5643 52.5752 77.8361C52.8652 78.1049 53.0962 78.4613 53.2684 78.9053C53.4405 79.3493 53.5266 79.896 53.5266 80.5454V80.9984H48.1625V80.0742H52.4393C52.4393 79.6815 52.3608 79.3312 52.2037 79.0231C52.0497 78.715 51.8292 78.4719 51.5423 78.2937C51.2584 78.1155 50.9231 78.0264 50.5365 78.0264C50.1106 78.0264 49.7422 78.1321 49.4311 78.3435C49.123 78.552 48.8859 78.8238 48.7198 79.159C48.5537 79.4943 48.4706 79.8537 48.4706 80.2373V80.8534C48.4706 81.379 48.5612 81.8245 48.7424 82.1899C48.9267 82.5523 49.1819 82.8287 49.5081 83.019C49.8343 83.2062 50.2133 83.2999 50.6452 83.2999C50.9261 83.2999 51.1798 83.2606 51.4064 83.1821C51.6359 83.1005 51.8337 82.9797 51.9998 82.8196C52.166 82.6565 52.2943 82.4542 52.3849 82.2126L53.4179 82.5025C53.3091 82.8529 53.1264 83.1609 52.8697 83.4267C52.613 83.6895 52.2958 83.8949 51.9183 84.0429C51.5408 84.1878 51.1164 84.2603 50.6452 84.2603ZM66.145 84.2603C65.4926 84.2603 64.9309 84.1063 64.4597 83.7982C63.9885 83.4902 63.6261 83.0658 63.3724 82.5252C63.1187 81.9845 62.9918 81.3669 62.9918 80.6722C62.9918 79.9655 63.1217 79.3418 63.3814 78.8011C63.6442 78.2575 64.0097 77.8331 64.4778 77.5281C64.949 77.22 65.4987 77.066 66.1269 77.066C66.6162 77.066 67.0572 77.1566 67.4498 77.3378C67.8424 77.519 68.1641 77.7727 68.4148 78.0989C68.6655 78.4251 68.821 78.8057 68.8814 79.2406H67.8122C67.7307 78.9234 67.5495 78.6426 67.2686 78.3979C66.9907 78.1502 66.6162 78.0264 66.145 78.0264C65.7282 78.0264 65.3628 78.1351 65.0487 78.3526C64.7376 78.5671 64.4944 78.8706 64.3193 79.2632C64.1471 79.6529 64.061 80.1104 64.061 80.636C64.061 81.1736 64.1456 81.6417 64.3147 82.0404C64.4869 82.4391 64.7285 82.7487 65.0396 82.9691C65.3537 83.1896 65.7222 83.2999 66.145 83.2999C66.4229 83.2999 66.6751 83.2515 66.9016 83.1549C67.1281 83.0582 67.3199 82.9193 67.477 82.7381C67.634 82.5569 67.7458 82.3394 67.8122 82.0857H68.8814C68.821 82.4965 68.6715 82.8665 68.4329 83.1957C68.1973 83.5219 67.8847 83.7816 67.4951 83.9749C67.1085 84.1652 66.6585 84.2603 66.145 84.2603ZM82.9949 81.2702V77.1566H84.0641V84.1154H82.9949V82.9374H82.9224C82.7593 83.2908 82.5056 83.5913 82.1613 83.839C81.817 84.0836 81.3821 84.206 80.8565 84.206C80.4216 84.206 80.035 84.1108 79.6967 83.9205C79.3584 83.7272 79.0927 83.4373 78.8994 83.0507C78.7061 82.6611 78.6094 82.1703 78.6094 81.5783V77.1566H79.6786V81.5058C79.6786 82.0132 79.8206 82.4179 80.1045 82.72C80.3914 83.022 80.7569 83.173 81.2008 83.173C81.4666 83.173 81.7369 83.1051 82.0118 82.9691C82.2897 82.8332 82.5222 82.6248 82.7095 82.3439C82.8998 82.0631 82.9949 81.7052 82.9949 81.2702ZM94.1874 84.1154V77.1566H95.2203V78.2076H95.2928C95.4196 77.8633 95.6492 77.5839 95.9814 77.3695C96.3137 77.1551 96.6882 77.0478 97.105 77.0478C97.1835 77.0478 97.2817 77.0493 97.3995 77.0524C97.5172 77.0554 97.6063 77.0599 97.6667 77.066V78.1533C97.6305 78.1442 97.5474 78.1306 97.4176 78.1125C97.2907 78.0914 97.1563 78.0808 97.0144 78.0808C96.6761 78.0808 96.3741 78.1518 96.1083 78.2937C95.8455 78.4326 95.6371 78.6259 95.4831 78.8736C95.3321 79.1183 95.2565 79.3976 95.2565 79.7117V84.1154H94.1874ZM109.805 84.2603C109.134 84.2603 108.556 84.1123 108.07 83.8163C107.587 83.5173 107.214 83.1005 106.951 82.5659C106.691 82.0283 106.561 81.4031 106.561 80.6903C106.561 79.9775 106.691 79.3493 106.951 78.8057C107.214 78.259 107.579 77.8331 108.047 77.5281C108.518 77.22 109.068 77.066 109.696 77.066C110.059 77.066 110.417 77.1264 110.77 77.2472C111.123 77.368 111.445 77.5643 111.735 77.8361C112.025 78.1049 112.256 78.4613 112.428 78.9053C112.6 79.3493 112.686 79.896 112.686 80.5454V80.9984H107.322V80.0742H111.599C111.599 79.6815 111.52 79.3312 111.363 79.0231C111.209 78.715 110.989 78.4719 110.702 78.2937C110.418 78.1155 110.083 78.0264 109.696 78.0264C109.27 78.0264 108.902 78.1321 108.591 78.3435C108.283 78.552 108.046 78.8238 107.879 79.159C107.713 79.4943 107.63 79.8537 107.63 80.2373V80.8534C107.63 81.379 107.721 81.8245 107.902 82.1899C108.086 82.5523 108.342 82.8287 108.668 83.019C108.994 83.2062 109.373 83.2999 109.805 83.2999C110.086 83.2999 110.34 83.2606 110.566 83.1821C110.796 83.1005 110.993 82.9797 111.16 82.8196C111.326 82.6565 111.454 82.4542 111.545 82.2126L112.578 82.5025C112.469 82.8529 112.286 83.1609 112.029 83.4267C111.773 83.6895 111.456 83.8949 111.078 84.0429C110.7 84.1878 110.276 84.2603 109.805 84.2603ZM122.623 84.1154V74.837H125.867C126.513 74.837 127.046 74.9487 127.466 75.1722C127.886 75.3927 128.198 75.6902 128.404 76.0647C128.609 76.4362 128.712 76.8485 128.712 77.3015C128.712 77.7002 128.641 78.0294 128.499 78.2892C128.36 78.5489 128.176 78.7543 127.946 78.9053C127.719 79.0563 127.473 79.1681 127.208 79.2406V79.3312C127.491 79.3493 127.777 79.449 128.064 79.6302C128.351 79.8114 128.591 80.0712 128.784 80.4094C128.977 80.7477 129.074 81.1615 129.074 81.6508C129.074 82.1159 128.968 82.5342 128.757 82.9057C128.546 83.2772 128.212 83.5717 127.756 83.7892C127.3 84.0066 126.706 84.1154 125.975 84.1154H122.623ZM123.746 83.1187H125.975C126.709 83.1187 127.23 82.9767 127.538 82.6928C127.849 82.4059 128.005 82.0585 128.005 81.6508C128.005 81.3367 127.925 81.0467 127.765 80.7809C127.605 80.5121 127.377 80.2977 127.081 80.1376C126.785 79.9745 126.434 79.893 126.03 79.893H123.746V83.1187ZM123.746 78.9144H125.83C126.169 78.9144 126.474 78.8479 126.745 78.715C127.02 78.5822 127.238 78.3949 127.398 78.1533C127.561 77.9116 127.642 77.6277 127.642 77.3015C127.642 76.8938 127.5 76.548 127.217 76.2641C126.933 75.9771 126.483 75.8337 125.867 75.8337H123.746V78.9144ZM140.988 84.2785C140.547 84.2785 140.147 84.1954 139.787 84.0293C139.428 83.8601 139.143 83.617 138.931 83.2999C138.72 82.9797 138.614 82.5931 138.614 82.1401C138.614 81.7414 138.693 81.4182 138.85 81.1706C139.007 80.9199 139.217 80.7236 139.479 80.5816C139.742 80.4396 140.032 80.3339 140.349 80.2645C140.669 80.192 140.991 80.1346 141.314 80.0923C141.737 80.0379 142.08 79.9972 142.343 79.97C142.608 79.9398 142.802 79.8899 142.923 79.8205C143.046 79.751 143.108 79.6302 143.108 79.458V79.4218C143.108 78.9748 142.986 78.6275 142.741 78.3798C142.5 78.1321 142.133 78.0083 141.64 78.0083C141.13 78.0083 140.73 78.12 140.44 78.3435C140.15 78.5671 139.946 78.8057 139.828 79.0594L138.813 78.6969C138.995 78.2741 139.236 77.9449 139.538 77.7093C139.843 77.4707 140.176 77.3046 140.535 77.2109C140.897 77.1143 141.254 77.066 141.604 77.066C141.828 77.066 142.084 77.0931 142.374 77.1475C142.667 77.1989 142.95 77.3061 143.222 77.4692C143.496 77.6323 143.724 77.8784 143.906 78.2076C144.087 78.5368 144.177 78.9778 144.177 79.5305V84.1154H143.108V83.173H143.054C142.981 83.324 142.861 83.4856 142.691 83.6578C142.522 83.8299 142.297 83.9764 142.016 84.0972C141.736 84.218 141.393 84.2785 140.988 84.2785ZM141.151 83.318C141.574 83.318 141.93 83.2349 142.22 83.0688C142.513 82.9027 142.734 82.6883 142.882 82.4255C143.033 82.1627 143.108 81.8864 143.108 81.5964V80.6178C143.063 80.6722 142.963 80.722 142.809 80.7673C142.658 80.8096 142.483 80.8474 142.284 80.8806C142.087 80.9108 141.896 80.938 141.708 80.9622C141.524 80.9833 141.375 81.0014 141.26 81.0165C140.982 81.0528 140.722 81.1117 140.481 81.1932C140.242 81.2717 140.049 81.391 139.901 81.5511C139.756 81.7082 139.683 81.9226 139.683 82.1944C139.683 82.5659 139.821 82.8468 140.096 83.0371C140.373 83.2244 140.725 83.318 141.151 83.318ZM155.363 79.9292V84.1154H154.294V77.1566H155.327V78.2439H155.417C155.581 77.8905 155.828 77.6066 156.16 77.3922C156.493 77.1747 156.922 77.066 157.447 77.066C157.918 77.066 158.331 77.1626 158.684 77.3559C159.037 77.5462 159.312 77.8361 159.508 78.2258C159.705 78.6124 159.803 79.1016 159.803 79.6936V84.1154H158.734V79.7661C158.734 79.2194 158.592 78.7936 158.308 78.4885C158.024 78.1805 157.634 78.0264 157.139 78.0264C156.798 78.0264 156.493 78.1004 156.224 78.2484C155.958 78.3964 155.748 78.6124 155.594 78.8963C155.44 79.1802 155.363 79.5245 155.363 79.9292ZM170.918 81.5783L170.9 80.2554H171.118L174.162 77.1566H175.485L172.241 80.4366H172.151L170.918 81.5783ZM169.922 84.1154V74.837H170.991V84.1154H169.922ZM174.343 84.1154L171.625 80.6722L172.386 79.9292L175.703 84.1154H174.343ZM185.026 84.1154V77.1566H186.095V84.1154H185.026ZM185.57 75.9968C185.361 75.9968 185.182 75.9258 185.031 75.7838C184.883 75.6419 184.809 75.4712 184.809 75.2719C184.809 75.0726 184.883 74.9019 185.031 74.76C185.182 74.618 185.361 74.547 185.57 74.547C185.778 74.547 185.956 74.618 186.104 74.76C186.255 74.9019 186.331 75.0726 186.331 75.2719C186.331 75.4712 186.255 75.6419 186.104 75.7838C185.956 75.9258 185.778 75.9968 185.57 75.9968ZM197.288 79.9292V84.1154H196.219V77.1566H197.252V78.2439H197.342C197.505 77.8905 197.753 77.6066 198.085 77.3922C198.417 77.1747 198.846 77.066 199.372 77.066C199.843 77.066 200.255 77.1626 200.609 77.3559C200.962 77.5462 201.237 77.8361 201.433 78.2258C201.63 78.6124 201.728 79.1016 201.728 79.6936V84.1154H200.659V79.7661C200.659 79.2194 200.517 78.7936 200.233 78.4885C199.949 78.1805 199.559 78.0264 199.064 78.0264C198.723 78.0264 198.417 78.1004 198.149 78.2484C197.883 78.3964 197.673 78.6124 197.519 78.8963C197.365 79.1802 197.288 79.5245 197.288 79.9292ZM214.655 86.8699C214.139 86.8699 213.695 86.8034 213.323 86.6705C212.952 86.5407 212.642 86.3685 212.395 86.1541C212.15 85.9426 211.955 85.7161 211.81 85.4745L212.662 84.8765C212.759 85.0033 212.881 85.1483 213.029 85.3114C213.177 85.4775 213.379 85.621 213.636 85.7418C213.896 85.8656 214.236 85.9275 214.655 85.9275C215.217 85.9275 215.681 85.7916 216.046 85.5198C216.412 85.248 216.594 84.8221 216.594 84.2422V82.8287H216.504C216.425 82.9556 216.313 83.1126 216.169 83.2999C216.027 83.4841 215.821 83.6487 215.552 83.7937C215.287 83.9356 214.927 84.0066 214.474 84.0066C213.912 84.0066 213.408 83.8737 212.961 83.6079C212.517 83.3422 212.165 82.9556 211.905 82.4481C211.649 81.9407 211.52 81.3246 211.52 80.5997C211.52 79.8869 211.646 79.2663 211.896 78.7377C212.147 78.2061 212.496 77.7954 212.943 77.5054C213.39 77.2124 213.906 77.066 214.492 77.066C214.945 77.066 215.305 77.1415 215.57 77.2925C215.839 77.4405 216.045 77.6096 216.187 77.7999C216.332 77.9872 216.443 78.1412 216.522 78.262H216.631V77.1566H217.664V84.3147C217.664 84.9127 217.528 85.399 217.256 85.7735C216.987 86.151 216.625 86.4274 216.169 86.6026C215.715 86.7808 215.211 86.8699 214.655 86.8699ZM214.619 83.0462C215.048 83.0462 215.41 82.948 215.706 82.7517C216.002 82.5554 216.227 82.273 216.381 81.9045C216.535 81.536 216.612 81.095 216.612 80.5816C216.612 80.0802 216.537 79.6378 216.386 79.2542C216.235 78.8706 216.011 78.5701 215.715 78.3526C215.419 78.1351 215.054 78.0264 214.619 78.0264C214.166 78.0264 213.789 78.1412 213.486 78.3707C213.187 78.6003 212.962 78.9083 212.811 79.2949C212.663 79.6815 212.589 80.1104 212.589 80.5816C212.589 81.0648 212.665 81.4922 212.816 81.8637C212.97 82.2322 213.197 82.5221 213.496 82.7336C213.798 82.942 214.172 83.0462 214.619 83.0462Z" fill="white"/>
<line x1="4.18604" y1="2.62718" x2="122.195" y2="2.62718" stroke="white" stroke-width="4.74564"/>
<line x1="4.18604" y1="119.84" x2="122.195" y2="119.84" stroke="white" stroke-width="4.74564"/>
<line x1="124.569" y1="5" x2="124.569" y2="38.4892" stroke="white" stroke-width="4.74564"/>
<line x1="124.569" y1="88.7229" x2="124.569" y2="122.212" stroke="white" stroke-width="4.74564"/>
</svg>
