<svg  viewBox="0 0 428 337" fill="none" xmlns="http://www.w3.org/2000/svg">
<path d="M450.079 337H-22V0H450.079V337Z" fill="white"/>
<path d="M450.079 337H-22V0H450.079V337Z" fill="white"/>
<path d="M338.085 108.292L342.325 106.096L346.538 108.34C347.019 108.597 347.584 108.192 347.494 107.656L346.715 102.947L350.153 99.6357C350.546 99.2583 350.333 98.5961 349.797 98.5152L345.075 97.8008L342.986 93.5091C342.748 93.0204 342.053 93.017 341.809 93.5023L339.671 97.7704L334.942 98.4293C334.402 98.5034 334.185 99.1639 334.571 99.5447L337.972 102.896L337.137 107.596C337.043 108.13 337.602 108.543 338.085 108.292Z" fill="#2665ED"/>
<path d="M329.194 194.506H120.592V216.329H329.194V194.506Z" fill="#F47257"/>
<path d="M273.708 271.745C226.669 246.888 175.575 231.588 123.12 226.651C125.063 203.904 127.007 181.156 128.95 158.409C189.601 164.116 248.676 181.806 303.065 210.547C293.279 230.948 283.494 251.346 273.708 271.745Z" fill="#0F98B0"/>
<path d="M127.744 214.174C129.068 199.986 130.393 185.8 131.717 171.612C137.229 172.178 142.168 168.623 142.768 163.526C193.332 169.873 242.612 184.631 288.754 207.243C286.702 211.904 289.11 217.66 294.075 220.233C288.068 233.017 282.061 245.801 276.053 258.587C271.483 256.218 266.074 258.176 264.024 262.835C223.504 242.977 180.23 230.018 135.827 224.444C136.427 219.352 132.816 214.694 127.744 214.174Z" fill="#62CBDD"/>
<path d="M236.293 216.514C232.052 228.719 218.976 234.935 206.848 231.209C194.728 227.453 186.94 214.8 189.665 202.131C192.383 189.482 205.837 181.902 219.475 186.118C233.118 190.319 240.528 204.333 236.293 216.514Z" fill="#50BFA5"/>
<path d="M206.747 226.912C207.086 225.551 207.425 224.189 207.762 222.826C205.936 222.233 204.205 221.397 202.819 220.513C201.664 219.776 201.244 218.28 201.868 217.089C201.893 217.041 201.919 216.994 201.944 216.945C202.632 215.635 204.323 215.213 205.601 216.054C206.901 216.908 208.43 217.675 210.133 218.15C212.609 218.843 214.547 218.396 214.995 216.681C215.418 215.053 214.29 213.607 211.293 211.621C206.96 208.76 204.193 205.776 205.149 201.578C206.012 197.777 209.522 195.502 214.638 195.949C214.972 194.586 215.305 193.222 215.641 191.857C217.145 192.274 218.647 192.698 220.148 193.131C219.826 194.39 219.504 195.65 219.181 196.909C220.82 197.457 222.125 198.067 223.186 198.692C224.481 199.455 224.937 201.049 224.229 202.252C223.496 203.494 221.813 203.85 220.508 203.039C219.529 202.431 218.281 201.811 216.688 201.356C213.753 200.523 212.507 201.477 212.213 202.68C211.864 204.104 213.223 205.428 216.654 207.892C221.485 211.232 222.929 214.255 221.869 218.091C220.812 221.894 217.206 224.28 212.053 223.714C211.677 225.173 211.299 226.633 210.922 228.09C209.531 227.691 208.14 227.298 206.747 226.912Z" fill="#3C8F7C"/>
<path d="M182.482 201.657C170.493 198.892 158.388 196.639 146.198 194.909C146.48 192.722 146.761 190.535 147.043 188.348C159.404 190.102 171.679 192.387 183.836 195.19C183.384 197.346 182.934 199.502 182.482 201.657Z" fill="#50BFA5"/>
<path d="M275.971 234.833C264.813 229.381 253.46 224.417 241.942 219.95C242.671 217.879 243.401 215.808 244.129 213.739C255.808 218.268 267.32 223.301 278.633 228.831C277.746 230.832 276.858 232.833 275.971 234.833Z" fill="#50BFA5"/>
<path d="M295.689 193.669C247.156 203.802 200.939 224.11 159.475 253.523C148.272 234.202 137.069 214.883 125.866 195.563C173.808 161.554 227.244 138.074 283.359 126.356C287.469 148.794 291.58 171.231 295.689 193.669Z" fill="#0F98B0"/>
<path d="M155.957 240.663C149.052 228.543 142.149 216.423 135.245 204.301C139.627 201.248 141.298 195.283 138.91 190.85C179.761 163.76 224.336 144.172 270.958 132.825C272.034 137.835 277.008 140.879 282.104 139.769C284.772 153.751 287.441 167.733 290.11 181.715C285.419 182.738 282.514 187.733 283.588 192.739C242.647 202.704 203.503 219.904 167.63 243.693C165.243 239.263 159.991 237.853 155.957 240.663Z" fill="#62CBDD"/>
<path d="M237.383 173.538C241.034 185.935 234.836 199.187 223.813 203.932C212.781 208.65 200.002 203.541 194.974 191.736C189.953 179.953 195.674 165.376 208.083 160.06C220.488 154.728 233.743 161.162 237.383 173.538Z" fill="#0F98B0"/>
<path d="M221.351 200.582C220.846 199.283 220.338 197.986 219.832 196.687C218.153 197.376 216.411 197.812 214.897 197.991C213.635 198.139 212.493 197.216 212.292 195.873C212.284 195.819 212.277 195.765 212.269 195.711C212.048 194.23 213.063 192.821 214.472 192.676C215.909 192.53 217.462 192.168 218.983 191.465C221.196 190.44 222.378 188.853 221.756 187.205C221.164 185.641 219.529 185.21 216.212 185.535C211.424 186.014 207.723 185.399 206.096 181.456C204.621 177.885 205.95 173.845 209.973 170.95C209.463 169.653 208.953 168.357 208.442 167.061C209.784 166.436 211.127 165.817 212.476 165.208C212.938 166.414 213.4 167.619 213.862 168.825C215.376 168.219 216.679 167.875 217.807 167.698C219.188 167.482 220.411 168.46 220.556 169.865C220.704 171.319 219.66 172.67 218.247 172.856C217.185 172.994 215.921 173.294 214.493 173.946C211.861 175.149 211.471 176.699 211.925 177.842C212.458 179.196 214.196 179.385 218.097 179.163C223.52 178.748 226.266 180.234 227.613 183.958C228.945 187.653 227.61 191.842 223.493 194.666C224.025 196.067 224.556 197.465 225.087 198.865C223.84 199.432 222.594 200.003 221.351 200.582Z" fill="white"/>
<path d="M189.41 195.923C179.023 201.346 168.836 207.248 158.877 213.619C157.869 211.702 156.862 209.784 155.856 207.865C165.955 201.405 176.285 195.42 186.817 189.923C187.68 191.923 188.545 193.923 189.41 195.923Z" fill="#50BFA5"/>
<path d="M276.851 162.884C265.585 165.641 254.447 168.908 243.463 172.677C242.851 170.568 242.239 168.46 241.627 166.35C252.765 162.528 264.059 159.214 275.482 156.42C275.939 158.575 276.394 160.73 276.851 162.884Z" fill="#0F98B0"/>
<path d="M303.432 236.07C252.959 233.012 202.411 240.416 154.451 257.891C147.849 236.224 141.246 214.556 134.642 192.889C190.095 172.684 248.54 164.122 306.899 167.658C305.744 190.462 304.589 213.265 303.432 236.07Z" fill="#0F98B0"/>
<path d="M153.96 244.515C149.941 230.955 145.922 217.394 141.903 203.834C146.96 202.04 150.005 196.709 148.672 191.785C195.481 176.396 244.235 169.255 293.099 170.63C292.996 175.764 297.218 180.03 302.529 180.305C301.915 194.545 301.301 208.783 300.688 223.023C295.8 222.769 291.757 226.833 291.656 231.962C248.745 230.754 205.933 237.026 164.827 250.539C163.493 245.621 158.614 242.864 153.96 244.515Z" fill="#62CBDD"/>
<path d="M250.325 201.133C251.055 214.098 241.823 225.281 229.79 226.953C217.754 228.594 206.275 220.261 204.043 207.504C201.812 194.769 210.88 182.179 224.422 180.322C237.96 178.452 249.602 188.191 250.325 201.133Z" fill="#0F98B0"/>
<path d="M228.131 223.057C227.93 221.667 227.731 220.275 227.531 218.885C225.706 219.107 223.879 219.067 222.336 218.838C221.05 218.647 220.132 217.451 220.247 216.098C220.252 216.044 220.255 215.99 220.261 215.934C220.387 214.443 221.722 213.348 223.154 213.584C224.61 213.821 226.236 213.882 227.907 213.604C230.339 213.201 231.88 211.978 231.648 210.217C231.425 208.549 229.904 207.696 226.541 207.132C221.683 206.327 218.158 204.751 217.465 200.503C216.835 196.656 219.092 193.099 223.756 191.362C223.553 189.974 223.349 188.584 223.144 187.193C224.62 186.944 226.097 186.703 227.574 186.469C227.753 187.76 227.93 189.049 228.107 190.338C229.749 190.152 231.12 190.164 232.28 190.292C233.7 190.449 234.684 191.719 234.5 193.118C234.308 194.565 232.959 195.596 231.513 195.401C230.429 195.253 229.105 195.209 227.537 195.46C224.649 195.928 223.902 197.324 224.084 198.55C224.297 200.003 225.976 200.646 229.896 201.465C235.367 202.502 237.744 204.667 238.211 208.628C238.67 212.558 236.37 216.256 231.631 217.899C231.832 219.395 232.032 220.89 232.233 222.386C230.864 222.602 229.496 222.826 228.131 223.057Z" fill="white"/>
<path d="M197.55 210.082C185.991 212.576 174.516 215.589 163.158 219.114C162.606 216.991 162.055 214.868 161.504 212.745C173.022 209.169 184.656 206.116 196.378 203.587C196.77 205.752 197.159 207.917 197.55 210.082Z" fill="#50BFA5"/>
<path d="M291.934 201.285C280.123 200.965 268.32 201.175 256.553 201.912C256.439 199.708 256.322 197.506 256.208 195.302C268.139 194.555 280.107 194.341 292.082 194.665C292.033 196.872 291.983 199.078 291.934 201.285Z" fill="#50BFA5"/>
<path d="M120.592 194.506V286.26H329.194V194.506H120.592Z" fill="#222434"/>
<path d="M318.175 206.15H128.279V199.024H318.175V206.15Z" fill="#0F98B0"/>
<path d="M219.232 220.297H130.691V217.933H219.232V220.297Z" fill="#0F98B0"/>
<path d="M286.053 171.626C292.31 180.534 290.155 192.826 281.24 199.078C272.326 205.331 260.028 203.177 253.773 194.269C247.516 185.36 249.671 173.068 258.585 166.817C267.499 160.564 279.796 162.717 286.053 171.626Z" fill="#62CBDD"/>
<path d="M283.457 173.447C288.707 180.924 286.898 191.236 279.419 196.483C271.938 201.73 261.618 199.922 256.369 192.447C251.119 184.971 252.927 174.657 260.407 169.412C267.887 164.164 278.207 165.971 283.457 173.447Z" fill="#0F98B0"/>
<path d="M271.823 194.58L271.102 191.915C269.883 192.186 268.638 192.279 267.578 192.225C266.693 192.178 265.996 191.453 265.985 190.568L265.983 190.461C265.971 189.485 266.791 188.698 267.765 188.762C268.758 188.826 269.852 188.76 270.952 188.464C272.55 188.031 273.479 187.118 273.175 185.995C272.887 184.93 271.806 184.499 269.539 184.359C266.263 184.16 263.833 183.313 263.098 180.592C262.429 178.123 263.646 175.717 266.49 174.315L265.769 171.651L268.52 170.908L269.188 173.376C270.222 173.146 271.097 173.056 271.849 173.053C272.767 173.05 273.516 173.793 273.528 174.713C273.54 175.661 272.762 176.435 271.813 176.413C271.1 176.398 270.244 176.462 269.252 176.73C267.428 177.223 267.05 178.169 267.263 178.954C267.514 179.879 268.655 180.202 271.284 180.455C274.944 180.731 276.708 181.909 277.39 184.435C278.067 186.931 276.876 189.541 273.799 190.975L274.573 193.836L271.823 194.58Z" fill="white"/>
<path d="M304.656 234.699C310.913 243.607 308.758 255.898 299.843 262.151C290.929 268.402 278.631 266.249 272.376 257.34C266.12 248.431 268.274 236.141 277.188 229.888C286.102 223.637 298.4 225.79 304.656 234.699Z" fill="#62CBDD"/>
<path d="M302.06 236.52C307.31 243.995 305.501 254.309 298.022 259.556C290.541 264.803 280.221 262.995 274.973 255.518C269.723 248.044 271.53 237.73 279.011 232.483C286.49 227.237 296.81 229.044 302.06 236.52Z" fill="#0F98B0"/>
<path d="M290.427 257.652L289.705 254.986C288.486 255.259 287.242 255.352 286.181 255.296C285.296 255.251 284.6 254.526 284.588 253.64L284.586 253.534C284.575 252.558 285.394 251.771 286.368 251.833C287.362 251.899 288.456 251.832 289.555 251.535C291.155 251.104 292.082 250.19 291.779 249.068C291.491 248.002 290.41 247.572 288.142 247.432C284.866 247.233 282.437 246.384 281.702 243.663C281.032 241.194 282.25 238.788 285.094 237.388L284.372 234.722L287.124 233.979L287.791 236.448C288.825 236.218 289.7 236.127 290.452 236.126C291.373 236.122 292.119 236.865 292.131 237.784C292.143 238.734 291.366 239.508 290.417 239.486C289.703 239.469 288.847 239.535 287.856 239.802C286.031 240.296 285.654 241.24 285.866 242.025C286.117 242.952 287.259 243.275 289.887 243.528C293.547 243.803 295.311 244.982 295.994 247.506C296.67 250.003 295.48 252.614 292.403 254.047L293.177 256.909L290.427 257.652Z" fill="white"/>
<path d="M269.911 221.347C269.911 232.232 261.084 241.054 250.192 241.054C239.302 241.054 230.473 232.232 230.473 221.347C230.473 210.463 239.302 201.641 250.192 201.641C261.084 201.641 269.911 210.463 269.911 221.347Z" fill="#62CBDD"/>
<path d="M266.738 221.347C266.738 230.479 259.33 237.885 250.192 237.885C241.054 237.885 233.646 230.479 233.646 221.347C233.646 212.214 241.054 204.81 250.192 204.81C259.33 204.81 266.738 212.214 266.738 221.347Z" fill="#0F98B0"/>
<path d="M245.07 231.966L246.011 229.369C244.857 228.892 243.785 228.255 242.949 227.601C242.251 227.055 242.097 226.061 242.597 225.33L242.657 225.242C243.207 224.435 244.331 224.262 245.092 224.873C245.867 225.497 246.801 226.071 247.872 226.459C249.43 227.023 250.715 226.808 251.111 225.716C251.487 224.678 250.849 223.704 249.074 222.289C246.506 220.245 245.008 218.155 245.969 215.506C246.84 213.102 249.219 211.831 252.352 212.317L253.294 209.722L255.973 210.692L255.1 213.097C256.078 213.501 256.847 213.931 257.464 214.361C258.219 214.885 258.403 215.923 257.885 216.683C257.349 217.466 256.268 217.653 255.503 217.09C254.93 216.667 254.189 216.229 253.225 215.879C251.448 215.235 250.597 215.793 250.318 216.558C249.993 217.459 250.74 218.379 252.748 220.095C255.584 222.422 256.351 224.4 255.459 226.858C254.577 229.29 252.1 230.742 248.759 230.149L247.749 232.936L245.07 231.966Z" fill="white"/>
<path d="M47.5825 284.861C47.5825 285.633 48.164 286.26 48.8814 286.26H372.673C373.391 286.26 373.973 285.633 373.973 284.861C373.973 284.088 373.391 283.462 372.673 283.462H48.8814C48.164 283.462 47.5825 284.088 47.5825 284.861Z" fill="#13375B"/>
<path d="M329.717 288.854H276.413C274.273 288.854 272.54 287.122 272.54 284.984C272.54 282.847 274.273 281.114 276.413 281.114H329.717C331.857 281.114 333.59 282.847 333.59 284.984C333.59 287.122 331.857 288.854 329.717 288.854Z" fill="#0F98B0"/>
<path d="M328.635 281.114H275.329C273.191 281.114 271.456 279.381 271.456 277.243C271.456 275.107 273.191 273.373 275.329 273.373H328.635C330.772 273.373 332.507 275.107 332.507 277.243C332.507 279.381 330.772 281.114 328.635 281.114Z" fill="#62CBDD"/>
<path d="M334.89 273.373H281.584C279.446 273.373 277.711 271.641 277.711 269.502C277.711 267.366 279.446 265.632 281.584 265.632H334.89C337.028 265.632 338.762 267.366 338.762 269.502C338.762 271.641 337.028 273.373 334.89 273.373Z" fill="#0F98B0"/>
<path d="M267.089 105.772L267.768 110.357L260.505 112.265L260.67 119.091L255.469 121.404L256.641 124.036L263.597 120.941L263.442 114.472L270.997 112.489L269.975 105.589L267.089 105.772Z" fill="#0F98B0"/>
<path d="M198.415 91.2562L199.814 87.7851C198.273 87.0825 196.854 86.1675 195.751 85.2425C194.832 84.4708 194.671 83.1177 195.382 82.1505L195.468 82.0326C196.252 80.9676 197.783 80.7857 198.784 81.6501C199.804 82.533 201.044 83.3536 202.473 83.9299C204.557 84.769 206.307 84.5398 206.896 83.0789C207.455 81.6905 206.639 80.3425 204.303 78.339C200.922 75.4493 198.99 72.5477 200.418 69.0041C201.715 65.7892 204.997 64.18 209.219 64.9888L210.618 61.5177L214.201 62.9617L212.905 66.175C214.21 66.7715 215.23 67.3882 216.046 67.9999C217.042 68.748 217.243 70.1617 216.504 71.166C215.74 72.2023 214.269 72.4028 213.259 71.6041C212.502 71.0042 211.52 70.3757 210.231 69.8551C207.855 68.898 206.675 69.6124 206.262 70.6352C205.776 71.8417 206.746 73.124 209.383 75.5436C213.114 78.8294 214.058 81.5456 212.733 84.8347C211.421 88.0851 207.998 89.9352 203.5 88.9731L201.998 92.6986L198.415 91.2562Z" fill="#222434"/>
<path d="M205.034 128.293C205.4 128.884 205.296 129.652 204.785 130.124C203.783 131.051 202.187 132.134 200.241 132.864C197.397 133.931 194.239 134.033 191.395 132.743C189.616 131.935 187.989 130.481 186.841 128.603L185.16 129.233C184.588 129.447 183.951 129.159 183.737 128.587L183.72 128.544C183.506 127.972 183.796 127.337 184.366 127.121L185.747 126.604C185.524 126.148 185.369 125.861 185.271 125.603C185.109 125.172 184.958 124.639 184.834 124.046L183.412 124.58C182.842 124.794 182.204 124.506 181.99 123.935C181.774 123.364 182.064 122.727 182.636 122.513L184.359 121.866C184.089 119.707 184.374 117.586 185.182 115.808C186.556 112.787 189.141 110.637 192.115 109.522C193.848 108.871 195.274 108.679 196.427 108.667C197.23 108.659 197.894 109.286 197.933 110.086V110.111C197.973 110.942 197.324 111.636 196.493 111.67C195.549 111.707 194.433 111.896 193.14 112.381C191.243 113.092 189.574 114.406 188.614 116.437C188.077 117.623 187.824 119.044 188.109 120.461L197.807 116.823C198.378 116.609 199.015 116.897 199.229 117.468C199.444 118.039 199.155 118.676 198.584 118.89L188.454 122.688C188.589 123.179 188.724 123.669 188.837 123.97C188.984 124.358 189.129 124.746 189.366 125.246L199.516 121.44C200.099 121.221 200.75 121.515 200.968 122.098C201.187 122.681 200.892 123.332 200.309 123.549L190.59 127.196C191.361 128.331 192.368 129.182 193.435 129.666C195.552 130.593 197.503 130.549 199.658 129.74C200.973 129.248 202.065 128.571 202.895 127.917C203.578 127.378 204.577 127.553 205.034 128.293Z" fill="#0F98B0"/>
<path d="M178.559 93.745L174.155 94.1915L172.655 87.1903L166.137 87.0505L164.156 81.9955L161.595 82.9964L164.243 89.7583L170.421 89.8914L171.984 97.1756L178.608 96.5033L178.559 93.745Z" fill="#222434"/>
<path d="M151.557 134.716L152.262 130.804L155.538 129.236C155.912 129.057 155.941 128.477 155.587 128.252L152.482 126.294L152.164 122.319C152.127 121.865 151.644 121.656 151.345 121.964L148.721 124.664L145.247 123.776C144.852 123.674 144.524 124.125 144.693 124.539L146.176 128.167L144.347 131.593C144.139 131.983 144.421 132.471 144.824 132.419L148.364 131.962L150.707 134.968C150.975 135.309 151.477 135.161 151.557 134.716Z" fill="#F7CC7F"/>
<path d="M94.4039 259.664C94.4039 259.664 88.2224 264.117 87.2489 265.446C85.8468 267.361 97.7215 270.94 96.4256 268.699C96.1275 268.183 95.2727 266.449 95.2355 266.279C95.0365 265.366 97.5551 262.909 97.5551 262.909L94.4039 259.664Z" fill="#F7A491"/>
<path d="M99.6374 272.444L95.44 266.516C95.44 266.516 92.8192 265.906 90.1292 262.882C90.1292 262.882 87.7117 263.805 86.2243 265.804C86.2243 265.804 89.0349 268.83 93.3638 272.237C93.3638 272.237 95.9301 274.508 99.4774 275.706C103.025 276.904 99.6374 272.444 99.6374 272.444Z" fill="#F7CC7F"/>
<path d="M42.7458 178.489C42.7458 178.489 43.5055 179.161 43.7744 179.365C44.0897 179.604 45.0868 180.251 45.0868 180.251C45.0868 180.251 48.6946 182.302 48.8169 182.032C48.9394 181.763 48.934 180.984 48.7557 180.78C48.5773 180.575 48.0577 180.364 47.8793 180.159C47.7011 179.955 47.64 179.542 47.8695 179.313C48.099 179.083 49.3319 179.757 49.3319 179.757C49.3319 179.757 50.3307 180.312 50.7482 180.981C52.1949 183.301 51.7564 183.436 51.9498 183.729C52.1787 184.076 57.2389 186.371 57.2389 186.371C57.2389 186.371 72.3682 192.658 73.1835 193H73.1938C73.3042 193.701 72.9293 194.345 72.7367 194.965C72.3751 197.125 71.7317 197.268 71.2411 199.351C68.9205 198.178 52.8573 189.333 51.2245 188.412C51.2245 188.412 48.7784 187.995 47.2496 187.682C45.7207 187.37 44.3884 186.403 43.9695 186.25C43.9076 186.228 42.5396 185.638 41.0357 184.474C39.7395 183.47 41.413 183.847 41.413 183.847C41.413 183.847 44.1372 185.291 44.2077 185.062C44.2623 184.885 42.7306 184.182 41.2852 183.087C40.9136 182.804 40.5479 182.524 40.2139 182.265C39.337 181.584 39.4903 180.87 40.5175 181.441C40.8804 181.643 41.475 181.992 41.8655 182.298C42.2873 182.632 42.7786 182.806 43.1743 183.031C43.9603 183.481 44.5277 183.82 44.5279 183.778C44.5279 183.724 44.7437 183.705 44.3581 183.395C43.8946 183.021 42.7399 182.437 42.0995 181.835C41.7367 181.495 40.9357 180.827 40.9357 180.827C40.9357 180.827 39.9079 179.599 39.9581 179.518C40.2301 179.077 41.164 179.727 41.5983 180.251C42.0432 180.45 42.8665 181.176 42.8665 181.176C42.8665 181.176 44.8512 182.283 45.0043 182.012C45.0694 181.897 43.9293 181.075 42.9332 180.101C42.0085 179.195 41.2184 178.135 41.3653 177.933C41.6143 177.589 42.7458 178.489 42.7458 178.489Z" fill="#F8A492"/>
<path d="M84.9491 213.887L85.9276 218.72L110.508 241.065L92.9131 258.86L97.6642 263.711C97.6642 263.711 123.65 244.642 124.586 242.143C126.028 238.294 105.959 212.809 105.959 212.809L84.9491 213.887Z" fill="#1749B5"/>
<path d="M67.9052 272.33C67.9052 272.33 62.9463 277.73 61.973 279.06C60.5708 280.974 71.0421 283.799 69.7463 281.558C69.4482 281.043 68.5934 279.307 68.5561 279.137C68.3572 278.226 70.8759 275.767 70.8759 275.767L67.9052 272.33Z" fill="#F7A491"/>
<path d="M75.2663 281.387L68.4414 278.893C68.4414 278.893 65.862 280.066 61.9288 279.105C61.9288 279.105 60.5412 281.053 60.4544 283.542C60.4544 283.542 73.3903 285.191 76.9903 284.162C80.5902 283.132 75.2663 281.387 75.2663 281.387Z" fill="#F7CC7F"/>
<path d="M85.7907 216.127L86.8945 246.617L65.0846 273.342L70.9849 276.571C70.9849 276.571 95.1112 255.876 97.7604 250.111C99.4036 246.536 104.932 214.216 104.932 214.216L85.7907 216.127Z" fill="#2665ED"/>
<path d="M105.617 213.624C103.618 209.115 103.85 176.789 96.0692 169.216C93.3318 169.68 91.3794 169.937 90.9225 170.059C90.5165 173.388 90.0699 185.608 89.7956 196.808C89.6128 204.267 89.8015 212.093 88.8819 216.218C88.3119 218.774 107.444 217.744 105.617 213.624Z" fill="#FAE0B2"/>
<path d="M84.5572 171.727C82.3732 172.224 80.7649 172.573 77.9023 176.8C75.1615 180.846 69.0762 190.447 69.0762 190.447L53.048 183.331L52.2987 191.445C52.2987 191.445 70.4313 200.865 72.9896 200.016C75.5479 199.167 82.7407 188.659 83.2727 187.95C83.3976 187.783 82.6689 199.174 82.6689 200.994C82.6689 202.812 79.1927 218.656 79.1927 218.656C79.1927 218.656 88.0132 220.826 89.7347 216.885C95.0127 204.802 90.9613 170.047 90.9613 170.047C90.9613 170.047 86.1287 171.368 84.5572 171.727Z" fill="#0F98B0"/>
<path d="M117.48 137.129C116.806 136.566 116.512 135.215 116.401 134.345L116.101 133.194C116.375 133.081 121.72 132.321 123.332 132.279C123.489 132.79 123.567 133.221 123.517 133.496C123.277 134.812 121.595 143.361 121.595 143.361L116.991 143.452C116.991 143.452 117.993 138.384 117.48 137.129Z" fill="#F7A491"/>
<path d="M97.8728 171.108C97.8728 171.108 101.031 180.091 103.631 178.797C106.23 177.503 120.832 162.624 120.976 161.907C121.121 161.187 122.132 142.925 122.132 142.925L116.356 141.776L113.034 156.73C113.034 156.73 102.349 166.938 100.183 167.946C98.0173 168.952 97.8728 171.108 97.8728 171.108Z" fill="#0F98B0"/>
<path d="M106.399 215.786C108.148 215.786 108.793 215.544 109.957 215.195C109.957 215.195 106.628 196.439 104.692 177.84C103.927 170.493 103.218 167.481 100.185 168.013C99.3076 168.166 96.9321 169.071 96.0695 169.216C103.691 190.767 103.717 207.354 104.796 212.165C105.337 214.58 105.809 215.801 106.399 215.786Z" fill="#0F98B0"/>
<path d="M95.2653 165.961L96.064 169.216C96.064 169.216 96.2461 172.052 94.9295 172.306C93.3418 172.613 90.9824 170.239 90.9824 170.239L89.6159 161.056L95.2653 165.961Z" fill="#F7A491"/>
<path d="M95.2653 165.961L96.064 169.216C96.064 169.216 96.2461 172.052 94.9295 172.306C93.3418 172.613 90.9824 170.239 90.9824 170.239L89.6159 161.056L95.2653 165.961Z" fill="#F7A491"/>
<path d="M89.6293 161.098L95.2652 165.961L95.8619 168.392C93.7076 167.875 90.6362 165.506 89.6293 161.098Z" fill="#F47458"/>
<path d="M95.2843 152.651C96.6471 152.646 97.874 153.591 98.3532 154.951C98.7506 156.077 99.2592 157.748 99.583 159.664C100.179 163.196 98.1672 166.429 96.4165 166.687C94.6659 166.945 90.4954 165.785 89.5732 160.783C89.1778 158.639 88.6577 155.827 90.4223 154.349C91.795 153.2 93.7177 152.654 95.2843 152.651Z" fill="#F7A491"/>
<path d="M90.1421 164.594C90.1421 164.594 83.9705 159.098 83.7011 154.804C83.4316 150.509 87.4 148.209 90.7932 148.09C92.3261 148.036 93.3632 148.105 94.946 148.304C98.3456 148.732 100.549 150.238 99.7733 153.022C98.7322 156.759 91.6763 153.606 90.2338 154.766C89.0433 155.724 90.9733 158.026 89.8167 158.904C88.7297 159.73 89.2834 159.45 89.6433 161.02C90.0031 162.591 90.1421 164.594 90.1421 164.594Z" fill="#184655"/>
<path d="M87.7624 159.615C87.9155 160.645 88.5449 161.404 89.1684 161.312C89.7918 161.221 90.1734 160.311 90.0203 159.283C89.8674 158.254 89.238 157.494 88.6145 157.586C87.9909 157.677 87.6095 158.587 87.7624 159.615Z" fill="#F7A491"/>
<path d="M117.793 133.181C117.793 133.181 118.792 133.747 119.786 135.063C119.786 135.063 122.389 133.396 122.298 132.867C122.177 132.166 119.516 133.467 119.516 133.467L117.793 133.181Z" fill="#F47458"/>
<path d="M50.6829 98.6466L120.958 134.808C124.739 136.755 129.52 135.002 131.636 130.896L149.582 96.0618C151.698 91.9555 150.347 87.0488 146.566 85.1026L76.2913 48.9391C72.5098 46.993 67.7288 48.7453 65.6128 52.8534L47.6668 87.6857C45.5509 91.7921 46.9012 96.7005 50.6829 98.6466Z" fill="#222434"/>
<path d="M132.04 130.112L48.07 86.9039L53.5143 76.3355L137.484 119.546L132.04 130.112Z" fill="#383B54"/>
<path d="M88.1163 73.7154L69.6115 64.1716L74.9079 53.9133L93.4127 63.4571L88.1163 73.7154Z" fill="#0F98B0"/>
<path d="M117.773 133.125C117.651 132.795 117.41 132.333 117.529 132.153C118.278 131.009 117.47 129.765 116.925 130.737C116.608 131.304 116.055 132.547 116.101 133.194C116.135 133.663 116.611 135.449 116.611 135.449C116.611 135.449 118.466 134.997 117.773 133.125Z" fill="#F7A491"/>
<path d="M329.473 253.459C329.473 253.459 329.041 258.845 329.392 260.594C329.579 261.531 330.626 263.46 330.145 264.341C329.666 265.222 329.117 265.443 329.117 265.443L316.674 265.64C315.996 265.65 316.443 265.222 316.991 264.828C317.885 264.181 318.606 263.753 321.464 262.395C321.651 262.306 322.329 261.883 322.573 261.736C323.194 261.364 323.818 260.777 324.354 260.191C325.247 259.212 325.325 254.47 325.325 254.47L329.473 253.459Z" fill="#F7A491"/>
<path d="M319.748 181.894C319.748 181.894 314.4 179.259 315.428 184.989C316.457 190.722 324.293 255.17 324.293 255.17L331.632 255.576C331.632 255.576 332.57 234.089 332.364 231.003C332.158 227.918 330.943 223.145 330.943 223.145L330.321 204.082L323.396 180.546L319.748 181.894Z" fill="#1749B5"/>
<path d="M322.575 261.734C325.866 262.565 328.299 262.001 329.66 261.461C330.01 262.439 330.476 263.665 330.23 264.371C329.928 265.238 329.533 265.623 329.154 265.632C326.148 265.709 318.107 265.627 315.814 265.655C315.494 265.66 315.319 265.293 315.524 265.05C316.093 264.383 322.331 261.883 322.575 261.734Z" fill="#3C8F7C"/>
<path d="M315.428 143.163C315.428 143.163 310.906 134.466 310.205 131.275C309.504 128.082 307.074 112.007 307.278 110.971C307.484 109.936 311.324 107.444 310.851 106.564C310.377 105.687 306.717 105.683 305.879 105.759C305.041 105.835 303.358 106.322 302.636 106.917C301.917 107.51 303.447 126.776 303.904 130.923C304.361 135.071 309.981 147.844 309.981 147.844L315.428 143.163Z" fill="#F7A491"/>
<path d="M350.66 210.932C350.66 210.932 354.39 207.022 355.221 205.444C355.664 204.598 356.067 202.441 356.996 202.058C357.925 201.676 358.49 201.85 358.49 201.85L368.277 209.531C368.812 209.951 368.193 210.002 367.52 209.964C366.418 209.902 365.587 209.781 362.511 209.036C362.311 208.987 361.517 208.889 361.235 208.849C360.518 208.748 359.665 208.81 358.878 208.928C357.568 209.125 354.518 212.758 354.518 212.758L350.66 210.932Z" fill="#F7A491"/>
<path d="M361.233 208.849C359.2 206.133 356.956 205.039 355.558 204.601C355.902 203.62 356.278 202.34 356.915 201.946C357.696 201.464 358.234 201.563 358.536 201.796C360.918 203.627 367.156 208.64 368.955 210.061C369.206 210.259 369.112 210.655 368.8 210.714C367.937 210.874 361.517 208.889 361.233 208.849Z" fill="#3C8F7C"/>
<path d="M350.748 140.514C348.427 135.648 343.283 132.968 338.3 134.264C336.513 131.848 333.748 130.156 330.872 129.748C325.197 128.945 317.875 131.696 318.622 137.616C316.829 141.757 317.268 147.463 320.849 150.26C320.191 155.704 325.652 160.532 332.115 159.88C334.716 163.467 339.236 165.571 343.465 164.753C344.48 164.555 346.021 164.186 346.285 164.232C345.953 164.195 353.656 169.236 358.969 160.259C364.39 151.099 359.052 140.858 350.748 140.514Z" fill="black"/>
<path d="M317.595 183.972C317.595 183.972 329.589 178.642 329.778 179.249C331.282 184.09 335.96 182.528 338.737 191.054C339.9 194.624 341.096 218.374 341.096 218.374C341.096 218.374 345.825 214.452 352.584 207.597C353.102 207.071 358.183 211.901 358.183 211.901C344.768 230.016 338.98 230.961 336.741 229.947C332.069 227.831 322.208 198.213 322.224 198.217C321.039 195.912 317.595 183.972 317.595 183.972Z" fill="#2665ED"/>
<path d="M337.479 150.514C337.479 150.514 354.816 150.492 358.529 150.278C361.887 150.085 375.214 150.423 375.733 150.363C376.256 150.304 379.698 144.474 380.272 145.099C380.843 145.726 378.355 147.99 379.125 148.578C379.894 149.165 388.164 147.849 388.054 148.46C387.848 149.603 383.025 149.458 383.03 150.009C383.033 150.561 388.079 149.7 388.42 150.617C388.762 151.532 383.568 150.989 383.36 151.399C383.153 151.808 388.179 152.557 387.665 153.409C387.385 153.871 383.212 152.636 383.232 153.266C383.252 153.898 386.297 155.333 385.925 155.836C385.55 156.338 383.534 154.292 381.767 154.267C380.002 154.242 378.736 153.322 375.917 154.095C374.524 154.476 363.894 155.775 354.911 156.542C345.702 157.328 338.154 157.578 338.154 157.578L337.479 150.514Z" fill="#F7A491"/>
<path d="M311.771 162.764C311.542 159.982 312.09 157.839 312.215 156.916C311.373 154.026 309.581 147.862 308.937 146.651C308.937 146.651 311.957 140.853 315.045 140.893C315.045 140.893 318.202 148.002 320.641 149.272C320.677 149.264 321.504 149.641 321.869 149.64C324.224 149.623 332.457 149.374 333.993 149.345L333.128 161.017C327.163 172.704 328.778 178.836 331.047 181.104C332.116 182.17 316.162 186.501 315.428 184.989C314.562 183.208 312.237 168.387 311.771 162.764Z" fill="#383B54"/>
<path d="M329.81 149.786C331.329 149.062 342.316 149.424 342.316 149.424C342.316 149.424 343.852 157.072 342.611 158.911C342.611 158.911 332.787 160.372 333.065 161.177L329.81 149.786Z" fill="#383B54"/>
<path d="M326.93 144.873C326.93 144.873 326.736 149.043 326.932 150.781C327.127 152.518 325.15 156.59 321.466 156.661C317.782 156.732 320.925 152.754 321.248 151.043C321.57 149.335 321.956 142.642 321.956 142.642L326.93 144.873Z" fill="#F7A491"/>
<path d="M321.956 142.642C321.956 142.642 321.867 144.196 321.739 145.997C322.899 147.382 324.686 148.09 326.856 147.247C326.88 145.955 326.93 144.873 326.93 144.873L321.956 142.642Z" fill="#F47458"/>
<path d="M327.235 132.444C327.235 132.444 329.321 133.068 330.491 135.154C331.663 137.238 332.155 143.174 327.657 145.619C323.159 148.066 320.075 143.956 320.281 140.168C320.486 136.382 321.644 131.39 327.235 132.444Z" fill="#F7A491"/>
<path d="M319.375 138.916C319.68 139.855 320.37 140.472 320.918 140.295C321.464 140.118 321.661 139.213 321.356 138.274C321.051 137.338 320.361 136.719 319.813 136.898C319.267 137.075 319.07 137.98 319.375 138.916Z" fill="#F7A491"/>
<path d="M326.608 132.278C326.608 132.278 328.891 138.519 331.228 139.223C333.563 139.927 333.318 142.972 333.318 142.972C333.318 142.972 333.752 135.931 331.637 134.165C329.525 132.397 326.608 132.278 326.608 132.278Z" fill="black"/>
<path d="M330.197 140.416C329.818 141.378 330.037 142.366 330.688 142.623C331.337 142.88 332.174 142.308 332.553 141.346C332.934 140.384 332.715 139.397 332.064 139.141C331.413 138.883 330.579 139.454 330.197 140.416Z" fill="#F7A491"/>
<path d="M301.984 108.399C301.984 108.399 307.064 108.622 307.661 108.622C308.256 108.622 309.993 106.827 309.993 106.827L301.984 108.399Z" fill="#F47458"/>
<path d="M318.608 77.5909C324.865 86.4995 322.71 98.7916 313.796 105.043C304.882 111.296 292.585 109.143 286.328 100.234C280.071 91.3253 282.226 79.0333 291.14 72.7819C300.055 66.5289 312.353 68.6823 318.608 77.5909Z" fill="#62CBDD"/>
<path d="M316.012 79.4124C321.262 86.8887 319.454 97.2009 311.974 102.448C304.493 107.695 294.175 105.889 288.924 98.4124C283.674 90.9361 285.483 80.6239 292.962 75.3768C300.443 70.1297 310.763 71.936 316.012 79.4124Z" fill="#0F98B0"/>
<path d="M304.378 100.546L303.657 97.88C302.438 98.1513 301.195 98.2439 300.134 98.19C299.249 98.1428 298.551 97.4183 298.541 96.5337L298.54 96.4258C298.526 95.4502 299.345 94.6633 300.32 94.7274C301.313 94.7914 302.407 94.7257 303.506 94.4291C305.106 93.9961 306.034 93.0828 305.73 91.9606C305.442 90.8957 304.361 90.4643 302.095 90.3245C298.818 90.1256 296.39 89.2781 295.653 86.5568C294.985 84.0883 296.201 81.6821 299.045 80.2802L298.324 77.6162L301.075 76.8731L301.743 79.3416C302.776 79.1108 303.651 79.0215 304.405 79.0181C305.324 79.0147 306.071 79.7578 306.083 80.6778C306.096 81.6265 305.319 82.3999 304.368 82.378C303.655 82.3628 302.798 82.4285 301.807 82.6948C299.983 83.1885 299.607 84.1338 299.819 84.919C300.069 85.844 301.212 86.1676 303.84 86.4203C307.499 86.6966 309.264 87.8745 309.947 90.4003C310.623 92.8958 309.431 95.5058 306.354 96.9398L307.13 99.8009L304.378 100.546Z" fill="white"/>
<path d="M307.661 108.622L309.756 106.738C309.756 106.738 308.767 105.555 309.178 105.328C309.848 104.959 310.992 106.388 310.891 106.735C310.788 107.082 309.558 108.201 309.558 108.201L307.661 108.622Z" fill="#F7A491"/>
</svg>
