<svg xmlns="http://www.w3.org/2000/svg" width="97" height="46" fill="none" viewBox="0 0 97 46">
  <path fill="#FF5F00" d="M46.4 2.888h12.155v21.229H46.4V2.888Z"/>
  <path fill="#F79E1B" d="M74.458 13.502c0 7.464-6.212 13.503-13.892 13.503A14.06 14.06 0 0 1 52 24.117c3.241-2.476 5.287-6.301 5.287-10.615 0-4.313-2.084-8.139-5.287-10.614A14.06 14.06 0 0 1 60.566 0c7.68 0 13.892 6.076 13.892 13.502Z"/>
  <path fill="#EB001B" d="M47.172 13.502c0-4.313 2.084-8.138 5.286-10.614A14.059 14.059 0 0 0 43.892 0C36.212 0 30 6.04 30 13.502c0 7.464 6.213 13.503 13.892 13.503 3.241 0 6.212-1.088 8.566-2.888-3.202-2.438-5.286-6.301-5.286-10.615Z"/>
  <path fill="#fff" d="M13.943 38v-6.546h1.474v1.113h.077c.136-.375.362-.668.678-.878.315-.213.691-.32 1.129-.32.443 0 .817.108 1.12.324.308.213.523.504.648.874h.069a1.79 1.79 0 0 1 .733-.87c.346-.218.757-.328 1.231-.328.602 0 1.094.19 1.474.571.381.381.572.936.572 1.666V38H21.6v-4.155c0-.406-.108-.703-.324-.89a1.156 1.156 0 0 0-.793-.286c-.372 0-.663.117-.873.35-.208.23-.312.53-.312.899V38h-1.512v-4.219c0-.338-.102-.608-.307-.81-.202-.201-.466-.302-.793-.302-.221 0-.423.057-.605.17a1.19 1.19 0 0 0-.434.474 1.478 1.478 0 0 0-.162.707V38h-1.543Zm13.153.132c-.415 0-.788-.074-1.12-.221a1.83 1.83 0 0 1-.785-.665c-.19-.293-.285-.654-.285-1.083 0-.369.068-.674.204-.916.137-.241.323-.434.559-.58.235-.144.5-.254.796-.328.299-.076.607-.132.925-.166.384-.04.695-.075.933-.106.239-.034.412-.086.52-.154.111-.07.166-.18.166-.328v-.025c0-.321-.095-.57-.285-.746-.19-.176-.465-.264-.823-.264-.377 0-.677.082-.899.247-.218.165-.366.36-.443.584l-1.44-.205c.113-.398.3-.73.562-.997a2.44 2.44 0 0 1 .96-.605 3.666 3.666 0 0 1 1.252-.205c.315 0 .63.037.942.111.312.074.598.196.856.367.259.167.466.396.622.686.16.29.239.652.239 1.086V38h-1.483v-.9h-.051a1.882 1.882 0 0 1-.396.512c-.168.157-.38.283-.635.38a2.56 2.56 0 0 1-.89.14Zm.4-1.133c.31 0 .579-.062.806-.184.227-.125.402-.29.524-.494.125-.204.188-.427.188-.669v-.771a.725.725 0 0 1-.247.11 3.503 3.503 0 0 1-.384.09c-.142.025-.283.048-.422.068l-.362.051c-.23.031-.436.083-.618.154-.182.07-.325.17-.43.298a.73.73 0 0 0-.158.486c0 .284.104.498.311.643.207.145.472.218.793.218Zm10.28-3.814-1.406.153a1.13 1.13 0 0 0-.209-.4 1.037 1.037 0 0 0-.392-.303 1.429 1.429 0 0 0-.605-.115c-.32 0-.59.07-.81.209-.215.139-.322.32-.319.54a.566.566 0 0 0 .209.465c.145.12.383.218.716.294l1.116.239c.62.134 1.08.345 1.38.635.305.29.458.669.461 1.138a1.78 1.78 0 0 1-.362 1.09c-.236.313-.564.557-.984.734-.421.176-.904.264-1.45.264-.8 0-1.445-.168-1.934-.503a2.021 2.021 0 0 1-.874-1.41l1.505-.145c.068.295.213.518.434.669.222.15.51.226.865.226.367 0 .66-.076.883-.226.224-.15.336-.337.336-.559a.581.581 0 0 0-.217-.464c-.142-.122-.364-.216-.665-.281l-1.117-.235c-.627-.13-1.092-.35-1.393-.66-.301-.313-.45-.708-.447-1.185a1.678 1.678 0 0 1 .328-1.048c.224-.299.535-.529.933-.69.4-.165.862-.248 1.385-.248.767 0 1.37.164 1.811.49.443.327.717.769.822 1.326Zm5.182-1.73v1.193h-3.763v-1.194h3.763Zm-2.834-1.569h1.542v6.145c0 .208.032.367.094.477.066.108.15.182.256.222a.98.98 0 0 0 .35.06c.096 0 .184-.007.263-.021.083-.015.145-.027.188-.039l.26 1.206a2.919 2.919 0 0 1-.908.154 2.515 2.515 0 0 1-1.044-.175 1.624 1.624 0 0 1-.737-.605c-.179-.273-.267-.614-.264-1.023v-6.4Zm7.451 8.242c-.656 0-1.223-.136-1.7-.41a2.77 2.77 0 0 1-1.095-1.167c-.256-.506-.384-1.1-.384-1.785 0-.674.128-1.265.384-1.773a2.9 2.9 0 0 1 1.082-1.193c.463-.287 1.007-.43 1.632-.43.404 0 .784.065 1.142.195.361.128.68.327.955.597.278.27.497.614.656 1.031.16.415.239.91.239 1.483v.473H45.12v-1.04h3.886a1.659 1.659 0 0 0-.192-.788 1.395 1.395 0 0 0-.524-.55 1.48 1.48 0 0 0-.776-.2c-.315 0-.592.077-.83.23-.24.15-.425.35-.559.597-.13.244-.197.512-.2.805v.908c0 .38.07.707.209.98.139.27.334.477.584.622.25.142.542.213.877.213.225 0 .428-.031.61-.094.182-.065.34-.16.473-.285a1.19 1.19 0 0 0 .302-.465l1.44.162a2.24 2.24 0 0 1-.52.998c-.252.28-.576.5-.97.656-.396.153-.847.23-1.356.23ZM52.291 38v-6.546h1.495v1.091h.069c.119-.377.323-.669.613-.873a1.689 1.689 0 0 1 1.002-.311c.085 0 .18.004.285.013.108.005.198.015.269.03v1.418a1.62 1.62 0 0 0-.312-.06 2.86 2.86 0 0 0-.404-.029 1.56 1.56 0 0 0-.759.183c-.221.12-.396.286-.524.499a1.405 1.405 0 0 0-.192.737V38h-1.542Zm7.843.128c-.653 0-1.214-.144-1.683-.43a2.873 2.873 0 0 1-1.078-1.19c-.25-.508-.375-1.093-.375-1.755 0-.665.128-1.252.383-1.76.256-.512.617-.91 1.083-1.193.468-.287 1.022-.43 1.662-.43.53 0 1.001.097 1.41.293.412.194.74.468.984.823.245.352.384.764.418 1.236h-1.474a1.41 1.41 0 0 0-.426-.789c-.222-.213-.519-.32-.891-.32-.316 0-.593.086-.831.256-.239.168-.425.41-.558.725-.131.315-.196.693-.196 1.133 0 .446.065.83.196 1.15.13.319.314.565.55.738.238.17.518.256.839.256a1.4 1.4 0 0 0 .61-.128c.181-.088.333-.215.455-.38.122-.164.206-.364.252-.6h1.474a2.57 2.57 0 0 1-.41 1.231 2.423 2.423 0 0 1-.962.836c-.406.198-.884.298-1.432.298Zm6.454.004a2.74 2.74 0 0 1-1.12-.221 1.83 1.83 0 0 1-.785-.665c-.19-.293-.285-.654-.285-1.083 0-.369.068-.674.205-.916.136-.241.322-.434.558-.58.236-.144.501-.254.797-.328.298-.076.606-.132.924-.166.384-.04.695-.075.933-.106.24-.034.413-.086.52-.154.111-.07.167-.18.167-.328v-.025c0-.321-.096-.57-.286-.746-.19-.176-.464-.264-.822-.264-.378 0-.678.082-.9.247-.218.165-.366.36-.443.584l-1.44-.205c.114-.398.301-.73.563-.997.26-.27.58-.472.958-.605a3.666 3.666 0 0 1 1.253-.205c.316 0 .63.037.942.111.312.074.598.196.856.367.259.167.466.396.623.686.159.29.238.652.238 1.086V38h-1.483v-.9h-.05a1.882 1.882 0 0 1-.397.512c-.168.157-.38.283-.635.38a2.56 2.56 0 0 1-.89.14Zm.4-1.133c.31 0 .579-.062.806-.184.228-.125.402-.29.524-.494.125-.204.188-.427.188-.669v-.771a.725.725 0 0 1-.247.11 3.503 3.503 0 0 1-.384.09c-.142.025-.282.048-.422.068l-.362.051c-.23.031-.436.083-.618.154-.182.07-.325.17-.43.298a.73.73 0 0 0-.158.486c0 .284.104.498.311.643.208.145.472.218.793.218ZM72.096 38v-6.546h1.496v1.091h.068c.12-.377.324-.669.614-.873a1.689 1.689 0 0 1 1.001-.311c.086 0 .18.004.286.013.108.005.197.015.268.03v1.418a1.62 1.62 0 0 0-.31-.06 2.86 2.86 0 0 0-.406-.029 1.56 1.56 0 0 0-.758.183c-.222.12-.396.286-.524.499a1.405 1.405 0 0 0-.192.737V38h-1.543Zm7.418.115c-.515 0-.975-.132-1.381-.396s-.727-.648-.963-1.15c-.236-.504-.354-1.114-.354-1.833 0-.727.12-1.341.358-1.841.242-.503.567-.882.976-1.138.41-.258.865-.388 1.368-.388.383 0 .699.066.946.196.247.128.443.283.588.465.145.179.257.348.337.507h.063v-3.264h1.547V38h-1.517v-1.031h-.093c-.08.159-.195.328-.346.507-.15.176-.349.327-.596.452s-.558.187-.933.187Zm.43-1.266c.327 0 .605-.088.835-.264.23-.179.405-.427.524-.745a3.16 3.16 0 0 0 .18-1.113c0-.423-.06-.79-.18-1.103a1.571 1.571 0 0 0-.52-.73 1.35 1.35 0 0 0-.839-.26c-.344 0-.63.09-.86.27-.23.178-.404.425-.52.74a3.111 3.111 0 0 0-.175 1.083c0 .41.058.774.174 1.095.12.319.294.57.525.755.232.181.518.272.856.272Z"/>
</svg>
