<svg xmlns="http://www.w3.org/2000/svg" width="33" height="33" fill="none" viewBox="0 0 33 33">
  <circle cx="16.5" cy="16.5" r="16.5" fill="#1D9DB4"/>
  <path fill="#fff" d="M8.667 10.583a.917.917 0 0 0 .916.917H24.25a.917.917 0 0 1 .917.917V25.25a.917.917 0 0 1-.917.917h-4.583a.917.917 0 0 1 0-1.834h3.666v-11H9.583a2.72 2.72 0 0 1-.916-.168v10.252a.916.916 0 0 0 .916.916h4.584a.916.916 0 0 0 .916-.916v-4.204l-1.185 1.185a.917.917 0 0 1-1.296-1.296l2.75-2.75a.916.916 0 0 1 1.298 0l2.75 2.75a.917.917 0 0 1-1.296 1.296l-1.187-1.185v4.204a2.75 2.75 0 0 1-2.75 2.75H9.583a2.75 2.75 0 0 1-2.75-2.75V10.583a2.75 2.75 0 0 1 2.75-2.75H24.25a.917.917 0 1 1 0 1.834H9.583a.917.917 0 0 0-.916.916Z"/>
</svg>
