<svg width="329" height="190" viewBox="0 0 329 190" fill="none" xmlns="http://www.w3.org/2000/svg">
<rect x="24.4269" y="12.4402" width="280.146" height="176.37" rx="22.8805" fill="#EEFCFF" stroke="#ACE7F2" stroke-width="0.953353"/>
<rect x="8.80901" y="6.72009" width="311.382" height="176.37" rx="22.8805" fill="#CBF4FB" stroke="#ACE7F2" stroke-width="0.953353"/>
<rect width="319.373" height="176.37" transform="translate(4.81341 1)" fill="white"/>
<rect x="1" y="1" width="327" height="176.37" rx="10" fill="url(#paint0_linear_1667_2608)" stroke="#1DBBD8" stroke-width="0.953353"/>
<g clip-path="url(#clip0_1667_2608)">
<rect opacity="0.8" width="352.805" height="37.7663" transform="matrix(-0.618616 0.785693 -0.757728 -0.65257 427.57 -39.1962)" fill="url(#paint1_radial_1667_2608)"/>
<rect opacity="0.8" width="371.728" height="37.7663" transform="matrix(-0.618616 0.785693 -0.757728 -0.65257 340.574 -64.3549)" fill="url(#paint2_radial_1667_2608)"/>
</g>
<g clip-path="url(#clip1_1667_2608)">
<path opacity="0.3" d="M209.333 122.667H216.667V132H209.333V122.667Z" fill="white"/>
<path d="M214.667 118.667H206.667C205.933 118.667 205.333 119.267 205.333 120V129.333H206.667V120H214.667V118.667ZM216.667 121.333H209.333C208.6 121.333 208 121.933 208 122.667V132C208 132.733 208.6 133.333 209.333 133.333H216.667C217.4 133.333 218 132.733 218 132V122.667C218 121.933 217.4 121.333 216.667 121.333ZM216.667 132H209.333V122.667H216.667V132Z" fill="white"/>
</g>
<path d="M21.9787 132H20.348L24.0121 121.818H25.7869L29.451 132H27.8203L24.9418 123.668H24.8622L21.9787 132ZM22.2521 128.013H27.5419V129.305H22.2521V128.013ZM34.6799 121.341L31.3986 133.531H30.0712L33.3525 121.341H34.6799ZM44.5186 125.129H42.9675C42.9078 124.798 42.7968 124.506 42.6344 124.254C42.472 124.002 42.2731 123.789 42.0378 123.613C41.8025 123.437 41.539 123.305 41.2473 123.215C40.959 123.126 40.6524 123.081 40.3276 123.081C39.7409 123.081 39.2156 123.228 38.7516 123.523C38.2909 123.818 37.9263 124.251 37.6578 124.821C37.3927 125.391 37.2601 126.087 37.2601 126.909C37.2601 127.738 37.3927 128.437 37.6578 129.007C37.9263 129.577 38.2926 130.008 38.7566 130.3C39.2206 130.591 39.7426 130.737 40.3226 130.737C40.6441 130.737 40.949 130.694 41.2374 130.608C41.5291 130.518 41.7926 130.388 42.0279 130.215C42.2632 130.043 42.4621 129.832 42.6245 129.584C42.7902 129.332 42.9045 129.044 42.9675 128.719L44.5186 128.724C44.4358 129.224 44.275 129.685 44.0364 130.106C43.8011 130.523 43.4978 130.885 43.1266 131.19C42.7587 131.491 42.3378 131.725 41.8638 131.891C41.3899 132.056 40.8728 132.139 40.3127 132.139C39.431 132.139 38.6455 131.93 37.9561 131.513C37.2667 131.092 36.7232 130.49 36.3255 129.708C35.931 128.926 35.7338 127.993 35.7338 126.909C35.7338 125.822 35.9327 124.889 36.3304 124.11C36.7282 123.328 37.2717 122.728 37.9611 122.31C38.6505 121.889 39.4344 121.679 40.3127 121.679C40.8529 121.679 41.3567 121.757 41.824 121.913C42.2947 122.065 42.7173 122.29 43.0918 122.589C43.4663 122.884 43.7762 123.245 44.0215 123.673C44.2667 124.097 44.4325 124.582 44.5186 125.129ZM58.28 121.818V132H56.8681L51.6926 124.533H51.5982V132H50.062V121.818H51.4838L56.6642 129.295H56.7587V121.818H58.28ZM63.6183 132.154C62.9023 132.154 62.2776 131.99 61.744 131.662C61.2103 131.334 60.796 130.875 60.5011 130.285C60.2061 129.695 60.0586 129.005 60.0586 128.217C60.0586 127.424 60.2061 126.732 60.5011 126.138C60.796 125.545 61.2103 125.085 61.744 124.756C62.2776 124.428 62.9023 124.264 63.6183 124.264C64.3342 124.264 64.9589 124.428 65.4925 124.756C66.0262 125.085 66.4405 125.545 66.7354 126.138C67.0304 126.732 67.1779 127.424 67.1779 128.217C67.1779 129.005 67.0304 129.695 66.7354 130.285C66.4405 130.875 66.0262 131.334 65.4925 131.662C64.9589 131.99 64.3342 132.154 63.6183 132.154ZM63.6232 130.906C64.0872 130.906 64.4717 130.784 64.7766 130.538C65.0816 130.293 65.3069 129.967 65.4528 129.559C65.6019 129.151 65.6765 128.702 65.6765 128.212C65.6765 127.724 65.6019 127.277 65.4528 126.869C65.3069 126.458 65.0816 126.129 64.7766 125.88C64.4717 125.631 64.0872 125.507 63.6232 125.507C63.1559 125.507 62.7681 125.631 62.4599 125.88C62.1549 126.129 61.9279 126.458 61.7788 126.869C61.6329 127.277 61.56 127.724 61.56 128.212C61.56 128.702 61.6329 129.151 61.7788 129.559C61.9279 129.967 62.1549 130.293 62.4599 130.538C62.7681 130.784 63.1559 130.906 63.6232 130.906ZM69.8166 132.094C69.5448 132.094 69.3111 131.998 69.1156 131.806C68.92 131.611 68.8223 131.375 68.8223 131.1C68.8223 130.828 68.92 130.596 69.1156 130.404C69.3111 130.209 69.5448 130.111 69.8166 130.111C70.0884 130.111 70.322 130.209 70.5176 130.404C70.7131 130.596 70.8109 130.828 70.8109 131.1C70.8109 131.282 70.7645 131.45 70.6717 131.602C70.5822 131.751 70.4629 131.871 70.3137 131.96C70.1646 132.05 69.9989 132.094 69.8166 132.094ZM69.8166 126.536C69.5448 126.536 69.3111 126.438 69.1156 126.243C68.92 126.047 68.8223 125.814 68.8223 125.542C68.8223 125.27 68.92 125.038 69.1156 124.846C69.3111 124.65 69.5448 124.553 69.8166 124.553C70.0884 124.553 70.322 124.65 70.5176 124.846C70.7131 125.038 70.8109 125.27 70.8109 125.542C70.8109 125.724 70.7645 125.892 70.6717 126.044C70.5822 126.193 70.4629 126.312 70.3137 126.402C70.1646 126.491 69.9989 126.536 69.8166 126.536ZM79.9276 132.139C79.215 132.139 78.5852 132.017 78.0384 131.771C77.4948 131.526 77.0689 131.188 76.7607 130.757C76.4524 130.326 76.3 129.836 76.3033 129.286C76.3 128.855 76.3878 128.459 76.5668 128.097C76.7491 127.733 76.996 127.429 77.3075 127.188C77.6191 126.942 77.9671 126.786 78.3516 126.72V126.661C77.8445 126.538 77.4384 126.266 77.1335 125.845C76.8286 125.424 76.6778 124.94 76.6811 124.393C76.6778 123.873 76.8153 123.409 77.0938 123.001C77.3755 122.59 77.7616 122.267 78.2521 122.032C78.7427 121.797 79.3011 121.679 79.9276 121.679C80.5473 121.679 81.1009 121.798 81.5881 122.037C82.0786 122.272 82.4647 122.595 82.7464 123.006C83.0282 123.414 83.1707 123.876 83.174 124.393C83.1707 124.94 83.0149 125.424 82.7067 125.845C82.3984 126.266 81.9974 126.538 81.5036 126.661V126.72C81.8847 126.786 82.2277 126.942 82.5327 127.188C82.8409 127.429 83.0862 127.733 83.2685 128.097C83.4541 128.459 83.5485 128.855 83.5518 129.286C83.5485 129.836 83.3928 130.326 83.0845 130.757C82.7763 131.188 82.3487 131.526 81.8018 131.771C81.2583 132.017 80.6335 132.139 79.9276 132.139ZM79.9276 130.881C80.3485 130.881 80.7131 130.812 81.0213 130.673C81.3295 130.53 81.5682 130.333 81.7372 130.081C81.9063 129.826 81.9924 129.527 81.9957 129.186C81.9924 128.831 81.8996 128.518 81.7173 128.246C81.5384 127.975 81.2947 127.761 80.9865 127.605C80.6783 127.449 80.3253 127.371 79.9276 127.371C79.5265 127.371 79.1702 127.449 78.8587 127.605C78.5471 127.761 78.3018 127.975 78.1229 128.246C77.9439 128.518 77.8561 128.831 77.8594 129.186C77.8561 129.527 77.9373 129.826 78.103 130.081C78.272 130.333 78.5123 130.53 78.8239 130.673C79.1354 130.812 79.5033 130.881 79.9276 130.881ZM79.9276 126.143C80.2656 126.143 80.5656 126.076 80.8274 125.94C81.0893 125.804 81.2947 125.615 81.4439 125.373C81.5964 125.131 81.6742 124.848 81.6776 124.523C81.6742 124.205 81.598 123.926 81.4489 123.688C81.303 123.449 81.0992 123.265 80.8374 123.136C80.5755 123.003 80.2723 122.937 79.9276 122.937C79.5762 122.937 79.268 123.003 79.0028 123.136C78.741 123.265 78.5372 123.449 78.3913 123.688C78.2455 123.926 78.1742 124.205 78.1776 124.523C78.1742 124.848 78.2472 125.131 78.3963 125.373C78.5455 125.615 78.7509 125.804 79.0128 125.94C79.2779 126.076 79.5829 126.143 79.9276 126.143ZM88.8777 132.139C88.1949 132.139 87.585 132.022 87.0481 131.786C86.5145 131.551 86.0919 131.224 85.7804 130.807C85.4721 130.386 85.3064 129.899 85.2832 129.345H86.8443C86.8642 129.647 86.9653 129.909 87.1475 130.131C87.3332 130.349 87.5751 130.518 87.8734 130.638C88.1717 130.757 88.5031 130.817 88.8677 130.817C89.2688 130.817 89.6234 130.747 89.9316 130.608C90.2432 130.469 90.4868 130.275 90.6625 130.026C90.8381 129.774 90.926 129.484 90.926 129.156C90.926 128.815 90.8381 128.515 90.6625 128.256C90.4901 127.995 90.2366 127.789 89.9018 127.64C89.5704 127.491 89.1693 127.416 88.6987 127.416H87.8386V126.163H88.6987C89.0765 126.163 89.408 126.095 89.693 125.96C89.9814 125.824 90.2067 125.635 90.3691 125.393C90.5315 125.147 90.6127 124.861 90.6127 124.533C90.6127 124.218 90.5415 123.944 90.399 123.712C90.2598 123.477 90.0609 123.293 89.8024 123.161C89.5472 123.028 89.2456 122.962 88.8975 122.962C88.5661 122.962 88.2562 123.023 87.9679 123.146C87.6828 123.265 87.4508 123.437 87.2718 123.663C87.0929 123.885 86.9967 124.152 86.9835 124.463H85.497C85.5136 123.913 85.676 123.429 85.9842 123.011C86.2958 122.594 86.7067 122.267 87.2172 122.032C87.7276 121.797 88.2943 121.679 88.9174 121.679C89.5704 121.679 90.1338 121.807 90.6078 122.062C91.0851 122.314 91.4529 122.65 91.7115 123.071C91.9733 123.492 92.1026 123.953 92.0993 124.453C92.1026 125.023 91.9435 125.507 91.622 125.905C91.3038 126.303 90.8796 126.569 90.3493 126.705V126.785C91.0254 126.888 91.5491 127.156 91.9203 127.59C92.2948 128.024 92.4804 128.563 92.4771 129.206C92.4804 129.766 92.3246 130.268 92.0098 130.712C91.6982 131.156 91.2723 131.506 90.7321 131.761C90.1918 132.013 89.5737 132.139 88.8777 132.139ZM97.742 121.679C98.1961 121.682 98.6435 121.765 99.0843 121.928C99.5252 122.09 99.9229 122.355 100.278 122.723C100.635 123.091 100.921 123.588 101.133 124.214C101.348 124.838 101.457 125.613 101.461 126.541C101.461 127.433 101.371 128.227 101.192 128.923C101.013 129.615 100.756 130.2 100.422 130.678C100.09 131.155 99.6876 131.518 99.2136 131.766C98.7396 132.015 98.206 132.139 97.6127 132.139C97.0062 132.139 96.4676 132.02 95.997 131.781C95.5263 131.543 95.1435 131.213 94.8485 130.792C94.5536 130.368 94.3696 129.88 94.2967 129.33H95.813C95.9125 129.768 96.1146 130.122 96.4196 130.394C96.7278 130.663 97.1255 130.797 97.6127 130.797C98.3585 130.797 98.9402 130.472 99.3578 129.822C99.7754 129.17 99.9859 128.258 99.9892 127.088H99.9096C99.7373 127.373 99.5218 127.618 99.2633 127.824C99.0081 128.029 98.7214 128.188 98.4032 128.301C98.0851 128.414 97.7453 128.47 97.3841 128.47C96.7974 128.47 96.2638 128.326 95.7832 128.038C95.3026 127.749 94.9198 127.353 94.6348 126.849C94.3497 126.346 94.2072 125.771 94.2072 125.124C94.2072 124.481 94.353 123.898 94.6447 123.374C94.9397 122.851 95.3507 122.436 95.8777 122.131C96.408 121.823 97.0294 121.672 97.742 121.679ZM97.747 122.972C97.3592 122.972 97.0095 123.068 96.698 123.26C96.3897 123.449 96.1461 123.706 95.9672 124.031C95.7882 124.352 95.6987 124.71 95.6987 125.104C95.6987 125.499 95.7849 125.857 95.9572 126.178C96.1329 126.496 96.3715 126.75 96.6731 126.939C96.978 127.125 97.3261 127.217 97.7172 127.217C98.0088 127.217 98.2806 127.161 98.5325 127.048C98.7844 126.936 99.0048 126.78 99.1937 126.581C99.3826 126.379 99.5301 126.15 99.6362 125.895C99.7422 125.64 99.7953 125.371 99.7953 125.089C99.7953 124.715 99.7058 124.367 99.5268 124.045C99.3511 123.724 99.1092 123.465 98.801 123.27C98.4927 123.071 98.1414 122.972 97.747 122.972ZM103.257 132V130.886L106.702 127.317C107.07 126.929 107.373 126.589 107.612 126.298C107.854 126.003 108.034 125.723 108.154 125.457C108.273 125.192 108.333 124.911 108.333 124.612C108.333 124.274 108.253 123.982 108.094 123.737C107.935 123.489 107.718 123.298 107.443 123.165C107.168 123.03 106.858 122.962 106.513 122.962C106.149 122.962 105.83 123.036 105.559 123.185C105.287 123.335 105.078 123.545 104.932 123.817C104.786 124.089 104.713 124.407 104.713 124.771H103.247C103.247 124.152 103.389 123.61 103.674 123.146C103.959 122.682 104.35 122.322 104.848 122.067C105.345 121.808 105.91 121.679 106.543 121.679C107.183 121.679 107.746 121.807 108.233 122.062C108.724 122.314 109.107 122.658 109.382 123.096C109.657 123.53 109.794 124.021 109.794 124.567C109.794 124.945 109.723 125.315 109.581 125.676C109.441 126.037 109.198 126.44 108.85 126.884C108.502 127.325 108.018 127.86 107.398 128.49L105.375 130.608V130.683H109.958V132H103.257ZM112.186 132L116.63 123.21V123.136H111.49V121.818H118.221V123.18L113.792 132H112.186ZM118.916 130.011V128.768L123.316 121.818H124.295V123.648H123.674L120.527 128.629V128.709H126.557V130.011H118.916ZM123.743 132V129.634L123.753 129.067V121.818H125.21V132H123.743ZM128.29 132V130.886L131.735 127.317C132.103 126.929 132.406 126.589 132.645 126.298C132.887 126.003 133.068 125.723 133.187 125.457C133.306 125.192 133.366 124.911 133.366 124.612C133.366 124.274 133.286 123.982 133.127 123.737C132.968 123.489 132.751 123.298 132.476 123.165C132.201 123.03 131.891 122.962 131.546 122.962C131.182 122.962 130.864 123.036 130.592 123.185C130.32 123.335 130.111 123.545 129.965 123.817C129.82 124.089 129.747 124.407 129.747 124.771H128.28C128.28 124.152 128.423 123.61 128.708 123.146C128.993 122.682 129.384 122.322 129.881 122.067C130.378 121.808 130.943 121.679 131.576 121.679C132.216 121.679 132.779 121.807 133.267 122.062C133.757 122.314 134.14 122.658 134.415 123.096C134.69 123.53 134.828 124.021 134.828 124.567C134.828 124.945 134.756 125.315 134.614 125.676C134.475 126.037 134.231 126.44 133.883 126.884C133.535 127.325 133.051 127.86 132.431 128.49L130.408 130.608V130.683H134.992V132H128.29ZM140.421 132.139C139.738 132.139 139.128 132.022 138.591 131.786C138.057 131.551 137.635 131.224 137.323 130.807C137.015 130.386 136.849 129.899 136.826 129.345H138.387C138.407 129.647 138.508 129.909 138.691 130.131C138.876 130.349 139.118 130.518 139.416 130.638C139.715 130.757 140.046 130.817 140.411 130.817C140.812 130.817 141.166 130.747 141.475 130.608C141.786 130.469 142.03 130.275 142.205 130.026C142.381 129.774 142.469 129.484 142.469 129.156C142.469 128.815 142.381 128.515 142.205 128.256C142.033 127.995 141.78 127.789 141.445 127.64C141.113 127.491 140.712 127.416 140.242 127.416H139.382V126.163H140.242C140.619 126.163 140.951 126.095 141.236 125.96C141.524 125.824 141.75 125.635 141.912 125.393C142.075 125.147 142.156 124.861 142.156 124.533C142.156 124.218 142.084 123.944 141.942 123.712C141.803 123.477 141.604 123.293 141.345 123.161C141.09 123.028 140.789 122.962 140.441 122.962C140.109 122.962 139.799 123.023 139.511 123.146C139.226 123.265 138.994 123.437 138.815 123.663C138.636 123.885 138.54 124.152 138.526 124.463H137.04C137.057 123.913 137.219 123.429 137.527 123.011C137.839 122.594 138.25 122.267 138.76 122.032C139.271 121.797 139.837 121.679 140.46 121.679C141.113 121.679 141.677 121.807 142.151 122.062C142.628 122.314 142.996 122.65 143.254 123.071C143.516 123.492 143.646 123.953 143.642 124.453C143.646 125.023 143.486 125.507 143.165 125.905C142.847 126.303 142.423 126.569 141.892 126.705V126.785C142.568 126.888 143.092 127.156 143.463 127.59C143.838 128.024 144.023 128.563 144.02 129.206C144.023 129.766 143.868 130.268 143.553 130.712C143.241 131.156 142.815 131.506 142.275 131.761C141.735 132.013 141.117 132.139 140.421 132.139ZM149.34 132.139C148.627 132.139 147.997 132.017 147.45 131.771C146.907 131.526 146.481 131.188 146.173 130.757C145.865 130.326 145.712 129.836 145.715 129.286C145.712 128.855 145.8 128.459 145.979 128.097C146.161 127.733 146.408 127.429 146.72 127.188C147.031 126.942 147.379 126.786 147.764 126.72V126.661C147.257 126.538 146.851 126.266 146.546 125.845C146.241 125.424 146.09 124.94 146.093 124.393C146.09 123.873 146.227 123.409 146.506 123.001C146.788 122.59 147.174 122.267 147.664 122.032C148.155 121.797 148.713 121.679 149.34 121.679C149.959 121.679 150.513 121.798 151 122.037C151.491 122.272 151.877 122.595 152.159 123.006C152.44 123.414 152.583 123.876 152.586 124.393C152.583 124.94 152.427 125.424 152.119 125.845C151.811 126.266 151.41 126.538 150.916 126.661V126.72C151.297 126.786 151.64 126.942 151.945 127.188C152.253 127.429 152.498 127.733 152.681 128.097C152.866 128.459 152.961 128.855 152.964 129.286C152.961 129.836 152.805 130.326 152.497 130.757C152.188 131.188 151.761 131.526 151.214 131.771C150.67 132.017 150.046 132.139 149.34 132.139ZM149.34 130.881C149.761 130.881 150.125 130.812 150.433 130.673C150.742 130.53 150.98 130.333 151.149 130.081C151.318 129.826 151.405 129.527 151.408 129.186C151.405 128.831 151.312 128.518 151.129 128.246C150.95 127.975 150.707 127.761 150.399 127.605C150.09 127.449 149.737 127.371 149.34 127.371C148.939 127.371 148.582 127.449 148.271 127.605C147.959 127.761 147.714 127.975 147.535 128.246C147.356 128.518 147.268 128.831 147.271 129.186C147.268 129.527 147.349 129.826 147.515 130.081C147.684 130.333 147.924 130.53 148.236 130.673C148.548 130.812 148.915 130.881 149.34 130.881ZM149.34 126.143C149.678 126.143 149.978 126.076 150.24 125.94C150.501 125.804 150.707 125.615 150.856 125.373C151.008 125.131 151.086 124.848 151.09 124.523C151.086 124.205 151.01 123.926 150.861 123.688C150.715 123.449 150.511 123.265 150.249 123.136C149.988 123.003 149.684 122.937 149.34 122.937C148.988 122.937 148.68 123.003 148.415 123.136C148.153 123.265 147.949 123.449 147.803 123.688C147.658 123.926 147.586 124.205 147.59 124.523C147.586 124.848 147.659 125.131 147.808 125.373C147.958 125.615 148.163 125.804 148.425 125.94C148.69 126.076 148.995 126.143 149.34 126.143ZM158.29 132.139C157.607 132.139 156.997 132.022 156.46 131.786C155.927 131.551 155.504 131.224 155.192 130.807C154.884 130.386 154.719 129.899 154.695 129.345H156.256C156.276 129.647 156.377 129.909 156.56 130.131C156.745 130.349 156.987 130.518 157.286 130.638C157.584 130.757 157.915 130.817 158.28 130.817C158.681 130.817 159.036 130.747 159.344 130.608C159.655 130.469 159.899 130.275 160.075 130.026C160.25 129.774 160.338 129.484 160.338 129.156C160.338 128.815 160.25 128.515 160.075 128.256C159.902 127.995 159.649 127.789 159.314 127.64C158.982 127.491 158.581 127.416 158.111 127.416H157.251V126.163H158.111C158.489 126.163 158.82 126.095 159.105 125.96C159.393 125.824 159.619 125.635 159.781 125.393C159.944 125.147 160.025 124.861 160.025 124.533C160.025 124.218 159.954 123.944 159.811 123.712C159.672 123.477 159.473 123.293 159.214 123.161C158.959 123.028 158.658 122.962 158.31 122.962C157.978 122.962 157.668 123.023 157.38 123.146C157.095 123.265 156.863 123.437 156.684 123.663C156.505 123.885 156.409 124.152 156.396 124.463H154.909C154.926 123.913 155.088 123.429 155.396 123.011C155.708 122.594 156.119 122.267 156.629 122.032C157.14 121.797 157.706 121.679 158.33 121.679C158.982 121.679 159.546 121.807 160.02 122.062C160.497 122.314 160.865 122.65 161.124 123.071C161.385 123.492 161.515 123.953 161.511 124.453C161.515 125.023 161.356 125.507 161.034 125.905C160.716 126.303 160.292 126.569 159.761 126.705V126.785C160.438 126.888 160.961 127.156 161.332 127.59C161.707 128.024 161.893 128.563 161.889 129.206C161.893 129.766 161.737 130.268 161.422 130.712C161.11 131.156 160.684 131.506 160.144 131.761C159.604 132.013 158.986 132.139 158.29 132.139ZM164.112 132L168.556 123.21V123.136H163.415V121.818H170.147V123.18L165.717 132H164.112ZM175.111 132.139C174.399 132.139 173.769 132.017 173.222 131.771C172.678 131.526 172.252 131.188 171.944 130.757C171.636 130.326 171.484 129.836 171.487 129.286C171.484 128.855 171.571 128.459 171.75 128.097C171.933 127.733 172.18 127.429 172.491 127.188C172.803 126.942 173.151 126.786 173.535 126.72V126.661C173.028 126.538 172.622 126.266 172.317 125.845C172.012 125.424 171.861 124.94 171.865 124.393C171.861 123.873 171.999 123.409 172.277 123.001C172.559 122.59 172.945 122.267 173.436 122.032C173.926 121.797 174.485 121.679 175.111 121.679C175.731 121.679 176.284 121.798 176.772 122.037C177.262 122.272 177.648 122.595 177.93 123.006C178.212 123.414 178.354 123.876 178.358 124.393C178.354 124.94 178.199 125.424 177.89 125.845C177.582 126.266 177.181 126.538 176.687 126.661V126.72C177.068 126.786 177.411 126.942 177.716 127.188C178.025 127.429 178.27 127.733 178.452 128.097C178.638 128.459 178.732 128.855 178.735 129.286C178.732 129.836 178.576 130.326 178.268 130.757C177.96 131.188 177.532 131.526 176.985 131.771C176.442 132.017 175.817 132.139 175.111 132.139ZM175.111 130.881C175.532 130.881 175.897 130.812 176.205 130.673C176.513 130.53 176.752 130.333 176.921 130.081C177.09 129.826 177.176 129.527 177.179 129.186C177.176 128.831 177.083 128.518 176.901 128.246C176.722 127.975 176.478 127.761 176.17 127.605C175.862 127.449 175.509 127.371 175.111 127.371C174.71 127.371 174.354 127.449 174.042 127.605C173.731 127.761 173.485 127.975 173.306 128.246C173.127 128.518 173.04 128.831 173.043 129.186C173.04 129.527 173.121 129.826 173.287 130.081C173.456 130.333 173.696 130.53 174.007 130.673C174.319 130.812 174.687 130.881 175.111 130.881ZM175.111 126.143C175.449 126.143 175.749 126.076 176.011 125.94C176.273 125.804 176.478 125.615 176.627 125.373C176.78 125.131 176.858 124.848 176.861 124.523C176.858 124.205 176.782 123.926 176.632 123.688C176.487 123.449 176.283 123.265 176.021 123.136C175.759 123.003 175.456 122.937 175.111 122.937C174.76 122.937 174.452 123.003 174.186 123.136C173.925 123.265 173.721 123.449 173.575 123.688C173.429 123.926 173.358 124.205 173.361 124.523C173.358 124.848 173.431 125.131 173.58 125.373C173.729 125.615 173.935 125.804 174.196 125.94C174.462 126.076 174.766 126.143 175.111 126.143ZM180.303 130.011V128.768L184.703 121.818H185.682V123.648H185.061L181.914 128.629V128.709H187.944V130.011H180.303ZM185.13 132V129.634L185.14 129.067V121.818H186.597V132H185.13ZM193.062 121.679C193.516 121.682 193.964 121.765 194.405 121.928C194.845 122.09 195.243 122.355 195.598 122.723C195.956 123.091 196.241 123.588 196.453 124.214C196.668 124.838 196.778 125.613 196.781 126.541C196.781 127.433 196.692 128.227 196.513 128.923C196.334 129.615 196.077 130.2 195.742 130.678C195.411 131.155 195.008 131.518 194.534 131.766C194.06 132.015 193.526 132.139 192.933 132.139C192.327 132.139 191.788 132.02 191.317 131.781C190.847 131.543 190.464 131.213 190.169 130.792C189.874 130.368 189.69 129.88 189.617 129.33H191.133C191.233 129.768 191.435 130.122 191.74 130.394C192.048 130.663 192.446 130.797 192.933 130.797C193.679 130.797 194.26 130.472 194.678 129.822C195.096 129.17 195.306 128.258 195.309 127.088H195.23C195.058 127.373 194.842 127.618 194.584 127.824C194.328 128.029 194.042 128.188 193.724 128.301C193.405 128.414 193.066 128.47 192.704 128.47C192.118 128.47 191.584 128.326 191.104 128.038C190.623 127.749 190.24 127.353 189.955 126.849C189.67 126.346 189.528 125.771 189.528 125.124C189.528 124.481 189.673 123.898 189.965 123.374C190.26 122.851 190.671 122.436 191.198 122.131C191.728 121.823 192.35 121.672 193.062 121.679ZM193.067 122.972C192.68 122.972 192.33 123.068 192.018 123.26C191.71 123.449 191.466 123.706 191.287 124.031C191.108 124.352 191.019 124.71 191.019 125.104C191.019 125.499 191.105 125.857 191.278 126.178C191.453 126.496 191.692 126.75 191.993 126.939C192.298 127.125 192.646 127.217 193.037 127.217C193.329 127.217 193.601 127.161 193.853 127.048C194.105 126.936 194.325 126.78 194.514 126.581C194.703 126.379 194.85 126.15 194.956 125.895C195.063 125.64 195.116 125.371 195.116 125.089C195.116 124.715 195.026 124.367 194.847 124.045C194.671 123.724 194.43 123.465 194.121 123.27C193.813 123.071 193.462 122.972 193.067 122.972Z" fill="#263238"/>
<path d="M23.8182 155H20.8608V146.273H23.8778C24.7443 146.273 25.4886 146.447 26.1108 146.797C26.7358 147.143 27.2159 147.642 27.5511 148.293C27.8864 148.943 28.054 149.722 28.054 150.628C28.054 151.537 27.8849 152.318 27.5469 152.972C27.2116 153.625 26.7273 154.126 26.0938 154.476C25.4631 154.825 24.7045 155 23.8182 155ZM22.4418 153.632H23.7415C24.3494 153.632 24.8565 153.521 25.2628 153.3C25.669 153.075 25.9744 152.741 26.179 152.298C26.3835 151.852 26.4858 151.295 26.4858 150.628C26.4858 149.96 26.3835 149.406 26.179 148.966C25.9744 148.523 25.6719 148.192 25.2713 147.973C24.8736 147.751 24.3793 147.641 23.7884 147.641H22.4418V153.632ZM29.4879 155V148.455H31.0305V155H29.4879ZM30.2635 147.526C30.0192 147.526 29.8089 147.445 29.6328 147.283C29.4567 147.118 29.3686 146.92 29.3686 146.69C29.3686 146.457 29.4567 146.26 29.6328 146.098C29.8089 145.933 30.0192 145.851 30.2635 145.851C30.5107 145.851 30.7209 145.933 30.8942 146.098C31.0703 146.26 31.1584 146.457 31.1584 146.69C31.1584 146.92 31.0703 147.118 30.8942 147.283C30.7209 147.445 30.5107 147.526 30.2635 147.526ZM35.4634 157.591C34.9094 157.591 34.4336 157.516 34.0359 157.365C33.6381 157.217 33.3185 157.018 33.0771 156.768C32.8356 156.518 32.668 156.241 32.5742 155.938L33.9634 155.601C34.0259 155.729 34.1168 155.855 34.2362 155.98C34.3555 156.108 34.516 156.213 34.7177 156.295C34.9222 156.381 35.1793 156.423 35.489 156.423C35.9265 156.423 36.2887 156.317 36.5756 156.104C36.8626 155.893 37.006 155.547 37.006 155.064V153.824H36.9293C36.8498 153.983 36.7333 154.146 36.5799 154.314C36.4293 154.482 36.229 154.622 35.979 154.736C35.7319 154.849 35.4208 154.906 35.0458 154.906C34.543 154.906 34.087 154.788 33.6779 154.553C33.2717 154.314 32.9478 153.959 32.7063 153.487C32.4677 153.013 32.3484 152.419 32.3484 151.706C32.3484 150.987 32.4677 150.381 32.7063 149.886C32.9478 149.389 33.2731 149.013 33.6822 148.757C34.0913 148.499 34.5472 148.369 35.0501 148.369C35.4336 148.369 35.7489 148.435 35.9961 148.565C36.2461 148.693 36.445 148.848 36.5927 149.03C36.7404 149.209 36.8526 149.378 36.9293 149.537H37.0146V148.455H38.5359V155.107C38.5359 155.666 38.4023 156.129 38.1353 156.496C37.8683 156.862 37.5032 157.136 37.0401 157.318C36.5771 157.5 36.0515 157.591 35.4634 157.591ZM35.4762 153.696C35.8029 153.696 36.0813 153.616 36.3114 153.457C36.5415 153.298 36.7163 153.07 36.8356 152.771C36.9549 152.473 37.0146 152.115 37.0146 151.697C37.0146 151.286 36.9549 150.925 36.8356 150.615C36.7191 150.305 36.5458 150.065 36.3157 149.895C36.0884 149.722 35.8086 149.635 35.4762 149.635C35.1325 149.635 34.8455 149.724 34.6154 149.903C34.3853 150.082 34.212 150.328 34.0955 150.641C33.979 150.95 33.9208 151.303 33.9208 151.697C33.9208 152.098 33.979 152.449 34.0955 152.75C34.2148 153.048 34.3896 153.281 34.6197 153.449C34.8526 153.614 35.1381 153.696 35.4762 153.696ZM40.1168 155V148.455H41.6594V155H40.1168ZM40.8924 147.526C40.6481 147.526 40.4379 147.445 40.2617 147.283C40.0856 147.118 39.9975 146.92 39.9975 146.69C39.9975 146.457 40.0856 146.26 40.2617 146.098C40.4379 145.933 40.6481 145.851 40.8924 145.851C41.1396 145.851 41.3498 145.933 41.5231 146.098C41.6992 146.26 41.7873 146.457 41.7873 146.69C41.7873 146.92 41.6992 147.118 41.5231 147.283C41.3498 147.445 41.1396 147.526 40.8924 147.526ZM47.2131 150.73V152H43.2841V150.73H47.2131ZM48.9038 155V146.273H52.2447C52.8754 146.273 53.3995 146.372 53.8171 146.571C54.2376 146.767 54.5515 147.036 54.7589 147.376C54.9691 147.717 55.0742 148.104 55.0742 148.536C55.0742 148.891 55.006 149.195 54.8697 149.447C54.7333 149.697 54.5501 149.901 54.32 150.057C54.0898 150.213 53.8327 150.325 53.5487 150.393V150.479C53.8583 150.496 54.1552 150.591 54.4393 150.764C54.7262 150.935 54.9606 151.176 55.1424 151.489C55.3242 151.801 55.4151 152.179 55.4151 152.622C55.4151 153.074 55.3058 153.48 55.087 153.841C54.8683 154.199 54.5387 154.482 54.0984 154.689C53.658 154.896 53.104 155 52.4364 155H48.9038ZM50.4847 153.679H52.185C52.7589 153.679 53.1722 153.57 53.4251 153.351C53.6808 153.129 53.8086 152.845 53.8086 152.499C53.8086 152.24 53.7447 152.007 53.6168 151.8C53.489 151.589 53.3072 151.425 53.0714 151.305C52.8356 151.183 52.5543 151.122 52.2276 151.122H50.4847V153.679ZM50.4847 149.984H52.0487C52.3214 149.984 52.5671 149.935 52.7859 149.835C53.0046 149.733 53.1765 149.589 53.3015 149.405C53.4293 149.217 53.4933 148.996 53.4933 148.74C53.4933 148.402 53.3739 148.124 53.1353 147.905C52.8995 147.686 52.5487 147.577 52.0827 147.577H50.4847V149.984ZM58.6058 155.132C58.1911 155.132 57.8175 155.058 57.4851 154.911C57.1555 154.76 56.8942 154.538 56.701 154.246C56.5107 153.953 56.4155 153.592 56.4155 153.163C56.4155 152.794 56.4837 152.489 56.62 152.247C56.7564 152.006 56.9425 151.812 57.1783 151.668C57.4141 151.523 57.6797 151.413 57.9751 151.339C58.2734 151.263 58.5817 151.207 58.8999 151.173C59.2834 151.134 59.5945 151.098 59.8331 151.067C60.0717 151.033 60.245 150.982 60.353 150.913C60.4638 150.842 60.5192 150.733 60.5192 150.585V150.56C60.5192 150.239 60.424 149.99 60.2337 149.814C60.0433 149.638 59.7692 149.55 59.4112 149.55C59.0334 149.55 58.7337 149.632 58.5121 149.797C58.2933 149.962 58.1456 150.156 58.0689 150.381L56.6286 150.176C56.7422 149.778 56.9297 149.446 57.1911 149.179C57.4524 148.909 57.772 148.707 58.1499 148.574C58.5277 148.438 58.9453 148.369 59.4027 148.369C59.718 148.369 60.032 148.406 60.3445 148.48C60.657 148.554 60.9425 148.676 61.201 148.847C61.4595 149.014 61.6669 149.243 61.8232 149.533C61.9822 149.822 62.0618 150.185 62.0618 150.619V155H60.5788V154.101H60.5277C60.4339 154.283 60.3018 154.453 60.1314 154.612C59.9638 154.768 59.7521 154.895 59.4964 154.991C59.2436 155.085 58.9467 155.132 58.6058 155.132ZM59.0064 153.999C59.3161 153.999 59.5845 153.937 59.8118 153.815C60.0391 153.69 60.2138 153.526 60.3359 153.321C60.4609 153.116 60.5234 152.893 60.5234 152.652V151.881C60.4751 151.92 60.3928 151.957 60.2763 151.991C60.1626 152.026 60.0348 152.055 59.8928 152.081C59.7507 152.107 59.6101 152.129 59.4709 152.149C59.3317 152.169 59.2109 152.186 59.1087 152.2C58.8786 152.232 58.6726 152.283 58.4908 152.354C58.3089 152.425 58.1655 152.524 58.0604 152.652C57.9553 152.777 57.9027 152.939 57.9027 153.138C57.9027 153.422 58.0064 153.636 58.2138 153.781C58.4212 153.926 58.6854 153.999 59.0064 153.999ZM65.1555 151.165V155H63.6129V148.455H65.0874V149.567H65.1641C65.3146 149.2 65.5547 148.909 65.8842 148.693C66.2166 148.477 66.6271 148.369 67.1158 148.369C67.5675 148.369 67.9609 148.466 68.2962 148.659C68.6342 148.852 68.8956 149.132 69.0803 149.499C69.2678 149.865 69.3601 150.31 69.3572 150.832V155H67.8146V151.071C67.8146 150.634 67.701 150.291 67.4737 150.044C67.2493 149.797 66.9382 149.673 66.5405 149.673C66.2706 149.673 66.0305 149.733 65.8203 149.852C65.6129 149.969 65.4496 150.138 65.3303 150.359C65.2138 150.581 65.1555 150.849 65.1555 151.165ZM72.3317 152.946L72.3274 151.084H72.5746L74.9268 148.455H76.7294L73.8359 151.676H73.5163L72.3317 152.946ZM70.9254 155V146.273H72.468V155H70.9254ZM75.0334 155L72.9027 152.021L73.9425 150.935L76.8786 155H75.0334ZM85.5451 148.672C85.5053 148.3 85.3377 148.01 85.0423 147.803C84.7496 147.595 84.369 147.491 83.9002 147.491C83.5707 147.491 83.288 147.541 83.0522 147.641C82.8164 147.74 82.636 147.875 82.511 148.045C82.386 148.216 82.3221 148.411 82.3192 148.629C82.3192 148.811 82.3604 148.969 82.4428 149.102C82.5281 149.236 82.6431 149.349 82.788 149.443C82.9329 149.534 83.0934 149.611 83.2695 149.673C83.4457 149.736 83.6232 149.788 83.8022 149.831L84.6204 150.036C84.9499 150.112 85.2667 150.216 85.5707 150.347C85.8775 150.477 86.1516 150.642 86.3931 150.841C86.6374 151.04 86.8306 151.28 86.9727 151.561C87.1147 151.842 87.1857 152.172 87.1857 152.55C87.1857 153.061 87.055 153.511 86.7937 153.901C86.5323 154.287 86.1545 154.589 85.6602 154.808C85.1687 155.024 84.5735 155.132 83.8746 155.132C83.1957 155.132 82.6062 155.027 82.1062 154.817C81.609 154.607 81.2198 154.3 80.9386 153.896C80.6602 153.493 80.5096 153.001 80.4869 152.422H82.0423C82.065 152.726 82.1587 152.979 82.3235 153.18C82.4883 153.382 82.7028 153.533 82.967 153.632C83.234 153.732 83.5323 153.781 83.8619 153.781C84.2056 153.781 84.5067 153.73 84.7653 153.628C85.0266 153.523 85.2312 153.378 85.3789 153.193C85.5266 153.006 85.6019 152.787 85.6048 152.537C85.6019 152.31 85.5352 152.122 85.4045 151.974C85.2738 151.824 85.0906 151.699 84.8548 151.599C84.6218 151.497 84.3491 151.406 84.0366 151.327L83.0437 151.071C82.3249 150.886 81.7567 150.607 81.3391 150.232C80.9244 149.854 80.717 149.352 80.717 148.727C80.717 148.213 80.8562 147.763 81.1346 147.376C81.4158 146.99 81.7979 146.69 82.2809 146.477C82.7638 146.261 83.3107 146.153 83.9215 146.153C84.5408 146.153 85.0835 146.261 85.5494 146.477C86.0181 146.69 86.386 146.987 86.6531 147.368C86.9201 147.746 87.0579 148.18 87.0664 148.672H85.5451ZM90.4105 155.132C89.9957 155.132 89.6222 155.058 89.2898 154.911C88.9602 154.76 88.6989 154.538 88.5057 154.246C88.3153 153.953 88.2202 153.592 88.2202 153.163C88.2202 152.794 88.2884 152.489 88.4247 152.247C88.5611 152.006 88.7472 151.812 88.983 151.668C89.2188 151.523 89.4844 151.413 89.7798 151.339C90.0781 151.263 90.3864 151.207 90.7045 151.173C91.0881 151.134 91.3991 151.098 91.6378 151.067C91.8764 151.033 92.0497 150.982 92.1577 150.913C92.2685 150.842 92.3239 150.733 92.3239 150.585V150.56C92.3239 150.239 92.2287 149.99 92.0384 149.814C91.848 149.638 91.5739 149.55 91.2159 149.55C90.8381 149.55 90.5384 149.632 90.3168 149.797C90.098 149.962 89.9503 150.156 89.8736 150.381L88.4332 150.176C88.5469 149.778 88.7344 149.446 88.9957 149.179C89.2571 148.909 89.5767 148.707 89.9545 148.574C90.3324 148.438 90.75 148.369 91.2074 148.369C91.5227 148.369 91.8366 148.406 92.1491 148.48C92.4616 148.554 92.7472 148.676 93.0057 148.847C93.2642 149.014 93.4716 149.243 93.6278 149.533C93.7869 149.822 93.8665 150.185 93.8665 150.619V155H92.3835V154.101H92.3324C92.2386 154.283 92.1065 154.453 91.9361 154.612C91.7685 154.768 91.5568 154.895 91.3011 154.991C91.0483 155.085 90.7514 155.132 90.4105 155.132ZM90.8111 153.999C91.1207 153.999 91.3892 153.937 91.6165 153.815C91.8438 153.69 92.0185 153.526 92.1406 153.321C92.2656 153.116 92.3281 152.893 92.3281 152.652V151.881C92.2798 151.92 92.1974 151.957 92.081 151.991C91.9673 152.026 91.8395 152.055 91.6974 152.081C91.5554 152.107 91.4148 152.129 91.2756 152.149C91.1364 152.169 91.0156 152.186 90.9134 152.2C90.6832 152.232 90.4773 152.283 90.2955 152.354C90.1136 152.425 89.9702 152.524 89.8651 152.652C89.7599 152.777 89.7074 152.939 89.7074 153.138C89.7074 153.422 89.8111 153.636 90.0185 153.781C90.2259 153.926 90.4901 153.999 90.8111 153.999ZM101.03 148.455L98.6989 155H96.9943L94.6634 148.455H96.3082L97.8125 153.317H97.8807L99.3892 148.455H101.03ZM102.097 155V148.455H103.64V155H102.097ZM102.873 147.526C102.629 147.526 102.418 147.445 102.242 147.283C102.066 147.118 101.978 146.92 101.978 146.69C101.978 146.457 102.066 146.26 102.242 146.098C102.418 145.933 102.629 145.851 102.873 145.851C103.12 145.851 103.33 145.933 103.504 146.098C103.68 146.26 103.768 146.457 103.768 146.69C103.768 146.92 103.68 147.118 103.504 147.283C103.33 147.445 103.12 147.526 102.873 147.526ZM106.769 151.165V155H105.226V148.455H106.701V149.567H106.777C106.928 149.2 107.168 148.909 107.498 148.693C107.83 148.477 108.24 148.369 108.729 148.369C109.181 148.369 109.574 148.466 109.909 148.659C110.248 148.852 110.509 149.132 110.694 149.499C110.881 149.865 110.973 150.31 110.971 150.832V155H109.428V151.071C109.428 150.634 109.314 150.291 109.087 150.044C108.863 149.797 108.551 149.673 108.154 149.673C107.884 149.673 107.644 149.733 107.434 149.852C107.226 149.969 107.063 150.138 106.944 150.359C106.827 150.581 106.769 150.849 106.769 151.165ZM115.385 157.591C114.831 157.591 114.355 157.516 113.958 157.365C113.56 157.217 113.24 157.018 112.999 156.768C112.757 156.518 112.59 156.241 112.496 155.938L113.885 155.601C113.948 155.729 114.039 155.855 114.158 155.98C114.277 156.108 114.438 156.213 114.64 156.295C114.844 156.381 115.101 156.423 115.411 156.423C115.848 156.423 116.211 156.317 116.498 156.104C116.784 155.893 116.928 155.547 116.928 155.064V153.824H116.851C116.772 153.983 116.655 154.146 116.502 154.314C116.351 154.482 116.151 154.622 115.901 154.736C115.654 154.849 115.343 154.906 114.968 154.906C114.465 154.906 114.009 154.788 113.6 154.553C113.194 154.314 112.87 153.959 112.628 153.487C112.39 153.013 112.27 152.419 112.27 151.706C112.27 150.987 112.39 150.381 112.628 149.886C112.87 149.389 113.195 149.013 113.604 148.757C114.013 148.499 114.469 148.369 114.972 148.369C115.355 148.369 115.671 148.435 115.918 148.565C116.168 148.693 116.367 148.848 116.515 149.03C116.662 149.209 116.775 149.378 116.851 149.537H116.936V148.455H118.458V155.107C118.458 155.666 118.324 156.129 118.057 156.496C117.79 156.862 117.425 157.136 116.962 157.318C116.499 157.5 115.973 157.591 115.385 157.591ZM115.398 153.696C115.725 153.696 116.003 153.616 116.233 153.457C116.463 153.298 116.638 153.07 116.757 152.771C116.877 152.473 116.936 152.115 116.936 151.697C116.936 151.286 116.877 150.925 116.757 150.615C116.641 150.305 116.468 150.065 116.238 149.895C116.01 149.722 115.73 149.635 115.398 149.635C115.054 149.635 114.767 149.724 114.537 149.903C114.307 150.082 114.134 150.328 114.017 150.641C113.901 150.95 113.843 151.303 113.843 151.697C113.843 152.098 113.901 152.449 114.017 152.75C114.137 153.048 114.311 153.281 114.542 153.449C114.775 153.614 115.06 153.696 115.398 153.696ZM125.212 150.185L123.806 150.338C123.766 150.196 123.696 150.062 123.597 149.938C123.5 149.812 123.37 149.712 123.205 149.635C123.04 149.558 122.838 149.52 122.6 149.52C122.279 149.52 122.009 149.589 121.79 149.729C121.574 149.868 121.468 150.048 121.471 150.27C121.468 150.46 121.537 150.615 121.679 150.734C121.824 150.854 122.063 150.952 122.395 151.028L123.512 151.267C124.131 151.401 124.591 151.612 124.892 151.902C125.196 152.192 125.35 152.571 125.353 153.04C125.35 153.452 125.229 153.815 124.99 154.131C124.755 154.443 124.426 154.687 124.006 154.864C123.586 155.04 123.103 155.128 122.557 155.128C121.756 155.128 121.111 154.96 120.623 154.625C120.134 154.287 119.843 153.817 119.749 153.214L121.253 153.07C121.321 153.365 121.466 153.588 121.688 153.739C121.909 153.889 122.198 153.964 122.553 153.964C122.919 153.964 123.213 153.889 123.435 153.739C123.659 153.588 123.772 153.402 123.772 153.18C123.772 152.993 123.699 152.838 123.554 152.716C123.412 152.594 123.191 152.5 122.89 152.435L121.773 152.2C121.145 152.07 120.681 151.849 120.38 151.54C120.078 151.227 119.929 150.832 119.932 150.355C119.929 149.952 120.039 149.602 120.26 149.307C120.485 149.009 120.796 148.778 121.194 148.616C121.594 148.452 122.056 148.369 122.578 148.369C123.346 148.369 123.949 148.533 124.39 148.859C124.833 149.186 125.107 149.628 125.212 150.185ZM129.669 155V146.273H135.26V147.598H131.25V149.967H134.877V151.293H131.25V155H129.669ZM139.007 155.128C138.368 155.128 137.814 154.987 137.345 154.706C136.876 154.425 136.513 154.031 136.254 153.526C135.999 153.02 135.871 152.429 135.871 151.753C135.871 151.077 135.999 150.484 136.254 149.976C136.513 149.467 136.876 149.072 137.345 148.791C137.814 148.51 138.368 148.369 139.007 148.369C139.646 148.369 140.2 148.51 140.669 148.791C141.138 149.072 141.5 149.467 141.756 149.976C142.014 150.484 142.143 151.077 142.143 151.753C142.143 152.429 142.014 153.02 141.756 153.526C141.5 154.031 141.138 154.425 140.669 154.706C140.2 154.987 139.646 155.128 139.007 155.128ZM139.016 153.892C139.362 153.892 139.652 153.797 139.885 153.607C140.118 153.413 140.291 153.155 140.405 152.831C140.521 152.507 140.58 152.146 140.58 151.749C140.58 151.348 140.521 150.986 140.405 150.662C140.291 150.335 140.118 150.075 139.885 149.882C139.652 149.689 139.362 149.592 139.016 149.592C138.661 149.592 138.365 149.689 138.129 149.882C137.896 150.075 137.722 150.335 137.605 150.662C137.491 150.986 137.435 151.348 137.435 151.749C137.435 152.146 137.491 152.507 137.605 152.831C137.722 153.155 137.896 153.413 138.129 153.607C138.365 153.797 138.661 153.892 139.016 153.892ZM143.453 155V148.455H144.949V149.545H145.017C145.136 149.168 145.341 148.876 145.63 148.672C145.923 148.464 146.257 148.361 146.632 148.361C146.717 148.361 146.812 148.365 146.917 148.374C147.025 148.379 147.115 148.389 147.186 148.403V149.822C147.12 149.8 147.017 149.78 146.875 149.763C146.735 149.743 146.6 149.733 146.47 149.733C146.189 149.733 145.936 149.794 145.711 149.916C145.49 150.036 145.315 150.202 145.187 150.415C145.059 150.628 144.995 150.874 144.995 151.152V155H143.453ZM150.839 155.128C150.183 155.128 149.616 154.991 149.138 154.719C148.664 154.443 148.299 154.054 148.043 153.551C147.788 153.045 147.66 152.45 147.66 151.766C147.66 151.092 147.788 150.501 148.043 149.993C148.302 149.482 148.663 149.084 149.126 148.8C149.589 148.513 150.133 148.369 150.758 148.369C151.161 148.369 151.542 148.435 151.9 148.565C152.261 148.693 152.579 148.892 152.854 149.162C153.133 149.432 153.352 149.776 153.511 150.193C153.67 150.608 153.749 151.102 153.749 151.676V152.149H148.384V151.109H152.271C152.268 150.814 152.204 150.551 152.079 150.321C151.954 150.088 151.779 149.905 151.555 149.771C151.333 149.638 151.075 149.571 150.779 149.571C150.464 149.571 150.187 149.648 149.948 149.801C149.71 149.952 149.523 150.151 149.39 150.398C149.259 150.642 149.192 150.911 149.19 151.203V152.111C149.19 152.491 149.259 152.818 149.398 153.091C149.538 153.361 149.732 153.568 149.982 153.713C150.232 153.855 150.525 153.926 150.86 153.926C151.085 153.926 151.288 153.895 151.469 153.832C151.651 153.767 151.809 153.672 151.942 153.547C152.076 153.422 152.177 153.267 152.245 153.082L153.685 153.244C153.594 153.625 153.421 153.957 153.165 154.241C152.913 154.523 152.589 154.741 152.194 154.898C151.799 155.051 151.347 155.128 150.839 155.128ZM155.054 155V148.455H156.597V155H155.054ZM155.83 147.526C155.586 147.526 155.375 147.445 155.199 147.283C155.023 147.118 154.935 146.92 154.935 146.69C154.935 146.457 155.023 146.26 155.199 146.098C155.375 145.933 155.586 145.851 155.83 145.851C156.077 145.851 156.287 145.933 156.461 146.098C156.637 146.26 156.725 146.457 156.725 146.69C156.725 146.92 156.637 147.118 156.461 147.283C156.287 147.445 156.077 147.526 155.83 147.526ZM161.03 157.591C160.476 157.591 160 157.516 159.602 157.365C159.205 157.217 158.885 157.018 158.643 156.768C158.402 156.518 158.234 156.241 158.141 155.938L159.53 155.601C159.592 155.729 159.683 155.855 159.803 155.98C159.922 156.108 160.082 156.213 160.284 156.295C160.489 156.381 160.746 156.423 161.055 156.423C161.493 156.423 161.855 156.317 162.142 156.104C162.429 155.893 162.572 155.547 162.572 155.064V153.824H162.496C162.416 153.983 162.3 154.146 162.146 154.314C161.996 154.482 161.795 154.622 161.545 154.736C161.298 154.849 160.987 154.906 160.612 154.906C160.109 154.906 159.653 154.788 159.244 154.553C158.838 154.314 158.514 153.959 158.273 153.487C158.034 153.013 157.915 152.419 157.915 151.706C157.915 150.987 158.034 150.381 158.273 149.886C158.514 149.389 158.839 149.013 159.249 148.757C159.658 148.499 160.114 148.369 160.616 148.369C161 148.369 161.315 148.435 161.562 148.565C161.812 148.693 162.011 148.848 162.159 149.03C162.307 149.209 162.419 149.378 162.496 149.537H162.581V148.455H164.102V155.107C164.102 155.666 163.969 156.129 163.702 156.496C163.435 156.862 163.07 157.136 162.607 157.318C162.143 157.5 161.618 157.591 161.03 157.591ZM161.043 153.696C161.369 153.696 161.648 153.616 161.878 153.457C162.108 153.298 162.283 153.07 162.402 152.771C162.521 152.473 162.581 152.115 162.581 151.697C162.581 151.286 162.521 150.925 162.402 150.615C162.286 150.305 162.112 150.065 161.882 149.895C161.655 149.722 161.375 149.635 161.043 149.635C160.699 149.635 160.412 149.724 160.182 149.903C159.952 150.082 159.778 150.328 159.662 150.641C159.545 150.95 159.487 151.303 159.487 151.697C159.487 152.098 159.545 152.449 159.662 152.75C159.781 153.048 159.956 153.281 160.186 153.449C160.419 153.614 160.705 153.696 161.043 153.696ZM167.226 151.165V155H165.683V148.455H167.158V149.567H167.234C167.385 149.2 167.625 148.909 167.955 148.693C168.287 148.477 168.697 148.369 169.186 148.369C169.638 148.369 170.031 148.466 170.366 148.659C170.705 148.852 170.966 149.132 171.151 149.499C171.338 149.865 171.43 150.31 171.428 150.832V155H169.885V151.071C169.885 150.634 169.771 150.291 169.544 150.044C169.32 149.797 169.009 149.673 168.611 149.673C168.341 149.673 168.101 149.733 167.891 149.852C167.683 149.969 167.52 150.138 167.401 150.359C167.284 150.581 167.226 150.849 167.226 151.165ZM177.161 155H175.474L178.546 146.273H180.498L183.575 155H181.887L179.556 148.062H179.488L177.161 155ZM177.217 151.578H181.819V152.848H177.217V151.578ZM187.312 155.128C186.658 155.128 186.097 154.984 185.629 154.697C185.163 154.411 184.803 154.014 184.55 153.509C184.3 153 184.175 152.415 184.175 151.753C184.175 151.088 184.303 150.501 184.559 149.993C184.815 149.482 185.175 149.084 185.641 148.8C186.11 148.513 186.664 148.369 187.303 148.369C187.835 148.369 188.305 148.467 188.714 148.663C189.126 148.857 189.454 149.131 189.698 149.486C189.942 149.838 190.082 150.25 190.116 150.722H188.641C188.582 150.406 188.44 150.143 188.215 149.933C187.994 149.72 187.697 149.614 187.325 149.614C187.009 149.614 186.732 149.699 186.494 149.869C186.255 150.037 186.069 150.278 185.935 150.594C185.805 150.909 185.739 151.287 185.739 151.727C185.739 152.173 185.805 152.557 185.935 152.878C186.066 153.196 186.249 153.442 186.485 153.615C186.724 153.786 187.004 153.871 187.325 153.871C187.552 153.871 187.755 153.828 187.934 153.743C188.116 153.655 188.268 153.528 188.39 153.364C188.512 153.199 188.596 152.999 188.641 152.763H190.116C190.079 153.226 189.942 153.636 189.707 153.994C189.471 154.349 189.15 154.628 188.744 154.83C188.337 155.028 187.86 155.128 187.312 155.128ZM194.238 155.128C193.584 155.128 193.023 154.984 192.554 154.697C192.088 154.411 191.729 154.014 191.476 153.509C191.226 153 191.101 152.415 191.101 151.753C191.101 151.088 191.229 150.501 191.485 149.993C191.74 149.482 192.101 149.084 192.567 148.8C193.036 148.513 193.59 148.369 194.229 148.369C194.76 148.369 195.23 148.467 195.64 148.663C196.051 148.857 196.38 149.131 196.624 149.486C196.868 149.838 197.007 150.25 197.042 150.722H195.567C195.507 150.406 195.365 150.143 195.141 149.933C194.919 149.72 194.623 149.614 194.25 149.614C193.935 149.614 193.658 149.699 193.419 149.869C193.181 150.037 192.995 150.278 192.861 150.594C192.73 150.909 192.665 151.287 192.665 151.727C192.665 152.173 192.73 152.557 192.861 152.878C192.992 153.196 193.175 153.442 193.411 153.615C193.65 153.786 193.929 153.871 194.25 153.871C194.478 153.871 194.681 153.828 194.86 153.743C195.042 153.655 195.194 153.528 195.316 153.364C195.438 153.199 195.522 152.999 195.567 152.763H197.042C197.005 153.226 196.868 153.636 196.632 153.994C196.397 154.349 196.076 154.628 195.669 154.83C195.263 155.028 194.786 155.128 194.238 155.128ZM201.163 155.128C200.524 155.128 199.97 154.987 199.501 154.706C199.033 154.425 198.669 154.031 198.411 153.526C198.155 153.02 198.027 152.429 198.027 151.753C198.027 151.077 198.155 150.484 198.411 149.976C198.669 149.467 199.033 149.072 199.501 148.791C199.97 148.51 200.524 148.369 201.163 148.369C201.803 148.369 202.357 148.51 202.825 148.791C203.294 149.072 203.656 149.467 203.912 149.976C204.17 150.484 204.3 151.077 204.3 151.753C204.3 152.429 204.17 153.02 203.912 153.526C203.656 154.031 203.294 154.425 202.825 154.706C202.357 154.987 201.803 155.128 201.163 155.128ZM201.172 153.892C201.518 153.892 201.808 153.797 202.041 153.607C202.274 153.413 202.447 153.155 202.561 152.831C202.678 152.507 202.736 152.146 202.736 151.749C202.736 151.348 202.678 150.986 202.561 150.662C202.447 150.335 202.274 150.075 202.041 149.882C201.808 149.689 201.518 149.592 201.172 149.592C200.817 149.592 200.521 149.689 200.286 149.882C200.053 150.075 199.878 150.335 199.761 150.662C199.648 150.986 199.591 151.348 199.591 151.749C199.591 152.146 199.648 152.507 199.761 152.831C199.878 153.155 200.053 153.413 200.286 153.607C200.521 153.797 200.817 153.892 201.172 153.892ZM209.781 152.247V148.455H211.324V155H209.828V153.837H209.76C209.612 154.203 209.369 154.503 209.031 154.736C208.696 154.969 208.282 155.085 207.791 155.085C207.362 155.085 206.983 154.99 206.653 154.8C206.326 154.607 206.071 154.327 205.886 153.96C205.701 153.591 205.609 153.145 205.609 152.622V148.455H207.152V152.384C207.152 152.798 207.265 153.128 207.493 153.372C207.72 153.616 208.018 153.739 208.387 153.739C208.615 153.739 208.835 153.683 209.048 153.572C209.261 153.462 209.436 153.297 209.572 153.078C209.711 152.857 209.781 152.58 209.781 152.247ZM214.452 151.165V155H212.91V148.455H214.384V149.567H214.461C214.612 149.2 214.852 148.909 215.181 148.693C215.513 148.477 215.924 148.369 216.413 148.369C216.864 148.369 217.258 148.466 217.593 148.659C217.931 148.852 218.192 149.132 218.377 149.499C218.565 149.865 218.657 150.31 218.654 150.832V155H217.112V151.071C217.112 150.634 216.998 150.291 216.771 150.044C216.546 149.797 216.235 149.673 215.837 149.673C215.567 149.673 215.327 149.733 215.117 149.852C214.91 149.969 214.746 150.138 214.627 150.359C214.511 150.581 214.452 150.849 214.452 151.165ZM223.491 148.455V149.648H219.728V148.455H223.491ZM220.657 146.886H222.2V153.031C222.2 153.239 222.231 153.398 222.293 153.509C222.359 153.616 222.444 153.69 222.549 153.73C222.654 153.77 222.771 153.79 222.898 153.79C222.995 153.79 223.083 153.783 223.163 153.768C223.245 153.754 223.308 153.741 223.35 153.73L223.61 154.936C223.528 154.964 223.41 154.996 223.256 155.03C223.106 155.064 222.921 155.084 222.702 155.089C222.316 155.101 221.968 155.043 221.658 154.915C221.349 154.784 221.103 154.582 220.921 154.31C220.742 154.037 220.654 153.696 220.657 153.287V146.886ZM229.86 150.185L228.454 150.338C228.414 150.196 228.345 150.062 228.245 149.938C228.149 149.812 228.018 149.712 227.853 149.635C227.689 149.558 227.487 149.52 227.248 149.52C226.927 149.52 226.657 149.589 226.439 149.729C226.223 149.868 226.116 150.048 226.119 150.27C226.116 150.46 226.186 150.615 226.328 150.734C226.473 150.854 226.711 150.952 227.044 151.028L228.16 151.267C228.779 151.401 229.24 151.612 229.541 151.902C229.845 152.192 229.998 152.571 230.001 153.04C229.998 153.452 229.877 153.815 229.639 154.131C229.403 154.443 229.075 154.687 228.654 154.864C228.234 155.04 227.751 155.128 227.206 155.128C226.404 155.128 225.76 154.96 225.271 154.625C224.782 154.287 224.491 153.817 224.397 153.214L225.902 153.07C225.97 153.365 226.115 153.588 226.336 153.739C226.558 153.889 226.846 153.964 227.201 153.964C227.568 153.964 227.862 153.889 228.083 153.739C228.308 153.588 228.42 153.402 228.42 153.18C228.42 152.993 228.348 152.838 228.203 152.716C228.061 152.594 227.839 152.5 227.538 152.435L226.422 152.2C225.794 152.07 225.329 151.849 225.028 151.54C224.727 151.227 224.578 150.832 224.581 150.355C224.578 149.952 224.687 149.602 224.909 149.307C225.133 149.009 225.444 148.778 225.842 148.616C226.243 148.452 226.704 148.369 227.227 148.369C227.994 148.369 228.598 148.533 229.038 148.859C229.481 149.186 229.755 149.628 229.86 150.185Z" fill="white"/>
<path d="M28.3722 68.5455V43.0909H30.0028V68.5455H28.3722ZM33.0753 51.2344C32.9825 50.366 32.5914 49.6899 31.902 49.206C31.2192 48.7221 30.331 48.4801 29.2372 48.4801C28.4683 48.4801 27.8087 48.5961 27.2585 48.8281C26.7083 49.0601 26.2874 49.375 25.9957 49.7727C25.7041 50.1705 25.5549 50.6245 25.5483 51.1349C25.5483 51.5592 25.6444 51.9271 25.8366 52.2386C26.0355 52.5502 26.304 52.8153 26.642 53.0341C26.9801 53.2462 27.3546 53.4252 27.7656 53.571C28.1766 53.7169 28.5909 53.8395 29.0085 53.9389L30.9176 54.4162C31.6866 54.5952 32.4257 54.8371 33.1349 55.142C33.8509 55.447 34.4905 55.8314 35.054 56.2955C35.6241 56.7595 36.0748 57.3196 36.4062 57.9759C36.7377 58.6321 36.9034 59.401 36.9034 60.2827C36.9034 61.4759 36.5985 62.5265 35.9886 63.4347C35.3788 64.3362 34.4972 65.0421 33.3438 65.5526C32.197 66.0563 30.8082 66.3082 29.1776 66.3082C27.5933 66.3082 26.2178 66.063 25.0511 65.5724C23.8911 65.0819 22.983 64.366 22.3267 63.4247C21.6771 62.4834 21.3258 61.3366 21.2727 59.9844H24.902C24.955 60.6937 25.1738 61.2836 25.5582 61.7543C25.9427 62.2249 26.4432 62.5762 27.0597 62.8082C27.6828 63.0402 28.3788 63.1562 29.1477 63.1562C29.9498 63.1562 30.6525 63.0369 31.2557 62.7983C31.8655 62.553 32.3428 62.215 32.6875 61.7841C33.0322 61.3466 33.2079 60.8362 33.2145 60.2528C33.2079 59.7225 33.0521 59.285 32.7472 58.9403C32.4422 58.589 32.0147 58.2973 31.4645 58.0653C30.9209 57.8267 30.2846 57.6146 29.5554 57.429L27.2386 56.8324C25.5616 56.4015 24.2358 55.7486 23.2614 54.8736C22.2936 53.992 21.8097 52.822 21.8097 51.3636C21.8097 50.1638 22.1345 49.1132 22.7841 48.2116C23.4403 47.3101 24.3319 46.6108 25.4588 46.1136C26.5857 45.6098 27.8617 45.358 29.2869 45.358C30.732 45.358 31.9981 45.6098 33.0852 46.1136C34.179 46.6108 35.0374 47.3035 35.6605 48.1918C36.2836 49.0734 36.6051 50.0876 36.625 51.2344H33.0753ZM48.2759 45.6364V66H44.587V49.2259H44.4677L39.7049 52.2685V48.8878L44.766 45.6364H48.2759ZM60.9734 66.3878C59.3361 66.3878 57.9308 65.9735 56.7575 65.1449C55.5908 64.3097 54.6926 63.1065 54.0629 61.5355C53.4397 59.9579 53.1282 58.0587 53.1282 55.8381C53.1348 53.6174 53.4497 51.7282 54.0728 50.1705C54.7025 48.6061 55.6007 47.4129 56.7674 46.5909C57.9407 45.7689 59.3427 45.358 60.9734 45.358C62.604 45.358 64.006 45.7689 65.1793 46.5909C66.3526 47.4129 67.2508 48.6061 67.8739 50.1705C68.5037 51.7348 68.8185 53.6241 68.8185 55.8381C68.8185 58.0653 68.5037 59.9678 67.8739 61.5455C67.2508 63.1165 66.3526 64.3163 65.1793 65.1449C64.0127 65.9735 62.6107 66.3878 60.9734 66.3878ZM60.9734 63.2756C62.2461 63.2756 63.2504 62.6491 63.9862 61.3963C64.7286 60.1368 65.0998 58.2841 65.0998 55.8381C65.0998 54.2206 64.9308 52.8617 64.5927 51.7614C64.2546 50.661 63.7773 49.8324 63.1609 49.2756C62.5444 48.7121 61.8152 48.4304 60.9734 48.4304C59.7073 48.4304 58.7063 49.0601 57.9705 50.3196C57.2347 51.5724 56.8635 53.4119 56.8569 55.8381C56.8503 57.4621 57.0127 58.8277 57.3441 59.9347C57.6822 61.0417 58.1594 61.8769 58.7759 62.4403C59.3924 62.9972 60.1249 63.2756 60.9734 63.2756ZM79.6491 66.3878C78.0118 66.3878 76.6065 65.9735 75.4332 65.1449C74.2666 64.3097 73.3684 63.1065 72.7386 61.5355C72.1155 59.9579 71.804 58.0587 71.804 55.8381C71.8106 53.6174 72.1255 51.7282 72.7486 50.1705C73.3783 48.6061 74.2765 47.4129 75.4432 46.5909C76.6165 45.7689 78.0185 45.358 79.6491 45.358C81.2798 45.358 82.6818 45.7689 83.8551 46.5909C85.0284 47.4129 85.9266 48.6061 86.5497 50.1705C87.1795 51.7348 87.4943 53.6241 87.4943 55.8381C87.4943 58.0653 87.1795 59.9678 86.5497 61.5455C85.9266 63.1165 85.0284 64.3163 83.8551 65.1449C82.6884 65.9735 81.2865 66.3878 79.6491 66.3878ZM79.6491 63.2756C80.9219 63.2756 81.9261 62.6491 82.6619 61.3963C83.4044 60.1368 83.7756 58.2841 83.7756 55.8381C83.7756 54.2206 83.6065 52.8617 83.2685 51.7614C82.9304 50.661 82.4531 49.8324 81.8366 49.2756C81.2202 48.7121 80.491 48.4304 79.6491 48.4304C78.383 48.4304 77.3821 49.0601 76.6463 50.3196C75.9105 51.5724 75.5393 53.4119 75.5327 55.8381C75.526 57.4621 75.6884 58.8277 76.0199 59.9347C76.358 61.0417 76.8352 61.8769 77.4517 62.4403C78.0682 62.9972 78.8007 63.2756 79.6491 63.2756ZM94.2706 63.2159L94.1413 64.3097C94.0485 65.1449 93.8828 65.9934 93.6442 66.8551C93.4122 67.7235 93.1669 68.5223 92.9084 69.2514C92.6499 69.9806 92.4411 70.554 92.282 70.9716H89.8558C89.9486 70.5672 90.0746 70.017 90.2337 69.321C90.3994 68.625 90.5585 67.8428 90.7109 66.9744C90.8634 66.1061 90.9661 65.2244 91.0192 64.3295L91.0888 63.2159H94.2706ZM104.997 66.3878C103.359 66.3878 101.954 65.9735 100.781 65.1449C99.6142 64.3097 98.716 63.1065 98.0863 61.5355C97.4632 59.9579 97.1516 58.0587 97.1516 55.8381C97.1583 53.6174 97.4731 51.7282 98.0962 50.1705C98.726 48.6061 99.6242 47.4129 100.791 46.5909C101.964 45.7689 103.366 45.358 104.997 45.358C106.627 45.358 108.029 45.7689 109.203 46.5909C110.376 47.4129 111.274 48.6061 111.897 50.1705C112.527 51.7348 112.842 53.6241 112.842 55.8381C112.842 58.0653 112.527 59.9678 111.897 61.5455C111.274 63.1165 110.376 64.3163 109.203 65.1449C108.036 65.9735 106.634 66.3878 104.997 66.3878ZM104.997 63.2756C106.27 63.2756 107.274 62.6491 108.01 61.3963C108.752 60.1368 109.123 58.2841 109.123 55.8381C109.123 54.2206 108.954 52.8617 108.616 51.7614C108.278 50.661 107.801 49.8324 107.184 49.2756C106.568 48.7121 105.839 48.4304 104.997 48.4304C103.731 48.4304 102.73 49.0601 101.994 50.3196C101.258 51.5724 100.887 53.4119 100.88 55.8381C100.874 57.4621 101.036 58.8277 101.368 59.9347C101.706 61.0417 102.183 61.8769 102.799 62.4403C103.416 62.9972 104.148 63.2756 104.997 63.2756ZM123.673 66.3878C122.035 66.3878 120.63 65.9735 119.457 65.1449C118.29 64.3097 117.392 63.1065 116.762 61.5355C116.139 59.9579 115.827 58.0587 115.827 55.8381C115.834 53.6174 116.149 51.7282 116.772 50.1705C117.402 48.6061 118.3 47.4129 119.467 46.5909C120.64 45.7689 122.042 45.358 123.673 45.358C125.303 45.358 126.705 45.7689 127.879 46.5909C129.052 47.4129 129.95 48.6061 130.573 50.1705C131.203 51.7348 131.518 53.6241 131.518 55.8381C131.518 58.0653 131.203 59.9678 130.573 61.5455C129.95 63.1165 129.052 64.3163 127.879 65.1449C126.712 65.9735 125.31 66.3878 123.673 66.3878ZM123.673 63.2756C124.945 63.2756 125.95 62.6491 126.685 61.3963C127.428 60.1368 127.799 58.2841 127.799 55.8381C127.799 54.2206 127.63 52.8617 127.292 51.7614C126.954 50.661 126.477 49.8324 125.86 49.2756C125.244 48.7121 124.514 48.4304 123.673 48.4304C122.406 48.4304 121.406 49.0601 120.67 50.3196C119.934 51.5724 119.563 53.4119 119.556 55.8381C119.549 57.4621 119.712 58.8277 120.043 59.9347C120.381 61.0417 120.859 61.8769 121.475 62.4403C122.092 62.9972 122.824 63.2756 123.673 63.2756ZM142.348 66.3878C140.711 66.3878 139.306 65.9735 138.132 65.1449C136.966 64.3097 136.068 63.1065 135.438 61.5355C134.815 59.9579 134.503 58.0587 134.503 55.8381C134.51 53.6174 134.825 51.7282 135.448 50.1705C136.078 48.6061 136.976 47.4129 138.142 46.5909C139.316 45.7689 140.718 45.358 142.348 45.358C143.979 45.358 145.381 45.7689 146.554 46.5909C147.728 47.4129 148.626 48.6061 149.249 50.1705C149.879 51.7348 150.194 53.6241 150.194 55.8381C150.194 58.0653 149.879 59.9678 149.249 61.5455C148.626 63.1165 147.728 64.3163 146.554 65.1449C145.388 65.9735 143.986 66.3878 142.348 66.3878ZM142.348 63.2756C143.621 63.2756 144.625 62.6491 145.361 61.3963C146.104 60.1368 146.475 58.2841 146.475 55.8381C146.475 54.2206 146.306 52.8617 145.968 51.7614C145.63 50.661 145.152 49.8324 144.536 49.2756C143.919 48.7121 143.19 48.4304 142.348 48.4304C141.082 48.4304 140.081 49.0601 139.346 50.3196C138.61 51.5724 138.239 53.4119 138.232 55.8381C138.225 57.4621 138.388 58.8277 138.719 59.9347C139.057 61.0417 139.534 61.8769 140.151 62.4403C140.767 62.9972 141.5 63.2756 142.348 63.2756ZM154.961 66.2188C154.358 66.2188 153.841 66.0066 153.41 65.5824C152.979 65.1581 152.767 64.6411 152.774 64.0312C152.767 63.4347 152.979 62.9242 153.41 62.5C153.841 62.0758 154.358 61.8636 154.961 61.8636C155.545 61.8636 156.052 62.0758 156.483 62.5C156.92 62.9242 157.142 63.4347 157.149 64.0312C157.142 64.4356 157.036 64.8035 156.831 65.1349C156.632 65.4664 156.367 65.7315 156.035 65.9304C155.71 66.1226 155.352 66.2188 154.961 66.2188ZM167.559 66.3878C165.922 66.3878 164.517 65.9735 163.343 65.1449C162.177 64.3097 161.279 63.1065 160.649 61.5355C160.026 59.9579 159.714 58.0587 159.714 55.8381C159.721 53.6174 160.036 51.7282 160.659 50.1705C161.288 48.6061 162.187 47.4129 163.353 46.5909C164.527 45.7689 165.929 45.358 167.559 45.358C169.19 45.358 170.592 45.7689 171.765 46.5909C172.939 47.4129 173.837 48.6061 174.46 50.1705C175.09 51.7348 175.404 53.6241 175.404 55.8381C175.404 58.0653 175.09 59.9678 174.46 61.5455C173.837 63.1165 172.939 64.3163 171.765 65.1449C170.599 65.9735 169.197 66.3878 167.559 66.3878ZM167.559 63.2756C168.832 63.2756 169.836 62.6491 170.572 61.3963C171.315 60.1368 171.686 58.2841 171.686 55.8381C171.686 54.2206 171.517 52.8617 171.179 51.7614C170.841 50.661 170.363 49.8324 169.747 49.2756C169.13 48.7121 168.401 48.4304 167.559 48.4304C166.293 48.4304 165.292 49.0601 164.556 50.3196C163.821 51.5724 163.449 53.4119 163.443 55.8381C163.436 57.4621 163.599 58.8277 163.93 59.9347C164.268 61.0417 164.745 61.8769 165.362 62.4403C165.978 62.9972 166.711 63.2756 167.559 63.2756ZM186.235 66.3878C184.598 66.3878 183.192 65.9735 182.019 65.1449C180.853 64.3097 179.954 63.1065 179.325 61.5355C178.701 59.9579 178.39 58.0587 178.39 55.8381C178.397 53.6174 178.711 51.7282 179.335 50.1705C179.964 48.6061 180.862 47.4129 182.029 46.5909C183.202 45.7689 184.604 45.358 186.235 45.358C187.866 45.358 189.268 45.7689 190.441 46.5909C191.614 47.4129 192.513 48.6061 193.136 50.1705C193.765 51.7348 194.08 53.6241 194.08 55.8381C194.08 58.0653 193.765 59.9678 193.136 61.5455C192.513 63.1165 191.614 64.3163 190.441 65.1449C189.274 65.9735 187.872 66.3878 186.235 66.3878ZM186.235 63.2756C187.508 63.2756 188.512 62.6491 189.248 61.3963C189.99 60.1368 190.362 58.2841 190.362 55.8381C190.362 54.2206 190.192 52.8617 189.854 51.7614C189.516 50.661 189.039 49.8324 188.423 49.2756C187.806 48.7121 187.077 48.4304 186.235 48.4304C184.969 48.4304 183.968 49.0601 183.232 50.3196C182.496 51.5724 182.125 53.4119 182.119 55.8381C182.112 57.4621 182.274 58.8277 182.606 59.9347C182.944 61.0417 183.421 61.8769 184.038 62.4403C184.654 62.9972 185.387 63.2756 186.235 63.2756Z" fill="white"/>
<path d="M20.5795 24.2102V23.2727H27.125V24.2102H24.3807V32H23.3239V24.2102H20.5795ZM30.3295 32.1364C29.7386 32.1364 29.2202 31.9957 28.7741 31.7145C28.331 31.4332 27.9844 31.0398 27.7344 30.5341C27.4872 30.0284 27.3636 29.4375 27.3636 28.7614C27.3636 28.0795 27.4872 27.4844 27.7344 26.9759C27.9844 26.4673 28.331 26.0724 28.7741 25.7912C29.2202 25.5099 29.7386 25.3693 30.3295 25.3693C30.9205 25.3693 31.4375 25.5099 31.8807 25.7912C32.3267 26.0724 32.6733 26.4673 32.9205 26.9759C33.1705 27.4844 33.2955 28.0795 33.2955 28.7614C33.2955 29.4375 33.1705 30.0284 32.9205 30.5341C32.6733 31.0398 32.3267 31.4332 31.8807 31.7145C31.4375 31.9957 30.9205 32.1364 30.3295 32.1364ZM30.3295 31.233C30.7784 31.233 31.1477 31.1179 31.4375 30.8878C31.7273 30.6577 31.9418 30.3551 32.081 29.9801C32.2202 29.6051 32.2898 29.1989 32.2898 28.7614C32.2898 28.3239 32.2202 27.9162 32.081 27.5384C31.9418 27.1605 31.7273 26.8551 31.4375 26.6222C31.1477 26.3892 30.7784 26.2727 30.3295 26.2727C29.8807 26.2727 29.5114 26.3892 29.2216 26.6222C28.9318 26.8551 28.7173 27.1605 28.5781 27.5384C28.4389 27.9162 28.3693 28.3239 28.3693 28.7614C28.3693 29.1989 28.4389 29.6051 28.5781 29.9801C28.7173 30.3551 28.9318 30.6577 29.2216 30.8878C29.5114 31.1179 29.8807 31.233 30.3295 31.233ZM37.6772 25.4545V26.3068H34.2852V25.4545H37.6772ZM35.2738 23.8864H36.2795V30.125C36.2795 30.4091 36.3207 30.6222 36.4031 30.7642C36.4883 30.9034 36.5962 30.9972 36.7269 31.0455C36.8604 31.0909 37.0011 31.1136 37.1488 31.1136C37.2596 31.1136 37.3505 31.108 37.4215 31.0966C37.4925 31.0824 37.5494 31.071 37.592 31.0625L37.7965 31.9659C37.7283 31.9915 37.6332 32.017 37.511 32.0426C37.3888 32.071 37.234 32.0852 37.0465 32.0852C36.7624 32.0852 36.484 32.0241 36.2113 31.902C35.9414 31.7798 35.717 31.5938 35.538 31.3438C35.3619 31.0938 35.2738 30.7784 35.2738 30.3977V23.8864ZM41.1161 32.1534C40.7013 32.1534 40.3249 32.0753 39.9869 31.919C39.6488 31.7599 39.3803 31.5312 39.1815 31.233C38.9826 30.9318 38.8832 30.5682 38.8832 30.142C38.8832 29.767 38.957 29.4631 39.1048 29.2301C39.2525 28.9943 39.4499 28.8097 39.6971 28.6761C39.9442 28.5426 40.217 28.4432 40.5153 28.3778C40.8164 28.3097 41.119 28.2557 41.4229 28.2159C41.8207 28.1648 42.1431 28.1264 42.3903 28.1009C42.6403 28.0724 42.8221 28.0256 42.9357 27.9602C43.0522 27.8949 43.1104 27.7812 43.1104 27.6193V27.5852C43.1104 27.1648 42.9954 26.8381 42.7653 26.6051C42.538 26.3722 42.1928 26.2557 41.7298 26.2557C41.2496 26.2557 40.8732 26.3608 40.6005 26.571C40.3278 26.7812 40.136 27.0057 40.0252 27.2443L39.0707 26.9034C39.2411 26.5057 39.4684 26.196 39.7525 25.9744C40.0394 25.75 40.3519 25.5937 40.69 25.5057C41.0309 25.4148 41.3661 25.3693 41.6957 25.3693C41.9059 25.3693 42.1474 25.3949 42.4201 25.446C42.6957 25.4943 42.9613 25.5952 43.217 25.7486C43.4755 25.902 43.69 26.1335 43.8604 26.4432C44.0309 26.7528 44.1161 27.1676 44.1161 27.6875V32H43.1104V31.1136H43.0593C42.9911 31.2557 42.8775 31.4077 42.7184 31.5696C42.5593 31.7315 42.3477 31.8693 42.0835 31.983C41.8192 32.0966 41.4968 32.1534 41.1161 32.1534ZM41.2695 31.25C41.6673 31.25 42.0025 31.1719 42.2752 31.0156C42.5508 30.8594 42.7582 30.6577 42.8974 30.4105C43.0394 30.1634 43.1104 29.9034 43.1104 29.6307V28.7102C43.0678 28.7614 42.9741 28.8082 42.8292 28.8509C42.6871 28.8906 42.5224 28.9261 42.3349 28.9574C42.1502 28.9858 41.9698 29.0114 41.7937 29.0341C41.6204 29.054 41.4798 29.071 41.3718 29.0852C41.1104 29.1193 40.8661 29.1747 40.6388 29.2514C40.4144 29.3253 40.2326 29.4375 40.0934 29.5881C39.957 29.7358 39.8888 29.9375 39.8888 30.1932C39.8888 30.5426 40.0181 30.8068 40.2766 30.9858C40.538 31.1619 40.869 31.25 41.2695 31.25ZM46.9574 23.2727V32H45.9517V23.2727H46.9574ZM52.3107 32V23.2727H55.3619C55.9698 23.2727 56.4712 23.3778 56.8661 23.5881C57.261 23.7955 57.555 24.0753 57.7482 24.4276C57.9414 24.777 58.038 25.1648 58.038 25.5909C58.038 25.9659 57.9712 26.2756 57.8377 26.5199C57.707 26.7642 57.5337 26.9574 57.3178 27.0994C57.1048 27.2415 56.8732 27.3466 56.6232 27.4148V27.5C56.8903 27.517 57.1587 27.6108 57.4286 27.7812C57.6985 27.9517 57.9244 28.196 58.1062 28.5142C58.288 28.8324 58.3789 29.2216 58.3789 29.6818C58.3789 30.1193 58.2795 30.5128 58.0806 30.8622C57.8817 31.2116 57.5678 31.4886 57.1388 31.6932C56.7099 31.8977 56.1516 32 55.4641 32H52.3107ZM53.3675 31.0625H55.4641C56.1545 31.0625 56.6445 30.929 56.9343 30.6619C57.2269 30.392 57.3732 30.0653 57.3732 29.6818C57.3732 29.3864 57.2979 29.1136 57.1474 28.8636C56.9968 28.6108 56.7823 28.4091 56.5039 28.2585C56.2255 28.1051 55.896 28.0284 55.5153 28.0284H53.3675V31.0625ZM53.3675 27.108H55.3278C55.646 27.108 55.9329 27.0455 56.1886 26.9205C56.4471 26.7955 56.6516 26.6193 56.8022 26.392C56.9556 26.1648 57.0323 25.8977 57.0323 25.5909C57.0323 25.2074 56.8988 24.8821 56.6317 24.6151C56.3647 24.3452 55.9414 24.2102 55.3619 24.2102H53.3675V27.108ZM61.9052 32.1534C61.4904 32.1534 61.114 32.0753 60.7759 31.919C60.4379 31.7599 60.1694 31.5312 59.9705 31.233C59.7717 30.9318 59.6722 30.5682 59.6722 30.142C59.6722 29.767 59.7461 29.4631 59.8938 29.2301C60.0415 28.9943 60.239 28.8097 60.4862 28.6761C60.7333 28.5426 61.006 28.4432 61.3043 28.3778C61.6055 28.3097 61.908 28.2557 62.212 28.2159C62.6097 28.1648 62.9322 28.1264 63.1793 28.1009C63.4293 28.0724 63.6112 28.0256 63.7248 27.9602C63.8413 27.8949 63.8995 27.7812 63.8995 27.6193V27.5852C63.8995 27.1648 63.7844 26.8381 63.5543 26.6051C63.3271 26.3722 62.9819 26.2557 62.5188 26.2557C62.0387 26.2557 61.6623 26.3608 61.3896 26.571C61.1168 26.7812 60.9251 27.0057 60.8143 27.2443L59.8597 26.9034C60.0302 26.5057 60.2575 26.196 60.5415 25.9744C60.8285 25.75 61.141 25.5937 61.479 25.5057C61.82 25.4148 62.1552 25.3693 62.4847 25.3693C62.695 25.3693 62.9364 25.3949 63.2092 25.446C63.4847 25.4943 63.7504 25.5952 64.006 25.7486C64.2646 25.902 64.479 26.1335 64.6495 26.4432C64.82 26.7528 64.9052 27.1676 64.9052 27.6875V32H63.8995V31.1136H63.8484C63.7802 31.2557 63.6665 31.4077 63.5075 31.5696C63.3484 31.7315 63.1367 31.8693 62.8725 31.983C62.6083 32.0966 62.2859 32.1534 61.9052 32.1534ZM62.0586 31.25C62.4563 31.25 62.7915 31.1719 63.0643 31.0156C63.3398 30.8594 63.5472 30.6577 63.6864 30.4105C63.8285 30.1634 63.8995 29.9034 63.8995 29.6307V28.7102C63.8569 28.7614 63.7631 28.8082 63.6183 28.8509C63.4762 28.8906 63.3114 28.9261 63.1239 28.9574C62.9393 28.9858 62.7589 29.0114 62.5827 29.0341C62.4094 29.054 62.2688 29.071 62.1609 29.0852C61.8995 29.1193 61.6552 29.1747 61.4279 29.2514C61.2035 29.3253 61.0217 29.4375 60.8825 29.5881C60.7461 29.7358 60.6779 29.9375 60.6779 30.1932C60.6779 30.5426 60.8072 30.8068 61.0657 30.9858C61.3271 31.1619 61.658 31.25 62.0586 31.25ZM67.7464 23.2727V32H66.7408V23.2727H67.7464ZM71.5146 32.1534C71.0998 32.1534 70.7234 32.0753 70.3853 31.919C70.0472 31.7599 69.7788 31.5312 69.5799 31.233C69.381 30.9318 69.2816 30.5682 69.2816 30.142C69.2816 29.767 69.3555 29.4631 69.5032 29.2301C69.6509 28.9943 69.8484 28.8097 70.0955 28.6761C70.3427 28.5426 70.6154 28.4432 70.9137 28.3778C71.2148 28.3097 71.5174 28.2557 71.8214 28.2159C72.2191 28.1648 72.5415 28.1264 72.7887 28.1009C73.0387 28.0724 73.2205 28.0256 73.3342 27.9602C73.4506 27.8949 73.5089 27.7812 73.5089 27.6193V27.5852C73.5089 27.1648 73.3938 26.8381 73.1637 26.6051C72.9364 26.3722 72.5913 26.2557 72.1282 26.2557C71.6481 26.2557 71.2717 26.3608 70.9989 26.571C70.7262 26.7812 70.5344 27.0057 70.4237 27.2443L69.4691 26.9034C69.6396 26.5057 69.8668 26.196 70.1509 25.9744C70.4379 25.75 70.7504 25.5937 71.0884 25.5057C71.4293 25.4148 71.7646 25.3693 72.0941 25.3693C72.3043 25.3693 72.5458 25.3949 72.8185 25.446C73.0941 25.4943 73.3597 25.5952 73.6154 25.7486C73.8739 25.902 74.0884 26.1335 74.2589 26.4432C74.4293 26.7528 74.5146 27.1676 74.5146 27.6875V32H73.5089V31.1136H73.4577C73.3896 31.2557 73.2759 31.4077 73.1168 31.5696C72.9577 31.7315 72.7461 31.8693 72.4819 31.983C72.2177 32.0966 71.8952 32.1534 71.5146 32.1534ZM71.668 31.25C72.0657 31.25 72.4009 31.1719 72.6737 31.0156C72.9492 30.8594 73.1566 30.6577 73.2958 30.4105C73.4379 30.1634 73.5089 29.9034 73.5089 29.6307V28.7102C73.4663 28.7614 73.3725 28.8082 73.2276 28.8509C73.0856 28.8906 72.9208 28.9261 72.7333 28.9574C72.5487 28.9858 72.3683 29.0114 72.1921 29.0341C72.0188 29.054 71.8782 29.071 71.7702 29.0852C71.5089 29.1193 71.2646 29.1747 71.0373 29.2514C70.8129 29.3253 70.631 29.4375 70.4918 29.5881C70.3555 29.7358 70.2873 29.9375 70.2873 30.1932C70.2873 30.5426 70.4165 30.8068 70.6751 30.9858C70.9364 31.1619 71.2674 31.25 71.668 31.25ZM77.3558 28.0625V32H76.3501V25.4545H77.3217V26.4773H77.407C77.5604 26.1449 77.7933 25.8778 78.1058 25.6761C78.4183 25.4716 78.8217 25.3693 79.3161 25.3693C79.7592 25.3693 80.147 25.4602 80.4794 25.642C80.8118 25.821 81.0703 26.0938 81.255 26.4602C81.4396 26.8239 81.532 27.2841 81.532 27.8409V32H80.5263V27.9091C80.5263 27.3949 80.3928 26.9943 80.1257 26.7074C79.8587 26.4176 79.4922 26.2727 79.0263 26.2727C78.7053 26.2727 78.4183 26.3423 78.1655 26.4815C77.9155 26.6207 77.718 26.8239 77.5732 27.0909C77.4283 27.358 77.3558 27.6818 77.3558 28.0625ZM86.0288 32.1364C85.4151 32.1364 84.8867 31.9915 84.4435 31.7017C84.0004 31.4119 83.6594 31.0128 83.4208 30.5043C83.1822 29.9957 83.0629 29.4148 83.0629 28.7614C83.0629 28.0966 83.185 27.5099 83.4293 27.0014C83.6765 26.4901 84.0202 26.0909 84.4606 25.804C84.9038 25.5142 85.4208 25.3693 86.0117 25.3693C86.4719 25.3693 86.8867 25.4545 87.256 25.625C87.6254 25.7955 87.9279 26.0341 88.1637 26.3409C88.3995 26.6477 88.5458 27.0057 88.6026 27.4148H87.5969C87.5202 27.1165 87.3498 26.8523 87.0856 26.6222C86.8242 26.3892 86.4719 26.2727 86.0288 26.2727C85.6367 26.2727 85.293 26.375 84.9975 26.5795C84.7049 26.7812 84.4762 27.0668 84.3114 27.4361C84.1495 27.8026 84.0685 28.233 84.0685 28.7273C84.0685 29.233 84.1481 29.6733 84.3072 30.0483C84.4691 30.4233 84.6964 30.7145 84.989 30.9219C85.2844 31.1293 85.631 31.233 86.0288 31.233C86.2901 31.233 86.5273 31.1875 86.7404 31.0966C86.9535 31.0057 87.1339 30.875 87.2816 30.7045C87.4293 30.5341 87.5344 30.3295 87.5969 30.0909H88.6026C88.5458 30.4773 88.4052 30.8253 88.1808 31.1349C87.9592 31.4418 87.6651 31.6861 87.2987 31.8679C86.935 32.0469 86.5117 32.1364 86.0288 32.1364ZM92.8171 32.1364C92.1864 32.1364 91.6424 31.9972 91.185 31.7188C90.7305 31.4375 90.3796 31.0455 90.1325 30.5426C89.8881 30.0369 89.766 29.4489 89.766 28.7784C89.766 28.108 89.8881 27.517 90.1325 27.0057C90.3796 26.4915 90.7234 26.0909 91.1637 25.804C91.6069 25.5142 92.1239 25.3693 92.7148 25.3693C93.0558 25.3693 93.3924 25.4261 93.7248 25.5398C94.0572 25.6534 94.3597 25.8381 94.6325 26.0938C94.9052 26.3466 95.1225 26.6818 95.2844 27.0994C95.4464 27.517 95.5273 28.0312 95.5273 28.642V29.0682H90.4819V28.1989H94.5046C94.5046 27.8295 94.4308 27.5 94.283 27.2102C94.1381 26.9205 93.9308 26.6918 93.6609 26.5241C93.3938 26.3565 93.0785 26.2727 92.7148 26.2727C92.3143 26.2727 91.9677 26.3722 91.6751 26.571C91.3853 26.767 91.1623 27.0227 91.006 27.3381C90.8498 27.6534 90.7717 27.9915 90.7717 28.3523V28.9318C90.7717 29.4261 90.8569 29.8452 91.0273 30.1889C91.2006 30.5298 91.4407 30.7898 91.7475 30.9688C92.0543 31.1449 92.4109 31.233 92.8171 31.233C93.0813 31.233 93.32 31.196 93.533 31.1222C93.7489 31.0455 93.935 30.9318 94.0913 30.7812C94.2475 30.6278 94.3683 30.4375 94.4535 30.2102L95.4251 30.483C95.3228 30.8125 95.1509 31.1023 94.9094 31.3523C94.668 31.5994 94.3697 31.7926 94.0146 31.9318C93.6594 32.0682 93.2603 32.1364 92.8171 32.1364ZM101.165 32.0682C100.955 32.0682 100.775 31.9929 100.624 31.8423C100.473 31.6918 100.398 31.5114 100.398 31.3011C100.398 31.0909 100.473 30.9105 100.624 30.7599C100.775 30.6094 100.955 30.5341 101.165 30.5341C101.375 30.5341 101.556 30.6094 101.706 30.7599C101.857 30.9105 101.932 31.0909 101.932 31.3011C101.932 31.4403 101.897 31.5682 101.826 31.6847C101.757 31.8011 101.665 31.8949 101.549 31.9659C101.435 32.0341 101.307 32.0682 101.165 32.0682ZM101.165 27.2102C100.955 27.2102 100.775 27.1349 100.624 26.9844C100.473 26.8338 100.398 26.6534 100.398 26.4432C100.398 26.233 100.473 26.0526 100.624 25.902C100.775 25.7514 100.955 25.6761 101.165 25.6761C101.375 25.6761 101.556 25.7514 101.706 25.902C101.857 26.0526 101.932 26.233 101.932 26.4432C101.932 26.5824 101.897 26.7102 101.826 26.8267C101.757 26.9432 101.665 27.0369 101.549 27.108C101.435 27.1761 101.307 27.2102 101.165 27.2102Z" fill="#263238"/>
<path d="M306.247 22C305.561 22 305 22.5612 305 23.2471C305 23.933 305.561 24.4942 306.247 24.4942C306.933 24.4942 307.494 23.933 307.494 23.2471C307.494 22.5612 306.933 22 306.247 22ZM306.247 30.7297C305.561 30.7297 305 31.2909 305 31.9768C305 32.6627 305.561 33.2239 306.247 33.2239C306.933 33.2239 307.494 32.6627 307.494 31.9768C307.494 31.2909 306.933 30.7297 306.247 30.7297ZM306.247 26.3648C305.561 26.3648 305 26.926 305 27.6119C305 28.2978 305.561 28.859 306.247 28.859C306.933 28.859 307.494 28.2978 307.494 27.6119C307.494 26.926 306.933 26.3648 306.247 26.3648Z" fill="#1D202C"/>
<g clip-path="url(#clip2_1667_2608)">
<path opacity="0.3" d="M212 54.5C209.157 54.5 206.622 56.0975 205.385 58.625C206.622 61.1525 209.157 62.75 212 62.75C214.842 62.75 217.377 61.1525 218.615 58.625C217.377 56.0975 214.842 54.5 212 54.5ZM212 62C210.14 62 208.625 60.485 208.625 58.625C208.625 56.765 210.14 55.25 212 55.25C213.86 55.25 215.375 56.765 215.375 58.625C215.375 60.485 213.86 62 212 62Z" fill="white"/>
<path d="M212 53C208.25 53 205.048 55.3325 203.75 58.625C205.048 61.9175 208.25 64.25 212 64.25C215.75 64.25 218.953 61.9175 220.25 58.625C218.953 55.3325 215.75 53 212 53ZM212 62.75C209.158 62.75 206.622 61.1525 205.385 58.625C206.622 56.0975 209.158 54.5 212 54.5C214.842 54.5 217.377 56.0975 218.615 58.625C217.377 61.1525 214.842 62.75 212 62.75ZM212 55.25C210.14 55.25 208.625 56.765 208.625 58.625C208.625 60.485 210.14 62 212 62C213.86 62 215.375 60.485 215.375 58.625C215.375 56.765 213.86 55.25 212 55.25ZM212 60.5C210.965 60.5 210.125 59.66 210.125 58.625C210.125 57.59 210.965 56.75 212 56.75C213.035 56.75 213.875 57.59 213.875 58.625C213.875 59.66 213.035 60.5 212 60.5Z" fill="white"/>
</g>
<defs>
<linearGradient id="paint0_linear_1667_2608" x1="33.4998" y1="4.50032" x2="147" y2="141" gradientUnits="userSpaceOnUse">
<stop stop-color="#8EEDFF"/>
<stop offset="1" stop-color="#1DBBD8"/>
</linearGradient>
<radialGradient id="paint1_radial_1667_2608" cx="0" cy="0" r="1" gradientUnits="userSpaceOnUse" gradientTransform="translate(31.1189 17.1968) rotate(1.24076) scale(294.315 3180.56)">
<stop stop-color="white" stop-opacity="0.1"/>
<stop offset="1" stop-color="white" stop-opacity="0"/>
</radialGradient>
<radialGradient id="paint2_radial_1667_2608" cx="0" cy="0" r="1" gradientUnits="userSpaceOnUse" gradientTransform="translate(32.788 17.1968) rotate(1.17762) scale(310.094 3180.63)">
<stop stop-color="white" stop-opacity="0.1"/>
<stop offset="1" stop-color="white" stop-opacity="0"/>
</radialGradient>
<clipPath id="clip0_1667_2608">
<rect width="246" height="176" fill="white" transform="translate(82 1)"/>
</clipPath>
<clipPath id="clip1_1667_2608">
<rect width="16" height="16" fill="white" transform="translate(204 118)"/>
</clipPath>
<clipPath id="clip2_1667_2608">
<rect width="18" height="18" fill="white" transform="translate(203 50)"/>
</clipPath>
</defs>
</svg>
