<svg xmlns="http://www.w3.org/2000/svg" width="338" height="251" fill="none" viewBox="0 0 338 251">
  <rect width="338" height="251" fill="#1EBBD7" opacity=".55" rx="20"/>
  <g clip-path="url(#a)">
    <path fill="#EEE" d="M9 219.553h317v-.158H9v.158Zm264.238 10.195h20.999v-.158h-20.999v.158Zm-59.756 1.56h5.511v.159h-5.511v-.159Zm46.954-7.442h12.167v-.158h-12.167v.158Zm-218.177 1.065h27.384v-.159H42.26v.159Zm33.03 0h4.015v-.159h-4.015v.159Zm17.064 2.674h59.39v-.159h-59.39v.159ZM36.842 12.159a3.462 3.462 0 0 0-3.46 3.456v171.917a3.463 3.463 0 0 0 3.46 3.457h122.425a3.462 3.462 0 0 0 3.459-3.457V15.615a3.462 3.462 0 0 0-3.459-3.456H36.842Zm122.425 178.988H36.842a3.62 3.62 0 0 1-3.619-3.615V15.615a3.621 3.621 0 0 1 3.62-3.614h122.424a3.621 3.621 0 0 1 3.618 3.614v171.917a3.62 3.62 0 0 1-3.618 3.615Zm14.707-178.988a3.462 3.462 0 0 0-3.46 3.456v171.917a3.462 3.462 0 0 0 3.46 3.457h122.425a3.462 3.462 0 0 0 3.46-3.457V15.615a3.462 3.462 0 0 0-3.46-3.456H173.974Zm122.425 178.988H173.974a3.62 3.62 0 0 1-3.618-3.615V15.615a3.62 3.62 0 0 1 3.618-3.614h122.425a3.622 3.622 0 0 1 3.619 3.614v171.917a3.621 3.621 0 0 1-3.619 3.615Z"/>
    <path fill="#E3E3E2" d="M243.629 164.742v12.383l5.235 3.802H224.42l7.809-2.892v-12.429l11.4-.864Z"/>
    <path fill="#E3E3E2" d="M175.947 183.098h96.54v12.75h-96.54v-12.75Zm-1.966-2.527v39.007H294.23v-39.007H173.981Z"/>
    <path fill="#EEE" d="M175.947 183.098h96.54v12.75h-96.54v-12.75Zm-1.966-2.527v39.007h101.134v-39.007H173.981Z"/>
    <path fill="#E3E3E2" d="M175.945 195.847h17.603V183.1h-17.603v12.747Zm71.053 0h25.489v-6.373h-25.489v6.373Zm-18 0h16.394v-3.785h-16.394v3.785Zm-23.12.001h19.331v-7.744h-19.331v7.744Zm47.418 2.776.468 1.522h6.269l.467-1.522h11.987v16.923h-31.178v-16.923h11.987Zm-32.641 0 .468 1.522h6.268l.468-1.522h11.987v16.923h-31.178v-16.923h11.987Zm-32.641 0 .468 1.522h6.269l.468-1.522h11.987v16.923h-31.179v-16.923h11.987Zm4.051-26.484h82.861a2.237 2.237 0 0 0 2.238-2.236v-48.248a2.238 2.238 0 0 0-2.238-2.236h-82.861a2.238 2.238 0 0 0-2.238 2.236v48.248a2.237 2.237 0 0 0 2.238 2.236Z"/>
    <path fill="#E9E9E8" d="M190.013 172.14h82.86a2.237 2.237 0 0 0 2.238-2.236v-48.248a2.238 2.238 0 0 0-2.238-2.236h-82.86a2.238 2.238 0 0 0-2.239 2.236v48.248a2.237 2.237 0 0 0 2.239 2.236Z"/>
    <path fill="#F4F4F4" d="M190.34 169.577h82.206v-47.594H190.34v47.594Z"/>
    <path fill="#ECECEB" d="M214.394 109.03h71.398V30.102h-71.398v78.928Z"/>
    <path fill="#F7F8F8" d="M217.535 106.067h65.302V33.229h-65.302v72.838Z"/>
    <path fill="#fff" d="m235.991 33.229-18.456 69.05V64.897l8.445-31.668h10.011Zm8.248 0-19.464 72.838h-3.671l19.465-72.838h3.67Zm38.598 19.863V90.48l-4.133 15.587h-10.011l14.144-52.975Z"/>
    <path fill="#ECECEB" d="M248.825 109.03h2.536V30.102h-2.536v78.928Z"/>
    <path fill="#ECECEB" d="M215.633 48.652h68.789v-2.534h-68.789v2.534Z"/>
    <path fill="#E3E3E2" d="M82.066 98.005v19.637H54.249V98.005h27.817Z"/>
    <path fill="#EEE" d="M80.757 99.285v17.077h-25.2V99.285h25.2Z"/>
    <path fill="#E3E3E2" d="M63.895 92.972h27.816V73.335H63.895v19.638Z"/>
    <path fill="#EEE" d="M65.203 91.692h25.2V74.615h-25.2v17.078Z"/>
    <path fill="#E3E3E2" d="M87.341 123.025h17.699v-25.02H87.341v25.02Z"/>
    <path fill="#EEE" d="M103.887 121.849H88.495V99.181h15.392v22.668Z"/>
    <path fill="#E3E3E2" d="M95.452 92.972h19.658V65.185H95.452v27.787Z"/>
    <path fill="#EEE" d="M96.734 91.666h17.094V66.49H96.734v25.175Z"/>
    <path fill="#E3E3E2" d="M111.05 113.381h21.779V98.005H111.05v15.376Z"/>
    <path fill="#EEE" d="M112.074 112.378h19.731v-13.37h-19.731v13.37Zm-62.528 29.819h68.766c3.092 0 5.6 2.505 5.6 5.595l7.613 48.429H51.559l-7.613-48.429a5.598 5.598 0 0 1 5.6-5.595Z"/>
    <path fill="#E3E3E2" d="m131.319 160.926-.086-.251h26.628v58.903h-32.968v-51.841c0-3.671 2.789-6.657 6.426-6.811Z"/>
    <path fill="#F4F4F4" d="M158.143 160.911a6.83 6.83 0 0 1 6.833 6.826v51.841H151.31v-51.841a6.83 6.83 0 0 1 6.833-6.826Z"/>
    <path fill="#E3E3E2" d="m54.605 160.926-.086-.251h26.628v58.903H48.18v-51.841c0-3.671 2.79-6.657 6.426-6.811Zm33.657 58.652h58.586v-41.486H88.262v41.486Z"/>
    <path fill="#F8F8F9" d="M77.128 188.226h65.906c3.976 0 7.2-3.22 7.2-7.192a7.197 7.197 0 0 0-7.2-7.193H77.128v14.385Z"/>
    <path fill="#F4F4F4" d="M81.429 160.911a6.83 6.83 0 0 1 6.833 6.826v51.841H74.596v-51.841a6.83 6.83 0 0 1 6.833-6.826Z"/>
    <path fill="#E3E3E2" d="M62.76 196.938H51.558l-7.613-49.146a5.598 5.598 0 0 1 5.6-5.595c3.093 0 5.6 2.505 5.6 5.595l7.613 49.146Z"/>
    <path fill="#F8F8F9" d="M46.614 25v18.72c0 1.052.853 1.752 1.907 1.752h63.282s7.316-3.41 6.797-8.17a231.5 231.5 0 0 0-1.197-9.255c-.433-2.871-2.892-4.951-5.795-4.951H48.521A1.905 1.905 0 0 0 46.614 25Z"/>
    <path fill="#E9E9E8" d="M46.614 25v18.72c0 1.052.853 1.752 1.907 1.752h5.58s7.32-3.41 6.796-8.17c-.415-3.8-.844-6.899-1.196-9.255-.429-2.871-2.893-4.951-5.795-4.951H48.52A1.905 1.905 0 0 0 46.614 25Z"/>
    <path fill="#E3E3E2" d="M117.146 38.807H61.864s-1.827 4.047-4.924 5.713h54.011s5.718-2.619 6.195-5.713Z"/>
    <path fill="#EEE" d="M113.333 42.615H59.958l.794 1.905h52.581v-1.905Zm1.906-2.38H61.864l.794 1.904h52.581v-1.904Z"/>
    <path fill="#E3E3E2" d="M63.77 37.934h1.351v-.555h-1.35v.555Zm1.908 0h1.35v-.555h-1.35v.555Z"/>
    <path fill="#F8F8F9" d="M290.426 240.828c0 3.961-55.035 7.172-122.926 7.172-67.89 0-122.925-3.211-122.925-7.172s55.035-7.172 122.925-7.172c67.891 0 122.926 3.211 122.926 7.172Z"/>
    <path fill="#4870C0" d="M66.503 195.14c.133.932-2.394 1.544-4.456 1.888.168 1.69 1.294 3.399 2.85 4.994 1.955-1.1 4.748-2.556 5.263-2.201.561.389-2.298 2.236-4.087 3.322 1.259 1.115 2.675 2.154 4.051 3.065.877-.819 1.904-1.536 2.515-1.147.635.403.463 1.669.15 2.799a54.873 54.873 0 0 0 3.721 1.993s.894-2.705 1.422-6.036a11.544 11.544 0 0 1-.312-.651c-.343-.793-.009-1.13.557-1.241.147-1.458.19-2.957.035-4.348-2.407-.505-5.337-1.439-4.24-2.882.662-.87 1.873-.969 3.133-.751a5.199 5.199 0 0 0-.595-.81c-4.383-4.825-7.441 0-7.441 0-2.547-2.121-6.126-1.547-6.9 1.767 1.432-.366 4.17-.911 4.334.239Z"/>
    <path fill="#799BD7" d="M76.51 209.853s-.377-.179-1.01-.505c.55-2.831 1.324-4.932 2.403-5.588l.03.057c-.529 3.331-1.423 6.036-1.423 6.036Z"/>
    <path fill="#799BD7" d="M74.925 209.048c-.35-.186-.746-.401-1.177-.641-.08-2.925-.338-5.447-.874-7.033.317-4.36.966-7.949 2.151-9.563.475.324.971.758 1.485 1.323.224.247.42.519.595.81a6.267 6.267 0 0 0-1.056-.099c-.54 0-1.039.092-1.453.317-.24.13-.45.305-.624.533-.163.214-.237.417-.237.609-.002 1.102 2.427 1.843 4.477 2.273.067.608.097 1.237.097 1.875 0 .82-.05 1.653-.132 2.473-.409.08-.697.279-.696.681 0 .155.044.34.14.56l.009.021c-1.242.725-2.106 2.944-2.705 5.861Zm-1.819-1.004-.317-.184c.116-.42.213-.859.256-1.266.026.467.046.95.061 1.45Zm-2.982-1.836a42.625 42.625 0 0 1-1.99-1.396c.44-1.788 1.02-3.481 1.733-4.311.061-.06.116-.118.163-.172l.082-.074c.43 1.522.758 3.27 1.006 5.145a8.277 8.277 0 0 0-.994.808Zm2.848-.706a.859.859 0 0 0-.288-.41c.017-.531.038-1.055.063-1.574.092.6.167 1.266.225 1.984Zm-1.268-.425c-.26-1.847-.6-3.578-1.043-5.095a.776.776 0 0 1 .108-.007c.266 0 .546.133.85.404.246.22.457.584.637 1.072a91.705 91.705 0 0 0-.191 3.516 1.7 1.7 0 0 0-.36.11Zm-4.317-4.378c-1.475-.348-2.765-.836-2.764-1.482 0-.024.001-.047.004-.071.075-.52.676-.694 1.445-.694.93 0 2.105.255 2.888.455-.412-1.765-1.618-2.752-3.042-2.97.367-.216.59-.457.59-.726a.621.621 0 0 0-.248-.486c.138.036.277.084.417.143 1.432.6 2.48 2.339 3.243 4.746a2.259 2.259 0 0 0-.227.176c-.528.093-1.382.455-2.306.909Z"/>
    <path fill="#799BD7" d="M72.355 200.271a2.022 2.022 0 0 0-.315-.365c-.424-.378-.847-.568-1.266-.568-.1 0-.2.011-.3.033-.826-2.559-1.974-4.425-3.55-5.087a3.399 3.399 0 0 0-1.318-.281 3.05 3.05 0 0 0-1.422.358 3.93 3.93 0 0 0-.32.188c-.614.093-1.224.232-1.694.352.47-2.014 1.976-3.016 3.657-3.016 1.085 0 2.243.418 3.242 1.249 0 0 1.359-2.144 3.564-2.144.57 0 1.195.142 1.868.502-1.123 1.64-1.785 4.865-2.146 8.779Z"/>
    <path fill="#4870C0" d="m71.972 230.6-.632-.052c.027-.325 2.596-32.634-4.663-35.68-.78-.327-1.499-.309-2.2.055-2.622 1.363-3.879 7.019-3.891 7.077l-.62-.135c.054-.245 1.333-6.003 4.218-7.504.867-.45 1.788-.476 2.74-.077 7.677 3.222 5.16 34.966 5.048 36.316Z"/>
    <path fill="#4870C0" d="M72.887 229.9c-.129-1.453-3.091-35.638 2.448-39.267 1.329-.869 2.512-1.056 3.519-.547 2.617 1.319 2.961 6.911 2.974 7.147l-.632.036c-.004-.055-.336-5.464-2.628-6.618-.789-.396-1.76-.226-2.885.512-5.225 3.423-2.196 38.329-2.165 38.682l-.631.055Z"/>
    <path fill="#4870C0" d="M73.72 232.664c-.042-1.113-.954-27.28 4.09-29.571.997-.452 2.007-.461 3-.024 3.462 1.522 5.6 7.966 5.69 8.239l-.603.197c-.021-.064-2.14-6.449-5.342-7.856-.832-.366-1.645-.36-2.482.021-3.868 1.756-3.997 21.508-3.72 28.97l-.633.024Z"/>
    <path fill="#4870C0" d="m72.436 231.467-.63-.072c.889-7.788 2.589-28.54-.188-31.016-.414-.37-.785-.483-1.135-.35-1.861.713-2.994 7.463-3.274 10.004l-.63-.07c.107-.974 1.122-9.547 3.676-10.526.585-.224 1.185-.066 1.785.469 3.589 3.199.528 30.404.396 31.561Z"/>
    <path fill="#1D2A30" d="M61.856 216.703h22.779l-1.903 25.489H63.758l-1.902-25.489Z"/>
    <path fill="#45555C" d="M82.732 242.192H69.41l-.629-25.263.18-.226h15.674l-1.902 25.489"/>
    <path fill="#4870C0" d="M64.96 207.349c-.238.62-2.007.132-3.397-.362-.476 1.101-.368 2.54.043 4.057 1.584-.009 3.806.049 4.002.445.213.432-2.185.591-3.66.649.393 1.118.91 2.245 1.446 3.278.822-.205 1.701-.296 1.945.153.253.466-.287 1.188-.868 1.777a38.59 38.59 0 0 0 1.61 2.505s1.48-1.363 2.949-3.236c.006-.167.014-.335.031-.509.06-.606.382-.699.77-.574.59-.849 1.13-1.759 1.514-2.67-1.313-1.136-2.798-2.715-1.627-3.229.707-.31 1.488.044 2.19.61a3.73 3.73 0 0 0-.089-.704c-1.047-4.477-4.589-2.548-4.589-2.548-.843-2.181-3.247-3.052-4.861-1.273 1.008.264 2.883.865 2.59 1.631Z"/>
    <path fill="#799BD7" d="M66.082 219.851s-.724-1.011-1.611-2.505c.48-.487.934-1.066.932-1.516a.546.546 0 0 0-.064-.261c-.128-.236-.43-.322-.807-.322-.343 0-.747.071-1.138.169a25.926 25.926 0 0 1-1.446-3.278c1.415-.055 3.678-.205 3.673-.597a.121.121 0 0 0-.013-.052c-.184-.372-2.155-.446-3.706-.446l-.296.001a11.622 11.622 0 0 1-.239-1.071 37.497 37.497 0 0 0 3.136-2.347c.232-.031.395-.117.456-.277a.44.44 0 0 0 .03-.14l.068-.06-.076-.046c-.096-.48-.99-.879-1.812-1.151a28.115 28.115 0 0 1-.617-.422c.43-.407.905-.642 1.388-.728.776.387 1.59.83 2.294 1.226.084-.086.167-.172.25-.26.306.337.563.749.746 1.223 0 0 .76-.413 1.678-.413 1.067 0 2.349.556 2.912 2.961.053.229.08.465.089.704-.523-.421-1.09-.725-1.636-.725-.188 0-.374.035-.555.115-.3.131-.425.332-.424.578.002.715 1.074 1.805 2.05 2.651-.382.911-.922 1.821-1.513 2.67a.886.886 0 0 0-.27-.049c-.26 0-.454.166-.5.623a7.993 7.993 0 0 0-.031.509l-.07.088-.18.226a30.39 30.39 0 0 1-2.698 2.922Z"/>
    <path fill="#4870C0" d="M81.871 210.376c-.718.053-1.407.217-2.081.438a4.824 4.824 0 0 1-.307-1.506c-.144-4.589 3.144-2.654 4.882-4.003.866-.672 1.928-1.104 2.907-.911-.147.254-.28.515-.393.786-.182.44.105.897.556.982.424.079.9.043 1.29-.153.122-.061.224-.149.332-.23.242.41.457.911.631 1.536.177.637.268 1.298.297 1.962a6.649 6.649 0 0 0-.769.217c-.395.14-.606.771-.287 1.09.28.281.6.504.948.665a10.659 10.659 0 0 1-.578 2.151c-.078.012-.157.021-.234.036a5.995 5.995 0 0 0-.496.122 1.788 1.788 0 0 0-.275.101.727.727 0 0 0-.43.556c-.035.251.07.51.27.663.108.082.226.146.342.21-.523.829-1.142 1.484-1.82 1.834 0 0-.837-.366-1.934-1.022.137-.184.274-.367.402-.557.15-.223.217-.453.195-.72-.022-.26-.18-.486-.372-.648-.187-.157-.484-.225-.722-.195-.232.03-.514.173-.648.372-.152.226-.32.442-.486.658-.84-.633-1.675-1.396-2.334-2.264l.07-.02a7.273 7.273 0 0 1 1.295-.216c.546-.04.885-.589.844-1.092-.047-.546-.586-.88-1.095-.842Z"/>
    <path fill="#A1BCE6" d="M86.657 216.922s-.838-.366-1.935-1.022c.137-.184.274-.367.402-.557a1.07 1.07 0 0 0 .195-.72c-.022-.26-.18-.486-.372-.648a.98.98 0 0 0-.722-.195c-.232.03-.514.173-.648.372-.153.226-.32.442-.487.658-.839-.633-1.674-1.396-2.333-2.264l.07-.02a7.273 7.273 0 0 1 1.295-.216c.516-.038.848-.531.847-1.009l-.003-.083c-.045-.518-.532-.845-1.016-.845-.027 0-.053 0-.079.003-.718.053-1.407.217-2.081.438a4.82 4.82 0 0 1-.312-1.793c.001-4.221 3.186-2.397 4.887-3.716.724-.563 1.587-.958 2.422-.958.163 0 .325.016.485.047-.147.254-.28.515-.393.786a.715.715 0 0 0-.056.272c0 .342.254.643.612.71.136.026.28.039.422.039.3 0 .604-.06.868-.192.122-.061.224-.149.332-.23.242.41.457.911.63 1.536.178.637.269 1.298.297 1.962a6.649 6.649 0 0 0-.768.217c-.26.092-.441.398-.442.687 0 .15.046.294.155.403.28.281.6.504.948.665a10.66 10.66 0 0 1-.578 2.151c-.078.012-.157.021-.234.036a5.995 5.995 0 0 0-.496.122 1.792 1.792 0 0 0-.275.101.727.727 0 0 0-.437.656c.001.217.103.43.278.563.107.082.225.146.341.21-.523.829-1.142 1.484-1.82 1.834Z"/>
    <path fill="#4870C0" d="M83.186 194.553a5.99 5.99 0 0 1 1.286-.683 3.293 3.293 0 0 0-.5-.925c-1.941-2.475-2.818-.016-4.324.038-.75.027-1.498.265-1.927.795.188.069.373.148.552.241a.493.493 0 0 1 .138.76 1.425 1.425 0 0 1-.744.485c-.09.021-.183.019-.274.025.052.321.159.68.342 1.082.187.413.43.801.706 1.162.161-.084.327-.159.498-.223.27-.1.658.139.631.447a2.251 2.251 0 0 1-.206.765c.391.347.817.631 1.249.876l.138-.083c.103-.056.208-.106.314-.153a1.2 1.2 0 0 1 .19-.069.503.503 0 0 1 .47.105.488.488 0 0 1 .149.466c-.02.09-.055.175-.088.261.639.205 1.252.278 1.761.165 0 0 .28-.559.569-1.385-.153-.036-.306-.072-.456-.117a.731.731 0 0 1-.42-.293.668.668 0 0 1 .709-1.01c.18.052.362.09.544.132.163-.7.267-1.468.231-2.213l-.045.021a4.9 4.9 0 0 0-.775.454c-.305.218-.724.079-.923-.204-.215-.307-.079-.719.205-.922Z"/>
    <path fill="#799BD7" d="M83.033 200.143a4.14 4.14 0 0 1-1.247-.218c.033-.086.067-.171.088-.261a.491.491 0 0 0-.149-.466.475.475 0 0 0-.326-.123.596.596 0 0 0-.145.018 1.284 1.284 0 0 0-.189.068 4.067 4.067 0 0 0-.314.154l-.138.083a7.328 7.328 0 0 1-1.25-.876 2.251 2.251 0 0 0 .209-.796c0-.245-.26-.439-.499-.439a.377.377 0 0 0-.133.023 4.225 4.225 0 0 0-.499.223 5.985 5.985 0 0 1-.706-1.162 4.259 4.259 0 0 1-.342-1.082c.091-.006.183-.004.274-.025.29-.068.557-.258.744-.485a.521.521 0 0 0 .121-.331.477.477 0 0 0-.26-.429 4.644 4.644 0 0 0-.551-.241c.43-.53 1.177-.768 1.927-.796 1.004-.035 1.728-1.139 2.673-1.139.474 0 1.003.277 1.65 1.102.222.282.382.595.5.925-.45.179-.884.395-1.285.682a.743.743 0 0 0-.31.586.58.58 0 0 0 .105.337.738.738 0 0 0 .587.311.572.572 0 0 0 .336-.107 5.01 5.01 0 0 1 .775-.455l.045-.02c.005.1.007.198.007.299 0 .649-.096 1.307-.238 1.913-.182-.041-.365-.079-.544-.131a.486.486 0 0 0-.134-.018.72.72 0 0 0-.37.106.684.684 0 0 0-.293.419.847.847 0 0 0-.014.15c0 .125.03.25.103.353a.731.731 0 0 0 .419.293c.15.045.303.081.456.117a12.81 12.81 0 0 1-.569 1.385 2.368 2.368 0 0 1-.514.053Z"/>
    <path fill="#4870C0" d="M64.627 199.146c-.133.931 2.395 1.544 4.456 1.888-.168 1.691-1.294 3.399-2.849 4.994-1.956-1.101-4.748-2.556-5.263-2.201-.562.389 2.298 2.236 4.086 3.322-1.258 1.115-2.674 2.155-4.05 3.065-.878-.818-1.904-1.537-2.516-1.148-.635.404-.463 1.67-.15 2.799a54.64 54.64 0 0 1-3.721 1.994s-.894-2.705-1.422-6.036c.108-.212.214-.426.312-.651.343-.793.01-1.13-.557-1.242-.147-1.458-.189-2.957-.036-4.348 2.41-.505 5.338-1.439 4.241-2.882-.662-.87-1.873-.968-3.133-.751.176-.29.371-.563.595-.809 4.383-4.825 7.442 0 7.442 0 2.547-2.121 6.125-1.547 6.898 1.767-1.43-.366-4.168-.911-4.333.239Z"/>
    <path fill="#A1BCE6" d="M54.62 213.859s-.894-2.705-1.422-6.036c.107-.212.214-.426.312-.651.095-.22.138-.405.139-.56 0-.403-.287-.601-.697-.682a24.86 24.86 0 0 1-.131-2.473c0-.637.03-1.266.096-1.875 2.051-.43 4.48-1.171 4.478-2.272 0-.192-.074-.396-.237-.61-.473-.622-1.226-.849-2.077-.849-.34 0-.696.036-1.056.098.176-.29.37-.563.595-.809 1.46-1.608 2.775-2.145 3.877-2.145 2.205 0 3.564 2.145 3.564 2.145 1-.832 2.157-1.249 3.242-1.249 1.681 0 3.187 1.002 3.657 3.016-.783-.2-1.959-.455-2.889-.455-.768 0-1.37.174-1.444.694a.499.499 0 0 0-.005.071c0 .891 2.452 1.482 4.46 1.817-.115 1.163-.684 2.335-1.534 3.473a15.437 15.437 0 0 1-1.314 1.521c-1.751-.986-4.173-2.256-5.03-2.256-.1 0-.18.018-.233.055a.156.156 0 0 0-.072.135c.004.572 2.527 2.196 4.158 3.187l-.068.059c-.16.141-.322.28-.486.418-.999.84-2.074 1.63-3.136 2.347-.12.081-.24.162-.36.241-.709-.661-1.515-1.256-2.12-1.256a.72.72 0 0 0-.396.108c-.315.2-.431.613-.43 1.115 0 .511.123 1.115.28 1.684a54.64 54.64 0 0 1-3.721 1.994Z"/>
    <path fill="#4870C0" d="m253.373 242.192 12.142-80.598v80.598h3.26v-81.101l12.154 81.101h3.493l-15.213-101.517-.434.064v-3.301h-3.26v3.291l-.446-.054-15.255 101.517h3.559Z"/>
    <path fill="#799BD7" d="M284.422 242.192h-3.493l-5.815-38.8-2.627-17.53-2.44-16.285-1.272-8.486v81.101h-3.26v-80.598l-1.203 7.983-.386 2.563-1.27 8.431-.381 2.527-.96 6.376-.96 6.373-.648 4.299-2.32 15.401-.607 4.031-3.407 22.614h-3.559l13.562-90.258h7.52l13.526 90.258Z"/>
    <path fill="#4870C0" d="M283.85 151.934h-33.586l2.719-28.037h28.149l2.718 28.037Z"/>
    <path fill="#A1BCE6" d="M283.85 151.934h-33.586l2.719-28.037h28.149l2.718 28.037Z"/>
    <path fill="#4870C0" d="M199.172 115.531h-11.017a.887.887 0 0 1-.888-.886V88.514a.738.738 0 0 0-.317-1.407.738.738 0 0 0-.317 1.407v26.131c0 .838.682 1.52 1.522 1.52h11.017c.488 0 .887.397.887.886v14.952h.634v-14.952c0-.838-.683-1.52-1.521-1.52Z"/>
    <path fill="#8DAEE0" d="M200.693 131.369h-.634v-14.318a.888.888 0 0 0-.887-.886h-11.017c-.84 0-1.522-.682-1.522-1.52V88.514a.738.738 0 0 1 .317-1.407.739.739 0 0 1 .317 1.407v26.131c0 .489.398.886.888.886h11.017c.838 0 1.521.682 1.521 1.52v14.318Z"/>
    <path fill="#4870C0" d="M212.414 160.171h-24.078c-.94 0-1.703-.762-1.703-1.702v-25.398c0-.94.763-1.702 1.703-1.702h24.078c.941 0 1.704.762 1.704 1.702v25.398c0 .94-.763 1.702-1.704 1.702Z"/>
    <path fill="#8DAEE0" d="M212.414 160.171h-24.078c-.94 0-1.703-.762-1.703-1.702v-25.398c0-.94.763-1.702 1.703-1.702h24.078c.941 0 1.704.762 1.704 1.702v25.398c0 .94-.763 1.702-1.704 1.702Zm-1.844-4.216v3.9h1.844c.765 0 1.387-.621 1.387-1.386v-2.514h-3.231Zm-4.014 0v3.9h3.697v-3.9h-3.697Zm-4.015 0v3.9h3.698v-3.9h-3.698Zm-4.014 0v3.9h3.697v-3.9h-3.697Zm-4.015 0v3.9h3.698v-3.9h-3.698Zm-4.014 0v3.9h3.697v-3.9h-3.697Zm-3.548 0v2.514c0 .765.622 1.386 1.386 1.386h1.845v-3.9h-3.231Zm23.62-4.011v3.694h3.231v-3.694h-3.231Zm-4.014 0v3.694h3.697v-3.694h-3.697Zm-4.015 0v3.694h3.698v-3.694h-3.698Zm-4.014 0v3.694h3.697v-3.694h-3.697Zm-4.015 0v3.694h3.698v-3.694h-3.698Zm-4.014 0v3.694h3.697v-3.694h-3.697Zm-3.548 0v3.694h3.231v-3.694h-3.231Zm23.62-4.009v3.693h3.231v-3.693h-3.231Zm-4.014 0v3.693h3.697v-3.693h-3.697Zm-4.015 0v3.693h3.698v-3.693h-3.698Zm-4.014 0v3.693h3.697v-3.693h-3.697Zm-4.015 0v3.693h3.698v-3.693h-3.698Zm-4.014 0v3.693h3.697v-3.693h-3.697Zm-3.548 0v3.693h3.231v-3.693h-3.231Zm23.62-4.011v3.694h3.231v-3.694h-3.231Zm-4.014 0v3.694h3.697v-3.694h-3.697Zm-4.015 0v3.694h3.698v-3.694h-3.698Zm-4.014 0v3.694h3.697v-3.694h-3.697Zm-4.015 0v3.694h3.698v-3.694h-3.698Zm-4.014 0v3.694h3.697v-3.694h-3.697Zm-3.548 0v3.694h3.231v-3.694h-3.231Zm23.62-4.01v3.693h3.231v-3.693h-3.231Zm-4.014 0v3.693h3.697v-3.693h-3.697Zm-4.015 0v3.693h3.698v-3.693h-3.698Zm-4.014 0v3.693h3.697v-3.693h-3.697Zm-4.015 0v3.693h3.698v-3.693h-3.698Zm-4.014 0v3.693h3.697v-3.693h-3.697Zm-3.548 0v3.693h3.231v-3.693h-3.231Zm23.62-4.011v3.694h3.231v-3.694h-3.231Zm-4.014 0v3.694h3.697v-3.694h-3.697Zm-4.015 0v3.694h3.698v-3.694h-3.698Zm-4.014 0v3.694h3.697v-3.694h-3.697Zm-4.015 0v3.694h3.698v-3.694h-3.698Zm-4.014 0v3.694h3.697v-3.694h-3.697Zm-3.548 0v3.694h3.231v-3.694h-3.231Zm23.62-4.217v3.9h3.231v-2.515c0-.763-.622-1.385-1.387-1.385h-1.844Zm-4.014 0v3.9h3.697v-3.9h-3.697Zm-4.015 0v3.9h3.698v-3.9h-3.698Zm-4.014 0v3.9h3.697v-3.9h-3.697Zm-4.015 0v3.9h3.698v-3.9h-3.698Zm-4.014 0v3.9h3.697v-3.9h-3.697Zm-2.162 0c-.764 0-1.386.622-1.386 1.385v2.515h3.231v-3.9h-1.845Z"/>
    <path fill="#A3BFE8" d="M198.527 151.628h3.697v-3.693h-3.697v3.693Zm4.014-12.031h3.698v-3.694h-3.698v3.694Zm-8.029 16.041h3.698v-3.694h-3.698v3.694Zm8.029-12.031h3.698v-3.694h-3.698v3.694Zm0 4.011h3.698v-3.694h-3.698v3.694Zm-4.014-4.011h3.697v-3.694h-3.697v3.694Zm0-8.021h3.697v-3.9h-3.697v3.9Zm-4.015 16.042h3.698v-3.693h-3.698v3.693Zm4.015-12.031h3.697v-3.694h-3.697v3.694Zm0 16.041h3.697v-3.694h-3.697v3.694Zm4.014 0h3.698v-3.694h-3.698v3.694Zm-4.014-8.02h3.697v-3.694h-3.697v3.694Zm4.014-12.032h3.698v-3.9h-3.698v3.9Zm-15.591 16.042h3.23v-3.693h-3.23v3.693Zm0-12.031h3.23v-3.694h-3.23v3.694Zm0 8.021h3.23v-3.694h-3.23v3.694Zm0-4.011h3.23v-3.694h-3.23v3.694Zm15.591 8.021h3.698v-3.693h-3.698v3.693Zm11.26-16.042h-3.231v-3.9h1.845c.764 0 1.386.622 1.386 1.385v2.515Zm-7.245 4.011h3.697v-3.694h-3.697v3.694Zm-19.606 16.041h3.23v-3.694h-3.23v3.694Zm19.606-12.031h3.697v-3.694h-3.697v3.694Zm0 4.011h3.697v-3.694h-3.697v3.694Zm0 4.01h3.697v-3.693h-3.697v3.693Zm0 4.01h3.697v-3.694h-3.697v3.694Zm4.014 0h3.231v-3.694h-3.231v3.694Zm-4.014-20.052h3.697v-3.9h-3.697v3.9Zm-8.029 24.268h3.697v-3.899h-3.697v3.899Zm4.014 0h3.698v-3.899h-3.698v3.899Zm8.029-12.236h3.231v-3.694h-3.231v3.694Zm-4.014 12.236h3.697v-3.899h-3.697v3.899Zm4.014-8.226h3.231v-3.693h-3.231v3.693Zm-20.389 8.226h-1.845c-.764 0-1.386-.62-1.386-1.385v-2.514h3.231v3.899Zm22.234 0h-1.845v-3.899h3.231v2.514c0 .765-.622 1.385-1.386 1.385Zm-22.234-24.268h-3.231v-2.515c0-.763.622-1.385 1.386-1.385h1.845v3.9Zm20.389 8.021h3.231v-3.694h-3.231v3.694Zm0-4.01h3.231v-3.694h-3.231v3.694Zm-20.072 8.021h3.697v-3.694h-3.697v3.694Zm0 8.02h3.697v-3.694h-3.697v3.694Zm4.014-20.052h3.698v-3.9h-3.698v3.9Zm-4.014 16.042h3.697v-3.693h-3.697v3.693Zm4.014-8.021h3.698v-3.694h-3.698v3.694Zm0-4.01h3.698v-3.694h-3.698v3.694Zm0 20.257h3.698v-3.899h-3.698v3.899Zm-4.014 0h3.697v-3.899h-3.697v3.899Zm0-24.268h3.697v-3.9h-3.697v3.9Zm4.014 12.032h3.698v-3.694h-3.698v3.694Zm-4.014-4.011h3.697v-3.694h-3.697v3.694Zm0-4.01h3.697v-3.694h-3.697v3.694Z"/>
    <path fill="#fff" d="M205.438 152.003a6.002 6.002 0 0 1-1.908 1.829 6.038 6.038 0 0 1-1.756.729h-.007a6.209 6.209 0 0 1-.627.107 6.112 6.112 0 0 1-.767.052c-.095 0-.191 0-.286-.007a6.88 6.88 0 0 1-.647-.064 6.162 6.162 0 0 1-1.432-.404 6.53 6.53 0 0 1-1.255-.722 5.79 5.79 0 0 1-.603-.52 5.518 5.518 0 0 1-.627-.71c-.184-.24-.35-.5-.495-.765v-.007a6.008 6.008 0 0 1-.729-2.875v-5.751c0-1.388.463-2.667 1.248-3.687a6.144 6.144 0 0 1 2.042-1.71 5.988 5.988 0 0 1 2.784-.677 6.086 6.086 0 0 1 5.933 4.737v.013c.095.424.146.868.146 1.324v5.801c-.006.38-.044.754-.114 1.115v.006c-.101.5-.259.975-.475 1.425a5.7 5.7 0 0 1-.425.761Zm1.502-10.483a5.231 5.231 0 0 0-.234-.848 6.722 6.722 0 0 0-6.333-4.485 6.697 6.697 0 0 0-5.231 2.515 6.538 6.538 0 0 0-.882 1.438 6.674 6.674 0 0 0-.595 2.755v5.751c0 .563.069 1.108.202 1.628v.006c.102.411.241.804.425 1.177v.007c.159.354.355.691.571 1.007v.007c.171.228.343.443.526.652a6.82 6.82 0 0 0 2.657 1.811h.006c.215.076.431.146.653.203.279.07.558.12.843.158.216.026.431.045.654.045.056.006.113.006.171.006.348 0 .697-.025 1.033-.076.215-.038.431-.082.634-.133h.006a6.813 6.813 0 0 0 2.853-1.552 6.777 6.777 0 0 0 1.896-2.989c.171-.557.273-1.14.285-1.755v-.007c.006-.062.006-.133.006-.195v-5.751c0-.47-.051-.931-.146-1.375Z"/>
    <path fill="#fff" d="M201.14 146.454c-.679 2.147-1.56 4.972-1.053 8.259.032.209.07.418.115.634-.223 0-.438-.019-.654-.045a8.147 8.147 0 0 1-.108-.653c-.481-3.356.412-6.212 1.091-8.385.722-2.306 1.02-3.433-.07-3.895-.342-.146-.684-.102-1.046.139-1.731 1.147-3.278 6.093-3.892 9.785-.051.292-.096.571-.134.837a11.002 11.002 0 0 1-.526-.652v-.007c.044-.304.101-.621.164-.943v-.007c.699-3.661 2.188-8.316 4.04-9.539.539-.354 1.109-.424 1.641-.196 1.668.71 1.122 2.458.432 4.668Z"/>
    <path fill="#fff" d="M200.036 146.296c-.634 2.033-1.565 5.01-1.381 8.177.012.221.025.443.05.671a7.712 7.712 0 0 1-.653-.203h-.006c-.02-.234-.032-.462-.038-.696-.127-3.173.792-6.119 1.426-8.139.254-.805.539-1.71.532-2.058-.766.684-3.144 6.257-3.213 9.475-.013.284 0 .544.031.785a6.864 6.864 0 0 1-.665-.482c0-.26.005-.538.031-.823.266-3.356 2.288-8.417 3.392-9.418.292-.266.532-.253.678-.196.654.253.355 1.197-.184 2.907Z"/>
    <path fill="#fff" d="M201.774 154.561c.082.215.177.412.265.582a7.97 7.97 0 0 1-.634.133 5.432 5.432 0 0 1-.265-.608c-.521-1.354-.793-3.413.151-6.226 1.845-5.485 1.523-6.789.153-7.511-.787-.418-1.566-.443-2.321-.076-1.895.937-3.543 4.326-4.602 9.419-.083.385-.159.779-.229 1.183a5.815 5.815 0 0 1-.425-1.177v-.006c.133-.653.279-1.28.432-1.875 1.102-4.358 2.682-7.19 4.545-8.108.945-.468 1.921-.443 2.897.076 1.909 1.014 1.947 2.946.153 8.272-.92 2.736-.621 4.687-.127 5.922h.007Z"/>
    <path fill="#fff" d="M204.899 153.592c-.216.197-.438.38-.678.545a4.114 4.114 0 0 1-.26-.082 1.818 1.818 0 0 1-.431-.223c-.659-.392-1.142-1.095-1.401-2.045-.33-1.184.209-2.895.785-4.699.578-1.818 1.173-3.693.888-5.055-.228-1.102-.805-1.912-1.667-2.35-1.11-.551-2.587-.455-4.152.273-1.649.773-2.911 3.059-3.684 4.864a24.687 24.687 0 0 0-.634 1.641v-1.78c.184-.431.393-.9.634-1.368.818-1.603 1.965-3.256 3.41-3.927 1.751-.817 3.424-.913 4.712-.266 1.039.526 1.736 1.488 2.002 2.787.317 1.519-.304 3.476-.906 5.371-.545 1.716-1.058 3.331-.779 4.338.259.912.728 1.539 1.381 1.812l.07.031c.222.089.463.133.71.133Z"/>
    <path fill="#fff" d="M206.795 150.603c-.12.393-.273.772-.462 1.127a2.526 2.526 0 0 1-.895.273c-.063.005-.12.005-.177.005l-.158-.012c-.704-.064-1.243-.525-1.459-1.235-.279-.944.178-2.717.659-4.592.35-1.355.71-2.762.71-3.642 0-1.951-.506-4.041-4.254-4.706-1.907-.342-4.64.874-6.247 3.473-.313.507.097-1.439-.251-1.154.228-.52.582-.493.931-.93.704-.456 2.665-2.389 5.675-2.016 4.321.536 4.78 3.408 4.78 5.333 0 .963-.355 2.344-.735 3.801-.418 1.627-.888 3.477-.659 4.255.139.457.469.748.906.786.203.019.445-.019.704-.127.292-.113.615-.322.932-.639Z"/>
    <path fill="#fff" d="M207.086 147.157v1.489c0 .063 0 .133-.005.196v.007c-.222.43-.463.759-.743.962v.006a1.258 1.258 0 0 1-.754.241c-.057 0-.121 0-.184-.007a.576.576 0 0 1-.45-.322c-.285-.526.068-1.584.304-2.18.869-2.188 1.183-3.84 1.053-5.978v-.013c.026-.361.038-.583.038-.595a.326.326 0 0 1 .336-.298l.025.007c.102.272.178.557.235.848-.032.469-.077.937-.12 1.406-.09.899-.198 1.799-.369 2.692-.043.24.161.148.11.389-.082.354-.414 1.055-.56 1.391-.152.348-.323.69-.444 1.051-.075.216-.355 1.229.217 1.008.215-.083.386-.304.513-.489.057-.088.114-.177.164-.271.191-.336.336-.71.47-1.072.057-.152.114-.31.164-.468Z"/>
    <path fill="#4870C0" d="M160.339 39.728v16.15a.888.888 0 0 1-.887.887h-16.438a.738.738 0 0 0-1.408.316.738.738 0 0 0 1.408.317h16.438c.839 0 1.521-.681 1.521-1.52v-16.15h-.634Z"/>
    <path fill="#8DAEE0" d="M142.349 57.824a.743.743 0 1 1 0-1.484c.295 0 .546.175.665.425h16.438a.888.888 0 0 0 .887-.886V44.756h.634v11.123c0 .838-.682 1.519-1.521 1.519h-16.438a.738.738 0 0 1-.665.426Z"/>
    <path fill="#4870C0" d="M146.241 43.054V19c0-.94.762-1.702 1.703-1.702h25.424c.94 0 1.703.762 1.703 1.702v24.054c0 .94-.763 1.702-1.703 1.702h-25.424a1.702 1.702 0 0 1-1.703-1.702Z"/>
    <path fill="#8DAEE0" d="M173.368 44.756h-25.424a1.702 1.702 0 0 1-1.703-1.702V19c0-.94.762-1.702 1.703-1.702h25.424c.94 0 1.703.762 1.703 1.702v24.054c0 .94-.763 1.702-1.703 1.702Zm-2.517-3.544v3.227h2.517c.764 0 1.386-.622 1.386-1.385v-1.842h-3.903Zm-4.014 0v3.227h3.697v-3.227h-3.697Zm-4.015 0v3.227h3.698v-3.227h-3.698Zm-4.014 0v3.227h3.697v-3.227h-3.697Zm-4.015 0v3.227h3.698v-3.227h-3.698Zm-4.014 0v3.227h3.697v-3.227h-3.697Zm-4.221 0v1.842c0 .763.622 1.385 1.387 1.385h2.517v-3.227h-3.904Zm24.293-4.01v3.693h3.903v-3.694h-3.903Zm-4.014 0v3.693h3.697v-3.694h-3.697Zm-4.015 0v3.693h3.698v-3.694h-3.698Zm-4.014 0v3.693h3.697v-3.694h-3.697Zm-4.015 0v3.693h3.698v-3.694h-3.698Zm-4.014 0v3.693h3.697v-3.694h-3.697Zm-4.221 0v3.693h3.904v-3.694h-3.904Zm24.293-4.011v3.694h3.903V33.19h-3.903Zm-4.014 0v3.694h3.697V33.19h-3.697Zm-4.015 0v3.694h3.698V33.19h-3.698Zm-4.014 0v3.694h3.697V33.19h-3.697Zm-4.015 0v3.694h3.698V33.19h-3.698Zm-4.014 0v3.694h3.697V33.19h-3.697Zm-4.221 0v3.694h3.904V33.19h-3.904Zm24.293-4.01v3.693h3.903V29.18h-3.903Zm-4.014 0v3.693h3.697V29.18h-3.697Zm-4.015 0v3.693h3.698V29.18h-3.698Zm-4.014 0v3.693h3.697V29.18h-3.697Zm-4.015 0v3.693h3.698V29.18h-3.698Zm-4.014 0v3.693h3.697V29.18h-3.697Zm-4.221 0v3.693h3.904V29.18h-3.904Zm24.293-4.011v3.693h3.903V25.17h-3.903Zm-4.014 0v3.693h3.697V25.17h-3.697Zm-4.015 0v3.693h3.698V25.17h-3.698Zm-4.014 0v3.693h3.697V25.17h-3.697Zm-4.015 0v3.693h3.698V25.17h-3.698Zm-4.014 0v3.693h3.697V25.17h-3.697Zm-4.221 0v3.693h3.904V25.17h-3.904Zm24.293-4.01v3.693h3.903V21.16h-3.903Zm-4.014 0v3.693h3.697V21.16h-3.697Zm-4.015 0v3.693h3.698V21.16h-3.698Zm-4.014 0v3.693h3.697V21.16h-3.697Zm-4.015 0v3.693h3.698V21.16h-3.698Zm-4.014 0v3.693h3.697V21.16h-3.697Zm-4.221 0v3.693h3.904V21.16h-3.904Zm24.293-3.545v3.228h3.903V19c0-.764-.622-1.385-1.386-1.385h-2.517Zm-4.014 0v3.228h3.697v-3.228h-3.697Zm-4.015 0v3.228h3.698v-3.228h-3.698Zm-4.014 0v3.228h3.697v-3.228h-3.697Zm-4.015 0v3.228h3.698v-3.228h-3.698Zm-4.014 0v3.228h3.697v-3.228h-3.697Zm-2.834 0c-.765 0-1.387.621-1.387 1.385v1.843h3.904v-3.228h-2.517Z"/>
    <path fill="#A3BFE8" d="M154.793 32.874h3.698V29.18h-3.698v3.694Zm12.044 4.011h3.697V33.19h-3.697v3.694Zm-16.058-8.022h3.697V25.17h-3.697v3.693Zm12.043 8.022h3.698V33.19h-3.698v3.694Zm-4.014 0h3.697V33.19h-3.697v3.694Zm4.014-4.011h3.698V29.18h-3.698v3.694Zm8.029 0h3.903V29.18h-3.903v3.694Zm-16.058-4.011h3.698V25.17h-3.698v3.693Zm12.044 4.011h3.697V29.18h-3.697v3.694Zm-16.058 0h3.697V29.18h-3.697v3.694Zm0 4.011h3.697V33.19h-3.697v3.694Zm8.029-4.011h3.697V29.18h-3.697v3.694Zm12.043 4.011h3.903V33.19h-3.903v3.694Zm-16.058-16.042h3.698v-3.228h-3.698v3.228Zm12.044 0h3.697v-3.228h-3.697v3.228Zm-8.029 0h3.697v-3.228h-3.697v3.228Zm4.014 0h3.698v-3.228h-3.698v3.228Zm-8.029 16.042h3.698V33.19h-3.698v3.694Zm18.575 7.554h-2.517v-3.227h3.903v1.842c0 .763-.622 1.385-1.386 1.385Zm-6.531-3.544h3.697v-3.694h-3.697v3.694Zm-16.058-20.052h3.697v-3.228h-3.697v3.228Zm12.043 20.052h3.698v-3.694h-3.698v3.694Zm-4.014 0h3.697v-3.694h-3.697v3.694Zm-4.015 0h3.698v-3.694h-3.698v3.694Zm-4.014 0h3.697v-3.694h-3.697v3.694Zm0 3.544h3.697V41.21h-3.697v3.228Zm20.072-3.544h3.903v-3.694h-3.903v3.694Zm-24.293-8.021h3.904V29.18h-3.904v3.694Zm0 4.011h3.904V33.19h-3.904v3.694Zm12.25 7.554h3.697V41.21h-3.697v3.228Zm-12.25-3.544h3.904v-3.694h-3.904v3.694Zm8.235 3.544h3.698V41.21h-3.698v3.228Zm-4.331-23.596h-3.904V19c0-.764.622-1.385 1.387-1.385h2.517v3.228Zm0 23.596h-2.517a1.387 1.387 0 0 1-1.387-1.385v-1.842h3.904v3.227Zm24.292-23.596h-3.903v-3.228h2.517c.764 0 1.386.621 1.386 1.385v1.843Zm-11.932 23.596h3.698V41.21h-3.698v3.228Zm4.015 0h3.697V41.21h-3.697v3.228Zm-8.029-19.586h3.697V21.16h-3.697v3.693Zm-8.029 0h3.697V21.16h-3.697v3.693Zm20.072 4.01h3.903V25.17h-3.903v3.693Zm-16.058-4.01h3.698V21.16h-3.698v3.693Zm8.029 4.01h3.698V25.17h-3.698v3.693Zm4.015 0h3.697V25.17h-3.697v3.693Zm-20.279 0h3.904V25.17h-3.904v3.693Zm0-4.01h3.904V21.16h-3.904v3.693Zm24.293 0h3.903V21.16h-3.903v3.693Zm-12.043 4.01h3.697V25.17h-3.697v3.693Zm4.014-4.01h3.698V21.16h-3.698v3.693Zm4.015 0h3.697V21.16h-3.697v3.693Z"/>
    <path fill="#fff" d="m152.296 30.911-.243.204c.011.013.96 1.14 2.504 2.273 1.543 1.13 3.686 2.28 6.1 2.282 2.413-.002 4.555-1.151 6.099-2.282 1.543-1.133 2.493-2.26 2.503-2.273a.316.316 0 0 0 0-.407c-.01-.013-.96-1.14-2.503-2.273-1.544-1.13-3.686-2.28-6.099-2.282-2.414.002-4.557 1.152-6.1 2.282-1.544 1.133-2.493 2.26-2.504 2.273a.316.316 0 0 0 0 .407l.243-.204.242.204.039-.045a15.664 15.664 0 0 1 2.639-2.328c1.455-1.017 3.374-1.958 5.441-1.956 2.203-.003 4.24 1.07 5.723 2.16a16.236 16.236 0 0 1 2.233 1.989l.122.135.039.045.242-.204-.242-.203-.039.045a15.664 15.664 0 0 1-2.639 2.328c-1.454 1.017-3.373 1.958-5.439 1.956-2.205.002-4.242-1.07-5.725-2.16a16.127 16.127 0 0 1-2.233-1.989l-.122-.135-.039-.045-.242.203Z"/>
    <path fill="#fff" d="M163.568 30.278h-.317a2.58 2.58 0 0 1-.76 1.833 2.587 2.587 0 0 1-1.834.76 2.59 2.59 0 0 1-2.595-2.593 2.59 2.59 0 0 1 2.595-2.592c.717 0 1.363.29 1.834.76.47.47.76 1.115.76 1.832h.634a3.227 3.227 0 0 0-3.228-3.225 3.227 3.227 0 0 0-3.229 3.225 3.227 3.227 0 0 0 3.229 3.226 3.227 3.227 0 0 0 3.228-3.226h-.317Z"/>
    <path fill="#fff" d="M160.983 28.998h.317a.625.625 0 1 1 1.25.001.625.625 0 0 1-1.25-.001h-.634a1.257 1.257 0 1 0 2.515 0 1.257 1.257 0 0 0-2.515 0h.317Zm-.01-2.528v-2.977a.317.317 0 0 0-.634 0v2.976a.317.317 0 0 0 .634 0Zm2.569.343 1.067-2.416a.317.317 0 0 0-.58-.256l-1.067 2.416a.317.317 0 0 0 .58.256Zm2.442 1.179 1.492-1.765a.316.316 0 1 0-.483-.409l-1.493 1.765a.317.317 0 0 0 .484.409Zm1.932 1.423 1.438-.96a.316.316 0 1 0-.351-.527l-1.439.96a.316.316 0 1 0 .352.527Zm-9.565-2.858-1.067-2.416a.318.318 0 0 0-.581.256l1.067 2.416a.318.318 0 0 0 .581-.256Zm-2.538 1.026-1.493-1.765a.318.318 0 0 0-.447-.037.316.316 0 0 0-.037.446l1.492 1.765a.317.317 0 0 0 .485-.409Zm-2.064 1.305-1.439-.96a.316.316 0 0 0-.439.088.316.316 0 0 0 .087.439l1.439.96a.318.318 0 0 0 .352-.527Z"/>
    <path fill="#4870C0" d="M117.568 57.768a.735.735 0 0 0-.657.413h-16.837c-.838 0-1.521.681-1.521 1.52v17.28a.888.888 0 0 1-.887.887h-6.774v.633h6.774c.838 0 1.52-.681 1.52-1.52v-17.28c0-.49.399-.887.888-.887h16.82a.742.742 0 1 0 .674-1.046Z"/>
    <path fill="#8DAEE0" d="M97.666 78.501h-6.774v-.633h6.774a.888.888 0 0 0 .887-.886V59.7c0-.838.683-1.52 1.521-1.52h16.837a.735.735 0 0 1 .657-.412.742.742 0 0 1 0 1.484.739.739 0 0 1-.674-.438h-16.82a.888.888 0 0 0-.887.886v17.282c0 .838-.683 1.52-1.521 1.52Z"/>
    <path fill="#4870C0" d="M89.189 92.586H65.11a1.703 1.703 0 0 1-1.704-1.702V65.486c0-.94.763-1.702 1.704-1.702h24.078c.94 0 1.703.762 1.703 1.702v25.398c0 .94-.762 1.702-1.703 1.702Z"/>
    <path fill="#8DAEE0" d="M89.189 92.586H65.11a1.703 1.703 0 0 1-1.704-1.702V65.486c0-.94.763-1.702 1.704-1.702h24.078c.94 0 1.703.762 1.703 1.702v25.398c0 .94-.762 1.702-1.703 1.702Zm-1.844-4.217v3.9h1.844c.764 0 1.386-.621 1.386-1.385v-2.515h-3.23Zm-4.015 0v3.9h3.698v-3.9H83.33Zm-4.014 0v3.9h3.697v-3.9h-3.697Zm-4.015 0v3.9H79v-3.9h-3.7Zm-4.014 0v3.9h3.697v-3.9h-3.697Zm-4.015 0v3.9h3.698v-3.9h-3.698Zm-3.548 0v2.515c0 .764.622 1.385 1.387 1.385h1.844v-3.9h-3.23Zm23.62-4.01v3.694h3.231v-3.694h-3.23Zm-4.014 0v3.694h3.698v-3.694H83.33Zm-4.014 0v3.694h3.697v-3.694h-3.697Zm-4.015 0v3.694H79v-3.694h-3.7Zm-4.014 0v3.694h3.697v-3.694h-3.697Zm-4.015 0v3.694h3.698v-3.694h-3.698Zm-3.548 0v3.694h3.231v-3.694h-3.23Zm23.62-4.01v3.693h3.231v-3.694h-3.23Zm-4.014 0v3.693h3.698v-3.694H83.33Zm-4.014 0v3.693h3.697v-3.694h-3.697Zm-4.015 0v3.693H79v-3.694h-3.7Zm-4.014 0v3.693h3.697v-3.694h-3.697Zm-4.015 0v3.693h3.698v-3.694h-3.698Zm-3.548 0v3.693h3.231v-3.694h-3.23Zm23.62-4.011v3.694h3.231v-3.694h-3.23Zm-4.014 0v3.694h3.698v-3.694H83.33Zm-4.014 0v3.694h3.697v-3.694h-3.697Zm-4.015 0v3.694H79v-3.694h-3.7Zm-4.014 0v3.694h3.697v-3.694h-3.697Zm-4.015 0v3.694h3.698v-3.694h-3.698Zm-3.548 0v3.694h3.231v-3.694h-3.23Zm23.62-4.01v3.693h3.231v-3.694h-3.23Zm-4.014 0v3.693h3.698v-3.694H83.33Zm-4.014 0v3.693h3.697v-3.694h-3.697Zm-4.015 0v3.693H79v-3.694h-3.7Zm-4.014 0v3.693h3.697v-3.694h-3.697Zm-4.015 0v3.693h3.698v-3.694h-3.698Zm-3.548 0v3.693h3.231v-3.694h-3.23Zm23.62-4.01v3.692h3.231v-3.693h-3.23Zm-4.014 0v3.692h3.698v-3.693H83.33Zm-4.014 0v3.692h3.697v-3.693h-3.697Zm-4.015 0v3.692H79v-3.693h-3.7Zm-4.014 0v3.692h3.697v-3.693h-3.697Zm-4.015 0v3.692h3.698v-3.693h-3.698Zm-3.548 0v3.692h3.231v-3.693h-3.23Zm23.62-4.218V68h3.231v-2.514c0-.764-.622-1.386-1.386-1.386h-1.844Zm-4.014 0V68h3.698v-3.9H83.33Zm-4.014 0V68h3.697v-3.9h-3.697Zm-4.015 0V68H79v-3.9h-3.7Zm-4.014 0V68h3.697v-3.9h-3.697Zm-4.015 0V68h3.698v-3.9h-3.698Zm-2.161 0c-.765 0-1.387.622-1.387 1.386V68h3.231v-3.9h-1.844Z"/>
    <path fill="#A3BFE8" d="M75.301 84.042H79v-3.694h-3.7v3.694Zm4.014-12.032h3.698v-3.693h-3.698v3.694Zm-8.028 16.042h3.697V84.36h-3.697v3.694Zm8.028-12.031h3.698v-3.694h-3.698v3.694Zm0 4.01h3.698v-3.693h-3.698v3.694Zm-4.014-4.01H79v-3.694h-3.7v3.694Zm0-8.021H79v-3.9h-3.7V68Zm-4.014 16.042h3.697v-3.694h-3.697v3.694Zm4.014-12.032H79v-3.693h-3.7v3.694Zm0 16.042H79V84.36h-3.7v3.694Zm4.014 0h3.698V84.36h-3.698v3.694Zm-4.014-8.021H79v-3.693h-3.7v3.694ZM79.315 68h3.698v-3.9h-3.698V68ZM63.724 84.042h3.231v-3.694h-3.23v3.694Zm0-12.032h3.231v-3.693h-3.23v3.694Zm0 8.021h3.231v-3.693h-3.23v3.694Zm0-4.01h3.231v-3.694h-3.23v3.694Zm15.591 8.021h3.698v-3.694h-3.698v3.694ZM90.576 68h-3.231v-3.9h1.844c.765 0 1.387.622 1.387 1.386V68Zm-7.246 4.01h3.698v-3.693H83.33v3.694ZM63.724 88.052h3.231V84.36h-3.23v3.694ZM83.33 76.021h3.698v-3.694H83.33v3.694Zm0 4.01h3.698v-3.693H83.33v3.694Zm0 4.011h3.698v-3.694H83.33v3.694Zm0 4.01h3.698V84.36H83.33v3.694Zm4.015 0h3.23V84.36h-3.23v3.694ZM83.33 68h3.698v-3.9H83.33V68Zm-8.029 24.269H79v-3.9h-3.7v3.9Zm4.014 0h3.698v-3.9h-3.698v3.9Zm8.03-12.238h3.23v-3.693h-3.23v3.694ZM83.33 92.269h3.698v-3.9H83.33v3.9Zm4.015-8.227h3.23v-3.694h-3.23v3.694Zm-20.39 8.227h-1.844a1.387 1.387 0 0 1-1.387-1.385v-2.515h3.231v3.9Zm22.234 0h-1.844v-3.9h3.23v2.515c0 .764-.621 1.385-1.386 1.385ZM66.955 68h-3.23v-2.514c0-.764.621-1.386 1.386-1.386h1.844V68Zm20.39 8.021h3.23v-3.694h-3.23v3.694Zm0-4.011h3.23v-3.693h-3.23v3.694Zm-20.073 8.021h3.698v-3.693h-3.698v3.694Zm0 8.021h3.698V84.36h-3.698v3.694ZM71.287 68h3.697v-3.9h-3.697V68Zm-4.015 16.042h3.698v-3.694h-3.698v3.694Zm4.015-8.021h3.697v-3.694h-3.697v3.694Zm0-4.011h3.697v-3.693h-3.697v3.694Zm0 20.259h3.697v-3.9h-3.697v3.9Zm-4.015 0h3.698v-3.9h-3.698v3.9Zm0-24.269h3.698v-3.9h-3.698V68Zm4.015 12.031h3.697v-3.693h-3.697v3.694Zm-4.015-4.01h3.698v-3.694h-3.698v3.694Zm0-4.011h3.698v-3.693h-3.698v3.694Z"/>
    <path fill="#fff" d="M77.15 69.234c-3.351 0-6.079 2.725-6.079 6.073v5.755c0 3.349 2.728 6.073 6.08 6.073 3.351 0 6.078-2.724 6.078-6.073v-5.755c0-3.348-2.727-6.073-6.079-6.073Zm0 18.534c-3.701 0-6.713-3.008-6.713-6.706v-5.755c0-3.697 3.012-6.706 6.713-6.706 3.702 0 6.713 3.009 6.713 6.706v5.755c0 3.698-3.011 6.706-6.713 6.706Z"/>
    <path fill="#fff" d="M80.891 76.435c0 .53-.318.961-.71.961-.393 0-.711-.43-.711-.96 0-.532.318-.962.71-.962.393 0 .711.43.711.961Zm-6.061 0c0 .53-.318.961-.711.961-.392 0-.71-.43-.71-.96 0-.532.318-.962.71-.962.393 0 .711.43.711.961Zm2.355.961-1.338 3.424h1.338v-3.424Zm-.279 5.803c-1.17 0-1.74-.263-1.774-.28l.274-.57-.137.285.134-.287c.012.006 1.134.502 3.56-.023l.135.62c-.884.19-1.611.255-2.192.255Z"/>
    <path fill="#4870C0" d="M261.317 97.22h-69.076a3.25 3.25 0 0 1-3.251-3.248V24.966a3.25 3.25 0 0 1 3.251-3.248h69.076a3.25 3.25 0 0 1 3.251 3.248v69.006a3.25 3.25 0 0 1-3.251 3.249Z"/>
    <path fill="#A1BCE6" d="M253.499 83.885h-53.44a2.933 2.933 0 0 1-2.934-2.931v-9.768a2.933 2.933 0 0 1 2.934-2.931h53.44a2.933 2.933 0 0 1 2.934 2.93v9.769a2.933 2.933 0 0 1-2.934 2.931Z"/>
    <path fill="#fff" d="m207.726 76.078 1.73.936-.778 1.3-1.747-1.03.032 1.92h-1.493l.016-1.936-1.746 1.046-.762-1.3 1.73-.936-1.73-.952.762-1.3 1.746 1.046-.016-1.935h1.493l-.032 1.935 1.747-1.047.778 1.301-1.73.951Zm10.28 0 1.731.936-.778 1.3-1.747-1.03.032 1.92h-1.493l.017-1.936-1.747 1.046-.762-1.3 1.73-.936-1.73-.952.762-1.3 1.747 1.046-.017-1.935h1.493l-.032 1.935 1.747-1.047.778 1.301-1.731.952Zm10.281 0 1.731.936-.778 1.3-1.746-1.03.031 1.92h-1.492l.016-1.936-1.747 1.046-.762-1.3 1.731-.936-1.731-.952.762-1.3 1.747 1.046-.016-1.935h1.492l-.031 1.935 1.746-1.047.778 1.301-1.731.952Zm10.282 0 1.731.936-.778 1.3-1.747-1.03.032 1.92h-1.493l.016-1.936-1.746 1.046-.763-1.3 1.731-.936-1.731-.952.763-1.3 1.746 1.046-.016-1.935h1.493l-.032 1.935 1.747-1.047.778 1.301-1.731.951Zm10.282 0 1.73.936-.778 1.3-1.747-1.03.032 1.92h-1.493l.016-1.936-1.746 1.046-.762-1.3 1.73-.936-1.73-.952.762-1.3 1.746 1.046-.016-1.935h1.493l-.032 1.935 1.747-1.047.778 1.301-1.73.952Z"/>
    <path fill="#A1BCE6" d="M226.78 62.013c-9.362 0-16.951-7.581-16.951-16.933s7.589-16.933 16.951-16.933c9.361 0 16.949 7.58 16.949 16.933 0 9.352-7.588 16.933-16.949 16.933Z"/>
    <path fill="#4870C0" d="M227.998 53.104h-2.438l.511-3.297a1.606 1.606 0 0 1 .708-3.05 1.606 1.606 0 0 1 .709 3.051l.51 3.296Zm5.41-8.973h-13.257a1.815 1.815 0 0 0-1.816 1.814v8.066c0 1.002.813 1.814 1.816 1.814h13.257a1.814 1.814 0 0 0 1.815-1.814v-8.066a1.814 1.814 0 0 0-1.815-1.814Zm-10.443-1.293-.25-1.241a4.083 4.083 0 0 1 8.005-1.606l.25 1.24 2.336-.468-.249-1.241c-.703-3.492-4.117-5.762-7.612-5.06-3.495.701-5.768 4.112-5.066 7.603l.249 1.242 2.337-.469Z"/>
    <path fill="#395EB4" d="M236.224 89.519h-18.89a.835.835 0 1 1 0-1.67h18.89a.836.836 0 1 1 0 1.67Z"/>
    <path fill="#F9A95E" d="m173.645 89.17 6.492-5.513s5.526-5.851 6.697-5.978c1.17-.125 3.678.376 4.347 1.21.669.836-4.327 6.272-5.497 7.274-1.171 1.002-3.512.835-3.512.835l-6.186 5.973-2.341-3.802Z"/>
    <path fill="#1D2A30" d="M123.557 236.316h-6.276a.454.454 0 0 0-.44.354l-1.019 4.597a.762.762 0 0 0 .588.902l.168.017c2.031-.034 3.509-.158 6.059-.158 1.571 0 6.309.164 8.478.164 2.168 0 2.451-2.14 1.564-2.337-3.983-.867-6.979-2.068-8.254-3.211a1.257 1.257 0 0 0-.868-.328Zm26.616-.164h-6.276a.452.452 0 0 0-.44.354l-1.019 4.596a.762.762 0 0 0 .588.903l.168.016c2.03-.032 3.51-.158 6.059-.158 1.571 0 6.309.165 8.478.165 2.169 0 2.451-2.141 1.564-2.337-3.983-.867-6.979-2.068-8.254-3.211a1.254 1.254 0 0 0-.868-.328Z"/>
    <path fill="#1D2A30" d="M120.229 120.093h27.42c2.607 14.223 10.064 71.781 4.209 116.624l-9.155 1.002s1.436-68.912-6.76-90.92c-.943 11.778-2.062 24.31-3.034 30.979-2.386 16.413-7.763 59.19-7.763 59.19l-9.28.25s2.033-41.491 2.927-57.621c.976-17.512 1.398-55.907 1.436-59.504Z"/>
    <path fill="#45555C" d="M142.703 237.719s.097-4.649.097-11.92c-.001-20.717-.79-62.709-6.857-79-.78 9.748-1.681 20.013-2.52 27.042a159.424 159.424 0 0 1-.514 3.937c-.41 2.821-.909 6.421-1.453 10.448-1.298 9.606-2.857 21.643-4.1 31.352-.368 2.865-.707 5.531-1.005 7.868l-.02.159c-.719 5.653-1.185 9.363-1.185 9.363l-.305.008-8.116.219-.859.023s2.033-41.491 2.927-57.621c.69-12.383 1.104-35.207 1.299-48.786a201.48 201.48 0 0 0 1.361 1.455l4.457-3.357 22.956-1.234c2.139 14.726 5.18 42.485 5.18 71.108 0 6.939-.178 13.928-.591 20.795-.351 5.837-.873 11.586-1.597 17.139l-.462.051-8.196.897-.497.054Zm-5.995-100.665-.763 9.747c1.209 3.243 2.215 7.294 3.063 11.851.766-10.482-2.3-21.598-2.3-21.598Z"/>
    <path fill="#364248" d="M139.008 158.652c-.847-4.557-1.854-8.608-3.063-11.851l.763-9.747s3.067 11.116 2.3 21.598Z"/>
    <path fill="#4870C0" d="M145.146 72.699c4.329.525 12.857 20.194 16.117 21.948 3.261 1.754 16.177-9.27 16.177-9.27l3.261 4.009s-14.673 15.66-20.441 13.906c-5.769-1.754-13.92-16.537-16.429-21.173-2.508-4.635 1.315-9.42 1.315-9.42Z"/>
    <path fill="#fff" d="M150.387 78.026c-1.974-2.952-3.829-5.155-5.24-5.327h-.003l.001-.001c1.411.17 3.267 2.374 5.242 5.328Z"/>
    <path fill="#A1BCE6" d="M161.249 103.426c-.352 0-.683-.043-.989-.137-2.517-.766-5.491-4.015-8.249-7.815-.572-6.755-3.1-12.297-5.429-16.096-.431-2.45-.908-4.707-1.435-6.679 1.411.172 3.266 2.374 5.239 5.327 4.086 6.114 8.679 15.441 10.875 16.624.241.129.532.188.868.188 4.226 0 15.312-9.46 15.312-9.46l3.259 4.009s-13.155 14.039-19.451 14.039Z"/>
    <path fill="#CECDCC" d="M150.525 93.347a104.876 104.876 0 0 1-2.519-3.933v-.001a104.811 104.811 0 0 0 2.519 3.934Z"/>
    <path fill="#7A95D4" d="M152.012 95.474a74.61 74.61 0 0 1-1.486-2.127 103.6 103.6 0 0 1-2.52-3.934c-.407-3.526-.879-6.935-1.424-10.035 2.329 3.799 4.857 9.341 5.43 16.096Z"/>
    <path fill="#4870C0" d="M145.147 72.7s-17.443-.822-30.437 2.455c0 0 4.873 37.691 4.655 54.105l31.101-1.671s-.789-37.951-5.319-54.89Z"/>
    <path fill="#B8BDBD" d="m125.91 128.909.001-.001 22.955-1.233-22.956 1.234Z"/>
    <path fill="#fff" d="M115.11 75.055v-.001c3.24-.79 6.74-1.333 10.166-1.702-3.427.37-6.925.912-10.166 1.703Z"/>
    <path fill="#F6F7F7" d="m114.714 75.154-.001-.002.397-.098v.001c-.132.032-.265.065-.396.099Z"/>
    <path fill="#B4CAEC" d="M125.912 128.908s-3.43-4.851-6.862-10.185c-.368-6.327-1.006-13.529-1.68-20.231v-.007c2.491-6.244.754-13.11.754-13.11h-.002c-.101-1.676-.324-4.411-.764-6.061-.651-2.442-2.548-4.074-2.644-4.156v-.004c.131-.034.264-.066.396-.099 3.241-.79 6.74-1.333 10.166-1.702a3.997 3.997 0 0 1-.381.494c1.439 1.306 4.079 1.584 6.064 1.584 1.468 0 2.576-.152 2.576-.152s3.83-1.047 3.026-2.243a7.185 7.185 0 0 1-1.353-.35 157.18 157.18 0 0 1 4.899-.077c3.087 0 5.038.093 5.038.093 4.533 16.935 5.319 54.887 5.319 54.887l-1.474.08-.124.006-22.954 1.233Zm3.884-15.646v.006c.019.533.032.824.032.824l5.915-.278 2.84-.133 4.629-.216 1.705-.083c0-9.019-1.211-18.551-2.168-24.663a185.5 185.5 0 0 0-.666-3.965c-.285-1.628-.475-2.559-.475-2.559l-14.716.957c.229 1.089.444 2.286.641 3.565.374 2.383.691 5.03.963 7.709.184 1.805.343 3.629.489 5.402.202 2.572.367 5.029.488 7.157v.007c.171 2.856.272 5.124.323 6.27Z"/>
    <path fill="#8AA1D3" d="M117.37 98.485a888.987 888.987 0 0 0-.797-7.589c.922-2.384 1.622-4.065 1.622-4.065s-.02-.585-.073-1.455l.002-.001s1.737 6.866-.754 13.11Zm12.458 15.607s-.013-.291-.032-.824v-.006c.666-.982 1.274-2.349 1.712-4.263 1.299-5.708 3.035-10.646 4.627-10.646.365 0 .723.26 1.066.83 1.357 2.255.564 9.493-1.458 14.631l-5.915.278Zm8.755-.411c2.853-7.639 2.156-16.887-.216-18.8-.69-.555-1.339-.862-1.963-.862-1.714 0-3.237 2.316-4.896 8.134-.628 2.197-1.338 3.744-2.036 4.832-.12-2.128-.285-4.585-.488-7.157.767-1.102 1.56-2.635 2.276-4.782 1.369-4.122 3.578-5.869 5.645-5.869 1.562 0 3.043.999 4.018 2.721 1.978 3.49 2.865 14.834 2.288 21.567l-4.628.216Zm4.165-24.962a5.529 5.529 0 0 0-1.287-1.267c-1.245-.845-2.499-1.234-3.721-1.234-2.852 0-5.519 2.123-7.437 5.516-.64 1.128-1.249 2.008-1.807 2.692-.273-2.68-.59-5.326-.964-7.709.109.008.22.012.334.012 1.049 0 2.315-.339 3.642-1.437 1.594-1.319 3.695-2.109 5.812-2.109 1.654 0 3.32.482 4.763 1.571.19 1.051.418 2.395.665 3.965Z"/>
    <path fill="#687FAA" d="M135.743 113.814c2.022-5.138 2.815-12.376 1.458-14.632-.343-.57-.7-.829-1.066-.829-1.592 0-3.327 4.938-4.627 10.646-.438 1.914-1.046 3.281-1.712 4.263a395.035 395.035 0 0 0-.323-6.27v-.007c.697-1.089 1.407-2.635 2.035-4.832 1.659-5.819 3.182-8.134 4.896-8.134.624 0 1.273.307 1.964.862 2.371 1.913 3.068 11.161.215 18.8l-2.84.133Z"/>
    <path fill="#687FAA" d="M143.211 113.465c.577-6.733-.31-18.077-2.289-21.567-.974-1.722-2.455-2.72-4.017-2.72-2.067 0-4.276 1.746-5.645 5.868-.716 2.147-1.509 3.68-2.276 4.782a280.234 280.234 0 0 0-.488-5.403c.558-.683 1.167-1.563 1.807-2.691 1.918-3.393 4.585-5.516 7.437-5.516 1.222 0 2.476.39 3.721 1.234.463.317.894.741 1.287 1.267.958 6.112 2.169 15.644 2.169 24.663l-1.706.083Zm-15.345-26.736c-.114 0-.225-.004-.334-.012a67.163 67.163 0 0 0-.64-3.566l14.715-.956s.19.931.476 2.559c-1.443-1.089-3.109-1.57-4.763-1.57-2.117 0-4.218.789-5.812 2.108-1.327 1.098-2.593 1.437-3.642 1.437Z"/>
    <path fill="#F9A95E" d="M124.895 73.847c2.504 2.273 8.64 1.432 8.64 1.432s3.83-1.047 3.026-2.243c-2.256-.372-3.348-1.424-3.799-2.77-.262-.784-.301-1.666-.23-2.574.033-.477.105-.96.191-1.437l-7.586-5.611c.994 3.703 2.21 10.517-.242 13.203Z"/>
    <path fill="#CA8849" d="M132.762 70.266c-1.832-.254-5.572-1.509-5.873-6.055l5.643 3.481c-.02.256-.031.509-.031.759 0 .638.073 1.252.261 1.815Z"/>
    <path fill="#1D2A30" d="M137.976 48.86s2.116 6.84-1.198 10.09c-3.314 3.248-5.271-9.78-5.271-9.78l6.469-.31Z"/>
    <path fill="#F9A95E" d="M126.818 66.13c2.194 2.32 5.238 2.557 7.672 1.367a7.158 7.158 0 0 0 3.547-3.895c.091-.231.167-.474.235-.722 1.188-4.552.646-12.12-4.302-14.245-3.517-1.54-7.628.06-9.168 3.58a6.906 6.906 0 0 0-.58 3.186c.195 5.083.07 8.082 2.596 10.729Z"/>
    <path fill="#1D2A30" d="M131.919 56.979c-.036.41.202.753.477.758.275.005.496-.33.507-.742.011-.412-.208-.753-.477-.757-.268-.005-.495.322-.507.74Zm4.687.095c-.038.41.207.753.476.757.269.005.496-.33.507-.741.011-.412-.208-.754-.477-.758-.268-.004-.497.348-.506.742Z"/>
    <path fill="#EC782F" d="M135.113 57.247a14.753 14.753 0 0 0 1.908 3.583 2.4 2.4 0 0 1-2 .331l.092-3.914Z"/>
    <path fill="#1D2A30" d="M130.497 55.434c.089.015.18-.02.238-.09a1.962 1.962 0 0 1 1.574-.783.24.24 0 1 0 .044-.481h-.001a2.413 2.413 0 0 0-1.997.96.24.24 0 0 0 .03.34l.005.005.107.049Zm8.155.066.143.013a.242.242 0 0 0 .124-.319l-.002-.005a2.416 2.416 0 0 0-1.726-1.402.242.242 0 0 0-.274.205.249.249 0 0 0 .205.275 1.958 1.958 0 0 1 1.349 1.132.25.25 0 0 0 .181.1Zm-10.567-6.368.335 2.234c-.725.412-1.146 1.253-.782 2.127.776 1.865-.214 4.819-1.63 6.024 0 0-.067-.815-.752-.603-.684.213-.377 4.46 1.024 6.453 0 0-2.433-2.18-3.705-6.613-1.176-4.1-1.055-7.138-.25-8.759l5.76-.863Zm7.314 13.273c-.262.632-.499 1.806-.499 1.806-.111-.003-.221-.005-.331-.013-1.495-.07-2.167-.595-2.457-1.157a1.93 1.93 0 0 1-.196-.89 1.871 1.871 0 0 1 .067-.519c.771.51 2.16.681 2.906.741.312.03.51.032.51.032Z"/>
    <path fill="#fff" d="m134.889 62.373-.161.53c-1.408-.07-2.391-.306-2.812-.753a1.868 1.868 0 0 1 .067-.518c.771.51 2.16.681 2.906.741Z"/>
    <path fill="#F03E4C" d="M134.569 64.198c-1.495-.07-2.167-.595-2.457-1.157.508.044 1.118.152 1.645.406.405.192.652.472.812.75Z"/>
    <path fill="#1D2A30" d="M131.436 50.52s.396-.689 1.467-.376c1.072.314 2.018 1.39 3.119 2.757 1.1 1.366 3.282 1.377 3.784.563.502-.814-.502-1.942-.502-1.942s.939-5.198-4.734-6.39c-5.674-1.19-8.658 1.316-8.658 1.316s-4.714.156-5.042 4.51c-.213 2.827.313 5.28.313 5.28s-1.254 1.593 1.122 1.499c2.704-.108 5.954-1.58 6.115-4.21.162-2.631 3.016-3.007 3.016-3.007Z"/>
    <path fill="#F9A95E" d="M121.914 59.526a4.843 4.843 0 0 0 2.726 2.503c1.6.572 2.52-.83 2.181-2.402-.314-1.396-1.516-3.421-3.174-3.3-1.659.123-2.38 1.764-1.733 3.2Z"/>
    <path fill="#4870C0" d="M114.71 75.155c-4.542 1.319-10.896 32.222-10.059 36.232.836 4.008 16.802 20.879 16.802 20.879l4.459-3.358s-13.57-19.192-13.737-23.202c-.167-4.008 6.02-18.875 6.02-18.875s-.168-5.011-.837-7.517c-.668-2.506-2.648-4.16-2.648-4.16Z"/>
    <path fill="#A1BCE6" d="M121.453 132.266s-13.8-14.581-16.413-19.853c-.197-.399-.331-.745-.39-1.026-.05-.244-.074-.585-.074-1.012.001-6.631 5.867-33.98 10.134-35.22 0 0 1.98 1.653 2.648 4.159.669 2.506.837 7.517.837 7.517s-.7 1.68-1.622 4.065c-.001.002-.003.005-.003.008-1.784 4.612-4.4 11.848-4.398 14.638 0 .057.001.112.003.164.167 4.01 13.737 23.202 13.737 23.202l-4.459 3.358Z"/>
  </g>
  <defs>
    <clipPath id="a">
      <path fill="#fff" d="M9 12h317v236H9z"/>
    </clipPath>
  </defs>
</svg>
