<?xml version="1.0" encoding="UTF-8" standalone="no"?>
<!-- Created with Inkscape (http://www.inkscape.org/) -->

<svg
   version="1.1"
   id="svg2"
   width="110"
   height="110"
   viewBox="0 0 800 800"
   sodipodi:docname="shield.eps"
   xmlns:inkscape="http://www.inkscape.org/namespaces/inkscape"
   xmlns:sodipodi="http://sodipodi.sourceforge.net/DTD/sodipodi-0.dtd"
   xmlns="http://www.w3.org/2000/svg"
   xmlns:svg="http://www.w3.org/2000/svg">
  <defs
     id="defs6" />
  <sodipodi:namedview
     id="namedview4"
     pagecolor="#ffffff"
     bordercolor="#000000"
     borderopacity="0.25"
     inkscape:showpageshadow="2"
     inkscape:pageopacity="0.0"
     inkscape:pagecheckerboard="0"
     inkscape:deskcolor="#d1d1d1" />
  <g
     id="g8"
     inkscape:groupmode="layer"
     inkscape:label="ink_ext_XXXXXX"
     transform="matrix(1.3333333,0,0,-1.3333333,0,800)">
    <g
       id="g10"
       transform="scale(0.1)">
      <path
         d="M 6000,0 H 0 V 6000 H 6000 V 0"
         style="fill:#ffffff;fill-opacity:1;fill-rule:nonzero;stroke:none"
         id="path12" />
      <path
         d="m 4294.78,903.871 c 0,-85.25 -579.69,-154.351 -1294.78,-154.351 -715.09,0 -1294.78,69.101 -1294.78,154.351 0,85.231 579.69,154.339 1294.78,154.339 715.09,0 1294.78,-69.108 1294.78,-154.339"
         style="fill:#d3d5d2;fill-opacity:1;fill-rule:nonzero;stroke:none"
         id="path14" />
      <path
         d="m 3073.69,1298.49 367.21,199.87 C 4265.67,1947.29 4780,2817.72 4780,3764.62 v 955.96 c 0,74.42 -58.34,136.19 -131.92,138.2 -867.79,23.78 -1406.14,276.99 -1583.33,374.99 -40.28,22.28 -89.22,22.28 -129.5,0 -177.19,-98 -715.54,-351.21 -1583.33,-374.99 C 1278.34,4856.77 1220,4795 1220,4720.58 v -955.96 c 0,-946.9 514.33,-1817.33 1339.1,-2266.26 l 367.21,-199.87 c 46,-25.04 101.38,-25.04 147.38,0"
         style="fill:#d2d3d2;fill-opacity:1;fill-rule:nonzero;stroke:none"
         id="path16" />
      <path
         d="M 4603.99,4608.04 V 3796.8 c 0,-903.05 -488.13,-1729.59 -1273.82,-2157.34 l -260.49,-141.72 c -21.65,-11.77 -45.67,-17.77 -69.68,-17.77 -24.01,0 -48.03,6 -69.68,17.77 l -260.49,141.72 C 1884.14,2067.21 1396.01,2893.75 1396.01,3796.8 v 811.24 c 0,38.37 30.37,69.8 68.62,72.5 739.2,50.27 1246.76,246.13 1503.59,371.6 10.24,5.07 20.95,7.54 31.78,7.54 10.83,0 21.54,-2.47 31.78,-7.54 256.83,-125.47 764.51,-321.33 1503.59,-371.6 38.25,-2.7 68.62,-34.13 68.62,-72.5"
         style="fill:#4aa5e0;fill-opacity:1;fill-rule:nonzero;stroke:none"
         id="path18" />
      <path
         d="M 4603.99,4608.04 V 3796.8 c 0,-903.05 -488.13,-1729.59 -1273.82,-2157.34 l -260.49,-141.72 c -21.65,-11.77 -45.67,-17.77 -69.68,-17.77 v 3579.71 c 10.83,0 21.54,-2.47 31.78,-7.54 256.83,-125.47 764.51,-321.33 1503.59,-371.6 38.25,-2.7 68.62,-34.13 68.62,-72.5"
         style="fill:#3d8eb8;fill-opacity:1;fill-rule:nonzero;stroke:none"
         id="path20" />
      <path
         d="m 3117.71,2911.17 v -97.22 c 0,-64.99 -52.74,-117.72 -117.71,-117.72 -64.97,0 -117.71,52.73 -117.71,117.72 v 97.22 c -50.02,36.25 -82.39,95.22 -82.39,161.73 0,110.52 89.57,200.1 200.1,200.1 110.53,0 200.1,-89.58 200.1,-200.1 0,-66.51 -32.37,-125.48 -82.39,-161.73 z m 492.25,679.64 H 2390.04 c -72.63,0 -131.59,-58.97 -131.59,-131.6 v -972.73 c 0,-72.62 58.96,-131.6 131.59,-131.6 h 1219.92 c 72.63,0 131.59,58.98 131.59,131.6 v 972.73 c 0,72.63 -58.96,131.6 -131.59,131.6"
         style="fill:#ffffff;fill-opacity:1;fill-rule:nonzero;stroke:none"
         id="path22" />
      <path
         d="m 3435.52,3955.23 v -152.55 c 0,-52.01 -42.16,-94.16 -94.17,-94.16 v 0 c -52,0 -94.16,42.15 -94.16,94.16 v 146.49 c 0,133.86 -103.9,248.02 -237.67,253.07 -140.62,5.3 -256.71,-107.54 -256.71,-247.01 v -270.25 h -188.33 v 263.16 c 0,237.35 187.01,436.5 424.28,442.47 124.76,3.14 237.85,-46.15 319.16,-127.46 78.87,-78.86 127.6,-187.62 127.6,-307.92"
         style="fill:#ffffff;fill-opacity:1;fill-rule:nonzero;stroke:none"
         id="path24" />
    </g>
  </g>
</svg>
