<svg xmlns="http://www.w3.org/2000/svg" width="35" height="26" fill="none" viewBox="0 0 35 26">
  <path fill="#A6CC26" fill-rule="evenodd" d="M3.124 11.067C3.167 4.028 9.9.004 18.555 0c5.517.047 11.101 2.083 14.722 6.79 3.358 4.93 1.846 12.185-4.868 15.716-5.39 2.755-13.656 3.415-19.382 1.098-8.052-3.64-11.123-9.61-7.554-16.094-2.31 6.354.874 10.807 7.726 13.903 5.155 2.127 16.174 1.37 20.4-3.992 2.927-3.773 2.123-8.702-1.722-11.554-4.312-3.138-9.285-4.042-15.057-2.25-4.503 1.562-7.373 4.23-7.464 8.915 1.529-4.943 7.671-7.055 13.102-5.492-4.86-.91-10.401 1.17-10.638 6.393.008 2.105 1.443 3.771 4.599 4.906 4.12 1.337 9.666.488 11.917-3.198-1.128 4.833-8.998 6.542-15.067 4.019-3.786-1.731-5.834-4.429-6.145-8.093Z" clip-rule="evenodd"/>
  <path fill="#007D3B" fill-rule="evenodd" d="M17.5 9.967c1.953 0 3.537 1.137 3.537 2.54 0 1.402-1.584 2.539-3.536 2.539-1.954 0-3.537-1.137-3.537-2.54 0-1.402 1.583-2.539 3.537-2.539Z" clip-rule="evenodd"/>
</svg>
