<svg width="32" height="31" viewBox="0 0 32 31" fill="none" xmlns="http://www.w3.org/2000/svg">
<g clip-path="url(#clip0_1509_289)">
<path d="M2.32169 11.558C1.50099 11.558 0.953846 11.0109 0.953846 10.1902V4.71884C0.953846 2.39352 2.73201 0.615356 5.05732 0.615356H10.5286C11.3493 0.615356 11.8965 1.16251 11.8965 1.9832C11.8965 2.8039 11.3493 3.35105 10.5286 3.35105H5.05732C4.23663 3.35105 3.68948 3.8982 3.68948 4.71889V10.1902C3.68954 11.0109 3.14239 11.558 2.32169 11.558Z" fill="#9AE7F5"/>
<path d="M29.6783 11.558C28.8576 11.558 28.3105 11.0108 28.3105 10.1901V4.7188C28.3105 3.89811 27.7633 3.35096 26.9426 3.35096H21.4713C20.6506 3.35096 20.1035 2.80381 20.1035 1.98312C20.1035 1.16242 20.6506 0.615326 21.4713 0.615326H26.9426C29.2679 0.615326 31.0461 2.39349 31.0461 4.7188V10.1901C31.0462 11.0108 30.499 11.558 29.6783 11.558Z" fill="#9AE7F5"/>
<path d="M10.5287 30.7076H5.05734C2.73202 30.7076 0.953858 28.9294 0.953858 26.6041V21.1328C0.953858 20.3121 1.50101 19.765 2.3217 19.765C3.1424 19.765 3.68955 20.3121 3.68955 21.1328V26.6041C3.68955 27.4248 4.2367 27.972 5.05739 27.972H10.5287C11.3494 27.972 11.8966 28.5191 11.8966 29.3398C11.8965 30.1605 11.3494 30.7076 10.5287 30.7076Z" fill="#9AE7F5"/>
<path d="M26.9427 30.7077H21.4714C20.6507 30.7077 20.1035 30.1605 20.1035 29.3398C20.1035 28.5191 20.6507 27.972 21.4714 27.972H26.9427C27.7634 27.972 28.3105 27.4248 28.3105 26.6041V21.1328C28.3105 20.3121 28.8577 19.765 29.6784 19.765C30.4991 19.765 31.0462 20.3121 31.0462 21.1328V26.6041C31.0462 28.9295 29.268 30.7077 26.9427 30.7077Z" fill="#9AE7F5"/>
<path d="M13.2643 14.2936H7.79302C6.97232 14.2936 6.42517 13.7465 6.42517 12.9258V7.45445C6.42517 6.63376 6.97232 6.08661 7.79302 6.08661H13.2643C14.085 6.08661 14.6322 6.63376 14.6322 7.45445V12.9258C14.6322 13.7465 14.085 14.2936 13.2643 14.2936ZM9.16086 11.5579H11.8965V8.82224H9.16086V11.5579Z" fill="#1DBBD8"/>
<path d="M13.2643 25.2362H7.79302C6.97232 25.2362 6.42517 24.6891 6.42517 23.8684V18.3971C6.42517 17.5764 6.97232 17.0292 7.79302 17.0292H13.2643C14.085 17.0292 14.6322 17.5764 14.6322 18.3971V23.8684C14.6322 24.6891 14.085 25.2362 13.2643 25.2362ZM9.16086 22.5006H11.8965V19.7649H9.16086V22.5006Z" fill="#1DBBD8"/>
<path d="M24.207 14.2936H18.7357C17.915 14.2936 17.3678 13.7465 17.3678 12.9258V7.45445C17.3678 6.63376 17.915 6.08661 18.7357 6.08661H24.207C25.0277 6.08661 25.5748 6.63376 25.5748 7.45445V12.9258C25.5748 13.7465 25.0277 14.2936 24.207 14.2936ZM20.1035 11.5579H22.8392V8.82224H20.1035V11.5579Z" fill="#1DBBD8"/>
<path d="M18.7357 21.1328C17.915 21.1328 17.3678 20.5856 17.3678 19.7649V18.3971C17.3678 17.5764 17.915 17.0292 18.7357 17.0292C19.5564 17.0292 20.1035 17.5764 20.1035 18.3971V19.7649C20.1035 20.5857 19.5564 21.1328 18.7357 21.1328Z" fill="#1DBBD8"/>
<path d="M24.207 19.7649H22.8392C22.0185 19.7649 21.4713 19.2178 21.4713 18.3971C21.4713 17.5764 22.0185 17.0292 22.8392 17.0292H24.207C25.0277 17.0292 25.5748 17.5764 25.5748 18.3971C25.5748 19.2178 25.0277 19.7649 24.207 19.7649Z" fill="#1DBBD8"/>
<path d="M24.207 25.2363H20.1035C19.2828 25.2363 18.7357 24.6891 18.7357 23.8684C18.7357 23.0477 19.2828 22.5006 20.1035 22.5006H24.207C25.0277 22.5006 25.5748 23.0477 25.5748 23.8684C25.5748 24.6891 25.0277 25.2363 24.207 25.2363Z" fill="#1DBBD8"/>
</g>
<defs>
<clipPath id="clip0_1509_289">
<rect width="30.0923" height="30.0923" fill="white" transform="translate(0.953846 0.615356)"/>
</clipPath>
</defs>
</svg>
