<svg width="17" height="17" viewBox="0 0 17 17" fill="none" xmlns="http://www.w3.org/2000/svg">
<path d="M9.13751 10.6423H9.33301C9.61351 10.6423 9.85151 10.3873 9.85151 10.0728C9.85151 9.67326 9.75801 9.62226 9.48601 9.52876L9.13751 9.40976V10.6423Z" fill="#FFC700"/>
<path d="M8.5 0C3.808 0 0 3.808 0 8.5C0 13.192 3.808 17 8.5 17C13.192 17 17 13.192 17 8.5C17 3.808 13.192 0 8.5 0ZM4.74299 12.257C4.98949 12.5035 4.98949 12.9115 4.74299 13.158C4.61549 13.2855 4.45399 13.345 4.29249 13.345C4.13099 13.345 3.96949 13.2855 3.84199 13.158C2.60099 11.917 1.9125 10.2595 1.9125 8.5C1.9125 6.7405 2.60099 5.083 3.84199 3.842C4.08849 3.5955 4.49649 3.5955 4.74299 3.842C4.98949 4.0885 4.98949 4.4965 4.74299 4.743C3.73999 5.746 3.1875 7.0805 3.1875 8.5C3.1875 9.9195 3.73999 11.254 4.74299 12.257ZM9.9025 8.313C10.7185 8.602 11.118 9.1715 11.118 10.064C11.118 11.084 10.319 11.9085 9.3245 11.9085H9.129V12.0615C9.129 12.41 8.84 12.699 8.4915 12.699C8.143 12.699 7.854 12.41 7.854 12.0615V11.9085H7.8285C6.74899 11.9085 5.86499 10.999 5.86499 9.8855C5.86499 9.537 6.15399 9.248 6.50249 9.248C6.851 9.248 7.14 9.537 7.14 9.8855C7.14 10.302 7.446 10.6335 7.8285 10.6335H7.854V8.9505L7.089 8.6785C6.273 8.3895 5.8735 7.82 5.8735 6.9275C5.8735 5.9075 6.67249 5.083 7.667 5.083H7.8625V4.93C7.8625 4.5815 8.1515 4.2925 8.5 4.2925C8.8485 4.2925 9.1375 4.5815 9.1375 4.93V5.083H9.163C10.2425 5.083 11.1265 5.9925 11.1265 7.106C11.1265 7.4545 10.8375 7.7435 10.489 7.7435C10.1405 7.7435 9.8515 7.4545 9.8515 7.106C9.8515 6.6895 9.5455 6.358 9.163 6.358H9.1375V8.041L9.9025 8.313ZM13.158 13.158C13.0305 13.2855 12.869 13.345 12.7075 13.345C12.546 13.345 12.3845 13.2855 12.257 13.158C12.0105 12.9115 12.0105 12.5035 12.257 12.257C13.26 11.254 13.8125 9.9195 13.8125 8.5C13.8125 7.0805 13.26 5.746 12.257 4.743C12.0105 4.4965 12.0105 4.0885 12.257 3.842C12.5035 3.5955 12.9115 3.5955 13.158 3.842C14.399 5.083 15.0875 6.7405 15.0875 8.5C15.0875 10.2595 14.399 11.917 13.158 13.158Z" fill="#FFC700"/>
<path d="M7.15692 6.93642C7.15692 7.33592 7.25042 7.38692 7.52242 7.48042L7.87092 7.59942V6.3584H7.67542C7.38642 6.3584 7.15692 6.6219 7.15692 6.93642Z" fill="#FFC700"/>
</svg>
