<svg xmlns="http://www.w3.org/2000/svg" width="30" height="30" viewBox="0 0 180.68 120"><path d="M421.66,537.5v33.41H446.2V541.59c0-12.95,7.23-21.41,24.82-21.95V495.09C438.7,495.64,421.66,512.41,421.66,537.5Z" transform="translate(-421.66 -452)" fill="none" /><path d="M563.48,494c-22.78.14-39.14,16.5-39.14,39,0,22.23,13.64,36.82,36.68,39l16.09-12.14.55.28v10.77h24.68V533C602.34,509.41,586.84,493.86,563.48,494Zm0,54c-8.46,0-14.59-6.27-14.59-15s6.13-15,14.59-15,14.31,6.27,14.31,15S571.84,548,563.48,548Z" transform="translate(-421.66 -452)"  /><rect x="65.59" y="43.09" width="24.54" height="75.82"  /><path d="M499.52,452a16.37,16.37,0,1,0,16.37,16.37h0A16.36,16.36,0,0,0,499.53,452Z" transform="translate(-421.66 -452)"  /></svg>