<svg xmlns="http://www.w3.org/2000/svg" width="32" height="32" fill="none" viewBox="0 0 32 32">
  <circle cx="16" cy="16" r="16" fill="#F0F0F0"/>
  <path stroke="#000" stroke-linecap="round" stroke-width="1.5" d="M13 16h.75M19 16h-3m3-3h-.75M16 13h-3m0 6h3.75m-7.5-1.5v-3c0-2.828 0-4.243.879-5.121.878-.879 2.293-.879 5.121-.879h1.5c2.828 0 4.243 0 5.121.879.49.49.707 1.146.803 2.121m.076 3v3c0 2.828 0 4.243-.879 5.121-.878.879-2.293.879-5.121.879h-1.5c-2.828 0-4.243 0-5.121-.879-.49-.49-.707-1.146-.803-2.121"/>
</svg>
