<svg width="30" height="31" viewBox="0 0 30 31" fill="none" xmlns="http://www.w3.org/2000/svg">
<path d="M26.3559 27.6094C26.3559 29.3439 24.9497 30.7501 23.2152 30.7501H2.55241L4.53604 26.7829V2.31818C4.53604 1.20947 5.44844 0.309034 6.56694 0.335085L26.3559 4.3018V27.6094Z" fill="#1DBBD8"/>
<path d="M29.6619 24.1381V26.1217C29.6619 26.4869 29.3659 26.7829 29.0007 26.7829C28.7142 26.7829 21.0175 26.7829 21.0662 26.7829C20.701 26.7829 20.405 26.4869 20.405 26.1217V24.1381C20.405 23.7729 20.701 23.4769 21.0662 23.4769L24.3061 22.5732L27.6783 23.4769C28.5106 23.4769 29.0508 23.4769 29.0007 23.4769C29.3659 23.4769 29.6619 23.7729 29.6619 24.1381Z" fill="#2B95A9" fill-opacity="0.83"/>
<path d="M29.6619 17.5259V19.5095C29.6619 19.8747 29.3659 20.1708 29.0007 20.1708C28.9591 20.1708 28.4368 20.1708 27.6783 20.1708L24.3061 20.832L21.0662 20.1708C20.701 20.1708 20.405 19.8747 20.405 19.5095V17.5259C20.405 17.1607 20.701 16.8647 21.0662 16.8647C21.1647 16.8647 22.8318 15.5423 24.5265 15.5423C26.0006 15.5423 27.4634 16.8647 28.3395 16.8647C28.8055 16.8647 29.0681 16.8647 29.0007 16.8647C29.3659 16.8647 29.6619 17.1607 29.6619 17.5259Z" fill="#2B95A9" fill-opacity="0.83"/>
<path d="M28.3395 20.832V22.8156C28.3395 23.1808 28.0435 23.4768 27.6783 23.4768C27.4487 23.4768 19.404 23.4768 19.7438 23.4768C19.3786 23.4768 19.0826 23.1808 19.0826 22.8156V20.832C19.0826 20.4668 19.3786 20.1707 19.7438 20.1707C19.912 20.1707 27.9083 20.1707 27.6783 20.1707C28.0435 20.1707 28.3395 20.4668 28.3395 20.832Z" fill="#CBF4FB"/>
<path d="M28.3395 14.2199V16.2035C28.3395 16.5687 28.044 16.8647 27.6788 16.8647C25.5527 16.8647 19.5826 16.8647 19.7438 16.8647C19.3786 16.8647 19.0826 16.5687 19.0826 16.2035V14.2199C19.0826 13.8547 19.3786 13.5587 19.7438 13.5587C19.9784 13.5587 27.9125 13.5587 27.6783 13.5587C28.0435 13.5587 28.3395 13.8547 28.3395 14.2199Z" fill="#CBF4FB"/>
<path d="M27.6783 3.34303V3.64057C27.6783 4.00576 27.3823 4.30178 27.0171 4.30178H26.3559H9.16448C8.7993 4.30178 8.50328 4.00576 8.50328 3.64057V2.31816C8.50328 1.22254 7.61527 0.334534 6.51965 0.334534H24.6698C26.3314 0.334534 27.6783 1.68148 27.6783 3.34303Z" fill="#21A0B7"/>
<path d="M4.53603 26.7828V28.7263C4.53603 29.8102 3.68334 30.7242 2.59969 30.7496C1.4798 30.7757 0.568787 29.8738 0.568787 28.7665V27.444C0.568787 27.0789 0.864809 26.7828 1.22999 26.7828H4.53603Z" fill="#21A0B7"/>
<path d="M15.7766 8.26901H7.18086C6.81568 8.26901 6.51965 7.97299 6.51965 7.6078C6.51965 7.24262 6.81568 6.94659 7.18086 6.94659H15.7766C16.1417 6.94659 16.4378 7.24262 16.4378 7.6078C16.4378 7.97299 16.1417 8.26901 15.7766 8.26901Z" fill="#F9FAFC"/>
<path d="M15.7766 11.575H7.18086C6.81568 11.575 6.51965 11.279 6.51965 10.9138C6.51965 10.5486 6.81568 10.2526 7.18086 10.2526H15.7766C16.1417 10.2526 16.4378 10.5486 16.4378 10.9138C16.4378 11.279 16.1417 11.575 15.7766 11.575Z" fill="#F9FAFC"/>
<path d="M15.7766 14.8811H7.18086C6.81568 14.8811 6.51965 14.5851 6.51965 14.2199C6.51965 13.8547 6.81568 13.5587 7.18086 13.5587H15.7766C16.1417 13.5587 16.4378 13.8547 16.4378 14.2199C16.4378 14.5851 16.1417 14.8811 15.7766 14.8811Z" fill="#F9FAFC"/>
<path d="M15.7766 18.1871H7.18086C6.81568 18.1871 6.51965 17.891 6.51965 17.5259C6.51965 17.1608 6.81568 16.8647 7.18086 16.8647H15.7766C16.1417 16.8647 16.4378 17.1608 16.4378 17.5259C16.4378 17.891 16.1417 18.1871 15.7766 18.1871Z" fill="#F9FAFC"/>
<path d="M15.7766 21.4932H7.18086C6.81568 21.4932 6.51965 21.1971 6.51965 20.832C6.51965 20.4668 6.81568 20.1707 7.18086 20.1707H15.7766C16.1417 20.1707 16.4378 20.4668 16.4378 20.832C16.4378 21.1971 16.1417 21.4932 15.7766 21.4932Z" fill="#F9FAFC"/>
</svg>
