<svg xmlns="http://www.w3.org/2000/svg" width="35" height="32" fill="none" viewBox="0 0 35 32">
  <path fill="#F4F5F9" d="M0 31.45h35V0H0v31.45Z"/>
  <path fill="#7C7C7D" d="M20.977 1.242S9.615 6.318 9.615 13.142c0 0-.052 3.691 3.839 7.779h6.692s6.174-3.45 5.707-7.45c0 0-.052-1.944-2.75-4.318-3.122-2.747-3.89-6.395-2.126-7.91Z"/>
  <path fill="#ED7D22" d="M20.561 1.242S9.407 6.45 9.407 13.274c0 0-.052 3.691 3.839 7.779h7.315s5.344-3.45 4.877-7.45c0 0-.052-1.945-2.75-4.318-3.123-2.747-3.89-6.527-2.127-8.043Z"/>
  <path fill="#FBE517" d="M14.06 21.097s-2.733-3.077-2.733-6.043c0-2.967 1.59-5.648 5.119-8.043 0 0 5.845 2.703 5.845 7.669 0 3.472-2.733 6.417-2.733 6.417"/>
  <path fill="#0F98B0" d="M16.134 10.636s-3.214 3.12-2.974 6.593c0 0 .16 2.241 1.48 3.89h4.434s1.522-2.132 1.245-4.44c-.276-2.307-1.314-4.307-4.185-6.042Z"/>
</svg>
