<svg width="29" height="38" viewBox="0 0 29 38" fill="none" xmlns="http://www.w3.org/2000/svg">
<path d="M28.6206 0.225635V30.225C28.6206 31.2261 28.1801 31.7937 27.2141 32.0029C23.1499 32.8832 19.0863 33.7604 15.0234 34.6347C10.6788 35.569 6.3336 36.5033 1.98772 37.4376C0.886565 37.6738 0.00864562 36.9781 0.00864562 35.8569C0.00864562 24.3442 0.00664358 12.8322 0.00263938 1.32078C-0.00739433 1.23101 0.0113377 1.14037 0.0561353 1.06193C0.100933 0.983489 0.169482 0.9213 0.2519 0.884327C0.483472 0.73759 0.698892 0.566795 0.894573 0.37479C1.44014 -0.111719 1.94768 -0.120729 2.48624 0.37479C2.88666 0.745178 3.28708 1.07552 3.8787 1.09154C4.12837 1.10699 4.37854 1.07049 4.61339 0.984334C4.84824 0.898182 5.06267 0.764253 5.24313 0.591014C5.34323 0.496916 5.44334 0.403823 5.54344 0.31473C6.03596 -0.106711 6.53748 -0.108715 7.02099 0.331746C7.46045 0.732165 7.89791 1.10455 8.54859 1.09354C9.00195 1.1006 9.44116 0.935715 9.77787 0.63206C9.91702 0.506929 10.0532 0.378793 10.1983 0.260669C10.377 0.0999639 10.6078 0.00956048 10.8481 0.00624649C11.0884 0.0029325 11.3217 0.0869339 11.5047 0.242651C11.6719 0.372788 11.821 0.524947 11.9832 0.662091C12.3004 0.940407 12.7064 1.0966 13.1283 1.10265C13.5503 1.10871 13.9605 0.964228 14.2856 0.695127C14.4518 0.562989 14.6019 0.41183 14.7641 0.275688C14.9452 0.108773 15.1811 0.013718 15.4273 0.00837274C15.6736 0.00302746 15.9133 0.0877559 16.1015 0.246653C16.2096 0.330741 16.3077 0.427848 16.4098 0.520946C17.2687 1.30777 18.2167 1.30777 19.0836 0.520946C19.1487 0.462885 19.2108 0.400817 19.2758 0.342756C19.7834 -0.110719 20.3089 -0.113723 20.8104 0.353766C21.2108 0.724154 21.6113 1.06251 22.1949 1.08954C22.4505 1.10932 22.7075 1.07496 22.949 0.988715C23.1905 0.90247 23.4111 0.766274 23.5963 0.589016C23.6694 0.520945 23.7425 0.453875 23.8176 0.388806C24.3902 -0.12373 24.8727 -0.126733 25.4363 0.388806C25.8277 0.747182 26.2231 1.07152 26.7967 1.08954C27.0458 1.10823 27.2962 1.07489 27.5317 0.991653C27.7673 0.908416 27.983 0.777095 28.1651 0.606032C28.2953 0.497919 28.4284 0.391809 28.6206 0.225635ZM8.63668 8.58939C8.67032 8.54601 8.70677 8.50488 8.74579 8.46626C9.34642 7.94572 9.57867 7.29704 9.39147 6.52123C9.19727 5.72039 8.66471 5.18183 7.87388 5.04368C7.08305 4.90554 6.2722 4.89752 5.46035 4.88351C5.08796 4.8765 4.87374 5.1608 4.87274 5.57023C4.86673 7.85262 4.86673 10.1357 4.87274 12.4194C4.87274 12.8619 5.13501 13.1382 5.56646 13.1362C6.38933 13.1311 7.21419 13.1301 8.03205 13.0611C9.02008 12.977 9.78989 12.2142 10.0121 11.1911C10.1176 10.725 10.0699 10.2372 9.87623 9.8003C9.68256 9.36337 9.35319 9.00052 8.93699 8.76558L8.63668 8.58939ZM14.3276 17.7099H4.25409C4.12996 17.7099 3.96979 17.6679 3.88771 17.729C3.73655 17.8411 3.53334 18.0163 3.53434 18.1634C3.53534 18.3106 3.74456 18.4767 3.89471 18.5939C3.96579 18.6489 4.11194 18.6109 4.22406 18.6109C10.9524 18.6109 17.6801 18.6109 24.4072 18.6109C24.5323 18.6109 24.6925 18.6469 24.7726 18.5849C24.9137 18.4757 25.0939 18.3016 25.0929 18.1564C25.0919 18.0113 24.9087 17.8421 24.7666 17.734C24.6845 17.6729 24.5253 17.7099 24.4002 17.7099H14.3276ZM14.3156 21.4569H4.24308C4.13095 21.4495 4.01838 21.4522 3.90673 21.4649C3.65947 21.5109 3.45525 21.6651 3.52333 21.9184C3.56637 22.0845 3.75257 22.2297 3.90573 22.3438C3.9788 22.3979 4.12295 22.3588 4.23507 22.3588H24.3812C24.4933 22.3662 24.6059 22.3635 24.7175 22.3508C24.9648 22.3048 25.169 22.1506 25.1009 21.8973C25.0579 21.7312 24.8717 21.586 24.7195 21.4719C24.6454 21.4178 24.5013 21.4569 24.3892 21.4569H14.3156ZM14.3156 25.2038H4.24208C4.12996 25.1959 4.01734 25.1986 3.90573 25.2118C3.65847 25.2578 3.45525 25.412 3.52333 25.6653C3.56637 25.8314 3.75257 25.9766 3.90573 26.0897C3.9788 26.1448 4.12395 26.1057 4.23607 26.1057H24.3822C24.5063 26.1057 24.6685 26.1458 24.7476 26.0847C24.8957 25.9686 25.0809 25.7974 25.0909 25.6382C25.0999 25.5051 24.8997 25.3319 24.7546 25.2278C24.6705 25.1668 24.5133 25.2048 24.3882 25.2048L14.3156 25.2038ZM14.3156 28.9507H4.24108C4.12896 28.9507 3.98481 28.9107 3.91073 28.9647C3.75657 29.0758 3.56837 29.219 3.52333 29.3852C3.45325 29.6414 3.65346 29.7946 3.90072 29.8426C4.01231 29.8562 4.12492 29.8592 4.23707 29.8517H24.3832C24.5083 29.8517 24.6695 29.8917 24.7486 29.8296C24.8967 29.7135 25.0819 29.5413 25.0909 29.3832C25.0989 29.25 24.8987 29.0768 24.7536 28.9727C24.6685 28.9127 24.5113 28.9507 24.3872 28.9507H14.3156ZM19.8835 9.17C19.8835 10.2712 19.8835 11.3663 19.8835 12.4645C19.8835 12.7978 19.9665 13.1041 20.3429 13.1161C21.2526 13.1428 22.1628 13.1428 23.0738 13.1161C23.264 13.105 23.4423 13.0197 23.5703 12.8786C23.6983 12.7375 23.7659 12.5517 23.7585 12.3613C23.7435 11.9609 23.4222 11.6606 22.9917 11.6446C22.7044 11.6356 22.4171 11.6446 22.1308 11.6446C21.6093 11.6446 21.4501 11.4784 21.4471 10.9439C21.4471 10.6826 21.4471 10.4203 21.4471 10.158C21.4471 8.65646 21.4471 7.1639 21.4471 5.66633C21.4471 5.16581 21.1268 4.85548 20.6573 4.87951C20.1878 4.90353 19.8985 5.24189 19.8945 5.80748C19.8754 6.92465 19.8815 8.04782 19.8815 9.17H19.8835ZM14.8182 9.13396C14.8182 10.2692 14.8182 11.4033 14.8182 12.5375C14.8182 12.948 14.9573 13.1261 15.3187 13.1311C16.1786 13.1442 17.0395 13.1472 17.8994 13.1311C18.3609 13.1221 18.6692 12.7938 18.6652 12.3794C18.6652 11.9459 18.3398 11.6516 17.8493 11.6416C17.563 11.6356 17.2757 11.6416 16.9894 11.6416C16.541 11.6416 16.3768 11.4854 16.3678 11.041C16.3588 10.5544 16.3678 10.0679 16.3678 9.58143C16.3678 8.29808 16.3678 7.01374 16.3678 5.7294C16.3678 5.22887 16.1175 4.92856 15.7061 4.88051C15.1945 4.81945 14.8312 5.14279 14.8272 5.69536C14.8101 6.84056 14.8161 7.98776 14.8161 9.13396H14.8182ZM11.4636 8.99982C11.4636 10.0719 11.4636 11.1441 11.4636 12.2162C11.4636 12.7538 11.7539 13.0881 12.2164 13.1021C12.6789 13.1161 13.0173 12.7788 13.0223 12.2262C13.0289 10.0699 13.0289 7.91335 13.0223 5.75643C13.0204 5.57039 12.9697 5.38811 12.8751 5.22787C12.6849 4.91654 12.3746 4.82745 12.0272 4.91454C11.6799 5.00163 11.4706 5.31497 11.4686 5.70838C11.4586 6.80553 11.4616 7.90267 11.4616 8.99982H11.4636Z" fill="#1DBBD8"/>
<path d="M6.69359 10.6211V10.3086C6.69359 9.3284 6.7066 9.31528 7.54448 9.4071C8.19916 9.47746 8.59758 9.81732 8.73072 10.4183C8.87888 11.0861 8.60159 11.6645 8.03599 11.7981C7.72895 11.8572 7.41894 11.8919 7.10802 11.9018C6.83073 11.9221 6.68958 11.7611 6.69359 11.4248C6.69659 11.1565 6.69459 10.887 6.69359 10.6211Z" fill="#1DBBD8"/>
<path d="M6.69813 6.37843C6.69662 6.34904 6.69662 6.31958 6.69813 6.29019C6.73317 5.93959 6.55298 5.46498 7.04449 5.37077C7.53601 5.27656 8.03453 5.60927 8.15766 6.10058C8.21687 6.32833 8.20654 6.5737 8.1285 6.79325C8.05045 7.01281 7.90972 7.19239 7.73121 7.30023C7.59575 7.37325 7.45265 7.4242 7.30577 7.45168C6.85229 7.5447 6.70013 7.38251 6.69713 6.82204L6.69813 6.37843Z" fill="#1DBBD8"/>
</svg>
