<svg width="37" height="31" viewBox="0 0 37 31" fill="none" xmlns="http://www.w3.org/2000/svg">
<path d="M29.9021 15.9159C29.6202 15.9159 29.3446 16.0003 29.111 16.1581C28.8773 16.3159 28.6961 16.5399 28.5907 16.8015C28.4853 17.0631 28.4605 17.3502 28.5195 17.626C28.5785 17.9018 28.7186 18.1537 28.9217 18.3493L32.1584 21.5838H21.194C21.0057 21.5797 20.8184 21.6133 20.6433 21.6825C20.4681 21.7517 20.3085 21.8552 20.1739 21.9869C20.0392 22.1187 19.9322 22.276 19.8592 22.4497C19.7862 22.6233 19.7486 22.8098 19.7486 22.9981C19.7486 23.1865 19.7862 23.373 19.8592 23.5466C19.9322 23.7203 20.0392 23.8776 20.1739 24.0094C20.3085 24.1411 20.4681 24.2446 20.6433 24.3138C20.8184 24.383 21.0057 24.4164 21.194 24.4123H32.1694L28.9217 27.6607C28.7865 27.7914 28.6787 27.9478 28.6046 28.1207C28.5305 28.2936 28.4917 28.4796 28.4903 28.6677C28.489 28.8558 28.5252 29.0422 28.5968 29.2162C28.6683 29.3901 28.7739 29.5481 28.9072 29.6807C29.0406 29.8134 29.1991 29.9181 29.3734 29.9888C29.5477 30.0594 29.7343 30.0945 29.9224 30.0922C30.1104 30.0898 30.2961 30.0498 30.4685 29.9747C30.641 29.8997 30.7968 29.7911 30.9267 29.6551L36.5825 24.0062C36.7146 23.8748 36.8194 23.7187 36.8909 23.5466C36.9625 23.3745 36.9993 23.19 36.9993 23.0037C36.9993 22.8173 36.9625 22.6328 36.8909 22.4608C36.8194 22.2887 36.7146 22.1324 36.5825 22.001L30.9267 16.344C30.7936 16.2072 30.6343 16.0987 30.4582 16.0251C30.2821 15.9516 30.093 15.9144 29.9021 15.9159Z" fill="#9AE7F5"/>
<path d="M6.07258 0.428804C6.32867 0.165156 6.67733 0.0114935 7.04468 0.000536652C7.32961 -0.00731455 7.61026 0.0711375 7.84983 0.225614C8.0894 0.380091 8.27671 0.603406 8.38719 0.866219C8.49766 1.12903 8.52616 1.41912 8.46893 1.69842C8.4117 1.97771 8.27142 2.23315 8.06648 2.43131L4.8188 5.67974H15.0641C15.4337 5.68786 15.7855 5.8404 16.044 6.10474C16.3025 6.36908 16.4473 6.72412 16.4473 7.0939C16.4473 7.46369 16.3025 7.8189 16.044 8.08323C15.7855 8.34757 15.4337 8.50011 15.0641 8.50823H4.82984L8.06648 11.7456C8.20717 11.8744 8.32035 12.0302 8.39923 12.2039C8.4781 12.3776 8.52104 12.5654 8.52545 12.7561C8.52987 12.9468 8.49567 13.1364 8.42491 13.3136C8.35416 13.4907 8.24831 13.6518 8.11373 13.7869C7.97916 13.9221 7.81863 14.0285 7.64183 14.1C7.46502 14.1716 7.27557 14.2066 7.08489 14.203C6.89421 14.1993 6.70623 14.1571 6.53226 14.079C6.35829 14.0008 6.20193 13.8884 6.07258 13.7482L0.416742 8.09107C0.284663 7.95964 0.179854 7.80335 0.108335 7.63128C0.0368171 7.45921 0 7.2747 0 7.08835C0 6.902 0.0368171 6.71749 0.108335 6.54542C0.179854 6.37335 0.284663 6.21722 0.416742 6.08579L6.07258 0.428804Z" fill="#9AE7F5"/>
<rect x="18.3985" y="2.58142" width="16.1156" height="8.97602" rx="1.25385" fill="#1DBBD8"/>
<rect x="1.25385" y="18.8076" width="16.1156" height="8.97602" rx="1.25385" fill="#1DBBD8"/>
</svg>
