<svg xmlns="http://www.w3.org/2000/svg" width="58" height="16" fill="none" viewBox="0 0 58 16">
  <g clip-path="url(#a)">
    <mask id="b" width="35" height="16" x="0" y="0" maskUnits="userSpaceOnUse" style="mask-type:luminance">
      <path fill="#fff" d="M0 0h34.928v16H0V0Z"/>
    </mask>
    <g mask="url(#b)">
      <path fill="#F5821F" d="M.327 2.724v10.553c.002 1.293.902 2.34 2.015 2.341H32.56c1.112-.002 2.012-1.048 2.014-2.341V2.724C34.573 1.429 33.673.382 32.561.38H2.341C1.23.382.33 1.429.328 2.724ZM2.342 16C1.048 16 0 14.78 0 13.277V2.724C0 1.218 1.048-.001 2.342-.001H32.56c1.293 0 2.341 1.219 2.342 2.725v10.553c0 1.503-1.049 2.722-2.342 2.723H2.341Z"/>
    </g>
    <path fill="#F5821F" d="M10.576 6.787c.06-.455.138-.866.236-1.231.097-.366.257-.753.481-1.16.224-.409.497-.735.818-.976.32-.243.706-.363 1.156-.363.168 0 .371.022.608.064a3.24 3.24 0 0 0-.037.417c-.01.19-.014.328-.014.415v.276l-.013.583-.165.067a6.408 6.408 0 0 0-.576-.27 1.516 1.516 0 0 0-.539-.104 3.71 3.71 0 0 0-.426.019.379.379 0 0 0-.228.106 4.065 4.065 0 0 0-.14.152.251.251 0 0 0-.057.171c0 .124.034.29.1.502.067.21.219.625.46 1.241v.091l.043.672v3.699l.056 1.853h-1.865a7.39 7.39 0 0 0 .045-.675c.006-.278.01-.535.01-.771l.043-2.816V7.46l.004-.672Z"/>
    <path fill="#F5821F" d="M17.836 6.468s-4.494-3.206-10.005 3.646l.029 1.605S12.134 4 17.836 6.47Z"/>
    <path fill="#F5821F" d="m14.433 8.952.279 1.013c.222.672.5 1.249.83 1.729.334.48.738.638 1.217.466.318-.113.515-.317.593-.608.08-.29.104-.591.075-.903a7.761 7.761 0 0 0-.184-1.07 12.79 12.79 0 0 0-.253-.94 4.557 4.557 0 0 0-.133-.349L16.731 8a2.755 2.755 0 0 0-.663-1.088c-.303-.304-.645-.392-1.025-.256-.386.138-.614.435-.68.887-.066.452-.044.923.07 1.41Zm-1.58 1.722c-.164-.5-.25-.974-.255-1.431a3.25 3.25 0 0 1 .25-1.306c.175-.414.443-.784.803-1.115.363-.329.74-.564 1.135-.704a4.1 4.1 0 0 1 1.343-.238c.466-.007.88.09 1.236.289.357.2.673.476.947.833.272.357.478.75.62 1.18.338 1.02.334 1.95-.01 2.784-.344.836-1 1.426-1.964 1.77-.933.335-1.77.317-2.513-.052-.742-.371-1.272-1.039-1.593-2.01Zm6.481-4.593.988-.08.867.126-.04 1.006c.275-.37.581-.662.918-.874a2.035 2.035 0 0 1 1.105-.321c.648 0 1.137.19 1.469.569.334.378.522.714.567 1.006.043.29.066.698.066 1.226v3.991h-1.965l.06-.72.075-1.602V9.372c0-.702-.055-1.247-.166-1.644-.113-.398-.423-.595-.934-.595-.536 0-.864.225-.985.678-.12.45-.181 1.054-.181 1.81l.076 3.11h-1.92c0-.122.005-.24.011-.363l.02-.361v-1.735l.045-1.585V8.14l-.076-1.777v-.282ZM29.52 8.767a.794.794 0 0 1-.014-.164V8.45c0-.445-.068-.88-.204-1.307-.133-.425-.374-.64-.723-.64-.429 0-.726.243-.888.724-.162.48-.24.993-.24 1.54h2.068Zm-2.072.662.054.79c0 .203.065.447.199.727.132.281.283.496.449.646.162.148.34.254.532.317.19.064.408.098.647.098.277 0 .547-.057.812-.169.268-.112.518-.264.748-.46l.16.125-.295.776a3.144 3.144 0 0 1-1.905.624c-.57 0-1.055-.074-1.454-.222a2.64 2.64 0 0 1-1.075-.767 3.03 3.03 0 0 1-.647-1.207 5.73 5.73 0 0 1-.173-1.446c0-.99.273-1.796.82-2.418.549-.625 1.291-.937 2.235-.937.978 0 1.678.315 2.1.944.421.629.633 1.488.633 2.58h-3.84Z"/>
    <path fill="#9BBA3C" d="M7.725 11.709c-.354.409-.664.702-.929.881-.265.177-.617.265-1.06.265a2.51 2.51 0 0 1-1.015-.2 1.629 1.629 0 0 1-.71-.57 1.99 1.99 0 0 1-.322-.804 5.34 5.34 0 0 1-.075-.908V6.08L4.678 6h.901a24.827 24.827 0 0 0-.108 1.834 79.007 79.007 0 0 0-.028 1.97c0 .301.007.535.022.699.011.164.053.322.126.472.088.237.21.416.366.541a.88.88 0 0 0 .58.193c.525 0 .847-.236.972-.709.123-.474.186-1.07.186-1.791L7.62 6.08 8.572 6h.951c0 .182-.01.488-.03.923-.02.434-.031.666-.031.696v2.973l.061 1.854v.284h-1.83l.032-1.021Z"/>
  </g>
  <defs>
    <clipPath id="a">
      <path fill="#fff" d="M0 0h58v16H0z"/>
    </clipPath>
  </defs>
</svg>
