<svg width="75" height="72" viewBox="0 0 75 72" fill="none" xmlns="http://www.w3.org/2000/svg">
<ellipse cx="37.5" cy="36" rx="37.5" ry="36" fill="#F4F5F9"/>
<g clip-path="url(#clip0_106_148)">
<path d="M48.6667 19.3333H25.3333C23.4833 19.3333 22 20.8333 22 22.6667V46C22 47.8333 23.5 49.3333 25.3333 49.3333H32L35.8167 53.15C36.4667 53.8 37.5167 53.8 38.1667 53.15L42 49.3333H48.6667C50.5 49.3333 52 47.8333 52 46V22.6667C52 20.8333 50.5 19.3333 48.6667 19.3333ZM37 24.8333C39.4833 24.8333 41.5 26.85 41.5 29.3333C41.5 31.8167 39.4833 33.8333 37 33.8333C34.5167 33.8333 32.5 31.8167 32.5 29.3333C32.5 26.85 34.5167 24.8333 37 24.8333ZM47 42.6667H27V41.1667C27 37.8333 33.6667 36 37 36C40.3333 36 47 37.8333 47 41.1667V42.6667Z" fill="#1EBBD7"/>
</g>
<defs>
<clipPath id="clip0_106_148">
<rect width="40" height="40" fill="white" transform="translate(17 16)"/>
</clipPath>
</defs>
</svg>
