<svg width="48" height="48" viewBox="0 0 48 48" fill="none" xmlns="http://www.w3.org/2000/svg">
<path d="M45.2844 3.01593C43.6517 1.15649 41.2253 0 38.5495 0C36.0098 0 33.6968 1.0431 32.0415 2.74382C31.0891 3.7189 30.3634 4.89806 29.9326 6.21328C29.6378 7.12032 29.4791 8.07272 29.4791 9.07048C29.4791 10.7712 29.9553 12.3812 30.7943 13.7418C31.2478 14.5128 31.8374 15.2157 32.5177 15.8053C34.105 17.2566 36.2139 18.141 38.5495 18.141C39.5473 18.141 40.4997 17.9822 41.3841 17.6648C43.4703 17.0071 45.2163 15.5785 46.3048 13.7418C46.781 12.9708 47.1438 12.0864 47.3479 11.1794C47.5293 10.4991 47.62 9.79611 47.62 9.07048C47.62 6.7575 46.7356 4.62594 45.2844 3.01593ZM41.9283 10.7258H40.2503V12.4946C40.2503 13.4243 39.4793 14.1953 38.5495 14.1953C37.6198 14.1953 36.8488 13.4243 36.8488 12.4946V10.7258H35.1708C34.2411 10.7258 33.4701 9.95485 33.4701 9.02512C33.4701 8.0954 34.2411 7.32441 35.1708 7.32441H36.8488V5.7144C36.8488 4.78468 37.6198 4.01369 38.5495 4.01369C39.4793 4.01369 40.2503 4.78468 40.2503 5.7144V7.32441H41.9283C42.858 7.32441 43.629 8.0954 43.629 9.02512C43.629 9.95485 42.8807 10.7258 41.9283 10.7258Z" fill="white"/>
<path d="M45.3524 24.9438C45.3524 21.9732 44.7855 19.116 43.7197 16.5083C43.0167 17.0072 42.2231 17.3927 41.384 17.6648C41.1346 17.7555 40.8852 17.8235 40.6131 17.8915C41.4748 20.0685 41.951 22.4494 41.951 24.9438C41.951 30.2047 39.8194 34.9894 36.3726 38.4815C35.715 37.6425 34.876 36.8715 33.8782 36.2139C27.733 32.0868 17.6648 32.0868 11.4742 36.2139C10.4764 36.8715 9.66006 37.6425 8.97977 38.4815C5.53299 34.9894 3.40143 30.2047 3.40143 24.9438C3.40143 14.3087 12.0411 5.66907 22.6762 5.66907C25.1479 5.66907 27.5289 6.14527 29.7058 7.00696C29.7738 6.73485 29.8419 6.48541 29.9326 6.2133C30.2047 5.37428 30.5902 4.60329 31.1117 3.90033C28.504 2.83454 25.6468 2.26764 22.6762 2.26764C10.1816 2.26764 0 12.4492 0 24.9438C0 31.5199 2.83452 37.4384 7.32441 41.5882C7.32441 41.6108 7.32441 41.6108 7.30173 41.6335C7.52849 41.8603 7.80061 42.0417 8.02737 42.2458C8.16343 42.3591 8.27681 42.4725 8.41287 42.5632C8.82104 42.9034 9.27456 43.2208 9.70541 43.5383C9.86414 43.6517 10.0002 43.7424 10.1589 43.8558C10.5898 44.1506 11.0433 44.4227 11.5195 44.6721C11.6782 44.7628 11.8596 44.8762 12.0184 44.9669C12.4719 45.2163 12.9481 45.4431 13.447 45.6472C13.6284 45.7379 13.8098 45.8286 13.9912 45.8966C14.4901 46.1007 14.989 46.2821 15.4878 46.4409C15.6692 46.5089 15.8507 46.5769 16.0321 46.6223C16.5763 46.781 17.1205 46.9171 17.6648 47.0531C17.8235 47.0985 17.9822 47.1438 18.1636 47.1665C18.7986 47.3026 19.4335 47.3933 20.0911 47.4613C20.1818 47.4613 20.2725 47.484 20.3632 47.5066C21.1342 47.5747 21.9052 47.62 22.6762 47.62C23.4472 47.62 24.2182 47.5747 24.9665 47.5066C25.0572 47.5066 25.1479 47.484 25.2386 47.4613C25.8962 47.3933 26.5311 47.3026 27.1661 47.1665C27.3248 47.1438 27.4835 47.0758 27.665 47.0531C28.2092 46.9171 28.7761 46.8037 29.2976 46.6223C29.479 46.5542 29.6605 46.4862 29.8419 46.4409C30.3407 46.2594 30.8623 46.1007 31.3385 45.8966C31.5199 45.8286 31.7013 45.7379 31.8827 45.6472C32.3589 45.4431 32.8351 45.2163 33.3113 44.9669C33.4927 44.8762 33.6515 44.7628 33.8102 44.6721C34.2637 44.4 34.7173 44.1506 35.1708 43.8558C35.3295 43.7651 35.4656 43.6517 35.6243 43.5383C36.0778 43.2208 36.5087 42.9034 36.9168 42.5632C37.0529 42.4499 37.1663 42.3365 37.3023 42.2458C37.5518 42.0417 37.8012 41.8376 38.028 41.6335C38.028 41.6108 38.028 41.6108 38.0053 41.5882C42.5179 37.4384 45.3524 31.5199 45.3524 24.9438Z" fill="white"/>
<path d="M22.6762 13.4463C17.9822 13.4463 14.1726 17.2559 14.1726 21.9499C14.1726 26.5532 17.7781 30.2947 22.5628 30.4308H22.7669H22.9256H22.971C27.5516 30.272 31.1571 26.5532 31.1798 21.9499C31.1798 17.2559 27.3702 13.4463 22.6762 13.4463Z" fill="white"/>
</svg>
