<svg xmlns="http://www.w3.org/2000/svg" width="64" height="80" fill="none" viewBox="0 0 64 50">
  <path fill="#0F98B0" d="M11 49.5c-2.907 0-5.384-1.023-7.43-3.07C1.522 44.385.5 41.907.5 39V11c0-2.907 1.023-5.384 3.07-7.43C5.615 1.522 8.092.5 11 .5h42c2.907 0 5.384 1.023 7.43 3.07C62.477 5.615 63.5 8.092 63.5 11v28c0 2.907-1.023 5.384-3.07 7.43-2.046 2.047-4.523 3.07-7.43 3.07H11Zm0-36.75h42c1.372 0 2.653.236 3.843.707A9.276 9.276 0 0 1 60 15.529V11c0-1.925-.685-3.572-2.054-4.942C56.576 4.688 54.927 4.002 53 4H11c-1.925 0-3.572.686-4.942 2.058C4.688 7.43 4.002 9.078 4 11v4.529a9.276 9.276 0 0 1 3.157-2.072c1.19-.471 2.471-.707 3.843-.707Zm-6.878 9.555 39.676 9.653a2.89 2.89 0 0 0 1.341.035 2.424 2.424 0 0 0 1.183-.598l13.037-11.026c-.506-1.234-1.334-2.229-2.485-2.985-1.145-.756-2.437-1.134-3.874-1.134H11c-1.785 0-3.325.573-4.62 1.718-1.295 1.148-2.048 2.595-2.258 4.34"/>
</svg>
