<svg xmlns="http://www.w3.org/2000/svg" width="60" height="43" fill="none" viewBox="0 0 60 43">
  <g clip-path="url(#a)">
    <path fill="url(#b)" d="M27.554 16.04c1.273-.123 3.575 3.377 3.575 3.377l4.725 7.204-6.058-17.009-2.242 6.427Z"/>
    <path fill="url(#c)" d="m23.798 26.621 5.244-7.9c.814-1.337 1.65.071 1.65.071-.418-1.198-2.955-3.277-2.955-3.277L23.798 26.62Z"/>
    <path fill="url(#d)" d="M21.018 19.962c0 .137.243 2.183 5.033 3.265.19.042 3.247.788 7.577 0a589.17 589.17 0 0 0 2.442-.481v-.977l1.87-.538.055.955 1.036-.3v-1.01l-.996.328-.027-.93-.942.234.013-1.01s-.336.164-.915.273l.013.9-.964.255v.89l-.944.195v-.88l.924-.224.012-.894s-6.257 1.355-9.272.59c-.323-.081-1.044-.184-1.738-.668-.736-.515-1.204-1.173.04-1.818.54-.28 1.369-.563 2.866-.808l.118-.333s-6.2.394-6.2 2.986ZM38.85 18.96v1.003l1.078-.314v-1.002l-1.078.313Z"/>
    <mask id="e" width="60" height="43" x="0" y="0" maskUnits="userSpaceOnUse" style="mask-type:luminance">
      <path fill="#fff" d="M0 0h60v43H0V0Z"/>
    </mask>
    <g mask="url(#e)">
      <path fill="#231F20" d="M20.073 29.01h.48s.388.042.489.408c.018.068.833 2.52.833 2.52l1.02-2.928h.636l1.025 2.928.848-2.58s.197-.348.484-.348h.465l-1.434 4.243h-.328s-.288 0-.48-.425c-.058-.129-.898-2.543-.898-2.543l-.869 2.487s-.151.48-.52.48h-.303l-1.448-4.242Zm8.377 2.087c-.808 0-.99.484-.99.69 0 .75.586.907.916.907.895 0 1.07-.56 1.07-.56v-.518c-.189-.485-.875-.519-.996-.519Zm-.002-2.194c1.799-.03 1.799 1.341 1.799 1.341v3.01l-.784-.247c-1.552.99-2.93-.143-2.822-1.212.007-.07-.006-.568.494-.988.143-.12.354-.292.843-.363a2.21 2.21 0 0 1 1.485.317v-.502c-.127-.7-1.005-.675-1.313-.603-.308.071-.59.292-.631.327-.257.22-.5 0-.5 0l-.242-.245c.606-.783 1.477-.831 1.67-.834Zm2.755.107h.404s.35.067.383.415c0 0 1.118-.962 1.387-.208v.55s-.821-.273-1.387.525v2.968h-.383s-.404-.027-.404-.485V29.01Zm3.695 0h-.316s-.344-.028-.458.36v3.89h.387s.34-.034.387-.403V29.01Zm3.097.661c-.798-.194-1.195.261-1.283.369-.545.665-.34 1.625-.202 1.893.505.972 1.491.656 1.656.593.616-.235.616-.573.616-.573v-1.668c-.1-.307-.542-.554-.787-.614Zm.774-2.163h.41s.35.068.404.43v5.322l-.814-.266s-1.219.955-2.582-.14c-.478-.385-.807-1.29-.535-2.467.144-.621.697-1.565 2.01-1.458.194.016.666.005 1.11.456l-.003-1.877Z"/>
    </g>
  </g>
  <defs>
    <linearGradient id="b" x1="27.454" x2="38.23" y1="16.135" y2="20.005" gradientUnits="userSpaceOnUse">
      <stop stop-color="#191D40"/>
      <stop offset=".036" stop-color="#191D40"/>
      <stop offset=".097" stop-color="#3F9DC8"/>
      <stop offset=".14" stop-color="#293076"/>
      <stop offset=".164" stop-color="#293076"/>
      <stop offset=".661" stop-color="#252C69"/>
      <stop offset=".879" stop-color="#191D3F"/>
      <stop offset="1" stop-color="#191D3F"/>
    </linearGradient>
    <linearGradient id="c" x1="22.258" x2="29.494" y1="25.264" y2="17.052" gradientUnits="userSpaceOnUse">
      <stop stop-color="#419ECC"/>
      <stop offset=".267" stop-color="#419ECC"/>
      <stop offset=".527" stop-color="#1F2954"/>
      <stop offset=".587" stop-color="#151828"/>
      <stop offset=".618" stop-color="#151828"/>
      <stop offset="1" stop-color="#151828"/>
    </linearGradient>
    <linearGradient id="d" x1="21.018" x2="39.927" y1="20.281" y2="20.281" gradientUnits="userSpaceOnUse">
      <stop stop-color="#ED1C24"/>
      <stop offset=".667" stop-color="#EA1C24"/>
      <stop offset="1" stop-color="#A41C21"/>
    </linearGradient>
    <clipPath id="a">
      <path fill="#fff" d="M0 0h60v43H0z"/>
    </clipPath>
  </defs>
</svg>
