<svg xmlns="http://www.w3.org/2000/svg" width="24" height="28" fill="none" viewBox="0 0 24 28">
  <path fill="#fff" d="M17.988 27.75A1.615 1.615 0 0 1 17 26.5c-.063-.325 0-.55.5-1.45A22.173 22.173 0 0 0 20.288 14a21.61 21.61 0 0 0-2.663-10.7c-.262-.55-.5-1.075-.7-1.638.075-.475.313-.912.7-1.175.563-.3 1.25-.237 1.762.113.35.45.65.9.9 1.425A26.746 26.746 0 0 1 23 10.25c.288 2.262.325 4.563.113 6.837a26.352 26.352 0 0 1-2.575 8.388c-.8 1.6-1.25 2.275-1.726 2.275h-.825Zm-5.45-2.762a1.427 1.427 0 0 1-1.013-1.65c0-.15.387-.838.737-1.538a16.741 16.741 0 0 0 1.825-9.225 16.366 16.366 0 0 0-1.925-6.525c-.787-1.575-.837-1.825-.375-2.5.55-.613 1.463-.7 2.138-.175a18.172 18.172 0 0 1 2.137 4.3c1.6 4.737 1.35 9.9-.7 14.45-1.05 2.363-1.787 3.125-2.825 2.8v.063ZM6.912 22.2A1.638 1.638 0 0 1 6 21.125c0-.25 0-.575.563-1.575a11.232 11.232 0 0 0 0-10.85c-.813-1.575-.813-1.9-.15-2.5.237-.275.587-.413.962-.363.8 0 1.25.388 1.925 1.8A13.136 13.136 0 0 1 10.9 14c.05 2.262-.5 4.512-1.587 6.5-.675 1.313-1.013 1.625-1.688 1.738-.237.024-.487 0-.712-.113v.075ZM1.65 19.538a1.767 1.767 0 0 1-.9-.976c-.125-.437 0-.812.5-1.612.625-.85.925-1.9.863-2.95a4.545 4.545 0 0 0-.813-2.988 7.636 7.636 0 0 1-.55-.987C.613 9.237 1.138 8.487 2 8.337c.675-.125 1.15.163 1.775 1.113a8.274 8.274 0 0 1 0 9.088c-.637.962-1.362 1.25-2.112 1H1.65Z"/>
</svg>
