<svg version="1.2" xmlns="http://www.w3.org/2000/svg" viewBox="0 0 1339 1340" width="30px" height="30px">
	<title>WorldRemit_logo-svg</title>
	<style>
		 
	
	</style>
	<path id="Layer" fill-rule="evenodd" class="s0" d="m744.1 0.5q3.9 0 7.7 0.5 3.9 0.5 7.7 1.5 3.7 1 7.3 2.5 3.7 1.4 7.1 3.4l408.5 231.1q5.2 2.9 9.7 6.8 4.5 3.9 8.2 8.6 3.7 4.7 6.3 10 2.7 5.4 4.3 11.1l125.4 452.3q1.6 5.8 2.1 11.7 0.4 5.9-0.3 11.8-0.7 6-2.6 11.6-1.9 5.7-4.8 10.9l-231.2 408.5q-3 5.2-6.9 9.7-3.9 4.5-8.5 8.2-4.7 3.7-10.1 6.4-5.3 2.6-11 4.2l-452.4 125.6q-5.8 1.6-11.7 2-6 0.4-11.9-0.3-5.9-0.7-11.5-2.6-5.7-1.8-10.9-4.8l-408.6-231.1q-5.2-3-9.6-6.9-4.5-3.9-8.1-8.6-3.6-4.7-6.2-10-2.7-5.3-4.3-11l-125.5-452.3q-1.6-5.8-2-11.7-0.5-6 0.2-11.9 0.8-5.9 2.6-11.6 1.9-5.7 4.8-10.8l231-408.4q2.9-5.2 6.8-9.7 3.9-4.6 8.6-8.3 4.7-3.7 10-6.4 5.4-2.7 11.1-4.3l452.3-125.5q2-0.6 4-1 2-0.4 4-0.6 2-0.3 4.1-0.5 2-0.1 4.1-0.1zm-0.2 45.4q-0.5 0-1.1 0-0.5 0-1 0.1-0.5 0.1-1 0.2-0.5 0.1-1 0.2l-452.4 125.5q-1.4 0.4-2.8 1.1-1.3 0.7-2.5 1.6-1.1 0.9-2.1 2.1-1 1.1-1.7 2.4l-231.1 408.5q-0.7 1.3-1.2 2.7-0.5 1.5-0.7 2.9-0.1 1.5 0 3 0.1 1.5 0.5 2.9l125.6 452.3q0.3 1.5 1 2.8 0.7 1.3 1.6 2.5 0.9 1.2 2 2.2 1.1 0.9 2.4 1.7l408.7 231.5q0.8 0.5 1.7 0.8 0.9 0.4 1.9 0.6 0.9 0.3 1.9 0.4 1 0.1 1.9 0.1 0.6 0 1.1 0 0.5-0.1 1-0.1 0.5-0.1 1-0.2 0.5-0.1 1-0.3l452.4-125.4q1.4-0.4 2.8-1.1 1.3-0.7 2.5-1.6 1.1-0.9 2.1-2.1 0.9-1.1 1.7-2.4l231.2-408.7q0.8-1.3 1.2-2.7 0.5-1.4 0.7-2.9 0.2-1.4 0.1-2.9-0.2-1.5-0.6-2.9l-125.5-452.4q-0.4-1.4-1.1-2.7-0.7-1.4-1.6-2.5-0.9-1.2-2-2.2-1.2-1-2.5-1.7l-408.5-231.4q-0.9-0.5-1.8-0.8-0.9-0.4-1.9-0.6-0.9-0.3-1.9-0.4-0.9-0.1-1.9-0.1z"/>
	<path id="Layer" class="s1" d="m587.2 445.5h-3.9l-65 190.9-7.9 23.2q-1 2.7-1.5 5.6-0.4 2.8-0.4 5.7 0 2.9 0.4 5.7 0.5 2.8 1.5 5.6l63.4 186q1.3 3.6 3.2 6.9 2 3.3 4.7 6 2.6 2.8 5.8 4.9 3.2 2.2 6.7 3.6l12.2 4.5 65.4-191.7 8.9-26.1q1-2.7 1.4-5.5 0.5-2.9 0.5-5.7 0-2.9-0.5-5.7-0.4-2.8-1.4-5.5l-63.3-185c-1.1-3.2-2.6-6.2-4.6-9-2-2.7-4.3-5.2-7-7.2-2.7-2.1-5.6-3.8-8.8-5-3.1-1.2-6.4-2-9.8-2.2z"/>
	<path id="Layer" class="s1" d="m1035.8 432.9h-137c-1.9 0-3.8 0.3-5.6 0.9-1.9 0.5-3.6 1.4-5.1 2.5-1.6 1.1-2.9 2.5-4.1 4-1.1 1.6-2 3.3-2.6 5.1l-63.6 186.6-5.2 15.4q-1.4 4.2-2.2 8.5-0.7 4.4-0.7 8.8 0 4.4 0.7 8.7 0.8 4.4 2.2 8.5l68.7 201.4c0.6 1.7 1.4 3.3 2.6 4.8 1.1 1.5 2.4 2.7 4 3.8 1.5 1 3.2 1.8 5 2.3 1.7 0.4 3.6 0.6 5.4 0.5l6.1-0.6 149-436.8c0.9-2.8 1.1-5.8 0.7-8.7-0.5-2.9-1.6-5.6-3.3-8-1.7-2.4-4-4.3-6.6-5.7-2.6-1.3-5.5-2-8.4-2z"/>
	<path id="Layer" class="s0" d="m588.8 906.7h-136.8c-1.9 0-3.8-0.3-5.6-0.9-1.8-0.6-3.5-1.4-5.1-2.5-1.5-1.2-2.9-2.5-4.1-4-1.1-1.6-2-3.3-2.6-5.1l-149.1-437c-0.9-2.8-1.2-5.7-0.7-8.6 0.4-2.9 1.5-5.6 3.2-8 1.7-2.4 3.9-4.3 6.5-5.7 2.6-1.3 5.5-2 8.4-2h137c2 0 3.9 0.3 5.7 0.9 1.8 0.5 3.5 1.4 5.1 2.5 1.5 1.1 2.9 2.5 4 4 1.2 1.6 2.1 3.3 2.7 5.1l149.1 437c1 2.8 1.2 5.7 0.8 8.7-0.5 2.9-1.6 5.6-3.3 8-1.8 2.4-4.1 4.3-6.7 5.7-2.6 1.3-5.5 1.9-8.5 1.9z"/>
	<path id="Layer" class="s0" d="m886.7 906.7h-137c-1.9 0-3.8-0.3-5.6-0.9-1.8-0.6-3.5-1.4-5.1-2.5-1.5-1.2-2.9-2.5-4-4-1.2-1.6-2.1-3.3-2.7-5.1l-149-437c-1-2.8-1.2-5.7-0.8-8.6 0.4-2.9 1.5-5.6 3.2-8 1.7-2.4 4-4.3 6.6-5.7 2.6-1.3 5.4-2 8.4-2h137.2c1.9 0 3.8 0.3 5.6 0.9 1.8 0.6 3.5 1.4 5.1 2.5 1.5 1.2 2.9 2.5 4 4 1.1 1.6 2 3.3 2.6 5.1l149.1 437c0.9 2.8 1.2 5.7 0.7 8.6-0.4 2.9-1.6 5.6-3.3 8-1.7 2.4-3.9 4.3-6.5 5.7-2.6 1.3-5.5 2-8.5 2z"/>
</svg>