<svg xmlns="http://www.w3.org/2000/svg" width="36" height="11" fill="none" viewBox="0 0 36 11">
  <path fill="#0F4DED" fill-rule="evenodd" d="M0 9.474 5.29 2.18H.309V.562h7.518v.9h.002l-.002.002v.008l-.007.002-5.161 7.327h5.445v1.565H0v-.892ZM17.867.562h4.892c1.774.002 3.413.927 3.4 3.424v6.334h-1.812V4.223c.078-1.41-.77-1.865-1.794-1.853h-2.787v7.95h-1.9V.563ZM32.863.389c1.163 0 2.243.33 3.137.89l-.72 1.383a3.984 3.984 0 0 0-2.267-.696c-2.08 0-3.778 1.555-3.778 3.461s1.697 3.46 3.778 3.46c.406 0 .796-.058 1.162-.167V5.69H36v4.003l-.014.008a5.89 5.89 0 0 1-3.123.883c-3.065 0-5.565-2.29-5.565-5.098 0-2.807 2.5-5.097 5.565-5.097Z" clip-rule="evenodd"/>
  <path fill="#E11F26" fill-rule="evenodd" d="M12.648.097c2.307 0 4.19 1.91 4.19 4.251 0 2.342-1.883 4.252-4.19 4.252-2.308 0-4.19-1.91-4.19-4.252 0-2.342 1.882-4.251 4.19-4.251Zm0 1.933c1.258 0 2.284 1.042 2.284 2.318s-1.026 2.318-2.284 2.318c-1.259 0-2.285-1.042-2.285-2.318S11.39 2.03 12.648 2.03Z" clip-rule="evenodd"/>
</svg>
